<svg xmlns="http://www.w3.org/2000/svg" width="190.333" height="108.126" viewBox="0 0 190.333 108.126">
  <g id="Grupo_156580" data-name="Grupo 156580" transform="translate(-179.667 -939.874)">
    <g id="Grupo_128133" data-name="Grupo 128133" transform="translate(0 557)">
      <rect id="Rectángulo_33803" data-name="Rectángulo 33803" width="190" height="100" transform="translate(180 391)" fill="none"/>
      <path id="Trazado_113613" data-name="Trazado 113613" d="M-22,0H107a40,40,0,0,1,0,80H-22Z" transform="translate(201.667 401)" fill="rgba(121,210,220,0.2)"/>
      <g id="distribucion" transform="translate(199.667 381.874)">
        <g id="Grupo_159868" data-name="Grupo 159868" transform="translate(2.744 2.744)">
          <g id="Grupo_159852" data-name="Grupo 159852" transform="translate(17.731 0.486)">
            <circle id="Elipse_6549" data-name="Elipse 6549" cx="34.69" cy="34.69" r="34.69" transform="translate(0)" fill="#69d6f4"/>
          </g>
          <g id="Grupo_159853" data-name="Grupo 159853" transform="translate(13.952 80.222)">
            <path id="Trazado_225639" data-name="Trazado 225639" d="M37.9,63.7a8.72,8.72,0,0,0-17.44,0,8.218,8.218,0,0,0,.174,1.744H10V48H62.319V65.44H37.729A8.218,8.218,0,0,0,37.9,63.7Z" transform="translate(-10 -48)" fill="#ffeaa7"/>
          </g>
          <g id="Grupo_159854" data-name="Grupo 159854" transform="translate(66.27 55.807)">
            <path id="Trazado_225640" data-name="Trazado 225640" d="M73.135,75.855H64.241a8.217,8.217,0,0,0,.174-1.744,8.72,8.72,0,1,0-17.44,0,8.055,8.055,0,0,0,.174,1.727l-.174.017H40V44.464A10.472,10.472,0,0,1,50.464,34H64.415a13.9,13.9,0,0,1,12.068,6.976H50.464a3.5,3.5,0,0,0-3.488,3.488V54.928H78.367v15.7A5.225,5.225,0,0,1,73.135,75.855Z" transform="translate(-40 -34)" fill="#fcd770"/>
          </g>
          <g id="Grupo_159855" data-name="Grupo 159855" transform="translate(73.246 87.198)">
            <path id="Trazado_225641" data-name="Trazado 225641" d="M61.44,60.72a8.218,8.218,0,0,1-.174,1.744,8.72,8.72,0,0,1-17.091-.017A8.055,8.055,0,0,1,44,60.72a8.72,8.72,0,1,1,17.44,0Z" transform="translate(-44 -52)" fill="#969faa"/>
          </g>
          <g id="Grupo_159856" data-name="Grupo 159856" transform="translate(24.415 87.198)">
            <path id="Trazado_225642" data-name="Trazado 225642" d="M33.44,60.72a8.218,8.218,0,0,1-.174,1.744,8.722,8.722,0,0,1-17.091,0A8.218,8.218,0,0,1,16,60.72a8.72,8.72,0,0,1,17.44,0Z" transform="translate(-16 -52)" fill="#969faa"/>
          </g>
          <g id="Grupo_159857" data-name="Grupo 159857" transform="translate(73.246 62.783)">
            <path id="Trazado_225643" data-name="Trazado 225643" d="M75.391,44.976v6.976H44V41.488A3.5,3.5,0,0,1,47.488,38h26.02A13.692,13.692,0,0,1,75.391,44.976Z" transform="translate(-44 -38)" fill="#4fc1e9"/>
          </g>
          <g id="Grupo_159858" data-name="Grupo 159858" transform="translate(38.367 62.783)">
            <path id="Trazado_225644" data-name="Trazado 225644" d="M41.44,38H27.488A3.5,3.5,0,0,0,24,41.488V51.952a3.5,3.5,0,0,0,3.488,3.488H41.44a3.5,3.5,0,0,0,3.488-3.488V41.488A3.5,3.5,0,0,0,41.44,38Z" transform="translate(-24 -38)" fill="#d3a06c"/>
          </g>
          <g id="Grupo_159859" data-name="Grupo 159859" transform="translate(17.44 62.783)">
            <path id="Trazado_225645" data-name="Trazado 225645" d="M29.44,38H15.488A3.5,3.5,0,0,0,12,41.488V51.952a3.5,3.5,0,0,0,3.488,3.488H29.44a3.5,3.5,0,0,0,3.488-3.488V41.488A3.5,3.5,0,0,0,29.44,38Z" transform="translate(-12 -38)" fill="#d3a06c"/>
          </g>
          <g id="Grupo_159860" data-name="Grupo 159860" transform="translate(27.903 45.343)">
            <path id="Trazado_225646" data-name="Trazado 225646" d="M35.44,28H21.488A3.5,3.5,0,0,0,18,31.488V41.952a3.5,3.5,0,0,0,3.488,3.488H35.44a3.5,3.5,0,0,0,3.488-3.488V31.488A3.5,3.5,0,0,0,35.44,28Z" transform="translate(-18 -28)" fill="#d3a06c"/>
          </g>
          <g id="Grupo_159861" data-name="Grupo 159861" transform="translate(45.343 62.783)">
            <path id="Trazado_225647" data-name="Trazado 225647" d="M28,38h6.976v6.976H28Z" transform="translate(-28 -38)" fill="#b27946"/>
          </g>
          <g id="Grupo_159862" data-name="Grupo 159862" transform="translate(24.415 62.783)">
            <path id="Trazado_225648" data-name="Trazado 225648" d="M16,38h6.976v6.976H16Z" transform="translate(-16 -38)" fill="#b27946"/>
          </g>
          <g id="Grupo_159863" data-name="Grupo 159863" transform="translate(34.879 45.343)">
            <path id="Trazado_225649" data-name="Trazado 225649" d="M22,28h6.976v6.976H22Z" transform="translate(-22 -28)" fill="#b27946"/>
          </g>
          <g id="Grupo_159864" data-name="Grupo 159864" transform="translate(73.246 0)">
            <path id="Trazado_225650" data-name="Trazado 225650" d="M75.391,17.7v.488a15.8,15.8,0,0,1-2.633,8.7L62.4,42.408a3.236,3.236,0,0,1-2.7,1.447,3.163,3.163,0,0,1-2.3-.977,2.6,2.6,0,0,1-.4-.471L46.633,26.886A15.8,15.8,0,0,1,44,18.184V17.7a15.607,15.607,0,0,1,1.779-7.255A15.378,15.378,0,0,1,48.6,6.6,15.686,15.686,0,0,1,75.391,17.7Z" transform="translate(-44 -2)" fill="#ff826e"/>
          </g>
          <g id="Grupo_159865" data-name="Grupo 159865" transform="translate(0 0)">
            <path id="Trazado_225651" data-name="Trazado 225651" d="M33.391,17.7v.488a15.8,15.8,0,0,1-2.633,8.7L20.4,42.408a2.6,2.6,0,0,1-.4.471,3.163,3.163,0,0,1-2.3.977,3.236,3.236,0,0,1-2.7-1.447L4.633,26.886A15.8,15.8,0,0,1,2,18.184V17.7a15.7,15.7,0,0,1,31.391,0Z" transform="translate(-2 -2)" fill="#ff826e"/>
          </g>
          <g id="Grupo_159866" data-name="Grupo 159866" transform="translate(79.809 6.571)">
            <circle id="Elipse_6550" data-name="Elipse 6550" cx="9.129" cy="9.129" r="9.129" transform="translate(0 0)" fill="#ffeaa7"/>
          </g>
          <g id="Grupo_159867" data-name="Grupo 159867" transform="translate(6.776 6.571)">
            <ellipse id="Elipse_6551" data-name="Elipse 6551" cx="8.52" cy="9.129" rx="8.52" ry="9.129" transform="translate(0 0)" fill="#ffeaa7"/>
          </g>
        </g>
        <g id="Grupo_159869" data-name="Grupo 159869" transform="translate(1 1)">
          <path id="Trazado_225652" data-name="Trazado 225652" d="M57.464,25.928A10.464,10.464,0,1,0,47,15.464,10.474,10.474,0,0,0,57.464,25.928Zm0-17.44a6.976,6.976,0,1,1-6.976,6.976A6.983,6.983,0,0,1,57.464,8.488Z" transform="translate(33.222 1.976)"/>
          <path id="Trazado_225653" data-name="Trazado 225653" d="M25.928,15.464A10.464,10.464,0,1,0,15.464,25.928,10.474,10.474,0,0,0,25.928,15.464ZM15.464,22.44a6.976,6.976,0,1,1,6.976-6.976A6.983,6.983,0,0,1,15.464,22.44Z" transform="translate(1.976 1.976)"/>
          <path id="Trazado_225654" data-name="Trazado 225654" d="M91.686,46.343a5,5,0,0,0,4.163-2.227L106.2,28.595a17.38,17.38,0,0,0,2.93-9.674V18.44A17.431,17.431,0,0,0,77.3,8.6a36.346,36.346,0,0,0-44.48,0A17.431,17.431,0,0,0,1,18.44v.48a17.389,17.389,0,0,0,2.93,9.674L14.279,44.114a4.991,4.991,0,0,0,4.161,2.229,4.923,4.923,0,0,0,1.066-.133,36.37,36.37,0,0,0,9.6,17.2c.035.126.073.251.117.373H23.671a5.238,5.238,0,0,0-5.232,5.232V79.478a5.173,5.173,0,0,0,.321,1.744H14.952V102.15H26.026a10.447,10.447,0,0,0,19.707,0H74.857a10.447,10.447,0,0,0,19.707,0h7.586a6.983,6.983,0,0,0,6.976-6.976V72.5a15.713,15.713,0,0,0-15.7-15.7H86.21a36.854,36.854,0,0,0,4.419-10.595A4.965,4.965,0,0,0,91.686,46.343Zm0-41.855A13.968,13.968,0,0,1,105.638,18.44v.48a13.919,13.919,0,0,1-2.344,7.74L92.945,42.18a1.57,1.57,0,0,1-2.52,0L80.076,26.659a13.927,13.927,0,0,1-2.342-7.74v-.48A13.968,13.968,0,0,1,91.686,4.488ZM69,35.879a93.274,93.274,0,0,0-1.28-13.952h6.817a17.382,17.382,0,0,0,2.642,6.665l4.855,7.286ZM67.27,81.222H63.462a5.173,5.173,0,0,0,.321-1.744V73.189a36.261,36.261,0,0,0,3.488-1.045ZM42.855,79.478V69.014A1.745,1.745,0,0,1,44.6,67.27h1.744v6.976H56.807V67.27h1.744a1.745,1.745,0,0,1,1.744,1.744V79.478a1.745,1.745,0,0,1-1.744,1.744H44.6A1.745,1.745,0,0,1,42.855,79.478ZM28.9,67.27h3.488v3.488H28.9Zm6.688-45.343h6.817a93.044,93.044,0,0,0-1.28,13.952H28.094l4.857-7.286A17.379,17.379,0,0,0,35.591,21.928Zm-9.824,17.44h15.39q.06,3.547.366,6.976H34.135A5.238,5.238,0,0,0,28.9,51.575V57.9a32.814,32.814,0,0,1-6.285-13.805Zm13.6,10.464h3.488v3.488H39.367ZM34.135,63.783a1.745,1.745,0,0,1-1.744-1.744V51.575a1.745,1.745,0,0,1,1.744-1.744h1.744v6.976H46.343V49.831h1.744a1.745,1.745,0,0,1,1.744,1.744V62.039a1.745,1.745,0,0,1-1.744,1.744H34.135Zm15.7,3.488h3.488v3.488H49.831Zm11.146-2.864a5.164,5.164,0,0,0-2.426-.624H53a5.173,5.173,0,0,0,.321-1.744V56.807H63.474A42.782,42.782,0,0,1,60.977,64.407ZM64.2,53.319H53.319V51.575a5.238,5.238,0,0,0-5.232-5.232H45.021c-.209-2.279-.335-4.609-.377-6.976H65.507A87.979,87.979,0,0,1,64.2,53.319ZM44.63,35.879a87.945,87.945,0,0,1,1.292-13.952H64.206A87.946,87.946,0,0,1,65.5,35.879ZM55.063,4.488c3.078,0,6.374,5.27,8.427,13.952H46.634C48.689,9.758,51.985,4.488,55.063,4.488ZM74.246,18.44H67.033c-1.2-5.406-2.947-10.075-5.2-13.217A33.158,33.158,0,0,1,75.6,11.7,17.32,17.32,0,0,0,74.246,18.44ZM48.293,5.222c-2.253,3.143-4,7.811-5.2,13.217H35.879A17.335,17.335,0,0,0,34.521,11.7,33.133,33.133,0,0,1,48.293,5.222ZM17.179,42.18,6.83,26.659a13.927,13.927,0,0,1-2.342-7.74v-.48a13.952,13.952,0,0,1,27.9,0v.48a13.919,13.919,0,0,1-2.344,7.74L19.7,42.18A1.569,1.569,0,0,1,17.179,42.18Zm4.749,37.3V69.014a1.745,1.745,0,0,1,1.744-1.744h1.744v6.976H35.879V67.27h1.744a1.745,1.745,0,0,1,1.744,1.744V79.478a1.745,1.745,0,0,1-1.744,1.744H23.671A1.745,1.745,0,0,1,21.928,79.478Zm13.952,26.159a6.976,6.976,0,1,1,6.976-6.976A6.983,6.983,0,0,1,35.879,105.638Zm0-17.44A10.474,10.474,0,0,0,25.415,98.662H18.44V84.71H67.27V98.662H46.343A10.474,10.474,0,0,0,35.879,88.2Zm48.831,17.44a6.976,6.976,0,1,1,6.976-6.976A6.983,6.983,0,0,1,84.71,105.638Zm20.928-27.9h-27.9v-8.72a1.745,1.745,0,0,1,1.744-1.744h24.965a12.13,12.13,0,0,1,1.195,5.232Zm-3.682-13.952H79.478a5.238,5.238,0,0,0-5.232,5.232V81.222h31.391V95.174a3.491,3.491,0,0,1-3.488,3.488H95.174a10.464,10.464,0,0,0-20.928,0H70.758V69.014a8.73,8.73,0,0,1,8.72-8.72H93.43A12.161,12.161,0,0,1,101.956,63.783ZM79.478,56.807A12.215,12.215,0,0,0,67.3,68.378a33.311,33.311,0,0,1-3.519,1.175v-.539a5.185,5.185,0,0,0-.319-1.739C66.772,60.854,68.8,50.581,69,39.367H84.358L87.514,44.1a33.245,33.245,0,0,1-5.481,12.706Z" transform="translate(-1 -1)"/>
        </g>
      </g>
    </g>
  </g>
</svg>
