<svg xmlns="http://www.w3.org/2000/svg" width="169" height="99.141" viewBox="0 0 169 99.141">
  <g id="Grupo_161152" data-name="Grupo 161152" transform="translate(-179.667 -7332.618)">
    <path id="Trazado_113613" data-name="Trazado 113613" d="M-22,0H107a40,40,0,0,1,0,80H-22Z" transform="translate(201.667 7351.759)" fill="rgba(121,210,220,0.2)"/>
    <g id="cajero" transform="translate(206.667 7332.618)">
      <path id="Trazado_227629" data-name="Trazado 227629" d="M312,240h16.523v4.957H312Zm0,0" transform="translate(-247.559 -190.43)" fill="#d64d37"/>
      <path id="Trazado_227630" data-name="Trazado 227630" d="M424,56a9.915,9.915,0,0,1,9.914,9.914V90.7A9.915,9.915,0,0,1,424,80.785Zm0,0" transform="translate(-336.426 -44.434)" fill="#fd9a30"/>
      <path id="Trazado_227631" data-name="Trazado 227631" d="M271.656,213.219h-6.609a1.652,1.652,0,0,1-1.652-1.652V200H250.176v11.566a1.652,1.652,0,0,1-1.652,1.652h-6.609A9.915,9.915,0,0,0,232,223.133v34.7h49.57v-34.7A9.915,9.915,0,0,0,271.656,213.219Zm0,0" transform="translate(-184.082 -158.691)" fill="#fec9a3"/>
      <path id="Trazado_227632" data-name="Trazado 227632" d="M333.219,206.7V200H320v6.7A14.741,14.741,0,0,0,333.219,206.7Zm0,0" transform="translate(-253.906 -158.691)" fill="#fab989"/>
      <path id="Trazado_227633" data-name="Trazado 227633" d="M294.871,88.253A14.871,14.871,0,0,1,280,73.382V58.511c4.957-6.609,23.133-8.262,29.742,0V73.382A14.871,14.871,0,0,1,294.871,88.253Zm0,0" transform="translate(-222.168 -41.987)" fill="#fec9a3"/>
      <path id="Trazado_227634" data-name="Trazado 227634" d="M308.957,122.479A2.479,2.479,0,1,1,306.479,120,2.478,2.478,0,0,1,308.957,122.479Zm0,0" transform="translate(-241.211 -95.215)" fill="#8c563b"/>
      <path id="Trazado_227635" data-name="Trazado 227635" d="M380.957,122.479A2.479,2.479,0,1,1,378.479,120,2.478,2.478,0,0,1,380.957,122.479Zm0,0" transform="translate(-298.34 -95.215)" fill="#8c563b"/>
      <path id="Trazado_227636" data-name="Trazado 227636" d="M64,296h6.609v13.219H64Zm0,0" transform="translate(-50.781 -234.863)" fill="#fc3"/>
      <path id="Trazado_227637" data-name="Trazado 227637" d="M8,232H37.742v13.219H8Zm0,0" transform="translate(-6.348 -184.082)" fill="#f05d46"/>
      <g id="Grupo_161151" data-name="Grupo 161151" transform="translate(9.914 1.652)">
        <path id="Trazado_227638" data-name="Trazado 227638" d="M112,256h3.3v3.3H112Zm0,0" transform="translate(-98.781 -204.777)" fill="#d64d37"/>
        <path id="Trazado_227639" data-name="Trazado 227639" d="M80,256h3.3v3.3H80Zm0,0" transform="translate(-73.391 -204.777)" fill="#d64d37"/>
        <path id="Trazado_227640" data-name="Trazado 227640" d="M48,256h3.3v3.3H48Zm0,0" transform="translate(-48 -204.777)" fill="#d64d37"/>
        <path id="Trazado_227641" data-name="Trazado 227641" d="M289.914,8h9.914a9.915,9.915,0,0,1,9.914,9.914v6.609H280V17.914A9.915,9.915,0,0,1,289.914,8Zm0,0" transform="translate(-232.082 -8)" fill="#d64d37"/>
      </g>
      <path id="Trazado_227642" data-name="Trazado 227642" d="M305.1,61.454a25.175,25.175,0,0,0-20.449,0A3.3,3.3,0,0,1,280,58.433V57.2a3.3,3.3,0,0,1,1.7-2.889,27.118,27.118,0,0,1,26.342,0,3.3,3.3,0,0,1,1.7,2.889v1.231a3.3,3.3,0,0,1-4.646,3.021Zm0,0" transform="translate(-222.168 -40.386)" fill="#f05d46"/>
      <path id="Trazado_227643" data-name="Trazado 227643" d="M252.957,104h1.652v9.914h-1.652a4.957,4.957,0,0,1,0-9.914Zm0,0" transform="translate(-196.777 -82.519)" fill="#feb784"/>
      <path id="Trazado_227644" data-name="Trazado 227644" d="M425.652,104H424v9.914h1.652a4.957,4.957,0,0,0,0-9.914Zm0,0" transform="translate(-336.426 -82.519)" fill="#feb784"/>
      <path id="Trazado_227645" data-name="Trazado 227645" d="M332.957,164.957A4.957,4.957,0,0,1,328,160h3.3a1.652,1.652,0,0,0,3.3,0h3.3A4.957,4.957,0,0,1,332.957,164.957Zm0,0" transform="translate(-260.254 -126.953)" fill="#fa996b"/>
      <path id="Trazado_227646" data-name="Trazado 227646" d="M54.266,384.785H8V360H41.047l13.219,14.871Zm0,0" transform="translate(-6.348 -285.644)" fill="#ffb60c"/>
      <path id="Trazado_227647" data-name="Trazado 227647" d="M27.828,384.785H8V360h6.609l13.219,14.871Zm0,0" transform="translate(-6.348 -285.644)" fill="#fc3"/>
      <path id="Trazado_227648" data-name="Trazado 227648" d="M281.57,254.871a9.915,9.915,0,0,0-9.914-9.914h-3.3l-3.3-4.957a10.755,10.755,0,0,1-16.523,0l-3.3,4.957h-3.3A9.915,9.915,0,0,0,232,254.871v8.262h7.918a12.9,12.9,0,0,0,2,13.219V289.57h29.742V276.352a12.9,12.9,0,0,0,2-13.219h7.918Zm0,0" transform="translate(-184.082 -190.43)" fill="#f05d46"/>
      <path id="Trazado_227649" data-name="Trazado 227649" d="M273.512,368h11.566v6.609H273.512Zm0,0" transform="translate(-217.02 -291.992)" fill="#d64d37"/>
      <path id="Trazado_227650" data-name="Trazado 227650" d="M273.512,352h11.566v6.609H273.512Zm0,0" transform="translate(-217.02 -279.297)" fill="#ebebe8"/>
      <path id="Trazado_227651" data-name="Trazado 227651" d="M273.512,368h11.566v3.3H273.512Zm0,0" transform="translate(-217.02 -291.992)" fill="#dedede"/>
      <path id="Trazado_227652" data-name="Trazado 227652" d="M305.415,269.722a16.191,16.191,0,0,1-11.661-4.905,1.665,1.665,0,0,1,.175-2.467,1.626,1.626,0,0,1,2.161.129,13.006,13.006,0,0,0,18.649,0,1.626,1.626,0,0,1,2.161-.129,1.665,1.665,0,0,1,.175,2.467,16.191,16.191,0,0,1-11.661,4.905Zm0,0" transform="translate(-232.712 -207.885)" fill="#e3523b"/>
      <path id="Trazado_227653" data-name="Trazado 227653" d="M308.258,384h23.906V370.785a12.865,12.865,0,0,0,2.479-11.77c-7.728,11.448-18.366,20.607-26.384,24.988Zm0,0" transform="translate(-244.589 -284.863)" fill="#e3523b"/>
      <path id="Trazado_227654" data-name="Trazado 227654" d="M440.625,306.444h6.48v-8.262a9.885,9.885,0,0,0-.683-3.6A58.526,58.526,0,0,1,440.625,306.444Zm0,0" transform="translate(-349.617 -233.741)" fill="#e3523b"/>
      <path id="Trazado_227655" data-name="Trazado 227655" d="M344,258.047V303.89h3.3V258.047A10.856,10.856,0,0,1,344,258.047Zm0,0" transform="translate(-272.949 -204.749)" fill="#d64d37"/>
      <path id="Trazado_227656" data-name="Trazado 227656" d="M144,384h3.3v3.3H144Zm0,0" transform="translate(-114.258 -304.687)" fill="#f05d46"/>
      <path id="Trazado_227657" data-name="Trazado 227657" d="M112,384h3.3v3.3H112Zm0,0" transform="translate(-88.867 -304.687)" fill="#f05d46"/>
      <path id="Trazado_227658" data-name="Trazado 227658" d="M168,416h3.3v3.3H168Zm0,0" transform="translate(-133.301 -330.078)" fill="#f05d46"/>
      <path id="Trazado_227659" data-name="Trazado 227659" d="M136,416h3.3v3.3H136Zm0,0" transform="translate(-107.91 -330.078)" fill="#f05d46"/>
      <path id="Trazado_227660" data-name="Trazado 227660" d="M64,296h6.609v4.957H64Zm0,0" transform="translate(-50.781 -234.863)" fill="#ffb60c"/>
      <path id="Trazado_227661" data-name="Trazado 227661" d="M89.113,10.028A11.577,11.577,0,0,0,77.66,0H67.746A11.579,11.579,0,0,0,56.18,11.566v8.262a6.609,6.609,0,1,0,0,13.219h.084a16.537,16.537,0,0,0,8.178,12.635v2.236h-.088a1.652,1.652,0,0,0-1.287.733l-2.814,4.224h-2.42A11.579,11.579,0,0,0,46.266,64.442V84.88L35.935,73.257A1.652,1.652,0,0,0,34.7,72.7H21.48V62.789h9.914a1.652,1.652,0,0,0,1.652-1.652V47.918a1.652,1.652,0,0,0-1.652-1.652H1.652A1.652,1.652,0,0,0,0,47.918V61.137a1.652,1.652,0,0,0,1.652,1.652h9.914V72.7H1.652A1.652,1.652,0,0,0,0,74.356V97.488a1.652,1.652,0,0,0,1.652,1.652H49.57V74.356h4.017A14.54,14.54,0,0,0,56.18,86.5v12.64h3.3V85.922a1.651,1.651,0,0,0-.383-1.058,11.245,11.245,0,0,1-2.115-3.9h10.76A1.652,1.652,0,0,0,69.4,79.313V72.7a1.652,1.652,0,0,0-1.652-1.652h-9.1a11.345,11.345,0,0,1,1.892-2.036l-2.115-2.538a14.489,14.489,0,0,0-3.642,4.574H49.57V64.441a8.271,8.271,0,0,1,8.262-8.262H60.39a16.142,16.142,0,0,0,10.661,5.564v37.4h3.3v-37.4A16.142,16.142,0,0,0,85.017,56.18h2.558a8.271,8.271,0,0,1,8.262,8.262v6.609H90.622a14.488,14.488,0,0,0-3.635-4.574l-2.115,2.538a11.255,11.255,0,0,1,1.441,15.849,1.659,1.659,0,0,0-.39,1.058V99.141h3.3V86.5a14.54,14.54,0,0,0,2.592-12.145h4.017V99.141h3.3v-34.7A11.579,11.579,0,0,0,87.574,52.875h-2.42l-2.809-4.222a1.652,1.652,0,0,0-1.292-.735h-.088V45.682a16.633,16.633,0,0,0,5.654-5.414,11.575,11.575,0,0,0,10.869,7.65,1.652,1.652,0,0,0,1.652-1.652V21.481A11.577,11.577,0,0,0,89.113,10.028ZM66.094,77.66H57.832v-3.3h8.262ZM3.3,49.57H29.742v9.914H3.3ZM14.871,62.789h3.3V72.7h-3.3ZM3.3,95.836V76.008H7.519L19.828,89.854v5.982Zm42.961,0H23.133V89.227a1.66,1.66,0,0,0-.416-1.1L11.941,76.008H33.957L46.266,89.854Zm42.961-72.7a3.3,3.3,0,1,1,0,6.609ZM59.484,16.816a1.65,1.65,0,0,1,.851-1.443,25.308,25.308,0,0,1,24.737,0,1.651,1.651,0,0,1,.85,1.443v1.231a1.652,1.652,0,0,1-2.323,1.51,26.869,26.869,0,0,0-21.792,0,1.652,1.652,0,0,1-2.323-1.51ZM67.746,3.3H77.66a8.271,8.271,0,0,1,8.262,8.262v.527a28.564,28.564,0,0,0-26.438,0v-.527A8.271,8.271,0,0,1,67.746,3.3ZM52.875,26.438a3.3,3.3,0,0,1,3.3-3.3v6.609A3.3,3.3,0,0,1,52.875,26.438ZM63.2,54.409l1.5-2.243a12.357,12.357,0,0,0,6.354,2.8v3.447A12.892,12.892,0,0,1,63.2,54.409Zm19,0a12.892,12.892,0,0,1-7.849,4.008V54.97a12.358,12.358,0,0,0,6.354-2.809Zm-4.544-4.1a9.044,9.044,0,0,1-9.914,0V47.156a16.508,16.508,0,0,0,9.914,0Zm-4.957-5.7A13.234,13.234,0,0,1,59.484,31.395V22.713a4.929,4.929,0,0,0,3.667-.136,23.55,23.55,0,0,1,19.1,0,4.848,4.848,0,0,0,3.667.132v8.685A13.234,13.234,0,0,1,72.7,44.613ZM95.836,26.438v18.01a8.275,8.275,0,0,1-6.609-8.1v-3.3a6.609,6.609,0,0,0,0-13.219V13.384a8.275,8.275,0,0,1,6.609,8.1Zm0,0"/>
      <path id="Trazado_227662" data-name="Trazado 227662" d="M306.479,120a2.479,2.479,0,1,0,2.479,2.479A2.478,2.478,0,0,0,306.479,120Zm0,0" transform="translate(-241.211 -95.215)"/>
      <path id="Trazado_227663" data-name="Trazado 227663" d="M378.479,120a2.479,2.479,0,1,0,2.479,2.479A2.478,2.478,0,0,0,378.479,120Zm0,0" transform="translate(-298.34 -95.215)"/>
      <path id="Trazado_227664" data-name="Trazado 227664" d="M112,256h3.3v3.3H112Zm0,0" transform="translate(-88.867 -203.125)"/>
      <path id="Trazado_227665" data-name="Trazado 227665" d="M80,256h3.3v3.3H80Zm0,0" transform="translate(-63.477 -203.125)"/>
      <path id="Trazado_227666" data-name="Trazado 227666" d="M48,256h3.3v3.3H48Zm0,0" transform="translate(-38.086 -203.125)"/>
      <path id="Trazado_227667" data-name="Trazado 227667" d="M144,384h3.3v3.3H144Zm0,0" transform="translate(-114.258 -304.687)"/>
      <path id="Trazado_227668" data-name="Trazado 227668" d="M112,384h3.3v3.3H112Zm0,0" transform="translate(-88.867 -304.687)"/>
      <path id="Trazado_227669" data-name="Trazado 227669" d="M168,416h3.3v3.3H168Zm0,0" transform="translate(-133.301 -330.078)"/>
      <path id="Trazado_227670" data-name="Trazado 227670" d="M136,416h3.3v3.3H136Zm0,0" transform="translate(-107.91 -330.078)"/>
      <path id="Trazado_227671" data-name="Trazado 227671" d="M332.957,161.652A1.652,1.652,0,0,1,331.3,160H328a4.957,4.957,0,0,0,9.914,0h-3.3A1.652,1.652,0,0,1,332.957,161.652Zm0,0" transform="translate(-260.254 -126.953)"/>
    </g>
  </g>
</svg>
