<svg xmlns="http://www.w3.org/2000/svg" width="144.776" height="139.955" viewBox="0 0 144.776 139.955">
  <g id="trafico" transform="translate(-16 -24)">
    <rect id="Rectángulo_45049" data-name="Rectángulo 45049" width="28" height="49" rx="14" transform="translate(19 26.416)" fill="#606669"/>
    <rect id="Rectángulo_45050" data-name="Rectángulo 45050" width="28" height="9" transform="translate(19 98.416)" fill="#606669"/>
    <circle id="Elipse_6727" data-name="Elipse 6727" cx="5" cy="5" r="5" transform="translate(28 35.416)" fill="#eb423f"/>
    <ellipse id="Elipse_6728" data-name="Elipse 6728" cx="5" cy="5.5" rx="5" ry="5.5" transform="translate(28 45.416)" fill="#ffd33a"/>
    <ellipse id="Elipse_6729" data-name="Elipse 6729" cx="5" cy="4.5" rx="5" ry="4.5" transform="translate(28 56.416)" fill="#3dc285"/>
    <rect id="Rectángulo_45051" data-name="Rectángulo 45051" width="10" height="23" transform="translate(28 75.416)" fill="#4f5659"/>
    <path id="Trazado_229297" data-name="Trazado 229297" d="M165.214,152.129l-7.225-18.062A9.652,9.652,0,0,0,149.028,128H127.246a9.652,9.652,0,0,0-8.276,4.686L107.3,152.129l-11.993,3A9.652,9.652,0,0,0,88,164.491v11.768a4.826,4.826,0,0,0,4.826,4.826h82.04a4.826,4.826,0,0,0,4.826-4.826V161.781a9.652,9.652,0,0,0-9.652-9.652Z" transform="translate(-50.284 -72.632)" fill="#e6be34"/>
    <ellipse id="Elipse_6730" data-name="Elipse 6730" cx="10" cy="9.5" rx="10" ry="9.5" transform="translate(47 98.416)" fill="#414649"/>
    <path id="Trazado_229298" data-name="Trazado 229298" d="M176.129,164.826v4.826a4.826,4.826,0,0,1-4.826,4.826H152L160.687,160H171.3A4.826,4.826,0,0,1,176.129,164.826Z" transform="translate(-94.98 -94.98)" fill="#3397e8"/>
    <path id="Trazado_229299" data-name="Trazado 229299" d="M102.478,212v8.445a4.826,4.826,0,0,1-4.826,4.826H88v-2.117a9.65,9.65,0,0,1,7.311-9.362Z" transform="translate(-50.284 -131.296)" fill="#ffd33a"/>
    <path id="Trazado_229300" data-name="Trazado 229300" d="M278.478,174.478h-9.652A4.826,4.826,0,0,1,264,169.652v-4.826A4.826,4.826,0,0,1,268.826,160h4.826Z" transform="translate(-173.199 -94.98)" fill="#3397e8"/>
    <path id="Trazado_229301" data-name="Trazado 229301" d="M261.214,216.129l-7.225-18.062A9.652,9.652,0,0,0,245.028,192H223.246a9.652,9.652,0,0,0-8.276,4.686L203.3,216.129l-11.993,3A9.652,9.652,0,0,0,184,228.491v11.768a4.826,4.826,0,0,0,4.826,4.826h82.04a4.826,4.826,0,0,0,4.826-4.826V225.781a9.652,9.652,0,0,0-9.652-9.652Z" transform="translate(-117.328 -117.328)" fill="#ffd33a"/>
    <ellipse id="Elipse_6731" data-name="Elipse 6731" cx="10" cy="10.5" rx="10" ry="10.5" transform="translate(129 117.416)" fill="#414649"/>
    <path id="Trazado_229302" data-name="Trazado 229302" d="M272.129,228.826v4.826a4.826,4.826,0,0,1-4.826,4.826H248L256.687,224H267.3A4.826,4.826,0,0,1,272.129,228.826Z" transform="translate(-162.025 -139.677)" fill="#3397e8"/>
    <path id="Trazado_229303" data-name="Trazado 229303" d="M374.478,238.478h-9.652A4.826,4.826,0,0,1,360,233.652v-4.826A4.826,4.826,0,0,1,364.826,224h4.826Z" transform="translate(-240.244 -139.677)" fill="#3397e8"/>
    <path id="Trazado_229304" data-name="Trazado 229304" d="M454.478,281.652h-9.652A4.826,4.826,0,0,1,440,276.826V272h4.826A9.652,9.652,0,0,1,454.478,281.652Z" transform="translate(-296.115 -173.199)" fill="#eb423f"/>
    <path id="Trazado_229305" data-name="Trazado 229305" d="M165.214,296.129l-7.225-18.062A9.652,9.652,0,0,0,149.028,272H127.246a9.652,9.652,0,0,0-8.276,4.686L107.3,296.129l-11.993,3A9.652,9.652,0,0,0,88,308.491v11.768a4.826,4.826,0,0,0,4.826,4.826h82.04a4.826,4.826,0,0,0,4.826-4.826V305.781a9.652,9.652,0,0,0-9.652-9.652Z" transform="translate(-50.284 -173.199)" fill="#eb423f"/>
    <ellipse id="Elipse_6732" data-name="Elipse 6732" cx="10" cy="9.5" rx="10" ry="9.5" transform="translate(47 142.416)" fill="#414649"/>
    <circle id="Elipse_6733" data-name="Elipse 6733" cx="9.5" cy="9.5" r="9.5" transform="translate(101 142.416)" fill="#414649"/>
    <path id="Trazado_229306" data-name="Trazado 229306" d="M176.129,308.826v4.826a4.826,4.826,0,0,1-4.826,4.826H152L160.687,304H171.3A4.826,4.826,0,0,1,176.129,308.826Z" transform="translate(-94.98 -195.547)" fill="#3397e8"/>
    <path id="Trazado_229307" data-name="Trazado 229307" d="M102.478,356v8.445a4.826,4.826,0,0,1-4.826,4.826H88v-2.117a9.65,9.65,0,0,1,7.311-9.362Z" transform="translate(-50.284 -231.863)" fill="#ffd33a"/>
    <path id="Trazado_229308" data-name="Trazado 229308" d="M278.478,318.478h-9.652A4.826,4.826,0,0,1,264,313.652v-4.826A4.826,4.826,0,0,1,268.826,304h4.826Z" transform="translate(-173.199 -195.547)" fill="#3397e8"/>
    <path id="Trazado_229309" data-name="Trazado 229309" d="M358.478,361.652h-9.652A4.826,4.826,0,0,1,344,356.826V352h4.826A9.652,9.652,0,0,1,358.478,361.652Z" transform="translate(-229.07 -229.07)" fill="#c7312e"/>
    <path id="Trazado_229310" data-name="Trazado 229310" d="M55.238,56a7.234,7.234,0,0,0-5.39,12.065,7.222,7.222,0,0,0,0,9.652,7.239,7.239,0,1,0,10.779,0,7.222,7.222,0,0,0,0-9.652A7.234,7.234,0,0,0,55.238,56Zm0,4.826a2.413,2.413,0,1,1-2.413,2.413,2.413,2.413,0,0,1,2.413-2.413Zm2.413,12.065a2.413,2.413,0,1,1-2.413-2.413A2.413,2.413,0,0,1,57.651,72.891ZM55.238,84.955a2.413,2.413,0,1,1,2.413-2.413,2.413,2.413,0,0,1-2.413,2.413Z" transform="translate(-22.348 -22.348)"/>
    <ellipse id="Elipse_6734" data-name="Elipse 6734" cx="3" cy="2" rx="3" ry="2" transform="translate(54 106.416)"/>
    <path id="Trazado_229311" data-name="Trazado 229311" d="M210.413,236.826h4.826a2.413,2.413,0,1,0,0-4.826h-4.826a2.413,2.413,0,1,0,0,4.826Z" transform="translate(-134.09 -145.264)"/>
    <path id="Trazado_229312" data-name="Trazado 229312" d="M148.711,96.388h-3.192L138.9,79.844a12.009,12.009,0,0,0-11.2-7.585H114.633l-4.687-11.718a12.009,12.009,0,0,0-11.2-7.585H76.963a12.122,12.122,0,0,0-10.345,5.859L55.465,77.4,44.442,80.155a12.056,12.056,0,0,0-4.313,2.051V77.084h2.413a7.247,7.247,0,0,0,7.239-7.239V31.239A7.247,7.247,0,0,0,42.542,24h-19.3A7.247,7.247,0,0,0,16,31.239V69.846a7.247,7.247,0,0,0,7.239,7.239h2.413v19.3H18.413A2.413,2.413,0,0,0,16,98.8v9.652a2.413,2.413,0,0,0,2.413,2.413H45.2a12.091,12.091,0,0,0,10.5,9.578l-.233.388-11.023,2.756a12.045,12.045,0,0,0-9.139,11.7v11.769a7.247,7.247,0,0,0,7.239,7.239H45.2a12.065,12.065,0,0,0,23.644,0H98.282a12.065,12.065,0,0,0,23.644,0h2.656a7.247,7.247,0,0,0,7.239-7.239V137.4a12.058,12.058,0,0,0,19.062-7.232h2.654a7.247,7.247,0,0,0,7.239-7.239V108.453A12.078,12.078,0,0,0,148.711,96.388Zm6.824,9.652h-6.824a2.416,2.416,0,0,1-2.413-2.413v-2.413h2.413a7.251,7.251,0,0,1,6.824,4.826ZM67.074,67.433h9.25a2.416,2.416,0,0,1,2.413,2.413v4.826a2.416,2.416,0,0,1-2.413,2.413H61.282Zm-21.461,17.4,4.168-1.042v5.355a2.416,2.416,0,0,1-2.413,2.413H40.142a7.222,7.222,0,0,1,5.471-6.726ZM20.826,69.846V31.239a2.416,2.416,0,0,1,2.413-2.413h19.3a2.416,2.416,0,0,1,2.413,2.413V69.846a2.416,2.416,0,0,1-2.413,2.413h-19.3A2.416,2.416,0,0,1,20.826,69.846Zm9.652,7.239H35.3v19.3H30.478Zm-9.652,24.129H35.3v2.413a7.205,7.205,0,0,0,.415,2.413H20.826ZM45.2,106.04H42.542a2.416,2.416,0,0,1-2.413-2.413V96.388h7.239a7.247,7.247,0,0,0,7.239-7.239V82.588l2.709-.677H76.323a7.247,7.247,0,0,0,7.239-7.239V69.846a7.247,7.247,0,0,0-7.239-7.239H69.969l.786-1.311a7.274,7.274,0,0,1,6.207-3.515h21.78a7.207,7.207,0,0,1,6.724,4.552l3.97,9.926h-3.518c-.168,0-.336.01-.5.017l-2.673-8.018a2.413,2.413,0,0,0-2.289-1.65H95.627a7.247,7.247,0,0,0-7.239,7.239v4.826a7.252,7.252,0,0,0,5.1,6.917l-8.881,14.8H76.963a12.127,12.127,0,0,0-9.977,5.288A12.054,12.054,0,0,0,45.2,106.04Zm62.493-12.065a2.416,2.416,0,0,1-2.413,2.413H90.237l5.791-9.652h9.251a2.416,2.416,0,0,1,2.413,2.413ZM96.276,77.084h-.649a2.416,2.416,0,0,1-2.413-2.413V69.846a2.416,2.416,0,0,1,2.413-2.413h3.087l2.005,6.015a12.122,12.122,0,0,0-4.443,3.636Zm-29.2,33.781h9.25a2.416,2.416,0,0,1,2.413,2.413V118.1a2.416,2.416,0,0,1-2.413,2.413H61.282ZM57.02,115.691a7.239,7.239,0,1,1,6.991-9.1L58.665,115.5A7.273,7.273,0,0,1,57.02,115.691ZM45.613,128.269l4.168-1.042v5.355a2.416,2.416,0,0,1-2.413,2.413H40.142a7.222,7.222,0,0,1,5.471-6.726ZM57.02,159.124a7.239,7.239,0,1,1,7.239-7.239,7.239,7.239,0,0,1-7.239,7.239Zm53.084,0a7.239,7.239,0,1,1,7.239-7.239A7.239,7.239,0,0,1,110.1,159.124Zm14.478-9.652h-2.654a12.065,12.065,0,0,0-23.644,0H68.843a12.065,12.065,0,0,0-23.644,0H42.542a2.416,2.416,0,0,1-2.413-2.413v-7.239h7.239a7.247,7.247,0,0,0,7.239-7.239v-6.561l2.709-.677H76.323a7.247,7.247,0,0,0,7.239-7.239v-4.826a7.247,7.247,0,0,0-7.239-7.239H69.969l.786-1.311a7.274,7.274,0,0,1,6.207-3.515h21.78a7.207,7.207,0,0,1,6.724,4.552l7.051,17.629v4.361a7.247,7.247,0,0,0,7.239,7.239h7.239v12.065a2.416,2.416,0,0,1-2.413,2.413Zm-7.239-24.129h2.413a7.251,7.251,0,0,1,6.824,4.826h-6.824a2.416,2.416,0,0,1-2.413-2.413Zm21.716,9.652a7.239,7.239,0,1,1,7.239-7.239A7.239,7.239,0,0,1,139.059,134.995Zm14.478-9.652h-2.654a12.065,12.065,0,0,0-23.131-1.786,12.013,12.013,0,0,0-8-3.039h-3.192l-6.617-16.544a12.141,12.141,0,0,0-1.961-3.288,7.248,7.248,0,0,0,4.531-6.711V89.149a7.247,7.247,0,0,0-7.239-7.239H98.924l.787-1.311a7.273,7.273,0,0,1,6.207-3.515H127.7a7.207,7.207,0,0,1,6.724,4.552l7.051,17.629v4.361a7.247,7.247,0,0,0,7.239,7.239h7.239V122.93A2.416,2.416,0,0,1,153.537,125.343Z"/>
    <ellipse id="Elipse_6735" data-name="Elipse 6735" cx="3" cy="2" rx="3" ry="2" transform="translate(136 125.416)"/>
    <path id="Trazado_229313" data-name="Trazado 229313" d="M366.354,217.65a2.413,2.413,0,0,0-2.289-1.65h-4.826A7.247,7.247,0,0,0,352,223.239v4.826a7.247,7.247,0,0,0,7.239,7.239h9.652a2.413,2.413,0,0,0,2.289-3.176Zm-7.115,12.828a2.416,2.416,0,0,1-2.413-2.413v-4.826a2.416,2.416,0,0,1,2.413-2.413h3.087l3.217,9.652Z" transform="translate(-234.657 -134.09)"/>
    <circle id="Elipse_6736" data-name="Elipse 6736" cx="3" cy="3" r="3" transform="translate(54 148.416)"/>
    <ellipse id="Elipse_6737" data-name="Elipse 6737" cx="2.5" cy="3" rx="2.5" ry="3" transform="translate(108 148.416)"/>
    <path id="Trazado_229314" data-name="Trazado 229314" d="M270.354,297.65a2.413,2.413,0,0,0-2.289-1.65h-4.826A7.247,7.247,0,0,0,256,303.239v4.826a7.247,7.247,0,0,0,7.239,7.239h9.652a2.413,2.413,0,0,0,2.289-3.176Zm-7.115,12.828a2.416,2.416,0,0,1-2.413-2.413v-4.826a2.416,2.416,0,0,1,2.413-2.413h3.087l3.217,9.652Z" transform="translate(-167.612 -189.96)"/>
    <path id="Trazado_229315" data-name="Trazado 229315" d="M215.239,376h-4.826a2.413,2.413,0,1,0,0,4.826h4.826a2.413,2.413,0,1,0,0-4.826Z" transform="translate(-134.09 -245.831)"/>
  </g>
</svg>
