<svg xmlns="http://www.w3.org/2000/svg" width="190.333" height="100" viewBox="0 0 190.333 100">
  <g id="Grupo_161381" data-name="Grupo 161381" transform="translate(-243.334 -1895)">
    <rect id="Rectángulo_33803" data-name="Rectángulo 33803" width="190" height="100" transform="translate(243.667 1895)" fill="none"/>
    <path id="Trazado_113613" data-name="Trazado 113613" d="M-22,0H107a40,40,0,0,1,0,80H-22Z" transform="translate(265.334 1905)" fill="rgba(121,210,220,0.2)"/>
    <g id="vendedor_1_" data-name="vendedor (1)" transform="translate(272.549 1894)">
      <g id="Grupo_161379" data-name="Grupo 161379" transform="translate(2.577 2.516)">
        <g id="Grupo_161361" data-name="Grupo 161361" transform="translate(9.097 51.548)">
          <path id="Trazado_228151" data-name="Trazado 228151" d="M8,36H80.774V75.419H8Z" transform="translate(-8 -36)" fill="#d3a06c"/>
        </g>
        <g id="Grupo_161362" data-name="Grupo 161362" transform="translate(66.71 68.226)">
          <path id="Trazado_228152" data-name="Trazado 228152" d="M50.548,47,55.1,56.1H46Z" transform="translate(-46 -47)" fill="#e6e9ed"/>
        </g>
        <g id="Grupo_161363" data-name="Grupo 161363" transform="translate(33.355 51.548)">
          <path id="Trazado_228153" data-name="Trazado 228153" d="M45.544,36.637a9.841,9.841,0,0,0,2.714,3.32v11.2H24v-11.2a9.841,9.841,0,0,0,2.714-3.32L27.032,36l.318.637a9.813,9.813,0,0,0,17.557,0L45.226,36Z" transform="translate(-24 -36)" fill="#b27946"/>
        </g>
        <g id="Grupo_161364" data-name="Grupo 161364" transform="translate(53.686 33.355)">
          <path id="Trazado_228154" data-name="Trazado 228154" d="M50.434,24,56.5,42.194H38.3L37.41,31.459v-.015a21.209,21.209,0,0,0,5.443-3.32v-.015A21.155,21.155,0,0,0,46.628,24Z" transform="translate(-37.41 -24)" fill="#ffeaa7"/>
        </g>
        <g id="Grupo_161365" data-name="Grupo 161365" transform="translate(18.194 33.355)">
          <path id="Trazado_228155" data-name="Trazado 228155" d="M23.87,24a21.155,21.155,0,0,0,3.775,4.109v.015a21.21,21.21,0,0,0,5.443,3.32v.015l-.895,10.734H14L20.065,24Z" transform="translate(-14 -24)" fill="#ffeaa7"/>
        </g>
        <g id="Grupo_161366" data-name="Grupo 161366" transform="translate(54.581 51.548)">
          <path id="Trazado_228156" data-name="Trazado 228156" d="M56.194,36l-.318.637a9.822,9.822,0,0,1-17.557,0L38,36Z" transform="translate(-38 -36)" fill="#fcd770"/>
        </g>
        <g id="Grupo_161367" data-name="Grupo 161367" transform="translate(18.194 51.548)">
          <path id="Trazado_228157" data-name="Trazado 228157" d="M32.194,36l-.318.637a9.841,9.841,0,0,1-2.714,3.32,9.8,9.8,0,0,1-14.843-3.32L14,36Z" transform="translate(-14 -36)" fill="#fcd770"/>
        </g>
        <g id="Grupo_161368" data-name="Grupo 161368" transform="translate(66.71 33.355)">
          <path id="Trazado_228158" data-name="Trazado 228158" d="M61.161,24l9.1,18.194H52.065L46,24Z" transform="translate(-46 -24)" fill="#ff826e"/>
        </g>
        <g id="Grupo_161369" data-name="Grupo 161369" transform="translate(36.387 40.799)">
          <path id="Trazado_228159" data-name="Trazado 228159" d="M43.3,28.925l.895,10.734H26l.895-10.734V28.91a21.181,21.181,0,0,0,16.4,0Z" transform="translate(-26 -28.91)" fill="#ff826e"/>
        </g>
        <g id="Grupo_161370" data-name="Grupo 161370" transform="translate(0 33.355)">
          <path id="Trazado_228160" data-name="Trazado 228160" d="M26.258,24,20.194,42.194H2L11.1,24Z" transform="translate(-2 -24)" fill="#ff826e"/>
        </g>
        <g id="Grupo_161371" data-name="Grupo 161371" transform="translate(72.774 51.548)">
          <path id="Trazado_228161" data-name="Trazado 228161" d="M50,36H68.194l-.318.637a9.813,9.813,0,0,1-17.557,0Z" transform="translate(-50 -36)" fill="#fc6e51"/>
        </g>
        <g id="Grupo_161372" data-name="Grupo 161372" transform="translate(36.387 51.548)">
          <path id="Trazado_228162" data-name="Trazado 228162" d="M44.194,36l-.318.637a9.82,9.82,0,0,1-17.557,0L26,36Z" transform="translate(-26 -36)" fill="#fc6e51"/>
        </g>
        <g id="Grupo_161373" data-name="Grupo 161373" transform="translate(0 51.548)">
          <path id="Trazado_228163" data-name="Trazado 228163" d="M2,36H20.194l-.318.637a9.813,9.813,0,0,1-17.557,0Z" transform="translate(-2 -36)" fill="#fc6e51"/>
        </g>
        <g id="Grupo_161374" data-name="Grupo 161374" transform="translate(24.258)">
          <circle id="Elipse_6687" data-name="Elipse 6687" cx="21.226" cy="21.226" r="21.226" fill="#e6e9ed"/>
        </g>
        <g id="Grupo_161375" data-name="Grupo 161375" transform="translate(36.387 6.065)">
          <path id="Trazado_228164" data-name="Trazado 228164" d="M44.194,12.989a5.084,5.084,0,0,1-1.5,3.608l-1.531,1.531V16.355a3.042,3.042,0,0,0-.895-2.153,7.321,7.321,0,0,0-10.34,0,3.042,3.042,0,0,0-.895,2.153v1.774L27.5,16.6A5.084,5.084,0,0,1,26,12.989,6.988,6.988,0,0,1,32.989,6H37.2A6.982,6.982,0,0,1,44.194,12.989Z" transform="translate(-26 -6)" fill="#656d78"/>
        </g>
        <g id="Grupo_161376" data-name="Grupo 161376" transform="translate(31.839 26.062)">
          <path id="Trazado_228165" data-name="Trazado 228165" d="M50.29,30.591v.015a21.217,21.217,0,0,1-27.29,0V28.651a9.344,9.344,0,0,1,8.172-9.264,2.966,2.966,0,0,0,.622-.2l4.852,7.293L41.5,19.19a2.966,2.966,0,0,0,.622.2,9.344,9.344,0,0,1,8.172,9.264Z" transform="translate(-23 -19.19)" fill="#4fc1e9"/>
        </g>
        <g id="Grupo_161377" data-name="Grupo 161377" transform="translate(40.632 23.439)">
          <path id="Trazado_228166" data-name="Trazado 228166" d="M30.619,17.46l3.032.819a6.048,6.048,0,0,0,3.032-.819A3.04,3.04,0,0,0,38.5,20.083l-4.852,7.293L28.8,20.083A3.04,3.04,0,0,0,30.619,17.46Z" transform="translate(-28.8 -17.46)" fill="#f0d0b4"/>
        </g>
        <g id="Grupo_161378" data-name="Grupo 161378" transform="translate(39.419 12.129)">
          <path id="Trazado_228167" data-name="Trazado 228167" d="M40.129,14.291v1.774a6.079,6.079,0,0,1-6.065,6.065l-3.032-.819a6.406,6.406,0,0,1-1.258-.955A6.1,6.1,0,0,1,28,16.065V14.291a3.042,3.042,0,0,1,.895-2.153,7.321,7.321,0,0,1,10.34,0A3.042,3.042,0,0,1,40.129,14.291Z" transform="translate(-28 -10)" fill="#f0d0b4"/>
        </g>
      </g>
      <g id="Grupo_161380" data-name="Grupo 161380" transform="translate(0.882 1)">
        <path id="Trazado_228168" data-name="Trazado 228168" d="M85.385,34.355H68.159a22.742,22.742,0,1,0-40.2,0H10.737L.882,54.065l.66,1.318a11.251,11.251,0,0,0,8.616,6.159V95H85.964V61.541a11.256,11.256,0,0,0,8.618-6.159l.658-1.318Zm5.707,18.194H76.444L71.391,37.387h12.12ZM52.609,64.677V67.71H49.577V64.677H46.545V67.71H43.513V64.677H40.48V67.71H37.448V58.716a11.309,11.309,0,0,0,1.516-1.674,11.29,11.29,0,0,0,18.194,0,11.308,11.308,0,0,0,1.516,1.674V67.71H55.642V64.677Zm-10.8-48.96a4.5,4.5,0,0,0-.957,1.416,3.551,3.551,0,0,1-.376-1.571A5.471,5.471,0,0,1,45.946,10.1h4.228a5.472,5.472,0,0,1,5.467,5.466,3.545,3.545,0,0,1-.376,1.569,4.52,4.52,0,0,0-.957-1.416,8.838,8.838,0,0,0-12.5,0Zm1.7,4.993V18.934a1.509,1.509,0,0,1,.444-1.073,5.805,5.805,0,0,1,8.208,0,1.509,1.509,0,0,1,.444,1.073V20.71a4.548,4.548,0,0,1-9.1,0Zm4.548,7.581a7.476,7.476,0,0,0,2.079-.326,4.481,4.481,0,0,0,.72.975l-2.8,4.2-2.794-4.191a4.583,4.583,0,0,0,.719-.982,7.463,7.463,0,0,0,2.076.326ZM42.55,30.339,48.061,38.6l5.514-8.27a7.825,7.825,0,0,1,6.615,7.713v1.2a19.592,19.592,0,0,1-24.258,0v-1.2A7.85,7.85,0,0,1,42.55,30.339Zm5.511,16.145a22.613,22.613,0,0,0,6.854-1.061l.594,7.126h-14.9l.594-7.126a22.613,22.613,0,0,0,6.854,1.061Zm6.392,9.1a8.253,8.253,0,0,1-12.784,0ZM29.867,58.613a8.234,8.234,0,0,1-6.392-3.032H36.259A8.234,8.234,0,0,1,29.867,58.613Zm30-3.032H72.646a8.253,8.253,0,0,1-12.784,0Zm8.331-18.194,5.055,15.161h-14.7l-.693-8.316a22.842,22.842,0,0,0,8.351-6.845ZM48.061,4.032A19.689,19.689,0,0,1,63.095,36.459a10.824,10.824,0,0,0-9.267-9.168,1.5,1.5,0,0,1-1-.737,7.519,7.519,0,0,0,2.741-5.146l1.164-1.164a6.576,6.576,0,0,0,1.939-4.682,8.509,8.509,0,0,0-8.5-8.5H45.947a8.509,8.509,0,0,0-8.5,8.5,6.57,6.57,0,0,0,1.939,4.68l1.164,1.164A7.528,7.528,0,0,0,43.3,26.556a1.4,1.4,0,0,1-.9.716,10.875,10.875,0,0,0-9.374,9.186A19.688,19.688,0,0,1,48.061,4.032Zm-9.8,40.2-.693,8.316h-14.7l5.055-15.161h1.983A22.842,22.842,0,0,0,38.262,44.232ZM12.611,37.387h12.12L19.677,52.548H5.03ZM5.282,55.581H18.066a8.253,8.253,0,0,1-12.784,0ZM13.19,91.968V61.541a11.22,11.22,0,0,0,7.581-4.5,11.246,11.246,0,0,0,9.1,4.6,11.363,11.363,0,0,0,4.548-.946V70.742h27.29V60.7a11.363,11.363,0,0,0,4.548.946,11.246,11.246,0,0,0,9.1-4.6,11.22,11.22,0,0,0,7.581,4.5V91.968ZM84.448,58.613a8.234,8.234,0,0,1-6.392-3.032H90.84A8.229,8.229,0,0,1,84.448,58.613Z" transform="translate(-0.882 -1)"/>
        <path id="Trazado_228169" data-name="Trazado 228169" d="M11,57h3.032v3.032H11Z" transform="translate(4.34 27.903)"/>
        <path id="Trazado_228170" data-name="Trazado 228170" d="M15,57h3.032v3.032H15Z" transform="translate(6.405 27.903)"/>
        <path id="Trazado_228171" data-name="Trazado 228171" d="M19,57h3.032v3.032H19Z" transform="translate(8.469 27.903)"/>
        <path id="Trazado_228172" data-name="Trazado 228172" d="M11,53H26.161v3.032H11Z" transform="translate(4.34 25.839)"/>
        <path id="Trazado_228173" data-name="Trazado 228173" d="M11,49H26.161v3.032H11Z" transform="translate(4.34 23.774)"/>
        <path id="Trazado_228174" data-name="Trazado 228174" d="M52.421,46.815a1.578,1.578,0,0,0-2.712,0l-4.548,9.1a1.516,1.516,0,0,0,1.355,2.194h3.032v7.581H52.58V58.106h3.032a1.518,1.518,0,0,0,1.357-2.2Zm-3.452,8.258,2.1-4.191,2.1,4.191Z" transform="translate(21.889 22.249)"/>
      </g>
    </g>
  </g>
</svg>
