<svg xmlns="http://www.w3.org/2000/svg" xmlns:xlink="http://www.w3.org/1999/xlink" width="550" height="369.382" viewBox="0 0 550 369.382">
  <defs>
    <linearGradient id="linear-gradient" x1="0.146" y1="0.854" x2="0.854" y2="0.146" gradientUnits="objectBoundingBox">
      <stop offset="0" stop-color="#f87c00"/>
      <stop offset="1" stop-color="#f8a757"/>
    </linearGradient>
    <linearGradient id="linear-gradient-2" x1="0.854" y1="0.854" x2="0.146" y2="0.146" xlink:href="#linear-gradient"/>
    <linearGradient id="linear-gradient-3" x1="0.146" y1="0.854" x2="0.854" y2="0.146" xlink:href="#linear-gradient"/>
    <linearGradient id="linear-gradient-4" x1="0.146" y1="0.854" x2="0.854" y2="0.146" gradientUnits="objectBoundingBox">
      <stop offset="0" stop-color="#0ba1b3"/>
      <stop offset="0.04" stop-color="#0ea4b5"/>
      <stop offset="0.447" stop-color="#33c0d1"/>
      <stop offset="0.663" stop-color="#42ccdc"/>
    </linearGradient>
    <linearGradient id="linear-gradient-5" x1="0.854" y1="0.854" x2="0.146" y2="0.146" xlink:href="#linear-gradient-4"/>
    <linearGradient id="linear-gradient-7" x1="0.146" y1="0.854" x2="0.854" y2="0.146" xlink:href="#linear-gradient-4"/>
    <filter id="Trazado_225638" x="54.109" y="16.998" width="75" height="75" filterUnits="userSpaceOnUse">
      <feOffset dx="20" dy="20" input="SourceAlpha"/>
      <feGaussianBlur stdDeviation="12.5" result="blur"/>
      <feFlood flood-color="#29033f" flood-opacity="0.149"/>
      <feComposite operator="in" in2="blur"/>
      <feComposite in="SourceGraphic"/>
    </filter>
    <linearGradient id="linear-gradient-8" x1="0.888" y1="-0.207" x2="0.259" y2="0.938" gradientUnits="objectBoundingBox">
      <stop offset="0.427" stop-color="#fff"/>
      <stop offset="0.57" stop-color="#f0f0f0"/>
      <stop offset="0.84" stop-color="#cbcbcb"/>
      <stop offset="1" stop-color="#b3b3b3"/>
    </linearGradient>
    <filter id="Elipse_6547" x="16.575" y="113.955" width="56.851" height="56.851" filterUnits="userSpaceOnUse">
      <feOffset dy="4" input="SourceAlpha"/>
      <feGaussianBlur stdDeviation="4" result="blur-2"/>
      <feFlood flood-color="#f37a00" flood-opacity="0.639"/>
      <feComposite operator="in" in2="blur-2"/>
      <feComposite in="SourceGraphic"/>
    </filter>
    <filter id="Elipse_6548" x="425.985" y="71.473" width="56.851" height="56.851" filterUnits="userSpaceOnUse">
      <feOffset dy="4" input="SourceAlpha"/>
      <feGaussianBlur stdDeviation="4" result="blur-3"/>
      <feFlood flood-color="#f37a00" flood-opacity="0.639"/>
      <feComposite operator="in" in2="blur-3"/>
      <feComposite in="SourceGraphic"/>
    </filter>
  </defs>
  <g id="Grupo_162949" data-name="Grupo 162949" transform="translate(12076.843 12098.111)">
    <g id="Grupo_80162" data-name="Grupo 80162" transform="translate(-201.368 239.652)">
      <circle id="Elipse_4796" data-name="Elipse 4796" cx="9.7" cy="9.7" r="9.7" transform="translate(-11725.748 -12332.954)" fill="url(#linear-gradient)"/>
      <ellipse id="Elipse_4797" data-name="Elipse 4797" cx="9.7" cy="9.7" rx="9.7" ry="9.7" transform="translate(-11598.318 -11995.99)" fill="url(#linear-gradient-2)"/>
      <circle id="Elipse_4798" data-name="Elipse 4798" cx="15.871" cy="15.871" r="15.871" transform="translate(-11376.028 -12080.068)" fill="url(#linear-gradient-3)"/>
    </g>
    <g id="Grupo_80161" data-name="Grupo 80161" transform="translate(-201.368 239.652)">
      <g id="Grupo_80122" data-name="Grupo 80122" transform="translate(-14813.617 -10892.246)">
        <path id="Trazado_113541" data-name="Trazado 113541" d="M2992.8-1393.758a25.687,25.687,0,0,1-16.507-5.986,25.914,25.914,0,0,1-3.348-36.453,25.914,25.914,0,0,1,36.453-3.347,25.714,25.714,0,0,1,9.223,17.533,25.714,25.714,0,0,1-5.876,18.919h0a25.708,25.708,0,0,1-17.533,9.223C2994.4-1393.794,2993.6-1393.758,2992.8-1393.758Zm.064-48.761a22.845,22.845,0,0,0-17.612,8.241,22.731,22.731,0,0,0-5.2,16.727,22.732,22.732,0,0,0,8.154,15.5,22.742,22.742,0,0,0,16.727,5.2,22.737,22.737,0,0,0,15.5-8.154h0a22.741,22.741,0,0,0,5.2-16.727,22.741,22.741,0,0,0-8.154-15.5A22.788,22.788,0,0,0,2992.861-1442.519Z" fill="#fff"/>
      </g>
      <g id="Grupo_80123" data-name="Grupo 80123" transform="translate(-14850.617 -10892.246)">
        <path id="Trazado_113542" data-name="Trazado 113542" d="M3156.594-1076.136a16.29,16.29,0,0,1-10.452-3.776,16.384,16.384,0,0,1-2.117-23.047,16.385,16.385,0,0,1,23.047-2.117,16.257,16.257,0,0,1,5.831,11.086,16.26,16.26,0,0,1-3.715,11.962h0A16.334,16.334,0,0,1,3156.594-1076.136Zm.024-29.717a13.343,13.343,0,0,0-10.286,4.812,13.38,13.38,0,0,0,1.728,18.822,13.38,13.38,0,0,0,18.822-1.728h0a13.381,13.381,0,0,0-1.728-18.822A13.3,13.3,0,0,0,3156.618-1105.853Z" fill="#fff"/>
      </g>
      <g id="Grupo_80124" data-name="Grupo 80124" transform="translate(-14813.617 -10892.246)">
        <path id="Trazado_113543" data-name="Trazado 113543" d="M3415.056-1112.876a10.509,10.509,0,0,1-6.741-2.435,10.566,10.566,0,0,1-1.364-14.862,10.483,10.483,0,0,1,7.149-3.761,10.477,10.477,0,0,1,7.713,2.4,10.485,10.485,0,0,1,3.761,7.148,10.491,10.491,0,0,1-2.4,7.714A10.535,10.535,0,0,1,3415.056-1112.876Zm.023-19.1c-.265,0-.53.012-.8.037a8.5,8.5,0,0,0-5.794,3.048,8.563,8.563,0,0,0,1.107,12.045,8.564,8.564,0,0,0,12.046-1.106,8.5,8.5,0,0,0,1.941-6.252,8.492,8.492,0,0,0-3.048-5.793A8.49,8.49,0,0,0,3415.079-1131.979Z" fill="#fff"/>
      </g>
    </g>
    <g id="Grupo_80160" data-name="Grupo 80160" transform="translate(-201.368 239.652)">
      <circle id="Elipse_4795" data-name="Elipse 4795" cx="22.504" cy="22.504" r="22.504" transform="translate(-11515.192 -12337.336)" fill="url(#linear-gradient-4)"/>
      <ellipse id="Elipse_4799" data-name="Elipse 4799" cx="7.372" cy="7.372" rx="7.372" ry="7.372" transform="translate(-11779.639 -11983.962)" fill="url(#linear-gradient-5)"/>
      <circle id="Elipse_4800" data-name="Elipse 4800" cx="7.372" cy="7.372" r="7.372" transform="translate(-11875.475 -12160.608)" fill="url(#linear-gradient-4)"/>
      <circle id="Elipse_4801" data-name="Elipse 4801" cx="8.605" cy="8.605" r="8.605" transform="translate(-11357.977 -12151.079)" fill="url(#linear-gradient-7)"/>
    </g>
    <g id="Grupo_80119" data-name="Grupo 80119" transform="translate(-15014.985 -10652.594)">
      <circle id="Elipse_4711" data-name="Elipse 4711" cx="1.386" cy="1.386" r="1.386" transform="translate(3365.884 -1363.873)" fill="#fefefe"/>
      <circle id="Elipse_4712" data-name="Elipse 4712" cx="1.386" cy="1.386" r="1.386" transform="translate(3365.884 -1345.268)" fill="#fefefe"/>
      <circle id="Elipse_4713" data-name="Elipse 4713" cx="1.386" cy="1.386" r="1.386" transform="translate(3365.884 -1326.663)" fill="#fefefe"/>
      <circle id="Elipse_4714" data-name="Elipse 4714" cx="1.386" cy="1.386" r="1.386" transform="translate(3365.884 -1308.058)" fill="#fefefe"/>
      <circle id="Elipse_4715" data-name="Elipse 4715" cx="1.386" cy="1.386" r="1.386" transform="translate(3389.781 -1401.039)" fill="#fefefe"/>
      <circle id="Elipse_4716" data-name="Elipse 4716" cx="1.386" cy="1.386" r="1.386" transform="translate(3389.781 -1382.434)" fill="#fefefe"/>
      <circle id="Elipse_4717" data-name="Elipse 4717" cx="1.386" cy="1.386" r="1.386" transform="translate(3389.781 -1363.829)" fill="#fefefe"/>
      <circle id="Elipse_4718" data-name="Elipse 4718" cx="1.386" cy="1.386" r="1.386" transform="translate(3389.781 -1345.224)" fill="#fefefe"/>
      <circle id="Elipse_4719" data-name="Elipse 4719" cx="1.386" cy="1.386" r="1.386" transform="translate(3389.781 -1326.619)" fill="#fefefe"/>
      <circle id="Elipse_4720" data-name="Elipse 4720" cx="1.386" cy="1.386" r="1.386" transform="translate(3389.781 -1308.014)" fill="#fefefe"/>
      <circle id="Elipse_4721" data-name="Elipse 4721" cx="1.386" cy="1.386" r="1.386" transform="translate(3389.781 -1289.41)" fill="#fefefe"/>
      <circle id="Elipse_4722" data-name="Elipse 4722" cx="1.386" cy="1.386" r="1.386" transform="translate(3413.678 -1401.039)" fill="#fefefe"/>
      <circle id="Elipse_4723" data-name="Elipse 4723" cx="1.386" cy="1.386" r="1.386" transform="translate(3413.678 -1382.434)" fill="#fefefe"/>
      <circle id="Elipse_4724" data-name="Elipse 4724" cx="1.386" cy="1.386" r="1.386" transform="translate(3413.678 -1363.829)" fill="#fefefe"/>
      <circle id="Elipse_4725" data-name="Elipse 4725" cx="1.386" cy="1.386" r="1.386" transform="translate(3413.678 -1345.224)" fill="#fefefe"/>
      <circle id="Elipse_4726" data-name="Elipse 4726" cx="1.386" cy="1.386" r="1.386" transform="translate(3413.678 -1326.619)" fill="#fefefe"/>
      <circle id="Elipse_4727" data-name="Elipse 4727" cx="1.386" cy="1.386" r="1.386" transform="translate(3413.678 -1308.014)" fill="#fefefe"/>
      <circle id="Elipse_4728" data-name="Elipse 4728" cx="1.386" cy="1.386" r="1.386" transform="translate(3413.678 -1289.41)" fill="#fefefe"/>
      <circle id="Elipse_4729" data-name="Elipse 4729" cx="1.386" cy="1.386" r="1.386" transform="translate(3413.678 -1270.805)" fill="#fefefe"/>
      <circle id="Elipse_4730" data-name="Elipse 4730" cx="1.386" cy="1.386" r="1.386" transform="translate(3437.576 -1401.039)" fill="#fefefe"/>
      <circle id="Elipse_4731" data-name="Elipse 4731" cx="1.386" cy="1.386" r="1.386" transform="translate(3437.576 -1382.434)" fill="#fefefe"/>
      <circle id="Elipse_4732" data-name="Elipse 4732" cx="1.386" cy="1.386" r="1.386" transform="translate(3413.678 -1419.644)" fill="#fefefe"/>
      <circle id="Elipse_4733" data-name="Elipse 4733" cx="1.386" cy="1.386" r="1.386" transform="translate(3437.576 -1419.644)" fill="#fefefe"/>
      <circle id="Elipse_4734" data-name="Elipse 4734" cx="1.386" cy="1.386" r="1.386" transform="translate(3437.576 -1363.829)" fill="#fefefe"/>
      <circle id="Elipse_4735" data-name="Elipse 4735" cx="1.386" cy="1.386" r="1.386" transform="translate(3437.576 -1345.224)" fill="#fefefe"/>
      <circle id="Elipse_4736" data-name="Elipse 4736" cx="1.386" cy="1.386" r="1.386" transform="translate(3437.576 -1326.619)" fill="#fefefe"/>
      <circle id="Elipse_4737" data-name="Elipse 4737" cx="1.386" cy="1.386" r="1.386" transform="translate(3437.576 -1308.014)" fill="#fefefe"/>
      <circle id="Elipse_4738" data-name="Elipse 4738" cx="1.386" cy="1.386" r="1.386" transform="translate(3437.576 -1289.41)" fill="#fefefe"/>
      <circle id="Elipse_4739" data-name="Elipse 4739" cx="1.386" cy="1.386" r="1.386" transform="translate(3437.576 -1270.805)" fill="#fefefe"/>
      <circle id="Elipse_4740" data-name="Elipse 4740" cx="1.386" cy="1.386" r="1.386" transform="translate(3461.473 -1401.039)" fill="#fefefe"/>
      <circle id="Elipse_4741" data-name="Elipse 4741" cx="1.386" cy="1.386" r="1.386" transform="translate(3461.473 -1382.434)" fill="#fefefe"/>
      <circle id="Elipse_4742" data-name="Elipse 4742" cx="1.386" cy="1.386" r="1.386" transform="translate(3461.473 -1363.829)" fill="#fefefe"/>
      <circle id="Elipse_4743" data-name="Elipse 4743" cx="1.386" cy="1.386" r="1.386" transform="translate(3461.473 -1345.224)" fill="#fefefe"/>
      <circle id="Elipse_4744" data-name="Elipse 4744" cx="1.386" cy="1.386" r="1.386" transform="translate(3461.473 -1326.619)" fill="#fefefe"/>
      <circle id="Elipse_4745" data-name="Elipse 4745" cx="1.386" cy="1.386" r="1.386" transform="translate(3461.473 -1308.014)" fill="#fefefe"/>
      <circle id="Elipse_4746" data-name="Elipse 4746" cx="1.386" cy="1.386" r="1.386" transform="translate(3461.473 -1289.41)" fill="#fefefe"/>
      <circle id="Elipse_4747" data-name="Elipse 4747" cx="1.386" cy="1.386" r="1.386" transform="translate(3485.371 -1363.873)" fill="#fefefe"/>
      <circle id="Elipse_4748" data-name="Elipse 4748" cx="1.386" cy="1.386" r="1.386" transform="translate(3365.884 -1382.434)" fill="#fefefe"/>
      <circle id="Elipse_4749" data-name="Elipse 4749" cx="1.386" cy="1.386" r="1.386" transform="translate(3485.371 -1382.434)" fill="#fefefe"/>
      <circle id="Elipse_4750" data-name="Elipse 4750" cx="1.386" cy="1.386" r="1.386" transform="translate(3485.371 -1345.268)" fill="#fefefe"/>
      <circle id="Elipse_4751" data-name="Elipse 4751" cx="1.386" cy="1.386" r="1.386" transform="translate(3485.371 -1326.663)" fill="#fefefe"/>
      <circle id="Elipse_4752" data-name="Elipse 4752" cx="1.386" cy="1.386" r="1.386" transform="translate(3485.371 -1308.058)" fill="#fefefe"/>
    </g>
    <g id="Grupo_80120" data-name="Grupo 80120" transform="translate(-15014.985 -10652.594)">
      <circle id="Elipse_4753" data-name="Elipse 4753" cx="1.196" cy="1.196" r="1.196" transform="translate(2938.143 -1174.382)" fill="#fefefe"/>
      <circle id="Elipse_4754" data-name="Elipse 4754" cx="1.196" cy="1.196" r="1.196" transform="translate(2938.143 -1158.322)" fill="#fefefe"/>
      <circle id="Elipse_4755" data-name="Elipse 4755" cx="1.196" cy="1.196" r="1.196" transform="translate(2938.143 -1142.262)" fill="#fefefe"/>
      <circle id="Elipse_4756" data-name="Elipse 4756" cx="1.196" cy="1.196" r="1.196" transform="translate(2938.143 -1126.202)" fill="#fefefe"/>
      <circle id="Elipse_4757" data-name="Elipse 4757" cx="1.196" cy="1.196" r="1.196" transform="translate(2958.771 -1206.464)" fill="#fefefe"/>
      <circle id="Elipse_4758" data-name="Elipse 4758" cx="1.196" cy="1.196" r="1.196" transform="translate(2958.771 -1190.404)" fill="#fefefe"/>
      <circle id="Elipse_4759" data-name="Elipse 4759" cx="1.196" cy="1.196" r="1.196" transform="translate(2958.771 -1174.344)" fill="#fefefe"/>
      <circle id="Elipse_4760" data-name="Elipse 4760" cx="1.196" cy="1.196" r="1.196" transform="translate(2958.771 -1158.284)" fill="#fefefe"/>
      <circle id="Elipse_4761" data-name="Elipse 4761" cx="1.196" cy="1.196" r="1.196" transform="translate(2958.771 -1142.224)" fill="#fefefe"/>
      <circle id="Elipse_4762" data-name="Elipse 4762" cx="1.196" cy="1.196" r="1.196" transform="translate(2958.771 -1126.164)" fill="#fefefe"/>
      <circle id="Elipse_4763" data-name="Elipse 4763" cx="1.196" cy="1.196" r="1.196" transform="translate(2958.771 -1110.104)" fill="#fefefe"/>
      <circle id="Elipse_4764" data-name="Elipse 4764" cx="1.196" cy="1.196" r="1.196" transform="translate(2979.4 -1206.464)" fill="#fefefe"/>
      <circle id="Elipse_4765" data-name="Elipse 4765" cx="1.196" cy="1.196" r="1.196" transform="translate(2979.4 -1190.404)" fill="#fefefe"/>
      <circle id="Elipse_4766" data-name="Elipse 4766" cx="1.196" cy="1.196" r="1.196" transform="translate(2979.4 -1174.344)" fill="#fefefe"/>
      <circle id="Elipse_4767" data-name="Elipse 4767" cx="1.196" cy="1.196" r="1.196" transform="translate(2979.4 -1158.284)" fill="#fefefe"/>
      <circle id="Elipse_4768" data-name="Elipse 4768" cx="1.196" cy="1.196" r="1.196" transform="translate(2979.4 -1142.224)" fill="#fefefe"/>
      <circle id="Elipse_4769" data-name="Elipse 4769" cx="1.196" cy="1.196" r="1.196" transform="translate(2979.4 -1126.164)" fill="#fefefe"/>
      <circle id="Elipse_4770" data-name="Elipse 4770" cx="1.196" cy="1.196" r="1.196" transform="translate(2979.4 -1110.104)" fill="#fefefe"/>
      <circle id="Elipse_4771" data-name="Elipse 4771" cx="1.196" cy="1.196" r="1.196" transform="translate(2979.4 -1094.044)" fill="#fefefe"/>
      <circle id="Elipse_4772" data-name="Elipse 4772" cx="1.196" cy="1.196" r="1.196" transform="translate(3000.029 -1206.464)" fill="#fefefe"/>
      <circle id="Elipse_4773" data-name="Elipse 4773" cx="1.196" cy="1.196" r="1.196" transform="translate(3000.029 -1190.404)" fill="#fefefe"/>
      <circle id="Elipse_4774" data-name="Elipse 4774" cx="1.196" cy="1.196" r="1.196" transform="translate(2979.4 -1222.524)" fill="#fefefe"/>
      <circle id="Elipse_4775" data-name="Elipse 4775" cx="1.196" cy="1.196" r="1.196" transform="translate(3000.029 -1222.524)" fill="#fefefe"/>
      <circle id="Elipse_4776" data-name="Elipse 4776" cx="1.196" cy="1.196" r="1.196" transform="translate(3000.029 -1174.344)" fill="#fefefe"/>
      <circle id="Elipse_4777" data-name="Elipse 4777" cx="1.196" cy="1.196" r="1.196" transform="translate(3000.029 -1158.284)" fill="#fefefe"/>
      <circle id="Elipse_4778" data-name="Elipse 4778" cx="1.196" cy="1.196" r="1.196" transform="translate(3000.029 -1142.224)" fill="#fefefe"/>
      <circle id="Elipse_4779" data-name="Elipse 4779" cx="1.196" cy="1.196" r="1.196" transform="translate(3000.029 -1126.164)" fill="#fefefe"/>
      <circle id="Elipse_4780" data-name="Elipse 4780" cx="1.196" cy="1.196" r="1.196" transform="translate(3000.029 -1110.104)" fill="#fefefe"/>
      <circle id="Elipse_4781" data-name="Elipse 4781" cx="1.196" cy="1.196" r="1.196" transform="translate(3000.029 -1094.044)" fill="#fefefe"/>
      <circle id="Elipse_4782" data-name="Elipse 4782" cx="1.196" cy="1.196" r="1.196" transform="translate(3020.657 -1206.464)" fill="#fefefe"/>
      <circle id="Elipse_4783" data-name="Elipse 4783" cx="1.196" cy="1.196" r="1.196" transform="translate(3020.657 -1190.404)" fill="#fefefe"/>
      <circle id="Elipse_4784" data-name="Elipse 4784" cx="1.196" cy="1.196" r="1.196" transform="translate(3020.657 -1174.344)" fill="#fefefe"/>
      <circle id="Elipse_4785" data-name="Elipse 4785" cx="1.196" cy="1.196" r="1.196" transform="translate(3020.657 -1158.284)" fill="#fefefe"/>
      <circle id="Elipse_4786" data-name="Elipse 4786" cx="1.196" cy="1.196" r="1.196" transform="translate(3020.657 -1142.224)" fill="#fefefe"/>
      <circle id="Elipse_4787" data-name="Elipse 4787" cx="1.196" cy="1.196" r="1.196" transform="translate(3020.657 -1126.164)" fill="#fefefe"/>
      <circle id="Elipse_4788" data-name="Elipse 4788" cx="1.196" cy="1.196" r="1.196" transform="translate(3020.657 -1110.104)" fill="#fefefe"/>
      <circle id="Elipse_4789" data-name="Elipse 4789" cx="1.196" cy="1.196" r="1.196" transform="translate(3041.286 -1174.382)" fill="#fefefe"/>
      <circle id="Elipse_4790" data-name="Elipse 4790" cx="1.196" cy="1.196" r="1.196" transform="translate(2938.143 -1190.404)" fill="#fefefe"/>
      <circle id="Elipse_4791" data-name="Elipse 4791" cx="1.196" cy="1.196" r="1.196" transform="translate(3041.286 -1190.404)" fill="#fefefe"/>
      <circle id="Elipse_4792" data-name="Elipse 4792" cx="1.196" cy="1.196" r="1.196" transform="translate(3041.286 -1158.322)" fill="#fefefe"/>
      <circle id="Elipse_4793" data-name="Elipse 4793" cx="1.196" cy="1.196" r="1.196" transform="translate(3041.286 -1142.262)" fill="#fefefe"/>
      <circle id="Elipse_4794" data-name="Elipse 4794" cx="1.196" cy="1.196" r="1.196" transform="translate(3041.286 -1126.202)" fill="#fefefe"/>
    </g>
    <g id="Grupo_80121" data-name="Grupo 80121" transform="translate(-15014.985 -10647.594)">
      <path id="Trazado_113539" data-name="Trazado 113539" d="M3079.53-1118.4a44.956,44.956,0,0,1-29.459-11.051,47.566,47.566,0,0,1-16.465-34.438l-4.752-107.967a46.723,46.723,0,0,1,7.993-27.958,44.858,44.858,0,0,1,22.705-17.452l266.16-105.42.056-.02a44.7,44.7,0,0,1,33.347,1.764,46.684,46.684,0,0,1,23.456,24.407l.1.274,54.174,185.811a46.973,46.973,0,0,1-2.677,42.049,45.907,45.907,0,0,1-13.514,14.664,44.257,44.257,0,0,1-20.067,7.548l-.081.008-315.579,27.461A45.834,45.834,0,0,1,3079.53-1118.4Zm247.937-299.526-266.158,105.42-.056.019c-16.967,5.809-27.95,22.058-27.33,40.434l4.752,107.967a42.492,42.492,0,0,0,14.7,30.785,39.863,39.863,0,0,0,30.989,9.539l.081-.008,315.578-27.461a39.713,39.713,0,0,0,29.758-19.721,41.944,41.944,0,0,0,2.329-37.667l-.1-.274L3377.839-1394.7C3369.431-1414.511,3347.343-1424.7,3327.467-1417.93Z" fill="#fff"/>
    </g>
    <g transform="matrix(1, 0, 0, 1, -12076.84, -12098.11)" filter="url(#Trazado_225638)">
      <path id="Trazado_225638-2" data-name="Trazado 225638" d="M3009.751-1397.51" transform="translate(-2938.14 1432.01)" fill="none" stroke="#fff" stroke-linecap="round" stroke-linejoin="round" stroke-width="10"/>
    </g>
    <g transform="matrix(1, 0, 0, 1, -12076.84, -12098.11)" filter="url(#Elipse_6547)">
      <circle id="Elipse_6547-2" data-name="Elipse 6547" cx="16.425" cy="16.425" r="16.425" transform="translate(28.58 121.96)" fill="url(#linear-gradient-8)"/>
    </g>
    <g transform="matrix(1, 0, 0, 1, -12076.84, -12098.11)" filter="url(#Elipse_6548)">
      <circle id="Elipse_6548-2" data-name="Elipse 6548" cx="16.425" cy="16.425" r="16.425" transform="translate(437.99 79.47)" fill="url(#linear-gradient-8)"/>
    </g>
  </g>
</svg>
