<svg xmlns="http://www.w3.org/2000/svg" width="674.127" height="269.65" viewBox="0 0 674.127 269.65">
  <g id="Grupo_159912" data-name="Grupo 159912" transform="translate(-705 -2440.789)">
    <g id="Grupo_159911" data-name="Grupo 159911" transform="translate(705 2440.789)">
      <rect id="Rectángulo_44859" data-name="Rectángulo 44859" width="269.504" height="673.76" transform="translate(673.76 0) rotate(90)" fill="#ddf1f9"/>
      <g id="Grupo_159874" data-name="Grupo 159874" transform="translate(45.01 12.781)">
        <g id="Grupo_159870" data-name="Grupo 159870" transform="translate(340.816 41.511)">
          <path id="Trazado_225655" data-name="Trazado 225655" d="M363.688,57.17H286.656c-2.827-8.4,7.231-11.435,13.945-4.209h0c1.426,1.536,3.647,1.606,4.157.131l.762-2.206c4.587-13.287,23.487-14.277,38-1.989l1.444,1.223h0c3.72-6.288,15.628-2.16,18.516,6.419Z" transform="translate(-286.167 -40.268)" fill="#fff"/>
        </g>
        <g id="Grupo_159871" data-name="Grupo 159871" transform="translate(0 79.404)">
          <path id="Trazado_225656" data-name="Trazado 225656" d="M110.9,85.275H33.873c-2.827-8.4,7.231-11.435,13.945-4.209h0c1.426,1.536,3.647,1.606,4.157.131l.762-2.206C57.324,65.7,76.223,64.714,90.733,77l1.444,1.223h0c3.72-6.288,15.628-2.16,18.516,6.419Z" transform="translate(-33.384 -68.373)" fill="#fff"/>
        </g>
        <path id="Trazado_225657" data-name="Trazado 225657" d="M340.022,35.8c-1.461-10.531-16.683-17.259-21.487-9.5-7.413-8.471-17.938-13.926-27.676-14.25a22.5,22.5,0,0,0-12.252,2.837,16.419,16.419,0,0,0-4.452,3.845c-1.263,1.577-2.043,3.911-3.771,5.04a4.882,4.882,0,0,1-2.718.754,8.8,8.8,0,0,1-7.17-4.4c-7.624-13.139-26.232-14.483-27.117-1.958-6.919-7.448-17.287-4.318-14.374,4.339l1.061,3.152C203.938,7.711,176.741,7.061,172.86,26.3h0c-10.028-7.759-20.72-1.031-15.094,9.5l.613,1.147h181.8Z" transform="translate(9.391 -9.479)" fill="#fff"/>
        <g id="Grupo_159872" data-name="Grupo 159872" transform="translate(112.826 30.907)">
          <path id="Trazado_225658" data-name="Trazado 225658" d="M132.581,39.088c.725,1.73-.627,1.235-.627,1.235h0c-8.032-6.352-17.252-2.18-14.336,6.484l.214.639s31.253-.092,47.008,0C167.128,39.434,125.955,23.274,132.581,39.088Z" transform="translate(-117.067 -32.403)" fill="#fff"/>
        </g>
        <g id="Grupo_159873" data-name="Grupo 159873" transform="translate(484.421 30.907)">
          <path id="Trazado_225659" data-name="Trazado 225659" d="M408.195,39.088c.724,1.73-.628,1.235-.628,1.235h0c-8.032-6.352-17.252-2.18-14.336,6.484l.214.639s31.254-.092,47.008,0C442.741,39.434,401.568,23.274,408.195,39.088Z" transform="translate(-392.679 -32.403)" fill="#fff"/>
        </g>
      </g>
      <rect id="Rectángulo_44860" data-name="Rectángulo 44860" width="48.796" height="674.127" transform="translate(674.127 220.855) rotate(90)" fill="#71b6d1"/>
      <g id="Grupo_159910" data-name="Grupo 159910" transform="translate(28.17 90.891)">
        <ellipse id="Elipse_6552" data-name="Elipse 6552" cx="308.894" cy="4.426" rx="308.894" ry="4.426" transform="translate(0 149.614)" fill="#4e9ab9"/>
        <g id="Grupo_159909" data-name="Grupo 159909" transform="translate(22.082)">
          <g id="Grupo_159875" data-name="Grupo 159875" transform="translate(313.995)">
            <path id="Trazado_225660" data-name="Trazado 225660" d="M270.162,67.414v59.679a1.915,1.915,0,0,0,3.353,1.255,25.552,25.552,0,1,1-.019,33.535,1.912,1.912,0,0,0-3.334,1.275v59.659h155.4V67.414Z" transform="translate(-270.162 -67.414)" fill="#ffcd29"/>
          </g>
          <path id="Trazado_225661" data-name="Trazado 225661" d="M293.845,119.562a25.406,25.406,0,0,0-19.24,8.766,1.912,1.912,0,0,1-3.353-1.255V67.414h-155.4v155.4h155.4V163.159a1.912,1.912,0,0,1,3.333-1.294,25.538,25.538,0,1,0,19.26-42.3Z" transform="translate(-9.908 -67.414)" fill="#f76c59"/>
          <g id="Grupo_159894" data-name="Grupo 159894" transform="translate(464.322 19.633)">
            <g id="Grupo_159893" data-name="Grupo 159893">
              <path id="Trazado_225662" data-name="Trazado 225662" d="M401.469,126.638s-11.25-14.594-11.677-15.6,5.377-6.217,5.377-6.217l12.047,11.346Z" transform="translate(-378.835 -74.021)" fill="#753b37"/>
              <g id="Grupo_159876" data-name="Grupo 159876" transform="translate(95.653 124.05)">
                <path id="Trazado_225663" data-name="Trazado 225663" d="M458.222,179.907l4.17-2.434-3.091-3.489-3.717,2.439Z" transform="translate(-451.567 -173.984)" fill="#e6efff"/>
                <path id="Trazado_225664" data-name="Trazado 225664" d="M453.226,181.9c.322-.206,2.62-1.1,3.99-1.695,1.044-.452,1.038-1.8,1.273-2s2.238-.43,2.815-.762c1.232-.706,1.371-1.519,1.575-1.514a7.453,7.453,0,0,1,3.279,3.22l-8.1,4.637H452.64l.084-.678C452.782,182.693,452.821,182.164,453.226,181.9Z" transform="translate(-452.593 -173.304)" fill="#40393a"/>
                <path id="Trazado_225665" data-name="Trazado 225665" d="M452.7,182.327h5.108c.956,0,8-4.56,8-4.56.148.243.3.506.442.8,0,0-7.313,4.673-8.156,4.673H452.6v-.727C452.636,182.452,452.67,182.39,452.7,182.327Z" transform="translate(-452.605 -172.667)" fill="#5490ab"/>
              </g>
              <g id="Grupo_159877" data-name="Grupo 159877" transform="translate(69.528 124.381)">
                <path id="Trazado_225666" data-name="Trazado 225666" d="M439.052,179.728l4.038-2.434-3.523-3.064-3.551,2.664Z" transform="translate(-432.257 -174.229)" fill="#e6efff"/>
                <path id="Trazado_225667" data-name="Trazado 225667" d="M433.85,182.009c.322-.208,2.62-1.1,3.989-1.7,1.044-.452,1.039-1.8,1.274-2s2.237-.431,2.815-.763c1.232-.706,1.37-1.518,1.575-1.514a7.459,7.459,0,0,1,3.279,3.22l-8.1,4.638h-5.42l.085-.68C433.4,182.8,433.445,182.268,433.85,182.009Z" transform="translate(-433.216 -173.598)" fill="#40393a"/>
                <path id="Trazado_225668" data-name="Trazado 225668" d="M433.328,182.431h5.11c.956,0,8-4.56,8-4.56.148.243.294.506.442.8,0,0-7.314,4.673-8.157,4.673h-5.493v-.728C433.26,182.556,433.293,182.494,433.328,182.431Z" transform="translate(-433.228 -172.961)" fill="#5490ab"/>
              </g>
              <path id="Trazado_225669" data-name="Trazado 225669" d="M416.8,158.888s-8.389,4.279-9.759,2.226S396.962,125.6,396.79,124.4s1.4-10.194,1.4-10.194l11.05-1.634Z" transform="translate(-376.395 -71.32)" fill="#753b37"/>
              <path id="Trazado_225670" data-name="Trazado 225670" d="M451.454,188.036s-16.21-14.459-18.754-16.308c-2.407-1.751-9.023-5.175-9.023-5.175l.516-17.262-15.552-9.7s2.9,32.1,4.23,33.208a129.152,129.152,0,0,0,14.089,7.851,95.088,95.088,0,0,1,17.5,11.572Z" transform="translate(-372.263 -61.911)" fill="#b0625c"/>
              <path id="Trazado_225671" data-name="Trazado 225671" d="M471.7,193.3l-63.057-52.657,19.674-4.062c17.933,20.3,31.962,34.557,49.724,52.316Z" transform="translate(-372.263 -62.96)" fill="#b0625c"/>
              <path id="Trazado_225672" data-name="Trazado 225672" d="M412.011,149.13s-11.346-18.978-12.715-22.574,1.974-12.318,1.974-12.318l7.595-2.033,14.15,23.128,7.677,9.966Z" transform="translate(-375.632 -71.448)" fill="#fff"/>
              <path id="Trazado_225673" data-name="Trazado 225673" d="M429.625,138.409,408.841,142l-.56-1.8,20.161-3.622Z" transform="translate(-372.388 -62.96)" fill="#40393a"/>
              <g id="Grupo_159878" data-name="Grupo 159878" transform="translate(15.248 20.928)">
                <path id="Trazado_225674" data-name="Trazado 225674" d="M401.512,120.119l-1.777-14.391,5.772-.381,2.425,9.127Z" transform="translate(-390.612 -94.765)" fill="#f79e86"/>
                <path id="Trazado_225675" data-name="Trazado 225675" d="M405.913,109.791c.644,2.656-3.821,7.225-6.91,6.72-1.777-.29-3.8-8.075-4.058-9.338-.229-1.116-.554-5.1.526-5.946,1.294-1.017,9.965-4.208,12.036-.812C410.679,105.616,405.913,109.791,405.913,109.791Z" transform="translate(-392.361 -97.014)" fill="#f79e86"/>
                <path id="Trazado_225676" data-name="Trazado 225676" d="M409.248,112.8c.206-.035.6-2.568.36-4.491-.235-1.869,1.391-7.264-.229-9.929-.51-.837-3.245-.274-3.585-.324-.506-.073-4.929-.769-6.534-.487a12.141,12.141,0,0,0-3.522,1.408c-.469.135-2.136-.152-2.408.864a5.915,5.915,0,0,0,.24,2.42c-.018.334-.879,1.351-.51,1.851a3.251,3.251,0,0,0,2.741.5c.984-.224,3.3-1.772,4-1.007.584.632-.485,1.972.131,2.347s1.68.665,1.9,1.042a9.976,9.976,0,0,1,.116,2.475l4.394-1.126a12.861,12.861,0,0,0,.716,2.249C407.471,111.44,408.792,112.875,409.248,112.8Z" transform="translate(-392.969 -97.498)" fill="#3f2507"/>
                <path id="Trazado_225677" data-name="Trazado 225677" d="M401.154,104.621c.605-1.285,2.566-2.117,3.011-.574s-1.141,4.927-2.492,4.509S400.866,105.232,401.154,104.621Z" transform="translate(-390.243 -95.509)" fill="#f79e86"/>
              </g>
              <g id="Grupo_159879" data-name="Grupo 159879" transform="translate(5.504 49.826)">
                <path id="Trazado_225678" data-name="Trazado 225678" d="M389.1,127.809l-3.354-8.822,3.506-.055,1.7,3.487Z" transform="translate(-385.742 -118.932)" fill="#f79e86"/>
                <path id="Trazado_225679" data-name="Trazado 225679" d="M390.722,120.867l-1.033-.814-2.827,6.548,1.25,1.574Z" transform="translate(-385.352 -118.542)" fill="#fff"/>
                <path id="Trazado_225680" data-name="Trazado 225680" d="M389.956,120.311,404.7,135.968c-1.855,3.865-1.154,7.847-2.839,7.55-3.16-.555-13.383-13.422-14.371-15.444Z" transform="translate(-385.132 -118.452)" fill="#8f4c47"/>
              </g>
              <g id="Grupo_159880" data-name="Grupo 159880" transform="translate(2.798 11.326)">
                <path id="Trazado_225681" data-name="Trazado 225681" d="M386.068,97.977l-2.333-6.713,3.387-.888,1.495,3.708Z" transform="translate(-383.734 -90.376)" fill="#f79e86"/>
                <path id="Trazado_225682" data-name="Trazado 225682" d="M388.193,92.918l-.421-1.312-3.734,4.86.881,1.807Z" transform="translate(-383.629 -89.948)" fill="#fff"/>
                <path id="Trazado_225683" data-name="Trazado 225683" d="M388,91.556l9.693,18.659c-.616,2.665-6.079,5.532-6.079,5.532s-6.458-15.478-6.985-17.668Z" transform="translate(-383.424 -89.966)" fill="#753b37"/>
              </g>
              <g id="Grupo_159883" data-name="Grupo 159883" transform="translate(1.888 38.403)">
                <g id="Grupo_159881" data-name="Grupo 159881" transform="translate(0.685)">
                  <path id="Trazado_225684" data-name="Trazado 225684" d="M385.345,115.7s.125,1.46.116,2.173l1.693,4.72c.5.311.876.523.876.523L390,121.864l-1.633-5.744s-1.226-1.929-1.613-2.794a10.407,10.407,0,0,0-1.815-2.214s-1.184-.96-1.354-.553,1.11,2.528,1.11,2.528Z" transform="translate(-383.568 -110.459)" fill="#f79e86"/>
                </g>
                <g id="Grupo_159882" data-name="Grupo 159882" transform="translate(0 5.455)">
                  <path id="Trazado_225685" data-name="Trazado 225685" d="M387.892,117.638a4.712,4.712,0,0,1-1.749-.677c-.232-.2-1.25-1.747-1.674-2.078s-1.4-.582-1.409-.144,1.147,1.835,1.331,2.163,1.227,2.254,1.889,3.191a15.544,15.544,0,0,0,3.085,2.458S387.98,117.579,387.892,117.638Z" transform="translate(-383.06 -114.506)" fill="#f79e86"/>
                </g>
              </g>
              <g id="Grupo_159886" data-name="Grupo 159886" transform="translate(0.239 0.037)">
                <g id="Grupo_159884" data-name="Grupo 159884" transform="translate(1.945)">
                  <path id="Trazado_225686" data-name="Trazado 225686" d="M383.845,87.473s-.22,1.451-.4,2.141l.542,4.986c.413.419.729.715.729.715l2.788-1.191-.826-5.529s-.742-2.164-.915-3.094a10.432,10.432,0,0,0-1.246-2.578s-.926-1.209-1.188-.853.488,2.718.488,2.718Z" transform="translate(-383.279 -82.003)" fill="#f79e86"/>
                </g>
                <g id="Grupo_159885" data-name="Grupo 159885" transform="translate(0 5.17)">
                  <path id="Trazado_225687" data-name="Trazado 225687" d="M385.868,89.952a4.723,4.723,0,0,1-1.542-1.066c-.178-.247-.806-1.991-1.142-2.412s-1.22-.893-1.336-.471.686,2.053.787,2.415.666,2.478,1.091,3.545a15.542,15.542,0,0,0,2.423,3.112S385.967,89.914,385.868,89.952Z" transform="translate(-381.837 -85.838)" fill="#f79e86"/>
                </g>
              </g>
              <g id="Grupo_159887" data-name="Grupo 159887">
                <path id="Trazado_225688" data-name="Trazado 225688" d="M385.6,98.365c.144,0,.2-.065.2-.143l-1.149-3.469a10.044,10.044,0,0,1-.829-1.394c-.376-.946-.874-2.765-1.037-3.363l-.047-.167c-.032-.113-.119-.325-.231-.592a5.713,5.713,0,0,1-.557-1.746c.282-.1.839.212,1.087.522a9.74,9.74,0,0,1,.736,1.534c.07.158.127.2.186.19a.145.145,0,0,0,.128-.109c.17-.724.363-2.006.365-2.018l-.02-2.709a7.577,7.577,0,0,1-.516-2.633c.19-.012.642.441.959.857a.146.146,0,0,0,.2.026.142.142,0,0,0,.026-.2c-.174-.229-.779-.987-1.173-.976a.3.3,0,0,0-.241.124c-.279.382.272,2.231.46,2.826l.023,2.664s-.129.837-.267,1.533a7.2,7.2,0,0,0-.642-1.288,1.786,1.786,0,0,0-1.308-.678.345.345,0,0,0-.278.26,4.646,4.646,0,0,0,.569,1.932c.1.247.193.461.22.558l.045.164c.166.6.666,2.431,1.049,3.394a5.6,5.6,0,0,0,.752,1.2c.061.166,1.207,3.582,1.207,3.582A.143.143,0,0,0,385.6,98.365Z" transform="translate(-381.659 -81.976)" fill="#d1644d"/>
              </g>
              <g id="Grupo_159888" data-name="Grupo 159888" transform="translate(1.659 38.183)">
                <path id="Trazado_225689" data-name="Trazado 225689" d="M386.892,122.121a.141.141,0,0,0,.112-.074.144.144,0,0,0-.054-.191,2.841,2.841,0,0,1-.566-.52,20.8,20.8,0,0,1-1.519-2.6c-.137-.263-.241-.46-.294-.545-.061-.1-.2-.282-.387-.511a5.748,5.748,0,0,1-1.009-1.525c.247-.179.866-.023,1.188.206a9.321,9.321,0,0,1,1.106,1.25l.09.113a.136.136,0,0,0,.162.043.14.14,0,0,0,.092-.139c-.034-.743-.2-2.029-.2-2.041l-.758-2.6a7.5,7.5,0,0,1-1.213-2.393c.171-.073.735.249,1.154.565a.144.144,0,1,0,.171-.231c-.22-.163-.934-.67-1.331-.63a.324.324,0,0,0-.263.2c-.164.442.871,2.072,1.213,2.593l.75,2.558s.1.841.16,1.546a7.156,7.156,0,0,0-.969-1.062,1.793,1.793,0,0,0-1.443-.3.347.347,0,0,0-.2.326,4.6,4.6,0,0,0,1.071,1.7c.168.212.313.4.367.481s.151.275.283.529a21.089,21.089,0,0,0,1.546,2.64,3.049,3.049,0,0,0,.654.6A.133.133,0,0,0,386.892,122.121Z" transform="translate(-382.89 -110.296)" fill="#d1644d"/>
              </g>
              <path id="Trazado_225690" data-name="Trazado 225690" d="M418.722,128.037s-17.881,17.984-19.764,17.813-4.5-5.059-2.614-7.8,15.529-24.567,16.728-24.4S418.722,128.037,418.722,128.037Z" transform="translate(-376.772 -70.943)" fill="#8f4c47"/>
              <path id="Trazado_225691" data-name="Trazado 225691" d="M434.5,147.159c-.171.514-7.281,11.488-10.533,11.145s-16.345-21.073-17.03-22.957c-.326-.9-2.939-8.4-2.985-13.781a18.516,18.516,0,0,1,2.485-9.728s6.029,1.684,7.4,2.54,8.354,20.372,8.354,20.372Z" transform="translate(-373.894 -71.576)" fill="#8f4c47"/>
              <path id="Trazado_225692" data-name="Trazado 225692" d="M402.26,113.779c-2.355,3.136-3.27,7.343-2.659,12.682l-3.477-12.937Z" transform="translate(-376.622 -70.989)" fill="#753b37"/>
              <g id="Grupo_159889" data-name="Grupo 159889" transform="translate(34.63 58.069)" style="mix-blend-mode: multiply;isolation: isolate">
                <path id="Trazado_225693" data-name="Trazado 225693" d="M407.771,131.781a.42.42,0,0,0,.3-.12l6.047-5.88a.428.428,0,1,0-.6-.613l-6.046,5.878a.427.427,0,0,0,.3.735Z" transform="translate(-407.344 -125.046)" fill="#c7d9e6"/>
              </g>
              <g id="Grupo_159890" data-name="Grupo 159890" transform="translate(35.896 63.746)" style="mix-blend-mode: multiply;isolation: isolate">
                <path id="Trazado_225694" data-name="Trazado 225694" d="M412.466,130.48a.428.428,0,0,0,.042-.853l-3.755-.368a.428.428,0,0,0-.085.852l3.755.369Z" transform="translate(-408.283 -129.256)" fill="#c7d9e6"/>
              </g>
              <g id="Grupo_159891" data-name="Grupo 159891" transform="translate(45.91 63.457)" style="mix-blend-mode: multiply;isolation: isolate">
                <path id="Trazado_225695" data-name="Trazado 225695" d="M416.139,132.25a.429.429,0,0,0,.391-.253l1.045-2.354a.428.428,0,1,0-.782-.348l-1.045,2.354a.428.428,0,0,0,.217.565A.443.443,0,0,0,416.139,132.25Z" transform="translate(-415.711 -129.042)" fill="#c7d9e6"/>
              </g>
              <g id="Grupo_159892" data-name="Grupo 159892" transform="translate(45.702 85.58)" style="mix-blend-mode: multiply;isolation: isolate">
                <path id="Trazado_225696" data-name="Trazado 225696" d="M420.55,150.178a.427.427,0,0,0,.276-.754l-4.565-3.872a.428.428,0,1,0-.553.653l4.565,3.872A.422.422,0,0,0,420.55,150.178Z" transform="translate(-415.556 -145.451)" fill="#c7d9e6"/>
              </g>
              <path id="Trazado_225697" data-name="Trazado 225697" d="M424.031,138.024s-2.881,4.638-4.378,4.3a7.5,7.5,0,0,1-2.769-1.4l4.654-5.486Z" transform="translate(-369.392 -63.354)" fill="#753b37"/>
            </g>
          </g>
          <g id="Grupo_159908" data-name="Grupo 159908" transform="translate(0 41.647)">
            <g id="Grupo_159907" data-name="Grupo 159907">
              <path id="Trazado_225698" data-name="Trazado 225698" d="M108.482,129.493c.336.043,2.907-.138,3.489-1.122s6.183-19.42,6.183-19.42l-1.82-3.509-8.267,17Z" transform="translate(-12.617 -95.818)" fill="#f79e86"/>
              <path id="Trazado_225699" data-name="Trazado 225699" d="M93.907,127.028l20.2-.86c1.014-2.221.178-4.309-.415-7.606,0,0-10.921.492-14.341-.98-2.811-1.211-7.418-.991-7.418-.991Z" transform="translate(-18.238 -91.94)" fill="#71c4fa"/>
              <g id="Grupo_159895" data-name="Grupo 159895" transform="translate(63.7 4.071)">
                <path id="Trazado_225700" data-name="Trazado 225700" d="M98.96,113.88c-.062.121-3.794,8.161-3.794,8.161l-4.5-4.352,3.566-6.012Z" transform="translate(-82.378 -97.717)" fill="#f79e86"/>
                <path id="Trazado_225701" data-name="Trazado 225701" d="M97.125,117.52s3.53,1.24,4.444.415c.584-.529,1.821-5.74,1.966-9.289.081-1.967-.284-3.214-1.726-4.229a9.262,9.262,0,0,0-7.891-1.037c-5.737,1.819-1.306,11.44-.72,12.293S97.125,117.52,97.125,117.52Z" transform="translate(-82.257 -100.763)" fill="#f79e86"/>
                <path id="Trazado_225702" data-name="Trazado 225702" d="M84.525,115.74c-.155-1.877,2.589-2.775,2.935-3.856.326-1.015.816-2.977,1.873-3.454,1.537-.694,1.567-2.051,1.925-3.083s.4-3.264,3.02-3.878,5.531.907,6.983,1.093,5.358-.518,6.071,1.447a5.064,5.064,0,0,1-.712,4.411c-.282.092-4.1-.244-4.271.344s-.866,9.152-4.225,10.465S84.812,119.224,84.525,115.74Z" transform="translate(-84.518 -101.323)" fill="#4c4152"/>
              </g>
              <g id="Grupo_159896" data-name="Grupo 159896" transform="translate(0 101.328)">
                <path id="Trazado_225703" data-name="Trazado 225703" d="M43.961,179.783l-4.453-2.6,3.3-3.725,3.969,2.6Z" transform="translate(-36.493 -173.458)" fill="#e6efff"/>
                <path id="Trazado_225704" data-name="Trazado 225704" d="M51.147,181.916c-.344-.221-2.8-1.177-4.26-1.811-1.114-.483-1.11-1.919-1.359-2.132s-2.389-.461-3.007-.814c-1.316-.755-1.464-1.622-1.681-1.617a7.955,7.955,0,0,0-3.5,3.437l8.648,4.952h5.788l-.09-.724C51.621,182.759,51.58,182.193,51.147,181.916Z" transform="translate(-37.249 -172.732)" fill="#40393a"/>
                <path id="Trazado_225705" data-name="Trazado 225705" d="M51.74,182.367H46.284c-1.021,0-8.54-4.869-8.54-4.869-.158.26-.315.539-.472.853,0,0,7.809,4.991,8.708,4.991h5.866v-.777C51.813,182.5,51.778,182.435,51.74,182.367Z" transform="translate(-37.272 -172.052)" fill="#5490ab"/>
              </g>
              <g id="Grupo_159897" data-name="Grupo 159897" transform="translate(52.554 101.78)">
                <path id="Trazado_225706" data-name="Trazado 225706" d="M82.794,179.666l-4.312-2.6,3.762-3.272,4.352,1.813Z" transform="translate(-75.474 -173.794)" fill="#e6efff"/>
                <path id="Trazado_225707" data-name="Trazado 225707" d="M90.127,182.1c-.345-.221-2.8-1.177-4.262-1.811-1.114-.483-1.108-1.919-1.359-2.132s-2.389-.461-3.005-.814c-1.317-.754-1.464-1.622-1.683-1.617a7.97,7.97,0,0,0-3.5,3.437l8.649,4.953h5.787l-.09-.725C90.6,182.944,90.559,182.378,90.127,182.1Z" transform="translate(-76.228 -173.12)" fill="#40393a"/>
                <path id="Trazado_225708" data-name="Trazado 225708" d="M90.719,182.551H85.264c-1.021,0-8.541-4.867-8.541-4.867-.158.259-.314.538-.472.853,0,0,7.809,4.99,8.71,4.99h5.865v-.777C90.792,182.686,90.757,182.62,90.719,182.551Z" transform="translate(-76.251 -172.439)" fill="#5490ab"/>
              </g>
              <path id="Trazado_225709" data-name="Trazado 225709" d="M80.926,187.883l15.969-28.115s-23.848-6.276-24.633-9.257,7.688-12.08,7.688-12.08,19.2,7.472,22.71,9.172c3.762,1.823,10.5,4.827,10.723,6.175s-6.917,13.992-7.545,15.091-9.943,23.4-9.943,23.4Z" transform="translate(-25.104 -84.329)" fill="#bf4347"/>
              <path id="Trazado_225710" data-name="Trazado 225710" d="M40.99,187.053S57.769,170.7,59.1,170.129c2.02-.867,8.117-5.148,8.117-5.148s12.938-20.423,14.507-22.149,8.943-5.334,8.943-5.334l11.095,5.607s-20.047,23.23-21.146,24.172-7.279,5.954-7.279,5.954L51.3,192.992Z" transform="translate(-35.977 -84.654)" fill="#d24a4e"/>
              <path id="Trazado_225711" data-name="Trazado 225711" d="M77.835,145s5.223-8.845,6.042-11.65,2.833-10.438,3.884-11.958,6.523-6.6,9.445-5.195,5.657,15.892,5.189,17.645-7.974,8-9.025,9.4-4.44,7.361-4.44,7.361Z" transform="translate(-23.146 -92.156)" fill="#8ed3ff"/>
              <path id="Trazado_225712" data-name="Trazado 225712" d="M97.592,132.622a17.944,17.944,0,0,0,4.293,3.875c1.052.468,18.905,3.9,19.529,3.255s.027-3.255.027-3.255L103.2,129.35Z" transform="translate(-16.265 -87.491)" fill="#f79e86"/>
              <path id="Trazado_225713" data-name="Trazado 225713" d="M88.057,125.112l13.8,13.847c2.864-.249,5.114-2.047,7.181-4.684L94.529,116.688Z" transform="translate(-19.586 -91.901)" fill="#8ed3ff"/>
              <g id="Grupo_159898" data-name="Grupo 159898" transform="translate(70.665 36.508)" style="mix-blend-mode: multiply;isolation: isolate">
                <path id="Trazado_225714" data-name="Trazado 225714" d="M95.646,131.269a.427.427,0,0,1-.287-.111l-5.535-5.03a.428.428,0,0,1,.574-.635l5.535,5.032a.427.427,0,0,1-.287.744Z" transform="translate(-89.684 -125.382)" fill="#c7d9e6"/>
              </g>
              <g id="Grupo_159899" data-name="Grupo 159899" transform="translate(71.821 40.492)" style="mix-blend-mode: multiply;isolation: isolate">
                <path id="Trazado_225715" data-name="Trazado 225715" d="M93.556,130.089a.454.454,0,0,1-.139-.023l-2.586-.9a.429.429,0,0,1,.279-.81l2.586.9a.428.428,0,0,1-.14.833Z" transform="translate(-90.542 -128.336)" fill="#c7d9e6"/>
              </g>
              <g id="Grupo_159900" data-name="Grupo 159900" transform="translate(11.706 58.798)" style="mix-blend-mode: multiply;isolation: isolate">
                <path id="Trazado_225716" data-name="Trazado 225716" d="M46.383,188.165a.427.427,0,0,1-.29-.743l23.62-21.77,17.046-21.689a.419.419,0,0,1,.457-.146,6.814,6.814,0,0,0,6.836-1.769.428.428,0,1,1,.62.589,7.679,7.679,0,0,1-7.414,2.078L70.338,166.232,46.673,188.051A.427.427,0,0,1,46.383,188.165Z" transform="translate(-45.954 -141.914)" fill="#dec3be"/>
              </g>
              <g id="Grupo_159904" data-name="Grupo 159904" transform="translate(103.178)">
                <g id="Grupo_159901" data-name="Grupo 159901" transform="translate(0.284 39.61)">
                  <path id="Trazado_225717" data-name="Trazado 225717" d="M116.52,132.526s.259,5.839.208,6.261.05,1.59-1.42,1.641-1.292-1.671-1.292-1.671l.133-4.943a16.6,16.6,0,0,0,.727-2.784,14.15,14.15,0,0,1,.562-2.427s.682-1.162.951-.876a8.061,8.061,0,0,1,.062,2.508Z" transform="translate(-114.01 -127.682)" fill="#f79e86"/>
                </g>
                <g id="Grupo_159902" data-name="Grupo 159902">
                  <path id="Trazado_225718" data-name="Trazado 225718" d="M116.787,103.151s.248,1.274.43,1.877l-.63,4.389a15.188,15.188,0,0,0-1.085,1.7l-1.7-1.952.523-4.916s.573-1.94.692-2.768a9.254,9.254,0,0,1,1-2.324s.774-1.1,1.017-.8-.328,2.42-.328,2.42Z" transform="translate(-113.799 -98.304)" fill="#f79e86"/>
                </g>
                <g id="Grupo_159903" data-name="Grupo 159903" transform="translate(0.833 4.03)">
                  <path id="Trazado_225719" data-name="Trazado 225719" d="M114.422,106.391a11.781,11.781,0,0,0,2.331-1.87c.144-.26.546-2.03.822-2.478s1.08-1.013,1.242-.616a9.311,9.311,0,0,1-.479,2.439c-.055.363-.352,2.488-.638,3.573a15.205,15.205,0,0,1-1.986,3.311S114.321,106.367,114.422,106.391Z" transform="translate(-114.417 -101.292)" fill="#f79e86"/>
                </g>
              </g>
              <g id="Grupo_159905" data-name="Grupo 159905" transform="translate(81.101 41.273)">
                <path id="Trazado_225720" data-name="Trazado 225720" d="M97.854,133.822a.427.427,0,0,1-.049-.852c2.328-.266,4.753-2.2,6.02-3.883a.428.428,0,1,1,.685.514c-1.375,1.827-4.029,3.926-6.609,4.219A.283.283,0,0,1,97.854,133.822Z" transform="translate(-97.425 -128.916)" fill="#d24a4e"/>
              </g>
              <g id="Grupo_159906" data-name="Grupo 159906" transform="translate(92.942 26.496)">
                <path id="Trazado_225721" data-name="Trazado 225721" d="M107.331,125.825a.44.44,0,0,1-.422-.493,13.1,13.1,0,0,0-.682-6.813.43.43,0,0,1,.276-.539.424.424,0,0,1,.538.275,13.859,13.859,0,0,1,.713,7.21A.428.428,0,0,1,107.331,125.825Z" transform="translate(-106.207 -117.956)" fill="#d24a4e"/>
              </g>
              <path id="Trazado_225722" data-name="Trazado 225722" d="M77.645,137.9l.957-1.4,11.2,5.668-.971,1.582Z" transform="translate(-23.212 -85.003)" fill="#40393a"/>
            </g>
          </g>
        </g>
      </g>
    </g>
    <text id="Estructurales" transform="translate(879.667 2612)" fill="#fff" font-size="20" font-family="Roboto-Black, Roboto" font-weight="800"><tspan x="0" y="0">Estructurales</tspan></text>
    <text id="Dinámicas" transform="translate(1122.667 2612)" fill="#fff" font-size="20" font-family="Roboto-Black, Roboto" font-weight="800"><tspan x="0" y="0">Dinámicas</tspan></text>
  </g>
</svg>
