<svg xmlns="http://www.w3.org/2000/svg" width="190.333" height="100" viewBox="0 0 190.333 100">
  <g id="Grupo_159917" data-name="Grupo 159917" transform="translate(-179.667 -1544)">
    <rect id="Rectángulo_33803" data-name="Rectángulo 33803" width="190" height="100" transform="translate(180 1544)" fill="none"/>
    <path id="Trazado_113613" data-name="Trazado 113613" d="M-22,0H107a40,40,0,0,1,0,80H-22Z" transform="translate(201.667 1554)" fill="rgba(121,210,220,0.2)"/>
    <g id="_27-Food_stand" data-name="27-Food stand" transform="translate(210.482 1543)">
      <ellipse id="Elipse_6553" data-name="Elipse 6553" cx="6.593" cy="6.319" rx="6.593" ry="6.319" transform="translate(30.473 66.934)" fill="#415372"/>
      <path id="Trazado_225749" data-name="Trazado 225749" d="M18,18h8.511V28.638H18Z" transform="translate(16.915 19.17)" fill="#f9d124"/>
      <path id="Trazado_225750" data-name="Trazado 225750" d="M26,18h8.511V28.638H26Z" transform="translate(25.936 19.17)" fill="#f9d124"/>
      <g id="Grupo_159916" data-name="Grupo 159916" transform="translate(26.404 3.128)">
        <path id="Trazado_225751" data-name="Trazado 225751" d="M24.638,36.511a6.383,6.383,0,0,0-6.383,6.383H14V28H56.553V42.894H31.021A6.383,6.383,0,0,0,24.638,36.511Z" transform="translate(-14 27.319)" fill="#ccd3eb"/>
        <path id="Trazado_225752" data-name="Trazado 225752" d="M38.511,22.255v6.383H30V18h4.255Z" transform="translate(4.043 16.043)" fill="#ccd3eb"/>
        <path id="Trazado_225753" data-name="Trazado 225753" d="M22,18h8.511V28.638H22Z" transform="translate(-4.979 16.043)" fill="#ccd3eb"/>
        <path id="Trazado_225754" data-name="Trazado 225754" d="M22.511,18V28.638H14V22.255L18.255,18Z" transform="translate(-14 16.043)" fill="#ccd3eb"/>
        <path id="Trazado_225755" data-name="Trazado 225755" d="M22.511,21.149v2.128a4.255,4.255,0,1,1-8.511,0V6.255a4.255,4.255,0,1,1,8.511,0Z" transform="translate(-14 -2)" fill="#ccd3eb"/>
        <path id="Trazado_225756" data-name="Trazado 225756" d="M38.511,21.149v2.128a4.255,4.255,0,0,1-8.511,0V6.255a4.255,4.255,0,0,1,8.511,0Z" transform="translate(4.043 -2)" fill="#ccd3eb"/>
        <path id="Trazado_225757" data-name="Trazado 225757" d="M48.511,3V15.766H40V3Z" transform="translate(15.319 -0.872)" fill="#ccd3eb"/>
      </g>
      <path id="Trazado_225758" data-name="Trazado 225758" d="M4,4H25.277v8.511H4Z" transform="translate(1.128 3.383)" fill="#415372"/>
      <path id="Trazado_225759" data-name="Trazado 225759" d="M18,4H43.532v8.511H18Z" transform="translate(16.915 3.383)" fill="#415372"/>
      <path id="Trazado_225760" data-name="Trazado 225760" d="M34,4H46.766v8.511H34Z" transform="translate(34.957 3.383)" fill="#415372"/>
      <path id="Trazado_225761" data-name="Trazado 225761" d="M65.319,11H61.064v2.128a4.255,4.255,0,0,1-8.511,0V11H27.021v2.128a4.255,4.255,0,0,1-8.511,0V11H14.255A4.268,4.268,0,0,0,10,15.255V83.34A4.268,4.268,0,0,0,14.255,87.6H65.319a4.268,4.268,0,0,0,4.255-4.255V15.255A4.268,4.268,0,0,0,65.319,11ZM61.064,62.064H35.532a6.383,6.383,0,0,1-12.766,0H18.511V47.17H61.064Zm0-25.532H18.511V30.149l4.255-4.255H56.808l4.255,4.255Z" transform="translate(7.894 11.277)" fill="#ff6a46"/>
      <path id="Trazado_225762" data-name="Trazado 225762" d="M22.511,21.149v2.128a4.255,4.255,0,1,1-8.511,0V6.255a4.255,4.255,0,1,1,8.511,0Z" transform="translate(12.404 1.128)" fill="#adb5d5"/>
      <path id="Trazado_225763" data-name="Trazado 225763" d="M38.511,21.149v2.128a4.255,4.255,0,0,1-8.511,0V6.255a4.255,4.255,0,0,1,8.511,0Z" transform="translate(30.447 1.128)" fill="#adb5d5"/>
      <path id="Trazado_225764" data-name="Trazado 225764" d="M48.511,3V15.766H40V3Z" transform="translate(41.723 2.255)" fill="#ccd3eb"/>
      <path id="Trazado_225765" data-name="Trazado 225765" d="M4,4H25.277v8.511H4Z" transform="translate(1.128 3.383)" fill="#415372"/>
      <path id="Trazado_225766" data-name="Trazado 225766" d="M18,4H43.532v8.511H18Z" transform="translate(16.915 3.383)" fill="#415372"/>
      <path id="Trazado_225767" data-name="Trazado 225767" d="M34,4H46.766v8.511H34Z" transform="translate(34.957 3.383)" fill="#415372"/>
      <path id="Trazado_225768" data-name="Trazado 225768" d="M65.319,11H61.064v2.128a4.255,4.255,0,0,1-8.511,0V11H27.021v2.128a4.255,4.255,0,0,1-8.511,0V11H14.255A4.268,4.268,0,0,0,10,15.255V83.34A4.268,4.268,0,0,0,14.255,87.6H65.319a4.268,4.268,0,0,0,4.255-4.255V15.255A4.268,4.268,0,0,0,65.319,11Z" transform="translate(7.894 11.277)" fill="#ff6a46"/>
      <path id="Trazado_225769" data-name="Trazado 225769" d="M17.447,84.342a4.268,4.268,0,0,1-4.255-4.255V12a4.077,4.077,0,0,1,.117-.947A4.255,4.255,0,0,0,10,15.193V83.278a4.268,4.268,0,0,0,4.255,4.255H65.319a4.255,4.255,0,0,0,4.138-3.309,4.077,4.077,0,0,1-.947.117Z" transform="translate(7.894 11.339)" fill="#e0523a"/>
      <path id="Trazado_225770" data-name="Trazado 225770" d="M4,4H25.277V8.255H4Z" transform="translate(1.128 3.383)" fill="#586889"/>
      <path id="Trazado_225771" data-name="Trazado 225771" d="M18,4H43.532V8.255H18Z" transform="translate(16.915 3.383)" fill="#586889"/>
      <path id="Trazado_225772" data-name="Trazado 225772" d="M34,4H46.766V8.255H34Z" transform="translate(34.957 3.383)" fill="#586889"/>
      <path id="Trazado_225773" data-name="Trazado 225773" d="M13,4h2.128v8.511H13Z" transform="translate(11.277 3.383)" fill="#2b3e5b"/>
      <path id="Trazado_225774" data-name="Trazado 225774" d="M29,4h2.128v8.511H29Z" transform="translate(29.319 3.383)" fill="#2b3e5b"/>
      <path id="Trazado_225775" data-name="Trazado 225775" d="M39,4h2.128v8.511H39Z" transform="translate(40.596 3.383)" fill="#2b3e5b"/>
      <path id="Trazado_225776" data-name="Trazado 225776" d="M40,6h8.511v6.383H40Z" transform="translate(41.723 5.638)" fill="#adb5d5"/>
      <path id="Trazado_225777" data-name="Trazado 225777" d="M41,4h4.255V8.255H41Z" transform="translate(42.851 3.383)" fill="#7989af"/>
      <path id="Trazado_225778" data-name="Trazado 225778" d="M41,6h4.255v4.255H41Z" transform="translate(42.851 5.638)" fill="#415372"/>
      <path id="Trazado_225779" data-name="Trazado 225779" d="M16,4V25.277a4.268,4.268,0,0,0,4.255-4.255V8.255A4.287,4.287,0,0,0,16,4Z" transform="translate(14.66 3.383)" fill="#dee3f3"/>
      <path id="Trazado_225780" data-name="Trazado 225780" d="M18.255,6.255V2A4.268,4.268,0,0,0,14,6.255v4.255a4.268,4.268,0,0,1,4.255-4.255Z" transform="translate(12.404 1.128)" fill="#dee3f3"/>
      <path id="Trazado_225781" data-name="Trazado 225781" d="M19,3.255A4.16,4.16,0,0,0,16,2V6.255a4.287,4.287,0,0,1,4.255,4.255V6.255a4.16,4.16,0,0,0-1.255-3Z" transform="translate(14.66 1.128)" fill="#f6fafd"/>
      <path id="Trazado_225782" data-name="Trazado 225782" d="M30,8.255V21.021a4.268,4.268,0,0,0,4.255,4.255V4A4.268,4.268,0,0,0,30,8.255Z" transform="translate(30.447 3.383)" fill="#adb5d5"/>
      <path id="Trazado_225783" data-name="Trazado 225783" d="M32,4V25.277a4.268,4.268,0,0,0,4.255-4.255V8.255A4.287,4.287,0,0,0,32,4Z" transform="translate(32.702 3.383)" fill="#dee3f3"/>
      <path id="Trazado_225784" data-name="Trazado 225784" d="M34.255,6.255V2A4.268,4.268,0,0,0,30,6.255v4.255a4.268,4.268,0,0,1,4.255-4.255Z" transform="translate(30.447 1.128)" fill="#dee3f3"/>
      <path id="Trazado_225785" data-name="Trazado 225785" d="M35,3.255A4.16,4.16,0,0,0,32,2V6.255a4.287,4.287,0,0,1,4.255,4.255V6.255a4.16,4.16,0,0,0-1.255-3Z" transform="translate(32.702 1.128)" fill="#f6fafd"/>
      <path id="Trazado_225786" data-name="Trazado 225786" d="M18.255,16.255A4.268,4.268,0,0,1,14,12v4.255a4.255,4.255,0,0,0,8.511,0V12A4.268,4.268,0,0,1,18.255,16.255Z" transform="translate(12.404 12.404)" fill="#e0523a"/>
      <path id="Trazado_225787" data-name="Trazado 225787" d="M34.255,16.255A4.268,4.268,0,0,1,30,12v4.255a4.255,4.255,0,0,0,8.511,0V12A4.268,4.268,0,0,1,34.255,16.255Z" transform="translate(30.447 12.404)" fill="#e0523a"/>
      <ellipse id="Elipse_6554" data-name="Elipse 6554" cx="6.593" cy="6.319" rx="6.593" ry="6.319" transform="translate(30.473 66.934)" fill="#415372"/>
      <path id="Trazado_225788" data-name="Trazado 225788" d="M18,18h8.511V28.638H18Z" transform="translate(16.915 19.17)" fill="#f9d124"/>
      <path id="Trazado_225789" data-name="Trazado 225789" d="M26,18h8.511V28.638H26Z" transform="translate(25.936 19.17)" fill="#f9d124"/>
      <path id="Trazado_225790" data-name="Trazado 225790" d="M24.638,36.511a6.383,6.383,0,0,0-6.383,6.383H14V28H56.553V42.894H31.021A6.383,6.383,0,0,0,24.638,36.511Z" transform="translate(12.404 30.447)" fill="#ccd3eb"/>
      <path id="Trazado_225791" data-name="Trazado 225791" d="M38.511,22.255v6.383H30V18h4.255Z" transform="translate(30.447 19.17)" fill="#ccd3eb"/>
      <path id="Trazado_225792" data-name="Trazado 225792" d="M22,18h8.511V28.638H22Z" transform="translate(21.426 19.17)" fill="#ccd3eb"/>
      <path id="Trazado_225793" data-name="Trazado 225793" d="M22.511,18V28.638H14V22.255L18.255,18Z" transform="translate(12.404 19.17)" fill="#ccd3eb"/>
      <circle id="Elipse_6555" data-name="Elipse 6555" cx="2.198" cy="2.198" r="2.198" transform="translate(34.868 71.33)" fill="#adb5d5"/>
      <path id="Trazado_225794" data-name="Trazado 225794" d="M18,18h4.255v4.255H18Z" transform="translate(16.915 19.17)" fill="#f9d124"/>
      <path id="Trazado_225795" data-name="Trazado 225795" d="M20,18h4.255v4.255H20Z" transform="translate(19.17 19.17)" fill="#f5f2a3"/>
      <path id="Trazado_225796" data-name="Trazado 225796" d="M20,20h4.255v6.383H20Z" transform="translate(19.17 21.426)" fill="#f9d124"/>
      <path id="Trazado_225797" data-name="Trazado 225797" d="M18,20h4.255v6.383H18Z" transform="translate(16.915 21.426)" fill="#fbb40a"/>
      <path id="Trazado_225798" data-name="Trazado 225798" d="M26,18h4.255v4.255H26Z" transform="translate(25.936 19.17)" fill="#f9d124"/>
      <path id="Trazado_225799" data-name="Trazado 225799" d="M28,18h4.255v4.255H28Z" transform="translate(28.191 19.17)" fill="#f5f2a3"/>
      <path id="Trazado_225800" data-name="Trazado 225800" d="M28,20h4.255v6.383H28Z" transform="translate(28.191 21.426)" fill="#f9d124"/>
      <path id="Trazado_225801" data-name="Trazado 225801" d="M26,20h4.255v6.383H26Z" transform="translate(25.936 21.426)" fill="#fbb40a"/>
      <path id="Trazado_225802" data-name="Trazado 225802" d="M32,22.255h4.255L32,18Z" transform="translate(32.702 19.17)" fill="#f6fafd"/>
      <path id="Trazado_225803" data-name="Trazado 225803" d="M30,20h4.255v6.383H30Z" transform="translate(30.447 21.426)" fill="#ccd3eb"/>
      <path id="Trazado_225804" data-name="Trazado 225804" d="M32,20h4.255v6.383H32Z" transform="translate(32.702 21.426)" fill="#dee3f3"/>
      <path id="Trazado_225805" data-name="Trazado 225805" d="M30,18h4.255v4.255H30Z" transform="translate(30.447 19.17)" fill="#dee3f3"/>
      <path id="Trazado_225806" data-name="Trazado 225806" d="M22,18h4.255v4.255H22Z" transform="translate(21.426 19.17)" fill="#dee3f3"/>
      <path id="Trazado_225807" data-name="Trazado 225807" d="M24,18h4.255v4.255H24Z" transform="translate(23.681 19.17)" fill="#f6fafd"/>
      <path id="Trazado_225808" data-name="Trazado 225808" d="M22,20h4.255v6.383H22Z" transform="translate(21.426 21.426)" fill="#ccd3eb"/>
      <path id="Trazado_225809" data-name="Trazado 225809" d="M24,20h4.255v6.383H24Z" transform="translate(23.681 21.426)" fill="#dee3f3"/>
      <path id="Trazado_225810" data-name="Trazado 225810" d="M16,20h4.255v6.383H16Z" transform="translate(14.66 21.426)" fill="#dee3f3"/>
      <path id="Trazado_225811" data-name="Trazado 225811" d="M16,18h4.255v4.255H16Z" transform="translate(14.66 19.17)" fill="#f6fafd"/>
      <path id="Trazado_225812" data-name="Trazado 225812" d="M14,20h4.255v6.383H14Z" transform="translate(12.404 21.426)" fill="#ccd3eb"/>
      <path id="Trazado_225813" data-name="Trazado 225813" d="M18.255,18,14,22.255h4.255Z" transform="translate(12.404 19.17)" fill="#dee3f3"/>
      <path id="Trazado_225814" data-name="Trazado 225814" d="M22.875,37.255H48.407V33H21.224a6.343,6.343,0,0,1,1.651,4.255Z" transform="translate(20.55 36.085)" fill="#adb5d5"/>
      <path id="Trazado_225815" data-name="Trazado 225815" d="M14,37.255h4.255A6.343,6.343,0,0,1,19.906,33H14Z" transform="translate(12.404 36.085)" fill="#adb5d5"/>
      <path id="Trazado_225816" data-name="Trazado 225816" d="M14,28H56.553v2.128H14Z" transform="translate(12.404 30.447)" fill="#dee3f3"/>
      <path id="Trazado_225817" data-name="Trazado 225817" d="M16,23h4.255V33.638H16Z" transform="translate(14.66 24.809)" fill="#586889"/>
      <path id="Trazado_225818" data-name="Trazado 225818" d="M30,23h4.255V33.638H30Z" transform="translate(30.447 24.809)" fill="#586889"/>
      <path id="Trazado_225819" data-name="Trazado 225819" d="M30,35h4.255v6.383H30Z" transform="translate(30.447 38.34)" fill="#586889"/>
      <path id="Trazado_225820" data-name="Trazado 225820" d="M30,23h4.255v2.128H30Z" transform="translate(30.447 24.809)" fill="#415372"/>
      <path id="Trazado_225821" data-name="Trazado 225821" d="M16,23h4.255v2.128H16Z" transform="translate(14.66 24.809)" fill="#415372"/>
      <path id="Trazado_225822" data-name="Trazado 225822" d="M30,35h4.255v2.128H30Z" transform="translate(30.447 38.34)" fill="#415372"/>
      <path id="Trazado_225823" data-name="Trazado 225823" d="M35.021,23H18v2.128H41.4v8.511h2.128V23H35.021Z" transform="translate(16.915 24.809)" fill="#e0523a"/>
      <path id="Trazado_225824" data-name="Trazado 225824" d="M32,35h2.128v2.128H32Z" transform="translate(32.702 38.34)" fill="#e0523a"/>
      <path id="Trazado_225825" data-name="Trazado 225825" d="M32,23h2.128v2.128H32Z" transform="translate(32.702 24.809)" fill="#e0523a"/>
      <path id="Trazado_225826" data-name="Trazado 225826" d="M19.383,28.511V26.383H15.128V20L13,22.128v6.383h4.255v8.511h2.128Z" transform="translate(11.277 21.426)" fill="#e0523a"/>
      <path id="Trazado_225827" data-name="Trazado 225827" d="M19.383,41.766H15.128V29H13V43.894h4.255A6.368,6.368,0,0,0,29.074,47.2a6.355,6.355,0,0,1-9.691-5.436Z" transform="translate(11.277 31.574)" fill="#e0523a"/>
      <path id="Trazado_225828" data-name="Trazado 225828" d="M39.228,37.128V35H22.206a6.353,6.353,0,0,1-.389,2.128H37.1v6.383h4.255V41.383H39.228Z" transform="translate(21.219 38.34)" fill="#e0523a"/>
      <path id="Trazado_225829" data-name="Trazado 225829" d="M41.4,24H18v1.415a61.8,61.8,0,0,0,6.383,7.1H41.4Z" transform="translate(16.915 25.936)" fill="#fbb40a"/>
      <path id="Trazado_225830" data-name="Trazado 225830" d="M58.492,15.255v2.128a4.255,4.255,0,1,1-8.511,0V11H24.449v6.383a4.255,4.255,0,1,1-8.511,0V11H12.281a61.242,61.242,0,0,0,5.194,17.613l2.719-2.719H54.236l4.255,4.255v6.383H56.364V38.66H54.236V47.17h4.255V62.064H57.3A61.621,61.621,0,0,0,67,63.864V15.255A4.268,4.268,0,0,0,62.747,11H58.492Z" transform="translate(10.466 11.277)" fill="#fbb40a"/>
      <path id="Trazado_225831" data-name="Trazado 225831" d="M18.255,16.255A4.268,4.268,0,0,1,14,12v4.255a4.255,4.255,0,0,0,8.511,0V12A4.268,4.268,0,0,1,18.255,16.255Z" transform="translate(12.404 12.404)" fill="#ef8900"/>
      <path id="Trazado_225832" data-name="Trazado 225832" d="M30,12v4.255a4.255,4.255,0,0,0,8.511,0V12A4.255,4.255,0,0,1,30,12Z" transform="translate(30.447 12.404)" fill="#ef8900"/>
      <path id="Trazado_225833" data-name="Trazado 225833" d="M34.95,37.511H47.411V29h-25.3A61.668,61.668,0,0,0,34.95,37.511Z" transform="translate(21.546 31.574)" fill="#dee3f3"/>
      <path id="Trazado_225834" data-name="Trazado 225834" d="M18,18h4.255v4.255H18Z" transform="translate(16.915 19.17)" fill="#f9d124"/>
      <path id="Trazado_225835" data-name="Trazado 225835" d="M20,18h4.255v4.255H20Z" transform="translate(19.17 19.17)" fill="#f5f2a3"/>
      <path id="Trazado_225836" data-name="Trazado 225836" d="M20,20h4.255v6.383H20Z" transform="translate(19.17 21.426)" fill="#f9d124"/>
      <path id="Trazado_225837" data-name="Trazado 225837" d="M18,20h4.255v6.383H18Z" transform="translate(16.915 21.426)" fill="#fbb40a"/>
      <path id="Trazado_225838" data-name="Trazado 225838" d="M26,18h4.255v4.255H26Z" transform="translate(25.936 19.17)" fill="#f9d124"/>
      <path id="Trazado_225839" data-name="Trazado 225839" d="M28,18h4.255v4.255H28Z" transform="translate(28.191 19.17)" fill="#f5f2a3"/>
      <path id="Trazado_225840" data-name="Trazado 225840" d="M28,20h4.255v6.383H28Z" transform="translate(28.191 21.426)" fill="#f9d124"/>
      <path id="Trazado_225841" data-name="Trazado 225841" d="M26,20h4.255v6.383H26Z" transform="translate(25.936 21.426)" fill="#fbb40a"/>
      <path id="Trazado_225842" data-name="Trazado 225842" d="M36.255,22.255,32,18v4.255Z" transform="translate(32.702 19.17)" fill="#f6fafd"/>
      <path id="Trazado_225843" data-name="Trazado 225843" d="M30,20h4.255v6.383H30Z" transform="translate(30.447 21.426)" fill="#dee3f3"/>
      <path id="Trazado_225844" data-name="Trazado 225844" d="M32,26.383h4.255V20H32Z" transform="translate(32.702 21.426)" fill="#f6fafd"/>
      <path id="Trazado_225845" data-name="Trazado 225845" d="M30,18h4.255v4.255H30Z" transform="translate(30.447 19.17)" fill="#f6fafd"/>
      <path id="Trazado_225846" data-name="Trazado 225846" d="M22,18h4.255v4.255H22Z" transform="translate(21.426 19.17)" fill="#f6fafd"/>
      <path id="Trazado_225847" data-name="Trazado 225847" d="M24,18h4.255v4.255H24Z" transform="translate(23.681 19.17)" fill="#f6fafd"/>
      <path id="Trazado_225848" data-name="Trazado 225848" d="M22,20h4.255v6.383H22Z" transform="translate(21.426 21.426)" fill="#dee3f3"/>
      <path id="Trazado_225849" data-name="Trazado 225849" d="M24,20h4.255v6.383H24Z" transform="translate(23.681 21.426)" fill="#f6fafd"/>
      <path id="Trazado_225850" data-name="Trazado 225850" d="M17.719,26.383h2.536V20H16v3.617C16.551,24.56,17.121,25.481,17.719,26.383Z" transform="translate(14.66 21.426)" fill="#f6fafd"/>
      <path id="Trazado_225851" data-name="Trazado 225851" d="M16,18h4.255v4.255H16Z" transform="translate(14.66 19.17)" fill="#f6fafd"/>
      <path id="Trazado_225852" data-name="Trazado 225852" d="M17.045,20H15.073q.93,1.849,1.972,3.617Z" transform="translate(13.614 21.426)" fill="#dee3f3"/>
      <path id="Trazado_225853" data-name="Trazado 225853" d="M17.441,22.255V18l-2.719,2.719c.24.517.491,1.028.747,1.536Z" transform="translate(13.218 19.17)" fill="#f6fafd"/>
      <path id="Trazado_225854" data-name="Trazado 225854" d="M39.409,37.255h1.2V33H28.143a61.335,61.335,0,0,0,11.266,4.255Z" transform="translate(28.353 36.085)" fill="#ccd3eb"/>
      <path id="Trazado_225855" data-name="Trazado 225855" d="M38.021,28H21q1.149,1.094,2.351,2.128H48.66V28Z" transform="translate(20.298 30.447)" fill="#f6fafd"/>
      <path id="Trazado_225856" data-name="Trazado 225856" d="M18.564,25.415V24H17.5Q18.026,24.715,18.564,25.415Z" transform="translate(16.351 25.936)" fill="#586889"/>
      <path id="Trazado_225857" data-name="Trazado 225857" d="M30,24h4.255v8.511H30Z" transform="translate(30.447 25.936)" fill="#7989af"/>
      <path id="Trazado_225858" data-name="Trazado 225858" d="M30,23h4.255v2.128H30Z" transform="translate(30.447 24.809)" fill="#586889"/>
      <path id="Trazado_225859" data-name="Trazado 225859" d="M19.344,25.128V23H16.808c.479.721.974,1.428,1.489,2.128Z" transform="translate(15.571 24.809)" fill="#415372"/>
      <path id="Trazado_225860" data-name="Trazado 225860" d="M35.021,23H18v2.128H41.4v8.511h2.128V23H35.021Z" transform="translate(16.915 24.809)" fill="#ef8900"/>
      <path id="Trazado_225861" data-name="Trazado 225861" d="M32,23h2.128v2.128H32Z" transform="translate(32.702 24.809)" fill="#ef8900"/>
      <ellipse id="Elipse_6556" data-name="Elipse 6556" cx="3.511" cy="4.887" rx="3.511" ry="4.887" transform="translate(65.146 34.101) rotate(-45)" fill="#f6fafd"/>
      <ellipse id="Elipse_6557" data-name="Elipse 6557" cx="1.755" cy="2.443" rx="1.755" ry="2.443" transform="translate(70.241 43.099) rotate(-45)" fill="#f6fafd"/>
      <ellipse id="Elipse_6558" data-name="Elipse 6558" cx="1.755" cy="2.443" rx="1.755" ry="2.443" transform="translate(29.819 11.167) rotate(-45)" fill="#f6fafd"/>
      <ellipse id="Elipse_6559" data-name="Elipse 6559" cx="1.755" cy="2.443" rx="1.755" ry="2.443" transform="translate(61.721 64.376) rotate(-45)" fill="#f6fafd"/>
      <ellipse id="Elipse_6560" data-name="Elipse 6560" cx="0.879" cy="1.221" rx="0.879" ry="1.221" transform="translate(60.532 44.349) rotate(-45)" fill="#f0f8fe"/>
      <ellipse id="Elipse_6561" data-name="Elipse 6561" cx="0.879" cy="1.221" rx="0.879" ry="1.221" transform="translate(58.409 63.492) rotate(-45)" fill="#f0f8fe"/>
      <ellipse id="Elipse_6562" data-name="Elipse 6562" cx="0.879" cy="1.221" rx="0.879" ry="1.221" transform="translate(64.781 10.32) rotate(-45)" fill="#f0f8fe"/>
      <path id="Trazado_225862" data-name="Trazado 225862" d="M3,45H7.255v4.255H3Z" transform="translate(0 49.617)" fill="#24283b"/>
      <path id="Trazado_225863" data-name="Trazado 225863" d="M90.234,3.128H81.723A2.128,2.128,0,0,0,79.6,5.255H70.7A6.07,6.07,0,0,0,69.225,2.9,6.245,6.245,0,0,0,64.7,1a6.383,6.383,0,0,0-5.991,4.255H36.657A6.07,6.07,0,0,0,35.183,2.9,6.245,6.245,0,0,0,30.66,1a6.383,6.383,0,0,0-5.991,4.255H7.255V1H3V90.362H7.255V18.021H24.277v2.128H22.149a6.383,6.383,0,0,0-6.383,6.383V94.617A6.383,6.383,0,0,0,22.149,101H73.213A6.383,6.383,0,0,0,79.6,94.617V26.532a6.383,6.383,0,0,0-6.383-6.383H71.085V18.021H79.6a2.128,2.128,0,0,0,2.128,2.128h8.511a2.128,2.128,0,0,0,2.128-2.128V5.255A2.128,2.128,0,0,0,90.234,3.128ZM62.574,7.383A2.128,2.128,0,0,1,64.7,5.255a2.081,2.081,0,0,1,1.515.651,2.036,2.036,0,0,1,.613,1.477V24.4a2.128,2.128,0,1,1-4.255,0ZM58.319,20.149H37.043V18.021H58.319Zm0-6.383H37.043V9.511H58.319ZM28.532,7.383A2.128,2.128,0,0,1,30.66,5.255a2.081,2.081,0,0,1,1.515.651,2.036,2.036,0,0,1,.613,1.477V24.4a2.128,2.128,0,0,1-4.255,0ZM7.255,13.766V9.511H24.277v4.255ZM73.213,24.4a2.128,2.128,0,0,1,2.128,2.128V94.617a2.128,2.128,0,0,1-2.128,2.128H22.149a2.128,2.128,0,0,1-2.128-2.128V26.532A2.128,2.128,0,0,1,22.149,24.4h2.128a6.383,6.383,0,1,0,12.766,0H58.319a6.383,6.383,0,1,0,12.766,0ZM71.085,13.766V9.511H79.6v4.255Zm17.021,2.128H83.851V7.383h4.255Z" transform="translate(0 0)" fill="#24283b"/>
      <path id="Trazado_225864" data-name="Trazado 225864" d="M53.426,17H19.383a2.127,2.127,0,0,0-1.5.623l-4.256,4.256a2.128,2.128,0,0,0-.623,1.5v6.383a2.128,2.128,0,0,0,2.128,2.128h2.128v6.383H15.128A2.128,2.128,0,0,0,13,40.4V55.3a2.128,2.128,0,0,0,2.128,2.128h2.43a8.47,8.47,0,0,0,16.417,0H51.3v4.255h4.255V57.426h2.128A2.128,2.128,0,0,0,59.808,55.3V40.4a2.128,2.128,0,0,0-2.128-2.128H55.553V31.894h2.128a2.128,2.128,0,0,0,2.128-2.128V23.383a2.127,2.127,0,0,0-.623-1.5L54.93,17.623A2.128,2.128,0,0,0,53.426,17ZM42.787,27.638V21.255h4.255v6.383Zm-17.021,0V21.255h4.255v6.383Zm8.511-6.383h4.255v6.383H34.277ZM17.255,24.264l3.009-3.009h1.247v6.383H17.255Zm8.511,35.289A4.255,4.255,0,1,1,30.021,55.3,4.255,4.255,0,0,1,25.766,59.553ZM55.553,53.17H33.974a8.47,8.47,0,0,0-16.417,0h-.3V42.532h38.3ZM51.3,38.277H21.511V31.894H51.3Zm4.255-10.638H51.3V21.255h1.247l3.009,3.009Z" transform="translate(11.277 18.043)" fill="#24283b"/>
      <path id="Trazado_225865" data-name="Trazado 225865" d="M13,41h4.255v4.255H13Z" transform="translate(11.277 45.106)" fill="#24283b"/>
      <path id="Trazado_225866" data-name="Trazado 225866" d="M17,41H55.3v4.255H17Z" transform="translate(15.787 45.106)" fill="#24283b"/>
    </g>
  </g>
</svg>
