<svg id="Page-1" xmlns="http://www.w3.org/2000/svg" width="89.937" height="89.937" viewBox="0 0 89.937 89.937">
  <g id="_038---T-Shirt-Store" data-name="038---T-Shirt-Store" transform="translate(0)">
    <g id="Icons" transform="translate(1.499 1.499)">
      <path id="Shape" d="M78.947,6v6H4V6a6,6,0,0,1,6-6H72.951A6,6,0,0,1,78.947,6Z" transform="translate(1.996)" fill="#02a9f4"/>
      <path id="Shape-2" data-name="Shape" d="M51.5,0H47a6,6,0,0,1,6,6v6h4.5V6A6,6,0,0,0,51.5,0Z" transform="translate(23.45)" fill="#0377bc"/>
      <path id="Shape-3" data-name="Shape" d="M78.947,23.345V72.96a6,6,0,0,1-6,6H10a6,6,0,0,1-6-6V23.345a7.063,7.063,0,0,0,1.5.15A7.5,7.5,0,0,0,12.994,16a7.495,7.495,0,1,0,14.989,0v.749a6.745,6.745,0,1,0,13.49,0,6.745,6.745,0,0,0,13.49,0V16a7.495,7.495,0,0,0,14.989,0,7.5,7.5,0,0,0,7.495,7.495,7.063,7.063,0,0,0,1.5-.15Z" transform="translate(1.996 7.983)" fill="#f5f5f5"/>
      <path id="Shape-4" data-name="Shape" d="M53,20.9V70.515a6,6,0,0,1-6,6h4.5a6,6,0,0,0,6-6V20.9a7.063,7.063,0,0,1-1.5.15Z" transform="translate(23.45 10.428)" fill="#cfd8dc"/>
      <path id="Shape-5" data-name="Shape" d="M17.987,8l-3,8.994H0L6,8Z" transform="translate(0 3.992)" fill="#e91e63"/>
      <path id="Shape-6" data-name="Shape" d="M26.488,8l-1.5,8.994H10L13,8Z" transform="translate(4.989 3.992)" fill="#cfd8dc"/>
      <path id="Shape-7" data-name="Shape" d="M33.49,8v8.994H20L21.5,8Z" transform="translate(9.979 3.992)" fill="#e91e63"/>
      <path id="Shape-8" data-name="Shape" d="M42.49,16.994H29V8H40.992Z" transform="translate(14.469 3.992)" fill="#cfd8dc"/>
      <path id="Shape-9" data-name="Shape" d="M63.987,16.994H49L46,8H57.992Z" transform="translate(22.951 3.992)" fill="#cfd8dc"/>
      <path id="Shape-10" data-name="Shape" d="M14.989,14v3a7.5,7.5,0,0,1-7.495,7.495,7.063,7.063,0,0,1-1.5-.15A7.5,7.5,0,0,1,0,17V14Z" transform="translate(0 6.985)" fill="#e91e63"/>
      <path id="Shape-11" data-name="Shape" d="M24.989,14v3A7.495,7.495,0,1,1,10,17V14Z" transform="translate(4.989 6.985)" fill="#f5f5f5"/>
      <path id="Shape-12" data-name="Shape" d="M33.49,14v3.747a6.745,6.745,0,0,1-13.49,0V14Z" transform="translate(9.979 6.985)" fill="#e91e63"/>
      <path id="Shape-13" data-name="Shape" d="M62.989,14v3a7.5,7.5,0,0,1-6,7.345,7.063,7.063,0,0,1-1.5.15A7.5,7.5,0,0,1,48,17V14Z" transform="translate(23.949 6.985)" fill="#f5f5f5"/>
      <path id="Shape-14" data-name="Shape" d="M56.74,14v3a7.478,7.478,0,0,1-5.228,7.118,7.379,7.379,0,0,0,2.23.376,7.063,7.063,0,0,0,1.5-.15,7.5,7.5,0,0,0,6-7.345V14Z" transform="translate(25.702 6.985)" fill="#cfd8dc"/>
      <path id="Shape-15" data-name="Shape" d="M52.989,14v3A7.495,7.495,0,1,1,38,17V14Z" transform="translate(18.96 6.985)" fill="#e91e63"/>
      <path id="Shape-16" data-name="Shape" d="M42.49,14v3.747a6.745,6.745,0,0,1-13.49,0V14Z" transform="translate(14.469 6.985)" fill="#f5f5f5"/>
      <path id="Shape-17" data-name="Shape" d="M53.488,16.994H38.5L37,8H50.49Z" transform="translate(18.461 3.992)" fill="#e91e63"/>
      <path id="Shape-18" data-name="Shape" d="M25.348,42.48l-7.9,1.319a1.52,1.52,0,0,1-1.589-.809l-3.418-6.82a1.509,1.509,0,0,1,.51-1.919l7.4-4.932a4.514,4.514,0,0,1,.51-.3C21.3,29.455,25.348,33.952,25.348,42.48Z" transform="translate(6.13 14.479)" fill="#fec108"/>
      <path id="Shape-19" data-name="Shape" d="M50.957,29.961c-.435.435-4.482,4.932-4.482,13.46V61.409a3.007,3.007,0,0,1-3,3H25.49a3.007,3.007,0,0,1-3-3V43.422c0-8.529-4.047-13.026-4.482-13.46.18-.09.375-.15.555-.225l7.375-2.458A2.575,2.575,0,0,1,27,27.143a7.234,7.234,0,0,0,7.48,7.285,7.234,7.234,0,0,0,7.48-7.285,2.575,2.575,0,0,1,1.064.135L50.4,29.736c.18.075.375.135.555.225Z" transform="translate(8.986 13.538)" fill="#ffdc00"/>
      <path id="Shape-20" data-name="Shape" d="M43.422,29.736l-7.375-2.458a2.575,2.575,0,0,0-1.064-.135,9.242,9.242,0,0,1-.15,1.226l4.1,1.367c.18.075.375.135.555.225C39.045,30.4,35,34.893,35,43.422V61.409a3.007,3.007,0,0,1-3,3h4.5a3.007,3.007,0,0,0,3-3V43.422c0-8.529,4.047-13.026,4.482-13.46-.18-.09-.375-.15-.555-.225Z" transform="translate(15.966 13.538)" fill="#fec108"/>
      <path id="Shape-21" data-name="Shape" d="M38.97,27.14a7.234,7.234,0,0,1-7.48,7.285,7.234,7.234,0,0,1-7.48-7.285,2.586,2.586,0,0,1,.9.165,19.82,19.82,0,0,0,13.161,0,2.586,2.586,0,0,1,.9-.165Z" transform="translate(11.98 13.541)" fill="#ff9801"/>
      <path id="Shape-22" data-name="Shape" d="M49.906,36.17l-3.418,6.82A1.52,1.52,0,0,1,44.9,43.8L37,42.48c0-8.529,4.047-13.026,4.482-13.46a4.514,4.514,0,0,1,.51.3l7.4,4.932A1.509,1.509,0,0,1,49.906,36.17Z" transform="translate(18.461 14.479)" fill="#fec108"/>
    </g>
    <g id="Icons_copy">
      <circle id="Oval" cx="1.5" cy="1.5" r="1.5" transform="translate(11.968 5.968)"/>
      <circle id="Oval-2" data-name="Oval" cx="1.5" cy="1.5" r="1.5" transform="translate(17.968 5.968)"/>
      <circle id="Oval-3" data-name="Oval" cx="1.5" cy="1.5" r="1.5" transform="translate(23.968 5.968)"/>
      <path id="Shape-23" data-name="Shape" d="M25.5,7H40.488a1.5,1.5,0,1,0,0-3H25.5a1.5,1.5,0,0,0,0,3Z" transform="translate(11.975 1.996)"/>
      <path id="Shape-24" data-name="Shape" d="M83.941,13.041V7.495A7.5,7.5,0,0,0,76.446,0H13.49A7.5,7.5,0,0,0,6,7.495v5.546L.252,21.652A1.508,1.508,0,0,0,0,22.484v3a8.994,8.994,0,0,0,6,8.469V82.442a7.5,7.5,0,0,0,7.495,7.495H76.446a7.5,7.5,0,0,0,7.495-7.495V33.951a8.994,8.994,0,0,0,6-8.469v-3a1.508,1.508,0,0,0-.252-.832ZM8.3,14.989h9.111l-2,6H4.3Zm47.394,0,1,6H46.467v-6Zm13.681,0,2,6H59.728l-1-6Zm-25.9,6H33.247l1-6h9.223Zm-13.261,0H18.567l2-6H31.208Zm-12.221,3H29.979v1.5a6,6,0,1,1-11.992,0Zm14.989,0H43.469v2.248a5.246,5.246,0,1,1-10.493,0Zm13.49,0H56.96v2.248a5.246,5.246,0,1,1-10.493,0Zm13.49,0H71.949v1.5a6,6,0,1,1-11.992,0Zm14.57-3-2-6H81.64l4,6ZM13.49,3H76.446a4.5,4.5,0,0,1,4.5,4.5v4.5H8.994v-4.5A4.5,4.5,0,0,1,13.49,3ZM3,25.482v-1.5H14.989v1.5A6,6,0,1,1,3,25.482Zm77.945,56.96a4.5,4.5,0,0,1-4.5,4.5H13.49a4.5,4.5,0,0,1-4.5-4.5V34.476a8.994,8.994,0,0,0,7.495-4.028A8.994,8.994,0,0,0,31.3,30.7a8.244,8.244,0,0,0,13.667.262A8.244,8.244,0,0,0,58.636,30.7a8.994,8.994,0,0,0,14.813-.256,8.994,8.994,0,0,0,7.495,4.028Zm0-50.964a6,6,0,0,1-6-6v-1.5H86.939v1.5A6,6,0,0,1,80.943,31.478Z" transform="translate(0)"/>
      <path id="Shape-25" data-name="Shape" d="M64.049,35.446l-7.391-4.927a6.009,6.009,0,0,0-.74-.418c-.031-.013-.061-.027-.093-.037a5.982,5.982,0,0,0-.6-.244l-7.364-2.455a4.458,4.458,0,0,0-2.963.042,18.38,18.38,0,0,1-12.119,0,4.443,4.443,0,0,0-2.965-.043l-7.367,2.455a5.861,5.861,0,0,0-.6.244c-.031.01-.061.024-.093.037a5.82,5.82,0,0,0-.74.418l-7.388,4.929a3,3,0,0,0-1.019,3.836l3.41,6.82a2.983,2.983,0,0,0,2.673,1.658,3.014,3.014,0,0,0,.5-.042l6.156-1.027V62.91a4.5,4.5,0,0,0,4.5,4.5H47.831a4.5,4.5,0,0,0,4.5-4.5V46.692l6.155,1.027A2.98,2.98,0,0,0,61.658,46.1l3.41-6.82a3,3,0,0,0-1.019-3.836ZM44.413,30.695a5.351,5.351,0,0,1-5.576,3.735,5.351,5.351,0,0,1-5.573-3.735,21.426,21.426,0,0,0,11.146,0ZM18.7,44.761l-3.41-6.82,6.753-4.5a19.17,19.17,0,0,1,3.269,10.22ZM49.33,62.91a1.5,1.5,0,0,1-1.5,1.5H29.843a1.5,1.5,0,0,1-1.5-1.5V44.923a22.853,22.853,0,0,0-3.532-12.732l5.273-1.757a8.381,8.381,0,0,0,8.751,6.994,8.381,8.381,0,0,0,8.751-6.994l5.273,1.757A22.853,22.853,0,0,0,49.33,44.923Zm9.647-18.149-6.612-1.1a19.156,19.156,0,0,1,3.269-10.22l6.745,4.5Z" transform="translate(6.131 13.536)"/>
      <path id="Shape-26" data-name="Shape" d="M16.133,43.519a1.5,1.5,0,0,0-2.115-.15l-3.987,3.437a2.848,2.848,0,0,0,0,4.389l3.987,3.437a1.5,1.5,0,1,0,1.958-2.269l-3.9-3.368,3.9-3.362A1.5,1.5,0,0,0,16.133,43.519Z" transform="translate(4.49 21.456)"/>
      <path id="Shape-27" data-name="Shape" d="M46.371,43.52a1.5,1.5,0,0,0,.157,2.114L50.427,49l-3.9,3.362a1.5,1.5,0,1,0,1.958,2.269l3.987-3.437a2.848,2.848,0,0,0,0-4.389l-3.987-3.437a1.5,1.5,0,0,0-2.117.156Z" transform="translate(22.943 21.454)"/>
    </g>
  </g>
</svg>
