<svg xmlns="http://www.w3.org/2000/svg" width="119.947" height="146.872" viewBox="0 0 119.947 146.872">
  <g id="ubicacion" transform="translate(-46.93)">
    <g id="Grupo_161638" data-name="Grupo 161638" transform="translate(49.081 2.151)">
      <g id="Grupo_161628" data-name="Grupo 161628" transform="translate(0)">
        <path id="Trazado_229341" data-name="Trazado 229341" d="M137.008,134.623h2.756v-7.658H125.127a2.9,2.9,0,0,1-2.9-2.9V108.727H105.41l-7.1,11.609a1.426,1.426,0,0,1-2.433,0l-7.1-11.609H54.43V214.746a7.512,7.512,0,0,0,7.512,7.512h70.311a7.512,7.512,0,0,0,7.512-7.512V186.309h-3.184a1.667,1.667,0,0,1-1.667-1.667v-7.619a1.667,1.667,0,0,1,1.667-1.667h3.184V151.289h-2.756a2.381,2.381,0,0,1-2.381-2.381V137A2.381,2.381,0,0,1,137.008,134.623Z" transform="translate(-54.43 -79.689)" fill="#dff6fd"/>
        <g id="Grupo_161618" data-name="Grupo 161618" transform="translate(0 29.038)">
          <path id="Trazado_229342" data-name="Trazado 229342" d="M66.5,214.746V108.727H54.43V214.746a7.512,7.512,0,0,0,7.512,7.512H74.016A7.512,7.512,0,0,1,66.5,214.746Z" transform="translate(-54.43 -108.727)" fill="#c8effe"/>
        </g>
        <g id="Grupo_161619" data-name="Grupo 161619" transform="translate(0 10.408)">
          <path id="Trazado_229343" data-name="Trazado 229343" d="M246.269,46.885v-3.1h-8.431a14.406,14.406,0,0,1-1.533,11.828l-4.157,6.8h16.817V51.476a5.247,5.247,0,0,1-2.7-4.591Z" transform="translate(-181.168 -43.784)" fill="#01c0fa"/>
          <path id="Trazado_229344" data-name="Trazado 229344" d="M84.628,55.613a14.405,14.405,0,0,1-1.533-11.828H61.942A7.512,7.512,0,0,0,54.43,51.3V62.414H88.785Z" transform="translate(-54.43 -43.785)" fill="#01c0fa"/>
        </g>
        <g id="Grupo_161620" data-name="Grupo 161620" transform="translate(0 10.408)">
          <path id="Trazado_229345" data-name="Trazado 229345" d="M74.016,43.784H61.942A7.512,7.512,0,0,0,54.43,51.3V62.413H66.5V51.3A7.512,7.512,0,0,1,74.016,43.784Z" transform="translate(-54.43 -43.784)" fill="#08a9f1"/>
        </g>
        <g id="Grupo_161623" data-name="Grupo 161623" transform="translate(28.03)">
          <g id="Grupo_161621" data-name="Grupo 161621" transform="translate(0 0)">
            <path id="Trazado_229346" data-name="Trazado 229346" d="M168,48.147,179.25,29.737a14.615,14.615,0,1,0-24.94,0l11.253,18.411A1.426,1.426,0,0,0,168,48.147Z" transform="translate(-152.143 -7.5)" fill="#fe646f"/>
          </g>
          <g id="Grupo_161622" data-name="Grupo 161622" transform="translate(0)">
            <path id="Trazado_229347" data-name="Trazado 229347" d="M164.023,29.737A14.636,14.636,0,0,1,171.636,8.31a14.644,14.644,0,0,0-17.326,21.427l11.253,18.411a1.426,1.426,0,0,0,2.433,0l3.64-5.955Z" transform="translate(-152.143 -7.5)" fill="#fd4755"/>
          </g>
          <circle id="Elipse_6739" data-name="Elipse 6739" cx="5.703" cy="5.703" r="5.703" transform="translate(8.934 9.362)" fill="#fff"/>
        </g>
        <g id="Grupo_161624" data-name="Grupo 161624" transform="translate(18.93 107.564)">
          <path id="Trazado_229348" data-name="Trazado 229348" d="M163.618,397.942H124.7a4.277,4.277,0,0,1-4.277-4.277v-6.916a4.277,4.277,0,0,1,4.277-4.277h38.92a4.277,4.277,0,0,1,4.277,4.277v6.916A4.277,4.277,0,0,1,163.618,397.942Z" transform="translate(-120.421 -382.471)" fill="#00f2a6"/>
        </g>
        <g id="Grupo_161625" data-name="Grupo 161625" transform="translate(18.93 107.564)">
          <path id="Trazado_229349" data-name="Trazado 229349" d="M132.491,393.665v-6.916a4.277,4.277,0,0,1,4.277-4.277H124.7a4.277,4.277,0,0,0-4.277,4.277v6.916a4.277,4.277,0,0,0,4.277,4.277h12.071A4.277,4.277,0,0,1,132.491,393.665Z" transform="translate(-120.42 -382.471)" fill="#0ed290"/>
        </g>
        <g id="Grupo_161626" data-name="Grupo 161626" transform="translate(8.714 37.486)">
          <path id="Trazado_229350" data-name="Trazado 229350" d="M96.214,151.008H86.233a1.426,1.426,0,0,1-1.426-1.426V139.6a1.426,1.426,0,0,1,1.426-1.426h9.981a1.426,1.426,0,0,1,1.426,1.426v9.981A1.425,1.425,0,0,1,96.214,151.008Z" transform="translate(-84.807 -138.176)" fill="#ffe177"/>
        </g>
        <g id="Grupo_161627" data-name="Grupo 161627" transform="translate(8.714 37.485)">
          <path id="Trazado_229351" data-name="Trazado 229351" d="M90.312,149.581V139.6a1.426,1.426,0,0,1,1.426-1.426H86.232a1.426,1.426,0,0,0-1.426,1.426v9.981a1.426,1.426,0,0,0,1.426,1.426h5.506A1.426,1.426,0,0,1,90.312,149.581Z" transform="translate(-84.806 -138.175)" fill="#ffd15b"/>
        </g>
      </g>
      <g id="Grupo_161637" data-name="Grupo 161637" transform="translate(65.101 0)">
        <g id="Grupo_161629" data-name="Grupo 161629" transform="translate(2.696 15.67)">
          <path id="Trazado_229352" data-name="Trazado 229352" d="M333.566,65.162A5.054,5.054,0,0,1,329.1,62.48a.669.669,0,0,0-1.18,0,5.056,5.056,0,0,1-8.928,0,.669.669,0,0,0-1.18,0,5.056,5.056,0,0,1-8.928,0,.669.669,0,0,0-1.18,0,5.056,5.056,0,0,1-8.928,0,.672.672,0,0,0-1.189.014,5.054,5.054,0,0,1-4.7,2.661,4.866,4.866,0,0,1-2.114-.6V90.832a2.9,2.9,0,0,0,2.9,2.9h39.351a2.9,2.9,0,0,0,2.9-2.9V64.577a5.034,5.034,0,0,1-2.359.586Z" transform="translate(-290.774 -62.126)" fill="#ffe177"/>
        </g>
        <g id="Grupo_161631" data-name="Grupo 161631" transform="translate(2.696 15.699)">
          <g id="Grupo_161630" data-name="Grupo 161630">
            <path id="Trazado_229353" data-name="Trazado 229353" d="M298.008,90.9V62.226a.685.685,0,0,0-.423.341,5.053,5.053,0,0,1-4.7,2.661,4.865,4.865,0,0,1-2.114-.6V90.9a2.9,2.9,0,0,0,2.9,2.9h7.237A2.9,2.9,0,0,1,298.008,90.9Z" transform="translate(-290.771 -62.226)" fill="#ffd15b"/>
          </g>
        </g>
        <g id="Grupo_161632" data-name="Grupo 161632" transform="translate(14.152 26.722)">
          <path id="Trazado_229354" data-name="Trazado 229354" d="M330.709,121.207h22.239V101.915a1.262,1.262,0,0,0-1.262-1.262H331.971a1.262,1.262,0,0,0-1.262,1.262v19.292Z" transform="translate(-330.709 -100.653)" fill="#c8effe"/>
        </g>
        <g id="Grupo_161633" data-name="Grupo 161633" transform="translate(14.152 26.721)">
          <path id="Trazado_229355" data-name="Trazado 229355" d="M336.781,100.652h-4.809a1.262,1.262,0,0,0-1.262,1.262v19.292h4.809V101.914A1.262,1.262,0,0,1,336.781,100.652Z" transform="translate(-330.71 -100.652)" fill="#99e6fc"/>
        </g>
        <g id="Grupo_161634" data-name="Grupo 161634" transform="translate(0 3.993)">
          <path id="Trazado_229356" data-name="Trazado 229356" d="M326.863,21.419h-4.54v3a1.434,1.434,0,0,1-1.434,1.434H292.4a1.434,1.434,0,0,1-1.434-1.434v-3h-4.54a5.055,5.055,0,0,0-5.054,5.054v4.462a5.148,5.148,0,0,0,4.81,5.191,5.053,5.053,0,0,0,4.7-2.661.672.672,0,0,1,1.189-.014,5.056,5.056,0,0,0,8.928,0,.669.669,0,0,1,1.18,0,5.056,5.056,0,0,0,8.928,0,.669.669,0,0,1,1.18,0,5.056,5.056,0,0,0,8.928,0,.669.669,0,0,1,1.18,0,5.055,5.055,0,0,0,9.519-2.372v-4.6A5.053,5.053,0,0,0,326.863,21.419Z" transform="translate(-281.374 -21.419)" fill="#fe646f"/>
        </g>
        <g id="Grupo_161635" data-name="Grupo 161635" transform="translate(9.594 0)">
          <path id="Trazado_229357" data-name="Trazado 229357" d="M344.74,15.924H316.253a1.434,1.434,0,0,1-1.434-1.434V8.934A1.434,1.434,0,0,1,316.253,7.5H344.74a1.434,1.434,0,0,1,1.434,1.434V14.49A1.434,1.434,0,0,1,344.74,15.924Z" transform="translate(-314.819 -7.5)" fill="#ffe177"/>
        </g>
        <g id="Grupo_161636" data-name="Grupo 161636" transform="translate(9.594)">
          <path id="Trazado_229358" data-name="Trazado 229358" d="M324.536,14.49V8.934A1.434,1.434,0,0,1,325.971,7.5h-9.717a1.434,1.434,0,0,0-1.434,1.434V14.49a1.434,1.434,0,0,0,1.434,1.434h9.717a1.434,1.434,0,0,1-1.434-1.434Z" transform="translate(-314.819 -7.5)" fill="#ffd15b"/>
        </g>
      </g>
    </g>
    <g id="Grupo_161639" data-name="Grupo 161639" transform="translate(129.279 57.085)">
      <path id="Trazado_229359" data-name="Trazado 229359" d="M336.381,215.667h11.9a2.381,2.381,0,0,0,2.381-2.381v-11.9A2.381,2.381,0,0,0,348.286,199h-11.9A2.381,2.381,0,0,0,334,201.381v11.9A2.381,2.381,0,0,0,336.381,215.667Z" transform="translate(-334 -199)" fill="#ffe177"/>
    </g>
    <g id="Grupo_161640" data-name="Grupo 161640" transform="translate(129.279 57.085)">
      <path id="Trazado_229360" data-name="Trazado 229360" d="M341.43,213.286v-11.9A2.381,2.381,0,0,1,343.811,199h-7.43A2.381,2.381,0,0,0,334,201.381v11.9a2.381,2.381,0,0,0,2.381,2.381h7.43A2.381,2.381,0,0,1,341.43,213.286Z" transform="translate(-334 -199)" fill="#ffd15b"/>
    </g>
    <g id="Grupo_161641" data-name="Grupo 161641" transform="translate(143.283 80.894)">
      <path id="Trazado_229361" data-name="Trazado 229361" d="M384.487,292.952h7.619a1.667,1.667,0,0,0,1.667-1.667v-7.619A1.667,1.667,0,0,0,392.106,282h-7.619a1.667,1.667,0,0,0-1.667,1.667v7.619A1.667,1.667,0,0,0,384.487,292.952Z" transform="translate(-382.82 -282)" fill="#00f2a6"/>
    </g>
    <g id="Grupo_161642" data-name="Grupo 161642" transform="translate(143.283 80.894)">
      <path id="Trazado_229362" data-name="Trazado 229362" d="M387.7,291.286v-7.619A1.667,1.667,0,0,1,389.363,282h-4.877a1.667,1.667,0,0,0-1.667,1.667v7.619a1.667,1.667,0,0,0,1.667,1.667h4.877A1.667,1.667,0,0,1,387.7,291.286Z" transform="translate(-382.82 -282)" fill="#0ed290"/>
    </g>
    <g id="Grupo_161643" data-name="Grupo 161643" transform="translate(129.565 97.819)">
      <path id="Trazado_229363" data-name="Trazado 229363" d="M336.667,351.952h7.619a1.667,1.667,0,0,0,1.667-1.667v-7.619A1.667,1.667,0,0,0,344.286,341h-7.619A1.667,1.667,0,0,0,335,342.667v7.619A1.667,1.667,0,0,0,336.667,351.952Z" transform="translate(-335 -341)" fill="#01c0fa"/>
    </g>
    <g id="Grupo_161644" data-name="Grupo 161644" transform="translate(129.565 97.819)">
      <path id="Trazado_229364" data-name="Trazado 229364" d="M339.877,350.286v-7.619A1.667,1.667,0,0,1,341.543,341h-4.877A1.667,1.667,0,0,0,335,342.667v7.619a1.667,1.667,0,0,0,1.667,1.667h4.877A1.667,1.667,0,0,1,339.877,350.286Z" transform="translate(-335 -341)" fill="#08a9f1"/>
    </g>
    <g id="Grupo_161649" data-name="Grupo 161649" transform="translate(72.072 49.913)">
      <g id="Grupo_161645" data-name="Grupo 161645" transform="translate(0)">
        <path id="Trazado_229365" data-name="Trazado 229365" d="M134.577,189.343v31.138a1.33,1.33,0,0,0,1.33,1.33H172.6a1.33,1.33,0,0,0,1.33-1.33V189.343l-17.764-14.657a3,3,0,0,0-3.824,0Z" transform="translate(-134.577 -173.999)" fill="#fe646f"/>
      </g>
      <g id="Grupo_161646" data-name="Grupo 161646" transform="translate(0 0)">
        <path id="Trazado_229366" data-name="Trazado 229366" d="M144.686,191.3l15.809-13.043-4.329-3.572a3,3,0,0,0-3.824,0l-17.764,14.656v31.138a1.33,1.33,0,0,0,1.33,1.33h8.258v-29.4a1.435,1.435,0,0,1,.521-1.106Z" transform="translate(-134.577 -173.999)" fill="#fd4755"/>
      </g>
      <g id="Grupo_161647" data-name="Grupo 161647" transform="translate(12.886 25.071)">
        <path id="Trazado_229367" data-name="Trazado 229367" d="M179.5,284.139h13.581v-21.41a1.33,1.33,0,0,0-1.33-1.33H180.827a1.33,1.33,0,0,0-1.33,1.33v21.41Z" transform="translate(-179.497 -261.399)" fill="#fff"/>
      </g>
      <g id="Grupo_161648" data-name="Grupo 161648" transform="translate(12.886 25.071)">
        <path id="Trazado_229368" data-name="Trazado 229368" d="M186.767,261.4h-5.94a1.33,1.33,0,0,0-1.33,1.33v21.41h5.94v-21.41A1.331,1.331,0,0,1,186.767,261.4Z" transform="translate(-179.497 -261.399)" fill="#eef5f6"/>
      </g>
    </g>
    <g id="Grupo_161650" data-name="Grupo 161650" transform="translate(46.93)">
      <path id="Trazado_229369" data-name="Trazado 229369" d="M164.7,388.316V381.4a6.436,6.436,0,0,0-6.429-6.429h-38.92a6.436,6.436,0,0,0-6.429,6.429v6.916a6.436,6.436,0,0,0,6.429,6.429h38.92A6.436,6.436,0,0,0,164.7,388.316Zm-47.475,0V381.4a2.129,2.129,0,0,1,2.126-2.126h38.92a2.129,2.129,0,0,1,2.126,2.126v6.916a2.128,2.128,0,0,1-2.126,2.126h-38.92a2.128,2.128,0,0,1-2.126-2.126Z" transform="translate(-93.99 -267.406)"/>
      <path id="Trazado_229370" data-name="Trazado 229370" d="M80.883,147.81h9.981a3.581,3.581,0,0,0,3.577-3.577v-9.981a3.581,3.581,0,0,0-3.577-3.577H80.883a3.581,3.581,0,0,0-3.577,3.577v9.981a3.582,3.582,0,0,0,3.577,3.577Zm.726-12.832h8.529v8.529H81.609Z" transform="translate(-68.592 -93.189)"/>
      <path id="Trazado_229371" data-name="Trazado 229371" d="M174.553,401.938H143.184a2.152,2.152,0,0,0,0,4.3h31.368A2.152,2.152,0,0,0,174.553,401.938Z" transform="translate(-114.05 -286.638)"/>
      <path id="Trazado_229372" data-name="Trazado 229372" d="M386.757,274.5h-7.619a3.822,3.822,0,0,0-3.818,3.818v7.619a3.822,3.822,0,0,0,3.818,3.818h7.619a3.823,3.823,0,0,0,3.818-3.818v-7.619A3.822,3.822,0,0,0,386.757,274.5Zm-.485,10.952h-6.649V278.8h6.649Z" transform="translate(-281.118 -195.757)"/>
      <path id="Trazado_229373" data-name="Trazado 229373" d="M159.916,191.1a2.152,2.152,0,0,0-.29-3.029l-24.713-20.389a5.165,5.165,0,0,0-6.562,0l-24.712,20.389a2.152,2.152,0,0,0,2.738,3.319l3.428-2.828v26.574a3.485,3.485,0,0,0,3.482,3.482h36.693a3.486,3.486,0,0,0,3.482-3.482V188.565l3.428,2.828a2.152,2.152,0,0,0,3.028-.29Zm-10.759,23.215h-8.583v-4.926a2.152,2.152,0,0,0-4.3,0v4.926h-9.278V195.88h9.278v3.471a2.152,2.152,0,0,0,4.3,0v-4.293a3.485,3.485,0,0,0-3.481-3.482H126.172a3.486,3.486,0,0,0-3.482,3.482v19.259h-8.583v-29.3L131.089,171a.855.855,0,0,1,1.087,0l16.982,14.011v29.3Z" transform="translate(-86.813 -118.744)"/>
      <path id="Trazado_229374" data-name="Trazado 229374" d="M85.3,272.868a2.151,2.151,0,0,0-3.042,0l-3.992,3.992a2.164,2.164,0,0,0,0,3.042l3.992,3.992a2.151,2.151,0,1,0,3.042-3.042l-2.471-2.471,2.471-2.471A2.151,2.151,0,0,0,85.3,272.868Z" transform="translate(-68.83 -194.144)"/>
      <path id="Trazado_229375" data-name="Trazado 229375" d="M300.432,283.9a2.151,2.151,0,0,0,3.042,0l3.992-3.993a2.163,2.163,0,0,0,0-3.042l-3.992-3.992a2.151,2.151,0,0,0-3.042,3.043l2.471,2.471-2.471,2.471A2.151,2.151,0,0,0,300.432,283.9Z" transform="translate(-227.263 -194.144)"/>
      <path id="Trazado_229376" data-name="Trazado 229376" d="M121.491,71.722a2.151,2.151,0,1,0-2.151-2.151A2.151,2.151,0,0,0,121.491,71.722Z" transform="translate(-98.569 -48.09)"/>
      <path id="Trazado_229377" data-name="Trazado 229377" d="M99.5,71.725a2.151,2.151,0,1,0-2.151-2.151A2.151,2.151,0,0,0,99.5,71.725Z" transform="translate(-82.887 -48.093)"/>
      <path id="Trazado_229378" data-name="Trazado 229378" d="M77.5,71.722A2.151,2.151,0,1,0,75.35,69.57,2.151,2.151,0,0,0,77.5,71.722Z" transform="translate(-67.197 -48.09)"/>
      <path id="Trazado_229379" data-name="Trazado 229379" d="M155.41,465.851a2.151,2.151,0,1,0,2.151-2.151A2.152,2.152,0,0,0,155.41,465.851Z" transform="translate(-124.292 -330.683)"/>
      <path id="Trazado_229380" data-name="Trazado 229380" d="M182.25,465.851A2.151,2.151,0,1,0,184.4,463.7,2.152,2.152,0,0,0,182.25,465.851Z" transform="translate(-143.432 -330.683)"/>
      <path id="Trazado_229381" data-name="Trazado 229381" d="M210,465.851a2.151,2.151,0,1,0,2.151-2.151A2.152,2.152,0,0,0,210,465.851Z" transform="translate(-163.222 -330.683)"/>
      <path id="Trazado_229382" data-name="Trazado 229382" d="M235.93,465.851a2.151,2.151,0,1,0,2.151-2.151A2.152,2.152,0,0,0,235.93,465.851Z" transform="translate(-181.714 -330.683)"/>
      <path id="Trazado_229383" data-name="Trazado 229383" d="M183.643,32.635a7.863,7.863,0,0,0-7.855,7.855c.395,10.406,15.316,10.4,15.71,0A7.863,7.863,0,0,0,183.643,32.635Zm0,11.406a3.552,3.552,0,1,1,3.552-3.552A3.556,3.556,0,0,1,183.643,44.041Z" transform="translate(-138.824 -23.273)"/>
      <path id="Trazado_229384" data-name="Trazado 229384" d="M159.671,3.993h-2.388V3.586A3.59,3.59,0,0,0,153.7,0H125.211a3.59,3.59,0,0,0-3.586,3.586v.407h-2.388a7.216,7.216,0,0,0-7.162,6.416h-4.809a17.416,17.416,0,0,0-.894-1.843C99.692-3.635,81.385-2.5,76.231,10.408H56.593a9.674,9.674,0,0,0-9.663,9.663V137.209a9.674,9.674,0,0,0,9.663,9.663H126.9a9.674,9.674,0,0,0,9.663-9.663v-8.983a2.152,2.152,0,0,0-4.3,0v8.982a5.367,5.367,0,0,1-5.361,5.361H56.593a5.367,5.367,0,0,1-5.361-5.361V33.341h31L88.7,43.921a3.577,3.577,0,0,0,6.1,0l6.467-10.58h13.459V46.527a5.057,5.057,0,0,0,5.052,5.052h12.486v3.355h-.6a4.538,4.538,0,0,0-4.532,4.532v11.9A4.538,4.538,0,0,0,131.66,75.9h.6V95.667h-1.032a3.822,3.822,0,0,0-3.818,3.818V107.1a3.822,3.822,0,0,0,3.818,3.818h1.032v7.263a2.152,2.152,0,0,0,4.3,0v-7.263h2.284a3.822,3.822,0,0,0,3.818-3.818V99.486a3.822,3.822,0,0,0-3.818-3.818h-2.284V75.9h7a4.538,4.538,0,0,0,4.532-4.532v-11.9a4.538,4.538,0,0,0-4.532-4.532h-7V51.579h22.562a5.058,5.058,0,0,0,5.052-5.052V39.587a2.152,2.152,0,0,0-4.3,0v6.94a.75.75,0,0,1-.749.749h-6.4V30.135a3.417,3.417,0,0,0-3.414-3.414H129.6a3.418,3.418,0,0,0-3.414,3.414v17.14h-6.4a.75.75,0,0,1-.749-.749V23a7.25,7.25,0,0,0,5.258-2.066,7.26,7.26,0,0,0,10.113,0,7.261,7.261,0,0,0,10.109,0,7.26,7.26,0,0,0,10.108,0A7.184,7.184,0,0,0,159.878,23v6.542a2.152,2.152,0,0,0,4.3,0V21.417a7.194,7.194,0,0,0,2.7-5.614V11.2a7.214,7.214,0,0,0-7.206-7.206ZM138.366,106.62h-6.649V99.97h6.649Zm5.427-47.154v11.9a.23.23,0,0,1-.229.229h-11.9a.23.23,0,0,1-.229-.229v-11.9a.23.23,0,0,1,.229-.229h11.9A.23.23,0,0,1,143.794,59.466Zm4.628-12.19h-6.817V31.025h6.817ZM130.486,31.024H137.3V47.276h-6.817ZM125.928,4.3H152.98V8.424H125.928ZM108.414,14.711h3.617v.949a7.392,7.392,0,0,0,2.7,5.74v7.638H103.9l2.156-3.528a16.606,16.606,0,0,0,2.36-10.8Zm-51.821,0h18.49a16.607,16.607,0,0,0,2.36,10.8L79.6,29.038H51.233V20.072A5.367,5.367,0,0,1,56.593,14.711ZM91.749,40.664l-10.634-17.4C75.973,15.167,82.157,4.139,91.749,4.3c9.59-.165,15.776,10.866,10.634,18.963ZM162.574,15.8a2.909,2.909,0,0,1-5.468,1.361,2.833,2.833,0,0,0-4.978,0,2.917,2.917,0,0,1-5.13,0,2.832,2.832,0,0,0-4.978,0,2.917,2.917,0,0,1-5.13,0,2.833,2.833,0,0,0-4.978,0,2.917,2.917,0,0,1-5.13,0,2.808,2.808,0,0,0-2.477-1.492,2.837,2.837,0,0,0-2.506,1.5,2.9,2.9,0,0,1-2.7,1.53,3.01,3.01,0,0,1-2.76-3.042V11.2a2.906,2.906,0,0,1,2.9-2.9h2.388v.845a3.59,3.59,0,0,0,3.586,3.586H153.7a3.59,3.59,0,0,0,3.586-3.586V8.3h2.388a2.906,2.906,0,0,1,2.9,2.9Z" transform="translate(-46.93)"/>
    </g>
  </g>
</svg>
