<svg xmlns="http://www.w3.org/2000/svg" width="190.333" height="117.219" viewBox="0 0 190.333 117.219">
  <g id="Grupo_161614" data-name="Grupo 161614" transform="translate(-179.667 -5880.491)">
    <rect id="Rect치ngulo_33803" data-name="Rect치ngulo 33803" width="190" height="100" transform="translate(180 5897.71)" fill="none"/>
    <path id="Trazado_113613" data-name="Trazado 113613" d="M-22,0H107a40,40,0,0,1,0,80H-22Z" transform="translate(201.667 5901.101)" fill="rgba(121,210,220,0.2)"/>
    <g id="Grupo_161612" data-name="Grupo 161612" transform="translate(216.658 5882.315)">
      <rect id="Rect치ngulo_45048" data-name="Rect치ngulo 45048" width="62" height="109" rx="3" transform="translate(0.008 0.294)" fill="#26c7db"/>
      <path id="Trazado_229248" data-name="Trazado 229248" d="M192,440h65.682v5.474H192Z" transform="translate(-157.498 -343.302)" fill="#e0e0e2"/>
      <path id="Trazado_229249" data-name="Trazado 229249" d="M212.561,344h49.261a4.561,4.561,0,0,1,4.561,4.561v17.333H208V348.561A4.561,4.561,0,0,1,212.561,344Z" transform="translate(-169.849 -269.196)" fill="#ff9811"/>
      <path id="Trazado_229250" data-name="Trazado 229250" d="M208,464h10.947v7.3H208Z" transform="translate(-169.849 -361.828)" fill="#3e3d42"/>
      <path id="Trazado_229251" data-name="Trazado 229251" d="M416,464h10.947v7.3H416Z" transform="translate(-330.412 -361.828)" fill="#3e3d42"/>
      <path id="Trazado_229252" data-name="Trazado 229252" d="M275.086,282.245H224L225.825,264h47.437Z" transform="translate(-182.2 -207.441)" fill="#78b9eb"/>
      <path id="Trazado_229253" data-name="Trazado 229253" d="M239.3,232h32.841a7.3,7.3,0,0,1,7.3,7.3H232A7.3,7.3,0,0,1,239.3,232Z" transform="translate(-188.375 -182.739)" fill="#ff9811"/>
      <circle id="Elipse_6723" data-name="Elipse 6723" cx="3.5" cy="3.5" r="3.5" transform="translate(44.009 82.294)" fill="#ffda44"/>
      <circle id="Elipse_6724" data-name="Elipse 6724" cx="3.5" cy="3.5" r="3.5" transform="translate(84.008 82.294)" fill="#ffda44"/>
      <path id="Trazado_229254" data-name="Trazado 229254" d="M312.42,383.3h-14.6L296,376h18.245Z" transform="translate(-237.779 -293.898)" fill="#e0e0e2"/>
      <path id="Trazado_229255" data-name="Trazado 229255" d="M148.069,23.3H129.824L128,16h21.894Z" transform="translate(-108.094 -16)" fill="#e0e0e2"/>
      <path id="Trazado_229256" data-name="Trazado 229256" d="M84.771,80A12.771,12.771,0,0,0,72,92.771c0,7.054,12.771,20.069,12.771,20.069S97.543,99.825,97.543,92.771A12.771,12.771,0,0,0,84.771,80Zm0,16.42a3.649,3.649,0,1,1,3.649-3.649A3.649,3.649,0,0,1,84.771,96.42Z" transform="translate(-64.865 -65.404)" fill="#ff5023"/>
    </g>
    <g id="Grupo_161613" data-name="Grupo 161613" transform="translate(214.671 5880.491)">
      <path id="Trazado_229257" data-name="Trazado 229257" d="M134.172,104.7h-1.825V89.19a6.391,6.391,0,0,0-3.765-5.82l-1.71-17.109a9.131,9.131,0,0,0-9.12-9H97.682V14.386A6.393,6.393,0,0,0,91.3,8H38.386A6.393,6.393,0,0,0,32,14.386V114.733a6.393,6.393,0,0,0,6.386,6.386H91.3a6.393,6.393,0,0,0,6.386-6.386v-.912h20.069v5.473a1.824,1.824,0,0,0,1.824,1.825h10.947a1.824,1.824,0,0,0,1.824-1.825v-5.473h1.825A1.824,1.824,0,0,0,136,112v-5.473A1.824,1.824,0,0,0,134.172,104.7ZM128.7,89.19V104.7H73.963V89.19A2.739,2.739,0,0,1,76.7,86.453h49.261A2.739,2.739,0,0,1,128.7,89.19ZM124.858,82.8H77.8l1.46-14.6H123.4ZM117.751,60.91a5.484,5.484,0,0,1,5.161,3.649H79.749A5.484,5.484,0,0,1,84.91,60.91ZM73.45,11.649,72.538,15.3H57.144l-.912-3.649ZM70.314,117.47H38.386a2.739,2.739,0,0,1-2.737-2.737V14.386a2.739,2.739,0,0,1,2.737-2.737H52.469l1.48,5.916a1.824,1.824,0,0,0,1.77,1.382H73.963a1.824,1.824,0,0,0,1.77-1.382l1.48-5.916H91.3a2.739,2.739,0,0,1,2.737,2.737V57.261H84.91a9.131,9.131,0,0,0-9.12,9L74.08,83.37a6.391,6.391,0,0,0-3.765,5.82V104.7H68.49a1.824,1.824,0,0,0-1.824,1.824V112a1.824,1.824,0,0,0,1.824,1.825h1.824Zm10.947,0h-7.3v-3.649h7.3Zm12.771-2.737A2.739,2.739,0,0,1,91.3,117.47H84.91v-3.649h9.122ZM128.7,117.47h-7.3v-3.649h7.3Zm3.649-7.3H70.314v-1.824h62.033Z" transform="translate(-32 -8)"/>
      <path id="Trazado_229258" data-name="Trazado 229258" d="M229.473,368a5.473,5.473,0,1,0,5.473,5.474A5.473,5.473,0,0,0,229.473,368Zm0,7.3a1.824,1.824,0,1,1,1.824-1.824A1.824,1.824,0,0,1,229.473,375.3Z" transform="translate(-180.212 -285.898)"/>
      <path id="Trazado_229259" data-name="Trazado 229259" d="M405.474,368a5.473,5.473,0,1,0,5.473,5.474A5.473,5.473,0,0,0,405.474,368Zm0,7.3a1.824,1.824,0,1,1,1.824-1.824,1.824,1.824,0,0,1-1.824,1.824Z" transform="translate(-316.073 -285.898)"/>
      <path id="Trazado_229260" data-name="Trazado 229260" d="M308.07,368H289.825a1.824,1.824,0,0,0-1.77,2.267l1.824,7.3a1.824,1.824,0,0,0,1.77,1.382h14.6a1.824,1.824,0,0,0,1.77-1.382l1.824-7.3A1.824,1.824,0,0,0,308.07,368Zm-3.249,7.3H293.074l-.912-3.649h13.572Z" transform="translate(-229.616 -285.898)"/>
      <path id="Trazado_229261" data-name="Trazado 229261" d="M114.947,117.473a5.473,5.473,0,1,0-5.473,5.473A5.473,5.473,0,0,0,114.947,117.473Zm-7.3,0a1.824,1.824,0,1,1,1.824,1.824,1.825,1.825,0,0,1-1.824-1.824Z" transform="translate(-87.58 -88.282)"/>
      <path id="Trazado_229262" data-name="Trazado 229262" d="M78.6,108.49a1.825,1.825,0,0,0,1.3-.547c1.361-1.386,13.294-13.766,13.294-21.347A14.6,14.6,0,0,0,64,86.6c0,7.58,11.933,19.96,13.294,21.347A1.824,1.824,0,0,0,78.6,108.49ZM67.649,86.6a10.947,10.947,0,1,1,21.894,0c0,2.437-2.125,6.534-5.984,11.537-1.868,2.422-3.756,4.555-4.963,5.87-1.2-1.309-3.077-3.428-4.941-5.843C69.782,93.145,67.649,89.038,67.649,86.6Z" transform="translate(-56.702 -57.404)"/>
      <path id="Trazado_229263" data-name="Trazado 229263" d="M136.42,272.841a1.824,1.824,0,0,0-1.824-1.824H123.649V241.824a1.824,1.824,0,0,0-3.649,0v31.016a1.824,1.824,0,0,0,1.824,1.824H134.6A1.824,1.824,0,0,0,136.42,272.841Z" transform="translate(-99.931 -187.09)"/>
    </g>
  </g>
</svg>
