<svg xmlns="http://www.w3.org/2000/svg" width="180.91" height="131.187" viewBox="0 0 180.91 131.187">
  <g id="_x31_0_Food_Delivery" transform="translate(-0.206 -73.846)">
    <g id="Grupo_161617" data-name="Grupo 161617" transform="translate(0.206 73.846)">
      <circle id="Elipse_6738" data-name="Elipse 6738" cx="20.578" cy="20.578" r="20.578" transform="translate(126.087 121.72) rotate(-76.7)" fill="#a7b1b3"/>
      <path id="Trazado_229316" data-name="Trazado 229316" d="M121.5,348.949a18.006,18.006,0,1,1-18.015-18.015A18.015,18.015,0,0,1,121.5,348.949Z" transform="translate(-55.332 -240.021)" fill="#a7b1b3"/>
      <path id="Trazado_229317" data-name="Trazado 229317" d="M409.808,366.945a9.271,9.271,0,1,1,9.271-9.271A9.282,9.282,0,0,1,409.808,366.945Z" transform="translate(-258.97 -251.313)" fill="#fff"/>
      <path id="Trazado_229318" data-name="Trazado 229318" d="M124.156,376.327a6.708,6.708,0,1,1,6.709-6.709A6.707,6.707,0,0,1,124.156,376.327Z" transform="translate(-76 -260.69)" fill="#fff"/>
      <path id="Trazado_229319" data-name="Trazado 229319" d="M388.642,296.855h-55.1a30.956,30.956,0,0,1,60.957-7.6A6.074,6.074,0,0,1,388.642,296.855Z" transform="translate(-215.665 -198.004)" fill="#efefef"/>
      <path id="Trazado_229320" data-name="Trazado 229320" d="M431.443,296.845H416.292a6.066,6.066,0,0,0,5.861-7.594,30.989,30.989,0,0,0-22.406-22.387,30.294,30.294,0,0,1,7.557-.942,30.937,30.937,0,0,1,29.982,23.33A6.063,6.063,0,0,1,431.443,296.845Z" transform="translate(-258.459 -197.998)" opacity="0.15"/>
      <path id="Trazado_229321" data-name="Trazado 229321" d="M156.606,191.634l-16.15,22.708a18.168,18.168,0,0,1-14.793,7.613H19.738a50.04,50.04,0,0,1,50.051-50.014h31.527v24.894a10.946,10.946,0,0,0,10.949,10.949h7.029A10.957,10.957,0,0,0,127.586,204L139.213,190.5a10.971,10.971,0,0,0,2.619-8.216l-4.146-42.344h11.42L159.3,176.181a18.108,18.108,0,0,1-2.7,15.453Z" transform="translate(-12.831 -116.569)" fill="#fddc8d"/>
      <path id="Trazado_229322" data-name="Trazado 229322" d="M331.277,191.634l-16.15,22.708a18.168,18.168,0,0,1-14.793,7.613H289.97a18.168,18.168,0,0,0,14.793-7.613l16.15-22.708a18.105,18.105,0,0,0,2.695-15.452l-10.195-36.238h10.364l10.2,36.238A18.105,18.105,0,0,1,331.277,191.634Z" transform="translate(-187.502 -116.57)" opacity="0.15"/>
      <path id="Trazado_229323" data-name="Trazado 229323" d="M81.266,230.43a50.04,50.04,0,0,0-50.051,50.014H19.738A50.04,50.04,0,0,1,69.789,230.43Z" transform="translate(-12.831 -175.058)" fill="#fff" opacity="0.5"/>
      <path id="Trazado_229324" data-name="Trazado 229324" d="M113.99,322.424H59.828a27.081,27.081,0,0,1,54.162,0Z" transform="translate(-38.744 -217.029)" fill="#efefef"/>
      <path id="Trazado_229325" data-name="Trazado 229325" d="M149.656,322.4H134.523a27.054,27.054,0,0,0-19.5-25.986A27.084,27.084,0,0,1,149.656,322.4Z" transform="translate(-74.418 -217.012)" opacity="0.15"/>
      <path id="Trazado_229326" data-name="Trazado 229326" d="M307.832,123.181v5.937H298.8a2.968,2.968,0,1,1,0-5.937Z" transform="translate(-191.292 -105.735)" fill="#a7b1b3"/>
      <path id="Trazado_229327" data-name="Trazado 229327" d="M213.453,207.727a4.873,4.873,0,0,1-4.873,4.873H192.212a4.873,4.873,0,1,1,0-9.747h16.368A4.873,4.873,0,0,1,213.453,207.727Z" transform="translate(-121.164 -157.234)" fill="#a7b1b3"/>
      <path id="Trazado_229328" data-name="Trazado 229328" d="M197.943,212.622h-5.729a4.871,4.871,0,1,1,0-9.743h5.729a4.9,4.9,0,0,0-3.449,1.413,4.877,4.877,0,0,0,3.449,8.329Z" transform="translate(-121.161 -157.25)" fill="#fff" opacity="0.5"/>
      <path id="Trazado_229329" data-name="Trazado 229329" d="M241.7,207.741a4.882,4.882,0,0,1-4.881,4.881h-5.785a4.871,4.871,0,1,0,0-9.743h5.785A4.866,4.866,0,0,1,241.7,207.741Z" transform="translate(-149.406 -157.25)" opacity="0.15"/>
      <path id="Trazado_229330" data-name="Trazado 229330" d="M77.245,85.182v47.476H23.02a6.006,6.006,0,0,1-6.006-6.006V109.743A30.567,30.567,0,0,1,47.581,79.176H71.239A6.006,6.006,0,0,1,77.245,85.182Z" transform="translate(-11.07 -77.291)" fill="#fb888b"/>
      <path id="Trazado_229331" data-name="Trazado 229331" d="M23.446,109.759v16.9a6.016,6.016,0,0,0,6.012,6.011H23.031a6.015,6.015,0,0,1-6.011-6.011v-16.9A30.561,30.561,0,0,1,47.586,79.193h6.426a30.562,30.562,0,0,0-30.566,30.566Z" transform="translate(-11.074 -77.302)" fill="#fff" opacity="0.5"/>
      <path id="Trazado_229332" data-name="Trazado 229332" d="M158.813,85.187v47.488H149.2V85.187a5.983,5.983,0,0,0-5.993-5.993H152.8A6,6,0,0,1,158.813,85.187Z" transform="translate(-92.64 -77.303)" opacity="0.15"/>
      <path id="Trazado_229333" data-name="Trazado 229333" d="M113.658,176.272v5.851a2.46,2.46,0,0,0,2.459,2.459h11.89a2.46,2.46,0,0,0,2.459-2.459v-5.851a2.46,2.46,0,0,0-2.459-2.459h-11.89A2.46,2.46,0,0,0,113.658,176.272Z" transform="translate(-73.539 -138.462)" fill="#efefef"/>
      <path id="Trazado_229334" data-name="Trazado 229334" d="M15.578,361.025v3.337a3.361,3.361,0,0,1-3.361,3.361H8.9a3.361,3.361,0,0,1-3.361-3.361v-3.337A3.361,3.361,0,0,1,8.9,357.664h3.319A3.361,3.361,0,0,1,15.578,361.025Z" transform="translate(-3.652 -257.299)" fill="#fb888b"/>
      <path id="Trazado_229335" data-name="Trazado 229335" d="M354.187,106.765v5.3a3.914,3.914,0,0,1-3.914,3.914H329.764v-9.212a3.914,3.914,0,0,1,3.914-3.914h16.6A3.914,3.914,0,0,1,354.187,106.765Z" transform="translate(-213.224 -92.594)" fill="#fddc8d"/>
      <path id="Trazado_229336" data-name="Trazado 229336" d="M339.143,102.854a3.917,3.917,0,0,0-3.92,3.92v9.2h-5.446v-9.2a3.913,3.913,0,0,1,3.9-3.92Z" transform="translate(-213.232 -92.596)" fill="#fff" opacity="0.5"/>
      <path id="Trazado_229337" data-name="Trazado 229337" d="M382.066,106.774v5.3a3.9,3.9,0,0,1-3.92,3.9h-5.258a3.9,3.9,0,0,0,3.9-3.9v-5.3a3.913,3.913,0,0,0-3.9-3.92h5.258A3.917,3.917,0,0,1,382.066,106.774Z" transform="translate(-241.099 -92.596)" opacity="0.15"/>
      <path id="Trazado_229338" data-name="Trazado 229338" d="M409.725,90.618v21.788a10.894,10.894,0,0,1,0-21.788Z" transform="translate(-257.872 -84.687)" fill="#efefef"/>
      <g id="Grupo_161616" data-name="Grupo 161616">
        <path id="Trazado_229339" data-name="Trazado 229339" d="M180.866,164.635a32.765,32.765,0,0,0-31.686-24.743,20.112,20.112,0,0,0-.692-6.944l-9.593-34.1a5.785,5.785,0,0,0,2.376-1.368,12.757,12.757,0,0,0,10.786,5.97,1.885,1.885,0,0,0,1.884-1.884V79.777a1.885,1.885,0,0,0-1.884-1.884,12.761,12.761,0,0,0-10.785,5.961,5.769,5.769,0,0,0-4.019-1.635h-16.6a5.8,5.8,0,0,0-5.8,5.8v1.391h-7.146a4.853,4.853,0,0,0,0,9.706h15.638l.537,5.485H121.41a1.884,1.884,0,1,0,0,3.769h2.85l.424,4.33H122.2a1.884,1.884,0,1,0,0,3.769h2.852l2.278,23.276a9.114,9.114,0,0,1-2.17,6.807l-11.624,13.488a9.087,9.087,0,0,1-6.868,3.138H99.64a9.074,9.074,0,0,1-9.064-9.063V130.389a6.739,6.739,0,0,0-2.953-12.806H71.254a6.672,6.672,0,0,0-2.988.728V81.737a7.9,7.9,0,0,0-7.891-7.891H36.717A32.488,32.488,0,0,0,4.266,106.3v16.909a7.9,7.9,0,0,0,7.89,7.891h2.388l4.589,12.84A51.73,51.73,0,0,0,5.7,172.326h-.25a5.251,5.251,0,0,0-5.246,5.246v3.338a5.251,5.251,0,0,0,5.246,5.246H8.771A5.241,5.241,0,0,0,14,181.116l14.568.009a19.878,19.878,0,1,0,39.615,0l44.86-.009a20.1,20.1,0,0,0,14.817-6.534h1.464a22.137,22.137,0,0,0-.738,5.626,22.462,22.462,0,0,0,44.924,0,22.137,22.137,0,0,0-.738-5.626h.414a7.957,7.957,0,0,0,7.685-9.947ZM150.174,81.86V99.481a9.012,9.012,0,0,1,0-17.621Zm-43.542,12.4a1.085,1.085,0,0,1,1.084-1.084h7.146v2.168h-7.146A1.084,1.084,0,0,1,106.632,94.26Zm12-6.244a2.031,2.031,0,0,1,2.029-2.029h16.6a2.031,2.031,0,0,1,2.029,2.029v5.3a2.031,2.031,0,0,1-2.029,2.029H118.63ZM71.254,121.351H87.623a2.988,2.988,0,1,1,0,5.977H71.254a2.988,2.988,0,1,1,0-5.977Zm-63.22,1.855V106.3A28.715,28.715,0,0,1,36.716,77.615H60.374A4.127,4.127,0,0,1,64.5,81.737v3.686H40.325a1.884,1.884,0,1,0,0,3.769H64.5v38.136H12.156a4.126,4.126,0,0,1-4.121-4.122ZM37.764,131.1A52.049,52.049,0,0,0,22.086,141l-3.539-9.9ZM10.248,180.91a1.478,1.478,0,0,1-1.477,1.477H5.452a1.478,1.478,0,0,1-1.477-1.477v-3.338A1.478,1.478,0,0,1,5.452,176.1H8.771a1.478,1.478,0,0,1,1.477,1.477ZM48.362,187.6a4.78,4.78,0,0,1-4.478-6.473h8.973A4.783,4.783,0,0,1,48.362,187.6ZM23.246,177.347a25.2,25.2,0,0,1,50.25,0Zm25.116,21.559a16.1,16.1,0,0,1-16-17.781h7.616a8.562,8.562,0,1,0,16.792,0h7.615a16.106,16.106,0,0,1-16.02,17.781Zm64.676-21.559H77.24a28.93,28.93,0,0,0-57.738,0H13.994A5.226,5.226,0,0,0,9.5,172.4a48.213,48.213,0,0,1,47.66-41.3H86.807v23.009A12.847,12.847,0,0,0,99.64,166.945h7.029a12.857,12.857,0,0,0,9.719-4.442l11.624-13.488a12.9,12.9,0,0,0,3.071-9.635l-3.942-40.267h7.917l9.8,34.855a16.136,16.136,0,0,1-2.411,13.844l0,.006L126.3,170.525a16.309,16.309,0,0,1-13.26,6.821Zm56.7,2.86a18.693,18.693,0,1,1-36.506-5.626h8.19a11.155,11.155,0,1,0,19.246,0h8.19a18.527,18.527,0,0,1,.881,5.626Zm-13.975-5.625a7.3,7.3,0,0,1,2.668,5.625,7.387,7.387,0,1,1-14.773,0,7.3,7.3,0,0,1,2.668-5.625Zm17.42-3.769H130.717L145.517,150a19.9,19.9,0,0,0,3.007-6.322,28.961,28.961,0,0,1,28.689,21.877A4.19,4.19,0,0,1,173.182,170.813Z" transform="translate(-0.206 -73.846)"/>
        <path id="Trazado_229340" data-name="Trazado 229340" d="M124.562,168.484h-11.89a4.349,4.349,0,0,0-4.344,4.344v5.85a4.349,4.349,0,0,0,4.344,4.344h11.89a4.349,4.349,0,0,0,4.344-4.344v-5.85A4.349,4.349,0,0,0,124.562,168.484Zm.575,10.194a.575.575,0,0,1-.575.575h-11.89a.575.575,0,0,1-.575-.575v-5.85a.575.575,0,0,1,.575-.575h11.89a.575.575,0,0,1,.575.575Z" transform="translate(-70.093 -135.018)"/>
      </g>
    </g>
  </g>
</svg>
