<svg xmlns="http://www.w3.org/2000/svg" width="117.305" height="104.809" viewBox="0 0 117.305 104.809">
  <g id="mapa" transform="translate(0 -27.272)">
    <path id="Trazado_228702" data-name="Trazado 228702" d="M131.76,250l28.466,12.781V211.837l-24.52-12.781Z" transform="translate(-101.572 -132.426)" fill="#44c868"/>
    <path id="Trazado_228703" data-name="Trazado 228703" d="M133.872,302.387l26.354,40.055L131.76,329.66Z" transform="translate(-101.572 -212.083)" fill="#7ee5f2"/>
    <path id="Trazado_228704" data-name="Trazado 228704" d="M35.981,250,7.515,262.785l9.216-50.817,23.2-12.912Z" transform="translate(-5.793 -132.426)" fill="#4ce166"/>
    <path id="Trazado_228705" data-name="Trazado 228705" d="M12.307,316.018l25.786-13.631L35.981,329.66,7.515,342.442Z" transform="translate(-5.793 -212.083)" fill="#a8eefc"/>
    <path id="Trazado_228706" data-name="Trazado 228706" d="M366.973,250l28.466,12.781-9.216-50.817-23.2-12.912Z" transform="translate(-279.853 -132.426)" fill="#44c868"/>
    <path id="Trazado_228707" data-name="Trazado 228707" d="M368.127,251l28.406,33-6.378-35.17-3.516-1.957Z" transform="translate(-283.785 -169.288)" fill="#7ee5f2"/>
    <path id="Trazado_228708" data-name="Trazado 228708" d="M284.471,250l-28.466,12.781V211.837l24.52-12.781Z" transform="translate(-197.351 -132.426)" fill="#4ce166"/>
    <path id="Trazado_228709" data-name="Trazado 228709" d="M28.432,283.421,54.218,269.79l.751-9.688L30.3,273.1Z" transform="translate(-21.918 -179.486)" fill="#ffdb56"/>
    <g id="Grupo_161489" data-name="Grupo 161489" transform="translate(32.3 71.401)">
      <path id="Trazado_228710" data-name="Trazado 228710" d="M167.34,263.767l-25.61-3.665-.751,9.688,26.354,40.055V295.28L151.608,270.5l15.732,1.883Z" transform="translate(-140.98 -250.887)" fill="#ffbb24"/>
      <path id="Trazado_228711" data-name="Trazado 228711" d="M365.929,230.2l18.512-4.132-11.109-6.184-8.056,1.884Z" transform="translate(-313.887 -219.883)" fill="#ffbb24"/>
    </g>
    <path id="Trazado_228712" data-name="Trazado 228712" d="M282.652,248.616l-1-12.9h0l-.59-7.613-25.028,11v8.613l16.349-7.115Z" transform="translate(-197.374 -154.82)" fill="#ffdb56"/>
    <path id="Trazado_228713" data-name="Trazado 228713" d="M369.063,276.986l30.308,36.562L396.533,297.9l-28.406-33Z" transform="translate(-283.785 -183.19)" fill="#ffbb24"/>
    <path id="Trazado_228714" data-name="Trazado 228714" d="M181.242,34.787A22.363,22.363,0,0,0,158.879,57.15c0,18.808,22.363,36.113,22.363,36.113s22.363-17.305,22.363-36.113A22.363,22.363,0,0,0,181.242,34.787Zm0,31.282a8.92,8.92,0,1,1,8.92-8.92A8.92,8.92,0,0,1,181.242,66.069Z" transform="translate(-122.478 -5.793)" fill="#ff4a4a"/>
    <path id="Trazado_228715" data-name="Trazado 228715" d="M246.059,34.787a22.558,22.558,0,0,0-3.1.215A22.367,22.367,0,0,1,262.224,57.15c0,14.408-13.124,27.934-19.264,33.474,1.875,1.692,3.1,2.639,3.1,2.639s22.363-17.305,22.363-36.113A22.363,22.363,0,0,0,246.059,34.787Z" transform="translate(-187.295 -5.793)" fill="#e7343f"/>
    <path id="Trazado_228716" data-name="Trazado 228716" d="M256.005,413.642l9.81,10.16-9.81,4.4Z" transform="translate(-197.351 -297.848)" fill="#ffdb56"/>
    <path id="Trazado_228717" data-name="Trazado 228717" d="M116.944,131.413c.008-.011.018-.02.026-.031a1.72,1.72,0,0,0,.137-.219c.011-.021.02-.044.03-.066a1.764,1.764,0,0,0,.072-.17c.01-.029.019-.059.027-.089q.023-.08.039-.163c.006-.032.011-.063.016-.1a1.75,1.75,0,0,0,.013-.177c0-.028,0-.056,0-.085a1.705,1.705,0,0,0-.025-.265l-6.873-37.895a1.722,1.722,0,1,0-3.388.614l2.906,16.022-22.4-26.022,15.068-3.363,2.231,1.242.969,5.342a1.722,1.722,0,0,0,3.388-.614l-1.114-6.143a1.721,1.721,0,0,0-.856-1.2h0l-23.2-12.914h0a1.706,1.706,0,0,0-.2-.1c-.022-.008-.044-.014-.066-.022-.048-.017-.1-.033-.146-.046-.028-.007-.056-.011-.085-.017-.044-.009-.089-.017-.133-.023s-.06,0-.091-.007-.087-.005-.13,0-.062,0-.093,0-.085.007-.128.013-.062.01-.093.016-.083.018-.124.029L82.625,65c-.04.014-.079.029-.118.045s-.06.025-.09.04l-.039.017-3.933,2.05a33.481,33.481,0,0,0,4.4-15.8,24.085,24.085,0,1,0-48.169,0,33.585,33.585,0,0,0,4.489,15.955L34.93,65.1c-.013-.007-.027-.011-.04-.018-.029-.014-.059-.027-.088-.039s-.08-.032-.12-.046-.06-.019-.091-.027-.083-.021-.124-.029-.062-.012-.093-.016-.084-.01-.126-.012-.063,0-.095,0-.084,0-.126,0-.063,0-.095.007-.085.014-.128.022-.06.01-.09.018c-.047.012-.093.028-.139.044-.024.008-.049.015-.073.024a1.735,1.735,0,0,0-.2.1h0L10.1,78.038a1.72,1.72,0,0,0-.856,1.2h0L2.711,115.259h0a1.722,1.722,0,1,0,3.388.614l1.96-10.807,22.284-11.78-1.792,23.139L4,127.449l.864-4.766a1.722,1.722,0,1,0-3.388-.614L.028,130.052a1.722,1.722,0,0,0,2.4,1.878l27.761-12.465,27.749,12.46h0l.009,0c.016.007.032.012.048.019l.077.03.076.026.049.014.065.017c.036.008.072.015.108.021l.052.009.035,0a1.691,1.691,0,0,0,.173.011h.033a1.719,1.719,0,0,0,.208-.015l.026,0,.039-.008a1.635,1.635,0,0,0,.161-.035l.044-.01h0l.014-.005a1.711,1.711,0,0,0,.2-.073l27.76-12.464h0l27.761,12.465c.027.012.054.021.082.031s.054.022.081.031.073.021.11.03.045.013.068.018c.044.01.089.016.134.022l.048.008a1.7,1.7,0,0,0,.184.01h0a1.741,1.741,0,0,0,.251-.021l.058-.009a1.682,1.682,0,0,0,.244-.062l.015-.006a1.6,1.6,0,0,0,.158-.063c.015-.007.028-.017.043-.025.043-.022.085-.047.127-.073s.083-.051.122-.08c.014-.01.029-.017.042-.027.03-.024.057-.051.085-.077s.046-.04.068-.061A1.673,1.673,0,0,0,116.944,131.413Zm-48.082-7.525-8.486-8.79V94.025l14.382-6.259,8.862,6.92,1.69,21.817ZM60.376,127.7v-7.642l5.147,5.331ZM53.622,85.3c1.433,1.33,2.594,2.317,3.31,2.906v2.748L43.133,89.3a1.722,1.722,0,0,0-1.658,2.632l15.457,24.361v8.316L34.062,89.85l.28-3.618.283-3.651Zm13.005-2.637L82.16,75.838l1.1,14.2-7.19-5.614a1.722,1.722,0,0,0-1.747-.222l-13.94,6.067V88.381A80.922,80.922,0,0,0,66.627,82.662Zm19.857,4.415-.02-.256,24.673,28.66,1.582,8.723L86.952,93.118ZM85.138,69.694l1.878,1.045-1.765.413ZM46.326,93.151l10.606,1.27v15.446Zm-12.7,2.3,20.338,30.912L32,116.5ZM87.413,99.07l22.118,26.683-20.774-9.328ZM98.065,76.89,85.905,79.6l-.386-4.979,5.969-1.4,6.576,3.661ZM81.658,69.361l.22,2.839-9.7,4.263q1.445-1.792,2.7-3.564ZM58.764,30.716A20.665,20.665,0,0,1,79.406,51.357c0,15.445-16.294,30.221-20.642,33.887C54.416,81.577,38.123,66.8,38.123,51.357A20.665,20.665,0,0,1,58.764,30.716Zm-12.5,46.856c1.1,1.317,2.2,2.542,3.26,3.662L34.892,79.14l.757-9.779,7.137,3.72Q44.372,75.311,46.263,77.572ZM32.17,69.694l-.495,6.388-.268,3.455-20.7,10.908,1.776-9.793ZM8.84,100.758,9.9,94.9l.027-.151L31.093,83.594l-.436,5.631Z" transform="translate(0)"/>
    <path id="Trazado_228718" data-name="Trazado 228718" d="M231.324,96.591A10.653,10.653,0,0,0,220.683,85.95a1.722,1.722,0,0,0,0,3.444,7.2,7.2,0,1,1-5.134,2.153,1.722,1.722,0,0,0-2.456-2.413,10.641,10.641,0,1,0,18.232,7.458Z" transform="translate(-161.919 -45.234)"/>
  </g>
</svg>
