<svg xmlns="http://www.w3.org/2000/svg" width="142.793" height="142.745" viewBox="0 0 142.793 142.745">
  <g id="entrega-a-domicilio" transform="translate(-18.498 -18.592)">
    <path id="Trazado_229264" data-name="Trazado 229264" d="M292.086,165.121v28.3H248.817v-28.3l19.168-13.262a4.3,4.3,0,0,1,4.933,0Z" transform="translate(-161.081 -92.661)" fill="#ffe589"/>
    <path id="Trazado_229265" data-name="Trazado 229265" d="M47.352,241.544a21.642,21.642,0,0,0-21.634,21.634c0,15.121,21.634,43.269,21.634,43.269s21.635-28.125,21.635-43.269A21.643,21.643,0,0,0,47.352,241.544Zm0,30.288a8.654,8.654,0,1,1,8.654-8.654,8.654,8.654,0,0,1-8.654,8.654Z" transform="translate(-5.05 -155.929)" fill="#ff6167"/>
    <path id="Trazado_229266" data-name="Trazado 229266" d="M30.045,263.176A21.644,21.644,0,0,1,49.47,241.649c-.688-.065-1.4-.108-2.117-.108a21.642,21.642,0,0,0-21.634,21.634c0,15.121,21.634,43.269,21.634,43.269s.844-1.082,2.164-2.942c-5.5-7.614-19.472-28.167-19.472-40.326Z" transform="translate(-5.05 -155.927)" fill="#ff3d45"/>
    <circle id="Elipse_6725" data-name="Elipse 6725" cx="8.654" cy="8.654" r="8.654" transform="translate(33.649 98.595)" fill="#ff3d45"/>
    <circle id="Elipse_6726" data-name="Elipse 6726" cx="8.654" cy="8.654" r="8.654" transform="translate(33.649 98.595)" fill="#e0ebf0"/>
    <path id="Trazado_229267" data-name="Trazado 229267" d="M84.653,301.93A8.645,8.645,0,1,1,72.624,289.9a8.638,8.638,0,0,0,12.029,12.029Z" transform="translate(-35.254 -189.749)" fill="#c8dbe4"/>
    <path id="Trazado_229268" data-name="Trazado 229268" d="M292.086,165.121v5.127c-1.056-.505-.111.069-21.635-14.841-21.541,14.921-20.647,14.369-21.634,14.841v-5.127l19.168-13.262a4.3,4.3,0,0,1,4.933,0Z" transform="translate(-161.081 -92.661)" fill="#ffd954"/>
    <path id="Trazado_229269" data-name="Trazado 229269" d="M241.131,94.643,213.284,114.9a6.679,6.679,0,0,0,7.73,10.893l20.2-13.984a4.326,4.326,0,0,1,4.926,0l20.2,13.984a6.679,6.679,0,0,0,7.73-10.893L246.221,94.643a4.327,4.327,0,0,0-5.09,0Z" transform="translate(-134.306 -52.61)" fill="#ff6167"/>
    <path id="Trazado_229270" data-name="Trazado 229270" d="M286.3,219.953h18.628a1.5,1.5,0,0,1,1.5,1.5v20.131H284.8V221.456A1.5,1.5,0,0,1,286.3,219.953Z" transform="translate(-186.247 -140.829)" fill="#e69b6c"/>
    <path id="Trazado_229271" data-name="Trazado 229271" d="M304.271,224.279a10.69,10.69,0,0,0-6.49-2.164,10.822,10.822,0,0,0-10.816,10.818v8.654H284.8V230.769a10.831,10.831,0,0,1,18.476-7.659A10.143,10.143,0,0,1,304.271,224.279Z" transform="translate(-186.247 -140.828)" fill="#e1864d"/>
    <path id="Trazado_229272" data-name="Trazado 229272" d="M75.477,38.62a8.558,8.558,0,0,0-1.093.11c0-.038.011-.072.011-.11A8.634,8.634,0,0,0,59.8,32.35a9.7,9.7,0,0,0-18.927,2.867,10.813,10.813,0,1,0-4.344,20.712H75.477a8.654,8.654,0,0,0,0-17.308Z" transform="translate(-5.049 -4.928)" fill="#e0ebf0"/>
    <path id="Trazado_229273" data-name="Trazado 229273" d="M413.294,236.51a7.552,7.552,0,0,0-6.188,3.228,6.45,6.45,0,0,0-3.547-1.065c-.132,0-.255.03-.386.039A6.465,6.465,0,0,0,392.736,236l.005,15.65h20.553a7.572,7.572,0,1,0,0-15.144Z" transform="translate(-261.736 -150.895)" fill="#1fbd92"/>
    <path id="Trazado_229274" data-name="Trazado 229274" d="M420.79,245.976a7.563,7.563,0,0,1-7.485,6.534H392.752V236.868a6.49,6.49,0,0,1,2.164-1.3,12.613,12.613,0,0,0,12.613,12.613h7.94a7.505,7.505,0,0,0,5.321-2.207Z" transform="translate(-261.747 -151.751)" fill="#00bd82"/>
    <g id="Grupo_161615" data-name="Grupo 161615" transform="translate(40.071 98.594)">
      <path id="Trazado_229275" data-name="Trazado 229275" d="M312.907,321.9a2.164,2.164,0,0,1-1.99-3.011,8.6,8.6,0,0,0,.682-3.375,2.164,2.164,0,1,1,4.327,0,12.878,12.878,0,0,1-1.029,5.068A2.161,2.161,0,0,1,312.907,321.9Z" transform="translate(-244.464 -304.698)" fill="#686169"/>
      <path id="Trazado_229276" data-name="Trazado 229276" d="M198.526,391.172h-8.833a2.164,2.164,0,1,1,0-4.327h8.833a2.164,2.164,0,0,1,0,4.327Zm-17.667,0h-8.834a2.164,2.164,0,0,1,0-4.327h8.834a2.164,2.164,0,0,1,0,4.327Zm-17.667,0h-8.834a2.164,2.164,0,0,1,0-4.327h8.834a2.164,2.164,0,1,1,0,4.327Zm-17.667,0h-8.833a2.164,2.164,0,1,1,0-4.327h8.833a2.164,2.164,0,1,1,0,4.327Zm61.834-.02a2.164,2.164,0,0,1-.142-4.322,7.521,7.521,0,0,0,5.751-3.307,2.164,2.164,0,0,1,3.579,2.432,11.823,11.823,0,0,1-9.043,5.192c-.049,0-.1,0-.146,0Zm8.61-12.7a2.167,2.167,0,0,1-2.06-1.5,7.63,7.63,0,0,0-4.6-4.789,2.164,2.164,0,1,1,1.5-4.061,11.993,11.993,0,0,1,7.219,7.526,2.164,2.164,0,0,1-2.06,2.826ZM201.3,371.7h-8.832a2.164,2.164,0,0,1,0-4.327H201.3a2.164,2.164,0,0,1,0,4.327Zm-17.667,0H174.8a2.164,2.164,0,0,1,0-4.327h8.833a2.164,2.164,0,0,1,0,4.327Zm-17.667,0H159.1a11.961,11.961,0,0,1-2.389-.24,2.164,2.164,0,0,1,.866-4.24,7.647,7.647,0,0,0,1.523.153h6.865a2.164,2.164,0,0,1,0,4.327Zm-15.579-5.4a2.165,2.165,0,0,1-1.936-1.2,11.914,11.914,0,0,1-.086-10.433,2.164,2.164,0,1,1,3.9,1.868,7.581,7.581,0,0,0,.052,6.631,2.164,2.164,0,0,1-1.933,3.131Zm6.6-13.843a2.164,2.164,0,0,1-.463-4.276,11.95,11.95,0,0,1,2.575-.28h6.706a2.164,2.164,0,0,1,0,4.327H159.1a7.674,7.674,0,0,0-1.645.178A2.143,2.143,0,0,1,156.988,352.459Zm22.666-.229h-5.013a2.164,2.164,0,1,1,0-4.327h5.013a8.618,8.618,0,0,0,2.994-.531,2.164,2.164,0,1,1,1.5,4.061A12.943,12.943,0,0,1,179.655,352.229Z" transform="translate(-121.173 -328.43)" fill="#686169"/>
      <path id="Trazado_229277" data-name="Trazado 229277" d="M96.82,483.357H92.493a2.164,2.164,0,1,1,0-4.327H96.82a2.164,2.164,0,0,1,0,4.327Z" transform="translate(-90.261 -420.617)" fill="#686169"/>
      <path id="Trazado_229278" data-name="Trazado 229278" d="M272.546,289.048h-64.9a2.164,2.164,0,1,1,0-4.327h64.9a2.164,2.164,0,0,1,0,4.327Z" transform="translate(-170.795 -284.721)" fill="#686169"/>
    </g>
    <path id="Trazado_229279" data-name="Trazado 229279" d="M83.313,288.476c-.455-14.3-21.182-14.292-21.635,0C62.133,302.772,82.86,302.768,83.313,288.476Zm-17.308,0c.224-8.558,12.758-8.557,12.981,0C78.761,297.034,66.228,297.032,66.005,288.476Z" transform="translate(-30.199 -181.255)"/>
    <path id="Trazado_229280" data-name="Trazado 229280" d="M42.3,303.483c1.946,1.018,23.775-30.465,23.8-45.432a23.8,23.8,0,0,0-47.6,0c0,15.672,21.18,43.415,22.082,44.587A2.166,2.166,0,0,0,42.3,303.483Zm0-64.9a19.493,19.493,0,0,1,19.471,19.471c0,11.8-14.426,32.693-19.471,39.635-5.045-6.947-19.471-27.845-19.471-39.636A19.493,19.493,0,0,1,42.3,238.58Z" transform="translate(0 -150.83)"/>
    <path id="Trazado_229281" data-name="Trazado 229281" d="M31.747,53.135H70.689c13.747-.3,14.485-20.227.872-21.6-1.168-6.851-9.536-10.921-15.692-7.405-5.275-8.859-19.158-6.6-21.56,3.3C15.633,24.607,12.887,52.213,31.747,53.135Zm0-21.634c1.89-.31,3.744,1.587,5.512.579a2.167,2.167,0,0,0,1-1.785A7.536,7.536,0,0,1,52.961,28.07a2.164,2.164,0,0,0,3.543.9,6.471,6.471,0,0,1,10.94,4.606,2.177,2.177,0,0,0,2.43,2.349c9.027-.977,9.914,12.611.815,12.888H31.747c-11.4-.293-11.421-17.01,0-17.309Z" transform="translate(-0.268)"/>
    <path id="Trazado_229282" data-name="Trazado 229282" d="M290.609,138.288c.256-8.353-10.634-12.957-16.456-7.027a8.694,8.694,0,0,0-2-.486,8.57,8.57,0,0,0-9.664-4.077v-5.526c9.373,3.023,15.891-9.647,7.866-15.535l-30.392-22.1a2.156,2.156,0,0,0-2.544,0l-30.392,22.1c-8,5.864-1.526,18.573,7.866,15.577V143.7h-8.654a2.164,2.164,0,0,0,0,4.327h74.64a9.746,9.746,0,0,0,9.735-9.735Zm-82.085-22.911a4.537,4.537,0,0,1,1.042-6.241l29.12-21.178,29.12,21.178c5.12,4.356-1.3,11.218-6.248,6.658,0,0,0,0-.006-.005l-21.634-14.977a2.17,2.17,0,0,0-2.464,0L215.821,115.79s0,0-.006.005c-2.125,1.949-5.548,2.118-7.291-.418Zm10.691,3.326,19.471-13.482L258.157,118.7c0,6.16-.005,18.792,0,24.994h-6.49v-8.654a12.981,12.981,0,1,0-25.962,0V143.7h-6.491ZM230.032,143.7v-8.654a8.654,8.654,0,1,1,17.308,0V143.7Zm50.841,0h-18.39V131.3a4.328,4.328,0,0,1,6.226,2.334,2.136,2.136,0,0,0,2.185,1.447c.051,0,.195-.027.243-.034a4.294,4.294,0,0,1,2.364.712,2.164,2.164,0,0,0,2.956-.566,5.411,5.411,0,0,1,4.416-2.309c7.107.125,7.108,10.693,0,10.817Z" transform="translate(-129.323 -45.129)"/>
    <path id="Trazado_229283" data-name="Trazado 229283" d="M313.756,313.417c-2.985.109-1.775,3.714-2.846,5.542a2.175,2.175,0,0,0,1.992,3.006c2.806-.252,2.826-4.2,3.017-6.384a2.163,2.163,0,0,0-2.164-2.163Z" transform="translate(-204.393 -206.196)"/>
    <path id="Trazado_229284" data-name="Trazado 229284" d="M333.5,416.332a2.162,2.162,0,0,0-2.164-2.164H322.5a2.164,2.164,0,0,0,0,4.327h8.833A2.162,2.162,0,0,0,333.5,416.332Z" transform="translate(-211.143 -276.66)"/>
    <path id="Trazado_229285" data-name="Trazado 229285" d="M263.684,414.171a2.164,2.164,0,0,0,0,4.327h8.832a2.164,2.164,0,0,0,0-4.327Z" transform="translate(-169.996 -276.662)"/>
    <path id="Trazado_229286" data-name="Trazado 229286" d="M313.239,478.942a2.164,2.164,0,0,0,0,4.327h8.833a2.164,2.164,0,0,0,0-4.327Z" transform="translate(-204.654 -321.961)"/>
    <path id="Trazado_229287" data-name="Trazado 229287" d="M384.732,425.206a2.163,2.163,0,0,0,4.118-1.323c-.49-3.032-7.619-10.77-10-6.243a2.164,2.164,0,0,0,1.285,2.777A7.633,7.633,0,0,1,384.732,425.206Z" transform="translate(-251.932 -278.117)"/>
    <path id="Trazado_229288" data-name="Trazado 229288" d="M369.75,471.287a2.167,2.167,0,0,0,2.3,2.016c3.1.25,12.243-4.73,8.468-8.2a2.167,2.167,0,0,0-3.006.571,7.517,7.517,0,0,1-5.749,3.307A2.166,2.166,0,0,0,369.75,471.287Z" transform="translate(-245.657 -312.023)"/>
    <path id="Trazado_229289" data-name="Trazado 229289" d="M252.209,481.106a2.162,2.162,0,0,0,2.164,2.164h8.832a2.164,2.164,0,1,0,0-4.327h-8.833a2.162,2.162,0,0,0-2.164,2.162Z" transform="translate(-163.454 -321.962)"/>
    <path id="Trazado_229290" data-name="Trazado 229290" d="M206.819,413.846c-1.633-.15-3.6-.58-4.078,1.533a2.164,2.164,0,0,0,1.686,2.552c1.634.439,7.5.171,9.254.241a2.164,2.164,0,0,0,0-4.327Z" transform="translate(-128.826 -276.337)"/>
    <path id="Trazado_229291" data-name="Trazado 229291" d="M213.258,349.359c-1.9.079-7.5-.218-9.283.279a2.164,2.164,0,0,0,.934,4.225c1.091-.336,7.123-.12,8.35-.177a2.164,2.164,0,0,0,0-4.327Z" transform="translate(-128.557 -231.321)"/>
    <path id="Trazado_229292" data-name="Trazado 229292" d="M271.176,347.285c-1.864.833-5.989.456-8.005.533a2.164,2.164,0,0,0,0,4.327c2.754-.058,6.939.315,9.505-.8A2.165,2.165,0,0,0,271.176,347.285Z" transform="translate(-169.637 -229.779)"/>
    <path id="Trazado_229293" data-name="Trazado 229293" d="M180.875,368.1c-5.186-1.975-5.287,12.593-.864,12.649a2.175,2.175,0,0,0,1.933-3.129,7.6,7.6,0,0,1-.051-6.634A2.164,2.164,0,0,0,180.875,368.1Z" transform="translate(-110.735 -244.309)"/>
    <path id="Trazado_229294" data-name="Trazado 229294" d="M145.51,478.933h-8.833a2.164,2.164,0,1,0,0,4.327h8.833A2.164,2.164,0,0,0,145.51,478.933Z" transform="translate(-81.091 -321.954)"/>
    <path id="Trazado_229295" data-name="Trazado 229295" d="M193.441,481.1a2.162,2.162,0,0,0,2.164,2.164h8.834a2.164,2.164,0,0,0,0-4.327H195.6A2.162,2.162,0,0,0,193.441,481.1Z" transform="translate(-122.352 -321.959)"/>
    <path id="Trazado_229296" data-name="Trazado 229296" d="M97.052,483.262a2.164,2.164,0,0,0,0-4.327H92.725a2.164,2.164,0,0,0,0,4.327Z" transform="translate(-50.429 -321.957)"/>
  </g>
</svg>
