<svg xmlns="http://www.w3.org/2000/svg" xmlns:xlink="http://www.w3.org/1999/xlink" width="730.245" height="573.831" viewBox="0 0 730.245 573.831">
  <defs>
    <filter id="Trazado_230831" x="330.39" y="64.638" width="395.162" height="395.162" filterUnits="userSpaceOnUse">
      <feOffset input="SourceAlpha"/>
      <feGaussianBlur stdDeviation="3.484" result="blur"/>
      <feFlood flood-color="#b2b2b2" flood-opacity="0.749"/>
      <feComposite operator="in" in2="blur"/>
      <feComposite in="SourceGraphic"/>
    </filter>
    <linearGradient id="linear-gradient" x1="0.041" y1="0.049" x2="0.999" y2="1.162" gradientUnits="objectBoundingBox">
      <stop offset="0" stop-color="#fff"/>
      <stop offset="1" stop-color="#e6e7e8"/>
    </linearGradient>
    <filter id="Trazado_230832" x="51.102" y="278.614" width="295.218" height="295.217" filterUnits="userSpaceOnUse">
      <feOffset input="SourceAlpha"/>
      <feGaussianBlur stdDeviation="2.603" result="blur-2"/>
      <feFlood flood-color="#b2b2b2" flood-opacity="0.749"/>
      <feComposite operator="in" in2="blur-2"/>
      <feComposite in="SourceGraphic"/>
    </filter>
    <filter id="Trazado_230840" x="50.944" y="32.646" width="191.458" height="191.457" filterUnits="userSpaceOnUse">
      <feOffset input="SourceAlpha"/>
      <feGaussianBlur stdDeviation="2.655" result="blur-3"/>
      <feFlood flood-color="#b2b2b2" flood-opacity="0.749"/>
      <feComposite operator="in" in2="blur-3"/>
      <feComposite in="SourceGraphic"/>
    </filter>
    <filter id="Trazado_230833" x="232.236" y="186.764" width="154.031" height="154.031" filterUnits="userSpaceOnUse">
      <feOffset dx="1.561" dy="1.561" input="SourceAlpha"/>
      <feGaussianBlur stdDeviation="2.341" result="blur-4"/>
      <feFlood flood-color="#b2b2b2" flood-opacity="0.749"/>
      <feComposite operator="in" in2="blur-4"/>
      <feComposite in="SourceGraphic"/>
    </filter>
    <filter id="Trazado_228119" x="67.913" y="379.416" width="231.544" height="177.605" filterUnits="userSpaceOnUse">
      <feOffset input="SourceAlpha"/>
      <feGaussianBlur stdDeviation="3.179" result="blur-5"/>
      <feFlood flood-color="#b2b2b2" flood-opacity="0.749"/>
      <feComposite operator="in" in2="blur-5"/>
      <feComposite in="SourceGraphic"/>
    </filter>
    <filter id="Trazado_228120" x="18.299" y="0" width="140.192" height="227.874" filterUnits="userSpaceOnUse">
      <feOffset input="SourceAlpha"/>
      <feGaussianBlur stdDeviation="3.764" result="blur-6"/>
      <feFlood flood-color="#b2b2b2" flood-opacity="0.749"/>
      <feComposite operator="in" in2="blur-6"/>
      <feComposite in="SourceGraphic"/>
    </filter>
    <filter id="Trazado_228121" x="239.624" y="116.557" width="35.424" height="74.588" filterUnits="userSpaceOnUse">
      <feOffset input="SourceAlpha"/>
      <feGaussianBlur stdDeviation="3.764" result="blur-7"/>
      <feFlood flood-color="#b2b2b2" flood-opacity="0.749"/>
      <feComposite operator="in" in2="blur-7"/>
      <feComposite in="SourceGraphic"/>
    </filter>
    <filter id="Trazado_228122" x="123.321" y="211.606" width="102.562" height="45.143" filterUnits="userSpaceOnUse">
      <feOffset input="SourceAlpha"/>
      <feGaussianBlur stdDeviation="3.764" result="blur-8"/>
      <feFlood flood-color="#b2b2b2" flood-opacity="0.749"/>
      <feComposite operator="in" in2="blur-8"/>
      <feComposite in="SourceGraphic"/>
    </filter>
    <filter id="Trazado_228124" x="376.971" y="279.95" width="74.274" height="105.426" filterUnits="userSpaceOnUse">
      <feOffset input="SourceAlpha"/>
      <feGaussianBlur stdDeviation="3.744" result="blur-9"/>
      <feFlood flood-color="#b2b2b2" flood-opacity="0.749"/>
      <feComposite operator="in" in2="blur-9"/>
      <feComposite in="SourceGraphic"/>
    </filter>
    <filter id="Trazado_228125" x="491.138" y="108.234" width="190.817" height="307.969" filterUnits="userSpaceOnUse">
      <feOffset input="SourceAlpha"/>
      <feGaussianBlur stdDeviation="3.744" result="blur-10"/>
      <feFlood flood-color="#b2b2b2" flood-opacity="0.749"/>
      <feComposite operator="in" in2="blur-10"/>
      <feComposite in="SourceGraphic"/>
    </filter>
  </defs>
  <g id="Grupo_162946" data-name="Grupo 162946" transform="translate(381.467 10618.521)">
    <g transform="matrix(1, 0, 0, 1, -381.47, -10618.52)" filter="url(#Trazado_230831)">
      <path id="Trazado_230831-2" data-name="Trazado 230831" d="M132.321,0A132.321,132.321,0,1,1,0,132.321,132.321,132.321,0,0,1,132.321,0Z" transform="translate(340.84 262.22) rotate(-45)" fill="#fed935"/>
    </g>
    <path id="Trazado_228102" data-name="Trazado 228102" d="M645.932,189.521a107.267,107.267,0,0,0-102.505,77.037,27.086,27.086,0,0,1-25.932,19.627h-.082a43.341,43.341,0,0,1-37.2-21.41,62.872,62.872,0,0,0-82.058-24.463,28.11,28.11,0,0,1-32.271-5.512l-.521-.522a38.924,38.924,0,0,1-9.041-40.235,96.524,96.524,0,0,0,5.013-36.2c-2.457-47.985-44.869-89.648-92.888-91.3a96.428,96.428,0,0,0-99.783,99.528c1.563,48.881,44.156,91.555,93.034,93.208a96.04,96.04,0,0,0,53.342-13.911,32.5,32.5,0,0,1,37.75,2.5l.753.627a33.582,33.582,0,0,1,11.283,33.578,63.4,63.4,0,0,0-1.586,18.849A62.569,62.569,0,0,0,377.714,337a13.8,13.8,0,0,1,.091,17.525l-.591.729a16.131,16.131,0,0,1-18.719,4.676,108.677,108.677,0,0,0-43.009-8.141c-59.579.852-107.819,50.2-107.384,109.78A108.979,108.979,0,0,0,319.155,569.714c58.187-1.083,105.695-48.509,106.878-106.694a108.608,108.608,0,0,0-32.8-80.176,16.171,16.171,0,0,1-3.161-19.08l.171-.328a13.835,13.835,0,0,1,16.521-6.741,61.791,61.791,0,0,0,13.558,2.751,62.932,62.932,0,0,0,59.9-30.615,43.42,43.42,0,0,1,37.264-21.515h0a27.138,27.138,0,0,1,25.956,19.7,107.241,107.241,0,0,0,210.089-32.853C752.166,236.131,703.974,189.307,645.932,189.521Z" transform="translate(-499.833 -10653.053)" fill="#12263f" stroke="#12263f" stroke-miterlimit="10" stroke-width="6.302"/>
    <path id="Trazado_228103" data-name="Trazado 228103" d="M645.932,189.521a107.267,107.267,0,0,0-102.505,77.037,27.086,27.086,0,0,1-25.932,19.627h-.082a43.341,43.341,0,0,1-37.2-21.41,62.872,62.872,0,0,0-82.058-24.463,28.11,28.11,0,0,1-32.271-5.512l-.521-.522a38.924,38.924,0,0,1-9.041-40.235,96.524,96.524,0,0,0,5.013-36.2c-2.457-47.985-44.869-89.648-92.888-91.3a96.428,96.428,0,0,0-99.783,99.528c1.563,48.881,44.156,91.555,93.034,93.208a96.04,96.04,0,0,0,53.342-13.911,32.5,32.5,0,0,1,37.75,2.5l.753.627a33.582,33.582,0,0,1,11.283,33.578,63.4,63.4,0,0,0-1.586,18.849A62.569,62.569,0,0,0,377.714,337a13.8,13.8,0,0,1,.091,17.525l-.591.729a16.131,16.131,0,0,1-18.719,4.676,108.677,108.677,0,0,0-43.009-8.141c-59.579.852-107.819,50.2-107.384,109.78A108.979,108.979,0,0,0,319.155,569.714c58.187-1.083,105.695-48.509,106.878-106.694a108.608,108.608,0,0,0-32.8-80.176,16.171,16.171,0,0,1-3.161-19.08l.171-.328a13.835,13.835,0,0,1,16.521-6.741,61.791,61.791,0,0,0,13.558,2.751,62.932,62.932,0,0,0,59.9-30.615,43.42,43.42,0,0,1,37.264-21.515h0a27.138,27.138,0,0,1,25.956,19.7,107.241,107.241,0,0,0,210.089-32.853C752.166,236.131,703.974,189.307,645.932,189.521Z" transform="translate(-499.833 -10653.053)" fill="url(#linear-gradient)"/>
    <g transform="matrix(1, 0, 0, 1, -381.47, -10618.52)" filter="url(#Trazado_230832)">
      <path id="Trazado_230832-2" data-name="Trazado 230832" d="M98.854,0A98.854,98.854,0,1,1,0,98.854,98.854,98.854,0,0,1,98.854,0Z" transform="translate(58.91 426.22) rotate(-45)" fill="#fed935"/>
    </g>
    <g transform="matrix(1, 0, 0, 1, -381.47, -10618.52)" filter="url(#Trazado_230840)">
      <path id="Trazado_230840-2" data-name="Trazado 230840" d="M87.763,0A87.763,87.763,0,1,1,0,87.763,87.763,87.763,0,0,1,87.763,0Z" transform="translate(58.91 40.61)" fill="#fed935"/>
    </g>
    <g transform="matrix(1, 0, 0, 1, -381.47, -10618.52)" filter="url(#Trazado_230833)">
      <path id="Trazado_230833-2" data-name="Trazado 230833" d="M69.992,0A69.992,69.992,0,1,1,0,69.992,69.992,69.992,0,0,1,69.992,0Z" transform="translate(237.7 192.23)" fill="#f57c22"/>
    </g>
    <g transform="matrix(1, 0, 0, 1, -381.47, -10618.52)" filter="url(#Trazado_228119)">
      <path id="Trazado_228119-2" data-name="Trazado 228119" d="M401.871,467.513a120.778,120.778,0,0,1-205.556-116.57" transform="translate(-112.69 38.67)" fill="none" stroke="#12263f" stroke-linecap="round" stroke-miterlimit="10" stroke-width="1.05"/>
    </g>
    <path id="Trazado_230834" data-name="Trazado 230834" d="M3.8,0A3.8,3.8,0,1,1,0,3.8,3.8,3.8,0,0,1,3.8,0Z" transform="translate(-301.746 -10232.706)" fill="#12263f"/>
    <g transform="matrix(1, 0, 0, 1, -381.47, -10618.52)" filter="url(#Trazado_228120)">
      <path id="Trazado_228120-2" data-name="Trazado 228120" d="M192.116,254.492A116.559,116.559,0,0,1,269.159,50.47" transform="translate(-122.49 -38.65)" fill="none" stroke="#12263f" stroke-linecap="round" stroke-miterlimit="10" stroke-width="1.05"/>
    </g>
    <g transform="matrix(1, 0, 0, 1, -381.47, -10618.52)" filter="url(#Trazado_228121)">
      <path id="Trazado_228121-2" data-name="Trazado 228121" d="M340.382,143.172a116.083,116.083,0,0,1-11.611,50.775" transform="translate(-77.15 -14.8)" fill="none" stroke="#12263f" stroke-linecap="round" stroke-miterlimit="10" stroke-width="1.05"/>
    </g>
    <g transform="matrix(1, 0, 0, 1, -381.47, -10618.52)" filter="url(#Trazado_228122)">
      <path id="Trazado_228122-2" data-name="Trazado 228122" d="M314.84,218.933a116.023,116.023,0,0,1-67.185,21.3q-5.813,0-11.486-.558" transform="translate(-100.98 4.7)" fill="none" stroke="#12263f" stroke-linecap="round" stroke-miterlimit="10" stroke-width="1.05"/>
    </g>
    <path id="Trazado_230841" data-name="Trazado 230841" d="M3.8,0A3.8,3.8,0,1,1,0,3.8,3.8,3.8,0,0,1,3.8,0Z" transform="translate(-238.59 -10610.5)" fill="#12263f"/>
    <path id="Trazado_228123" data-name="Trazado 228123" d="M342.58,143.949a3.8,3.8,0,1,1-3.8-3.8A3.8,3.8,0,0,1,342.58,143.949Z" transform="translate(-457.02 -10634.096)" fill="#12263f"/>
    <g transform="matrix(1, 0, 0, 1, -381.47, -10618.52)" filter="url(#Trazado_228124)">
      <path id="Trazado_228124-2" data-name="Trazado 228124" d="M488.345,354.752a142.208,142.208,0,0,1-50.447-81.6" transform="translate(-49.07 18.65)" fill="none" stroke="#12263f" stroke-linecap="round" stroke-miterlimit="10" stroke-width="1.05"/>
    </g>
    <g transform="matrix(1, 0, 0, 1, -381.47, -10618.52)" filter="url(#Trazado_228125)">
      <path id="Trazado_228125-2" data-name="Trazado 228125" d="M528.688,138.694a142.236,142.236,0,1,1,24.991,282.262" transform="translate(-25.71 -16.51)" fill="none" stroke="#12263f" stroke-linecap="round" stroke-miterlimit="10" stroke-width="1.05"/>
    </g>
    <path id="Trazado_228126" data-name="Trazado 228126" d="M553.123,363.516a3.8,3.8,0,1,1-3.8-3.8A3.8,3.8,0,0,1,553.123,363.516Z" transform="translate(-402.841 -10577.594)" fill="#12263f"/>
    <path id="Trazado_230842" data-name="Trazado 230842" d="M11.926,11.391a4.185,4.185,0,0,1-1.332,2.785,4.365,4.365,0,0,1-2.98.98,4.008,4.008,0,0,1-3.23-1.445A5.815,5.815,0,0,1,3.168,9.844V8.75a6.481,6.481,0,0,1,.566-2.789A4.231,4.231,0,0,1,5.34,4.113a4.47,4.47,0,0,1,2.406-.645A4.11,4.11,0,0,1,10.652,4.48a4.235,4.235,0,0,1,1.273,2.8H10.418A3.268,3.268,0,0,0,9.57,5.307,2.565,2.565,0,0,0,7.746,4.7,2.684,2.684,0,0,0,5.492,5.759a4.882,4.882,0,0,0-.816,3.026v1.1a5.018,5.018,0,0,0,.773,2.948A2.5,2.5,0,0,0,7.613,13.93a2.886,2.886,0,0,0,1.918-.566,3.143,3.143,0,0,0,.887-1.973Zm7.039,2.773a3.07,3.07,0,0,1-2.477.992,2.628,2.628,0,0,1-2.059-.785,3.4,3.4,0,0,1-.715-2.324v-5.5H15.16v5.461q0,1.922,1.563,1.922a2.163,2.163,0,0,0,2.2-1.234V6.547h1.445V15H19Zm4.961-7.617.039.938a3.122,3.122,0,0,1,2.508-1.094A2.417,2.417,0,0,1,28.887,7.75a3.2,3.2,0,0,1,1.1-.984,3.242,3.242,0,0,1,1.6-.375q2.781,0,2.828,2.945V15H32.965V9.422a1.941,1.941,0,0,0-.414-1.355,1.823,1.823,0,0,0-1.391-.449,1.916,1.916,0,0,0-1.336.48,1.949,1.949,0,0,0-.617,1.293V15H27.754V9.461a1.613,1.613,0,0,0-1.8-1.844A1.934,1.934,0,0,0,24,8.828V15H22.559V6.547Zm19.8,4.32a5.062,5.062,0,0,1-.883,3.109,2.829,2.829,0,0,1-2.391,1.18,3.1,3.1,0,0,1-2.422-.977v4.07H36.59V6.547h1.32l.07.938a2.977,2.977,0,0,1,2.453-1.094,2.882,2.882,0,0,1,2.41,1.148,5.117,5.117,0,0,1,.887,3.2ZM42.285,10.7a3.735,3.735,0,0,0-.609-2.258A1.963,1.963,0,0,0,40,7.617a2.125,2.125,0,0,0-1.969,1.164V12.82a2.129,2.129,0,0,0,1.984,1.156,1.954,1.954,0,0,0,1.652-.824A4.077,4.077,0,0,0,42.285,10.7ZM47.137,15H45.691V3h1.445Zm5.82.156a3.693,3.693,0,0,1-2.8-1.129,4.19,4.19,0,0,1-1.078-3.02v-.266a5.073,5.073,0,0,1,.48-2.246,3.748,3.748,0,0,1,1.344-1.547,3.378,3.378,0,0,1,1.871-.559A3.166,3.166,0,0,1,55.34,7.477a4.7,4.7,0,0,1,.914,3.109v.6H50.527a3,3,0,0,0,.73,2.02,2.3,2.3,0,0,0,1.777.77,2.517,2.517,0,0,0,1.3-.312,3.259,3.259,0,0,0,.93-.828l.883.688A3.55,3.55,0,0,1,52.957,15.156Zm-.18-7.578a1.928,1.928,0,0,0-1.469.637A3.1,3.1,0,0,0,50.574,10h4.234V9.891a2.753,2.753,0,0,0-.594-1.707A1.815,1.815,0,0,0,52.777,7.578Zm6.516-1.031.047,1.063a3.08,3.08,0,0,1,2.531-1.219q2.68,0,2.7,3.023V15H63.129V9.406a1.946,1.946,0,0,0-.418-1.352,1.675,1.675,0,0,0-1.277-.437,2.086,2.086,0,0,0-1.234.375,2.546,2.546,0,0,0-.828.984V15H57.926V6.547ZM71.426,15V7.664H70.09V6.547h1.336V5.68a2.878,2.878,0,0,1,.727-2.1,2.745,2.745,0,0,1,2.055-.742,3.816,3.816,0,0,1,.992.132l-.078,1.165a4.151,4.151,0,0,0-.781-.07,1.41,1.41,0,0,0-1.086.411,1.669,1.669,0,0,0-.383,1.18v.893h1.8V7.664h-1.8V15Zm10.063-.836a3.07,3.07,0,0,1-2.477.992,2.628,2.628,0,0,1-2.059-.785,3.4,3.4,0,0,1-.715-2.324v-5.5h1.445v5.461q0,1.922,1.563,1.922a2.163,2.163,0,0,0,2.2-1.234V6.547h1.445V15H81.52Zm4.969-7.617L86.5,7.609a3.08,3.08,0,0,1,2.531-1.219q2.68,0,2.7,3.023V15H90.293V9.406a1.946,1.946,0,0,0-.418-1.352A1.675,1.675,0,0,0,88.6,7.617a2.086,2.086,0,0,0-1.234.375,2.546,2.546,0,0,0-.828.984V15H85.09V6.547Zm10.852,7.43a2.082,2.082,0,0,0,1.352-.469,1.649,1.649,0,0,0,.641-1.172h1.367a2.621,2.621,0,0,1-.5,1.383,3.293,3.293,0,0,1-1.23,1.047,3.55,3.55,0,0,1-1.629.391A3.482,3.482,0,0,1,94.563,14a4.59,4.59,0,0,1-1.02-3.152v-.242A5.089,5.089,0,0,1,94,8.414a3.451,3.451,0,0,1,1.3-1.492,3.7,3.7,0,0,1,2-.531,3.39,3.39,0,0,1,2.363.852,3.043,3.043,0,0,1,1,2.211H99.3a1.992,1.992,0,0,0-.621-1.348A1.932,1.932,0,0,0,97.3,7.578a2.023,2.023,0,0,0-1.707.793,3.724,3.724,0,0,0-.605,2.293v.273a3.65,3.65,0,0,0,.6,2.25A2.033,2.033,0,0,0,97.309,13.977ZM103.863,15h-1.445V6.547h1.445ZM102.3,4.3a.863.863,0,0,1,.215-.594.807.807,0,0,1,.637-.242.819.819,0,0,1,.641.242.854.854,0,0,1,.219.594.826.826,0,0,1-.219.586.834.834,0,0,1-.641.234.821.821,0,0,1-.637-.234A.834.834,0,0,1,102.3,4.3Zm3.492,6.391a4.993,4.993,0,0,1,.488-2.234,3.643,3.643,0,0,1,1.359-1.531,3.7,3.7,0,0,1,1.988-.539,3.565,3.565,0,0,1,2.793,1.2,4.6,4.6,0,0,1,1.066,3.18v.1a5.036,5.036,0,0,1-.473,2.215,3.589,3.589,0,0,1-1.352,1.527,3.743,3.743,0,0,1-2.02.547,3.556,3.556,0,0,1-2.785-1.2,4.575,4.575,0,0,1-1.066-3.164Zm1.453.172a3.616,3.616,0,0,0,.652,2.258,2.211,2.211,0,0,0,3.5-.012,3.955,3.955,0,0,0,.648-2.418,3.61,3.61,0,0,0-.66-2.254,2.1,2.1,0,0,0-1.754-.863,2.075,2.075,0,0,0-1.727.852A3.925,3.925,0,0,0,107.246,10.867Zm9.422-4.32.047,1.063a3.08,3.08,0,0,1,2.531-1.219q2.68,0,2.7,3.023V15H120.5V9.406a1.946,1.946,0,0,0-.418-1.352,1.675,1.675,0,0,0-1.277-.437,2.086,2.086,0,0,0-1.234.375,2.546,2.546,0,0,0-.828.984V15H115.3V6.547Zm10.969,8.609a3.693,3.693,0,0,1-2.8-1.129,4.19,4.19,0,0,1-1.078-3.02v-.266a5.073,5.073,0,0,1,.48-2.246,3.748,3.748,0,0,1,1.344-1.547,3.378,3.378,0,0,1,1.871-.559,3.166,3.166,0,0,1,2.563,1.086,4.7,4.7,0,0,1,.914,3.109v.6h-5.727a3,3,0,0,0,.73,2.02,2.3,2.3,0,0,0,1.777.77,2.517,2.517,0,0,0,1.3-.312,3.258,3.258,0,0,0,.93-.828l.883.688A3.55,3.55,0,0,1,127.637,15.156Zm-.18-7.578a1.928,1.928,0,0,0-1.469.637A3.1,3.1,0,0,0,125.254,10h4.234V9.891a2.753,2.753,0,0,0-.594-1.707A1.815,1.815,0,0,0,127.457,7.578Zm10.07,5.18a1.064,1.064,0,0,0-.441-.91,4.249,4.249,0,0,0-1.539-.559,7.277,7.277,0,0,1-1.742-.562,2.479,2.479,0,0,1-.953-.781,1.869,1.869,0,0,1-.309-1.078,2.193,2.193,0,0,1,.879-1.758,3.432,3.432,0,0,1,2.246-.719A3.532,3.532,0,0,1,138,7.133a2.357,2.357,0,0,1,.895,1.9h-1.453a1.3,1.3,0,0,0-.5-1.023,1.888,1.888,0,0,0-1.27-.43,1.976,1.976,0,0,0-1.234.344,1.082,1.082,0,0,0-.445.9.877.877,0,0,0,.414.789,5.1,5.1,0,0,0,1.5.508,7.8,7.8,0,0,1,1.754.578,2.558,2.558,0,0,1,1,.809,1.988,1.988,0,0,1,.324,1.152,2.163,2.163,0,0,1-.906,1.816,3.8,3.8,0,0,1-2.352.684,4.257,4.257,0,0,1-1.8-.359,2.922,2.922,0,0,1-1.223-1,2.42,2.42,0,0,1-.441-1.395H133.7a1.5,1.5,0,0,0,.582,1.152,2.258,2.258,0,0,0,1.434.426,2.331,2.331,0,0,0,1.316-.332A1.02,1.02,0,0,0,137.527,12.758ZM41.766,30.7a4.952,4.952,0,0,1,.922-3.129,3.137,3.137,0,0,1,4.766-.168V23H48.9V35H47.57l-.07-.906a2.943,2.943,0,0,1-2.414,1.063,2.887,2.887,0,0,1-2.395-1.2,5.008,5.008,0,0,1-.926-3.141Zm1.445.164a3.749,3.749,0,0,0,.594,2.25,1.919,1.919,0,0,0,1.641.813A2.108,2.108,0,0,0,47.453,32.7V28.813a2.125,2.125,0,0,0-1.992-1.2,1.929,1.929,0,0,0-1.656.82A4.128,4.128,0,0,0,43.211,30.867Zm11.438,4.289a3.693,3.693,0,0,1-2.8-1.129,4.19,4.19,0,0,1-1.078-3.02v-.266a5.073,5.073,0,0,1,.48-2.246A3.748,3.748,0,0,1,52.6,26.949a3.378,3.378,0,0,1,1.871-.559,3.166,3.166,0,0,1,2.563,1.086,4.7,4.7,0,0,1,.914,3.109v.6H52.219a3,3,0,0,0,.73,2.02,2.3,2.3,0,0,0,1.777.77,2.517,2.517,0,0,0,1.3-.312,3.258,3.258,0,0,0,.93-.828l.883.688A3.55,3.55,0,0,1,54.648,35.156Zm-.18-7.578A1.928,1.928,0,0,0,53,28.215,3.1,3.1,0,0,0,52.266,30H56.5v-.109a2.753,2.753,0,0,0-.594-1.707A1.815,1.815,0,0,0,54.469,27.578Zm12.5,6.4a2.082,2.082,0,0,0,1.352-.469,1.649,1.649,0,0,0,.641-1.172h1.367a2.621,2.621,0,0,1-.5,1.383,3.293,3.293,0,0,1-1.23,1.047,3.55,3.55,0,0,1-1.629.391A3.482,3.482,0,0,1,64.223,34a4.59,4.59,0,0,1-1.02-3.152v-.242a5.089,5.089,0,0,1,.453-2.2,3.451,3.451,0,0,1,1.3-1.492,3.7,3.7,0,0,1,2-.531,3.39,3.39,0,0,1,2.363.852,3.043,3.043,0,0,1,1,2.211H68.961a1.992,1.992,0,0,0-.621-1.348,1.932,1.932,0,0,0-1.379-.527,2.023,2.023,0,0,0-1.707.793,3.724,3.724,0,0,0-.605,2.293v.273a3.65,3.65,0,0,0,.6,2.25A2.033,2.033,0,0,0,66.969,33.977ZM77.172,35a3.036,3.036,0,0,1-.2-.891,3.225,3.225,0,0,1-2.406,1.047,2.984,2.984,0,0,1-2.051-.707,2.288,2.288,0,0,1-.8-1.793,2.39,2.39,0,0,1,1-2.051,4.733,4.733,0,0,1,2.824-.73h1.406v-.664A1.623,1.623,0,0,0,76.492,28a1.821,1.821,0,0,0-1.336-.449,2.108,2.108,0,0,0-1.3.391,1.151,1.151,0,0,0-.523.945H71.883a2,2,0,0,1,.449-1.223,3.066,3.066,0,0,1,1.219-.934,4.1,4.1,0,0,1,1.691-.344,3.342,3.342,0,0,1,2.289.73,2.635,2.635,0,0,1,.859,2.012v3.891a4.757,4.757,0,0,0,.3,1.852V35Zm-2.4-1.1a2.54,2.54,0,0,0,1.289-.352,2.127,2.127,0,0,0,.883-.914V30.9H75.813q-2.656,0-2.656,1.555a1.316,1.316,0,0,0,.453,1.063A1.742,1.742,0,0,0,74.773,33.9Zm7.25-7.352.047,1.063A3.08,3.08,0,0,1,84.6,26.391q2.68,0,2.7,3.023V35H85.859V29.406a1.946,1.946,0,0,0-.418-1.352,1.675,1.675,0,0,0-1.277-.437,2.086,2.086,0,0,0-1.234.375,2.546,2.546,0,0,0-.828.984V35H80.656V26.547ZM94.7,35a3.036,3.036,0,0,1-.2-.891,3.225,3.225,0,0,1-2.406,1.047,2.984,2.984,0,0,1-2.051-.707,2.288,2.288,0,0,1-.8-1.793,2.39,2.39,0,0,1,1-2.051,4.733,4.733,0,0,1,2.824-.73h1.406v-.664A1.623,1.623,0,0,0,94.023,28a1.821,1.821,0,0,0-1.336-.449,2.108,2.108,0,0,0-1.3.391,1.151,1.151,0,0,0-.523.945H89.414a2,2,0,0,1,.449-1.223,3.066,3.066,0,0,1,1.219-.934,4.1,4.1,0,0,1,1.691-.344,3.342,3.342,0,0,1,2.289.73,2.635,2.635,0,0,1,.859,2.012v3.891a4.757,4.757,0,0,0,.3,1.852V35Zm-2.4-1.1a2.54,2.54,0,0,0,1.289-.352,2.127,2.127,0,0,0,.883-.914V30.9H93.344q-2.656,0-2.656,1.555a1.316,1.316,0,0,0,.453,1.063A1.742,1.742,0,0,0,92.3,33.9ZM99.758,35H98.313V23h1.445ZM21.148,50.7a4.952,4.952,0,0,1,.922-3.129,3.137,3.137,0,0,1,4.766-.168V43h1.445V55H26.953l-.07-.906a2.943,2.943,0,0,1-2.414,1.063,2.887,2.887,0,0,1-2.395-1.2,5.008,5.008,0,0,1-.926-3.141Zm1.445.164a3.749,3.749,0,0,0,.594,2.25,1.92,1.92,0,0,0,1.641.813A2.108,2.108,0,0,0,26.836,52.7V48.813a2.125,2.125,0,0,0-1.992-1.2,1.929,1.929,0,0,0-1.656.82A4.128,4.128,0,0,0,22.594,50.867Zm11.438,4.289a3.693,3.693,0,0,1-2.8-1.129,4.19,4.19,0,0,1-1.078-3.02v-.266a5.073,5.073,0,0,1,.48-2.246,3.748,3.748,0,0,1,1.344-1.547,3.378,3.378,0,0,1,1.871-.559,3.166,3.166,0,0,1,2.563,1.086,4.7,4.7,0,0,1,.914,3.109v.6H31.6a3,3,0,0,0,.73,2.02,2.3,2.3,0,0,0,1.777.77,2.517,2.517,0,0,0,1.3-.312,3.258,3.258,0,0,0,.93-.828l.883.688A3.55,3.55,0,0,1,34.031,55.156Zm-.18-7.578a1.928,1.928,0,0,0-1.469.637A3.1,3.1,0,0,0,31.648,50h4.234v-.109a2.753,2.753,0,0,0-.594-1.707A1.815,1.815,0,0,0,33.852,47.578ZM42.609,50.7a4.952,4.952,0,0,1,.922-3.129,3.137,3.137,0,0,1,4.766-.168V43h1.445V55H48.414l-.07-.906a2.943,2.943,0,0,1-2.414,1.063,2.887,2.887,0,0,1-2.395-1.2,5.008,5.008,0,0,1-.926-3.141Zm1.445.164a3.749,3.749,0,0,0,.594,2.25,1.919,1.919,0,0,0,1.641.813A2.108,2.108,0,0,0,48.3,52.7V48.813a2.125,2.125,0,0,0-1.992-1.2,1.929,1.929,0,0,0-1.656.82A4.128,4.128,0,0,0,44.055,50.867ZM53.555,55H52.109V46.547h1.445ZM51.992,44.3a.863.863,0,0,1,.215-.594.807.807,0,0,1,.637-.242.819.819,0,0,1,.641.242.854.854,0,0,1,.219.594.826.826,0,0,1-.219.586.834.834,0,0,1-.641.234.821.821,0,0,1-.637-.234A.834.834,0,0,1,51.992,44.3Zm8.8,8.453a1.064,1.064,0,0,0-.441-.91,4.249,4.249,0,0,0-1.539-.559,7.277,7.277,0,0,1-1.742-.562,2.479,2.479,0,0,1-.953-.781,1.869,1.869,0,0,1-.309-1.078,2.193,2.193,0,0,1,.879-1.758,3.432,3.432,0,0,1,2.246-.719,3.532,3.532,0,0,1,2.332.742,2.357,2.357,0,0,1,.895,1.9H60.7a1.3,1.3,0,0,0-.5-1.023,1.888,1.888,0,0,0-1.27-.43,1.976,1.976,0,0,0-1.234.344,1.082,1.082,0,0,0-.445.9.877.877,0,0,0,.414.789,5.1,5.1,0,0,0,1.5.508,7.8,7.8,0,0,1,1.754.578,2.558,2.558,0,0,1,1,.809,1.988,1.988,0,0,1,.324,1.152,2.163,2.163,0,0,1-.906,1.816,3.8,3.8,0,0,1-2.352.684,4.257,4.257,0,0,1-1.8-.359,2.922,2.922,0,0,1-1.223-1,2.42,2.42,0,0,1-.441-1.395h1.445a1.5,1.5,0,0,0,.582,1.152,2.258,2.258,0,0,0,1.434.426,2.331,2.331,0,0,0,1.316-.332A1.02,1.02,0,0,0,60.789,52.758ZM66.078,44.5v2.047h1.578v1.117H66.078v5.249a1.173,1.173,0,0,0,.211.763.888.888,0,0,0,.719.254,3.5,3.5,0,0,0,.688-.094V55a4.215,4.215,0,0,1-1.109.155,1.8,1.8,0,0,1-1.461-.586,2.517,2.517,0,0,1-.492-1.664V47.664H63.094V46.547h1.539V44.5Zm7.352,3.344a4.331,4.331,0,0,0-.711-.055A1.9,1.9,0,0,0,70.789,49v6H69.344V46.547H70.75l.023.977a2.251,2.251,0,0,1,2.016-1.133,1.477,1.477,0,0,1,.641.109ZM76.328,55H74.883V46.547h1.445ZM74.766,44.3a.863.863,0,0,1,.215-.594.807.807,0,0,1,.637-.242.819.819,0,0,1,.641.242.854.854,0,0,1,.219.594.826.826,0,0,1-.219.586.834.834,0,0,1-.641.234.821.821,0,0,1-.637-.234A.834.834,0,0,1,74.766,44.3ZM85.8,50.867a5.026,5.026,0,0,1-.891,3.113,2.846,2.846,0,0,1-2.391,1.176,2.947,2.947,0,0,1-2.477-1.133l-.07.977H78.641V43h1.445v4.477A2.93,2.93,0,0,1,82.5,46.391a2.863,2.863,0,0,1,2.418,1.164,5.177,5.177,0,0,1,.879,3.188ZM84.352,50.7a3.906,3.906,0,0,0-.57-2.281,1.888,1.888,0,0,0-1.641-.8,2.122,2.122,0,0,0-2.055,1.328V52.6a2.181,2.181,0,0,0,2.07,1.328,1.878,1.878,0,0,0,1.617-.8A4.153,4.153,0,0,0,84.352,50.7Zm8.484,3.461a3.07,3.07,0,0,1-2.477.992,2.628,2.628,0,0,1-2.059-.785,3.4,3.4,0,0,1-.715-2.324v-5.5h1.445v5.461q0,1.922,1.563,1.922A2.163,2.163,0,0,0,92.8,52.7V46.547h1.445V55H92.867Zm6.992-.187a2.082,2.082,0,0,0,1.352-.469,1.649,1.649,0,0,0,.641-1.172h1.367a2.621,2.621,0,0,1-.5,1.383,3.293,3.293,0,0,1-1.23,1.047,3.55,3.55,0,0,1-1.629.391A3.482,3.482,0,0,1,97.082,54a4.59,4.59,0,0,1-1.02-3.152v-.242a5.089,5.089,0,0,1,.453-2.2,3.451,3.451,0,0,1,1.3-1.492,3.7,3.7,0,0,1,2-.531,3.39,3.39,0,0,1,2.363.852,3.043,3.043,0,0,1,1,2.211H101.82a1.992,1.992,0,0,0-.621-1.348,1.932,1.932,0,0,0-1.379-.527,2.023,2.023,0,0,0-1.707.793,3.724,3.724,0,0,0-.605,2.293v.273a3.65,3.65,0,0,0,.6,2.25A2.033,2.033,0,0,0,99.828,53.977ZM106.383,55h-1.445V46.547h1.445ZM104.82,44.3a.863.863,0,0,1,.215-.594.807.807,0,0,1,.637-.242.819.819,0,0,1,.641.242.854.854,0,0,1,.219.594.826.826,0,0,1-.219.586.834.834,0,0,1-.641.234.821.821,0,0,1-.637-.234A.834.834,0,0,1,104.82,44.3Zm3.492,6.391a4.993,4.993,0,0,1,.488-2.234,3.643,3.643,0,0,1,1.359-1.531,3.7,3.7,0,0,1,1.988-.539,3.565,3.565,0,0,1,2.793,1.2,4.6,4.6,0,0,1,1.066,3.18v.1a5.036,5.036,0,0,1-.473,2.215,3.589,3.589,0,0,1-1.352,1.527,3.743,3.743,0,0,1-2.02.547,3.556,3.556,0,0,1-2.785-1.2,4.575,4.575,0,0,1-1.066-3.164Zm1.453.172a3.616,3.616,0,0,0,.652,2.258,2.211,2.211,0,0,0,3.5-.012,3.955,3.955,0,0,0,.648-2.418,3.61,3.61,0,0,0-.66-2.254,2.1,2.1,0,0,0-1.754-.863,2.075,2.075,0,0,0-1.727.852A3.925,3.925,0,0,0,109.766,50.867Zm3.039-7.852h1.75l-2.094,2.3-1.164,0Zm6.383,3.531.047,1.063a3.08,3.08,0,0,1,2.531-1.219q2.68,0,2.7,3.023V55h-1.445V49.406a1.946,1.946,0,0,0-.418-1.352,1.675,1.675,0,0,0-1.277-.437,2.086,2.086,0,0,0-1.234.375,2.546,2.546,0,0,0-.828.984V55H117.82V46.547ZM47.133,70.7a4.952,4.952,0,0,1,.922-3.129,3.137,3.137,0,0,1,4.766-.168V63h1.445V75H52.938l-.07-.906a2.943,2.943,0,0,1-2.414,1.063,2.887,2.887,0,0,1-2.395-1.2,5.008,5.008,0,0,1-.926-3.141Zm1.445.164a3.749,3.749,0,0,0,.594,2.25,1.92,1.92,0,0,0,1.641.813A2.109,2.109,0,0,0,52.82,72.7V68.813a2.125,2.125,0,0,0-1.992-1.2,1.929,1.929,0,0,0-1.656.82A4.128,4.128,0,0,0,48.578,70.867ZM58.078,75H56.633V66.547h1.445ZM56.516,64.3a.863.863,0,0,1,.215-.594.807.807,0,0,1,.637-.242.819.819,0,0,1,.641.242.854.854,0,0,1,.219.594.826.826,0,0,1-.219.586.834.834,0,0,1-.641.234.821.821,0,0,1-.637-.234A.834.834,0,0,1,56.516,64.3Zm7.961,3.539a4.331,4.331,0,0,0-.711-.055A1.9,1.9,0,0,0,61.836,69v6H60.391V66.547H61.8l.023.977a2.251,2.251,0,0,1,2.016-1.133,1.477,1.477,0,0,1,.641.109Zm4.688,7.313a3.693,3.693,0,0,1-2.8-1.129,4.19,4.19,0,0,1-1.078-3.02v-.266a5.073,5.073,0,0,1,.48-2.246,3.748,3.748,0,0,1,1.344-1.547,3.378,3.378,0,0,1,1.871-.559,3.166,3.166,0,0,1,2.563,1.086,4.7,4.7,0,0,1,.914,3.109v.6H66.734a3,3,0,0,0,.73,2.02,2.3,2.3,0,0,0,1.777.77,2.517,2.517,0,0,0,1.3-.312,3.259,3.259,0,0,0,.93-.828l.883.688A3.55,3.55,0,0,1,69.164,75.156Zm-.18-7.578a1.928,1.928,0,0,0-1.469.637A3.1,3.1,0,0,0,66.781,70h4.234v-.109a2.753,2.753,0,0,0-.594-1.707A1.815,1.815,0,0,0,68.984,67.578Zm8.539,6.4a2.082,2.082,0,0,0,1.352-.469,1.649,1.649,0,0,0,.641-1.172h1.367a2.621,2.621,0,0,1-.5,1.383,3.293,3.293,0,0,1-1.23,1.047,3.55,3.55,0,0,1-1.629.391A3.482,3.482,0,0,1,74.777,74a4.59,4.59,0,0,1-1.02-3.152v-.242a5.089,5.089,0,0,1,.453-2.2,3.451,3.451,0,0,1,1.3-1.492,3.7,3.7,0,0,1,2-.531,3.39,3.39,0,0,1,2.363.852,3.043,3.043,0,0,1,1,2.211H79.516a1.992,1.992,0,0,0-.621-1.348,1.932,1.932,0,0,0-1.379-.527,2.023,2.023,0,0,0-1.707.793,3.724,3.724,0,0,0-.605,2.293v.273a3.65,3.65,0,0,0,.6,2.25A2.033,2.033,0,0,0,77.523,73.977ZM84.469,64.5v2.047h1.578v1.117H84.469v5.249a1.173,1.173,0,0,0,.211.763.888.888,0,0,0,.719.254,3.5,3.5,0,0,0,.688-.094V75a4.215,4.215,0,0,1-1.109.155,1.8,1.8,0,0,1-1.461-.586,2.517,2.517,0,0,1-.492-1.664V67.664H81.484V66.547h1.539V64.5ZM87.2,70.7a4.993,4.993,0,0,1,.488-2.234,3.643,3.643,0,0,1,1.359-1.531,3.7,3.7,0,0,1,1.988-.539,3.565,3.565,0,0,1,2.793,1.2,4.6,4.6,0,0,1,1.066,3.18v.1a5.036,5.036,0,0,1-.473,2.215,3.589,3.589,0,0,1-1.352,1.527,3.743,3.743,0,0,1-2.02.547,3.556,3.556,0,0,1-2.785-1.2A4.575,4.575,0,0,1,87.2,70.8Zm1.453.172a3.616,3.616,0,0,0,.652,2.258,2.211,2.211,0,0,0,3.5-.012,3.955,3.955,0,0,0,.648-2.418,3.61,3.61,0,0,0-.66-2.254,2.1,2.1,0,0,0-1.754-.863,2.075,2.075,0,0,0-1.727.852A3.925,3.925,0,0,0,88.648,70.867Z" transform="translate(-305.794 -10495.899)" fill="#12263f"/>
    <path id="Trazado_230835" data-name="Trazado 230835" d="M10.3,10.352H5.8V15H3.453V3.625h7.406v1.9H5.8V8.461h4.5Zm6.664,3.789a2.831,2.831,0,0,1-2.312,1.016,2.67,2.67,0,0,1-2.074-.781,3.335,3.335,0,0,1-.73-2.289V6.547H14.1v5.467q0,1.322,1.2,1.322a1.63,1.63,0,0,0,1.578-.8V6.547h2.266V15H17.023ZM22.93,6.547l.07.977a2.951,2.951,0,0,1,2.43-1.133,2.453,2.453,0,0,1,2,.789A3.682,3.682,0,0,1,28.1,9.539V15H25.844V9.581a1.47,1.47,0,0,0-.312-1.045,1.4,1.4,0,0,0-1.039-.325,1.553,1.553,0,0,0-1.43.814V15H20.8V6.547Zm10.4,6.789a1.481,1.481,0,0,0,1.016-.344,1.2,1.2,0,0,0,.406-.914h2.117a2.9,2.9,0,0,1-.469,1.574,3.093,3.093,0,0,1-1.262,1.109,3.949,3.949,0,0,1-1.77.395A3.67,3.67,0,0,1,30.508,14a4.56,4.56,0,0,1-1.047-3.184v-.148A4.508,4.508,0,0,1,30.5,7.555a3.627,3.627,0,0,1,2.852-1.164,3.555,3.555,0,0,1,2.543.9,3.2,3.2,0,0,1,.973,2.4H34.75a1.551,1.551,0,0,0-.406-1.072,1.51,1.51,0,0,0-2.223.163,3.333,3.333,0,0,0-.4,1.866v.235a3.375,3.375,0,0,0,.4,1.878A1.377,1.377,0,0,0,33.328,13.336ZM40.539,15H38.273V6.547h2.266Zm-2.4-10.641a1.112,1.112,0,0,1,.34-.836,1.465,1.465,0,0,1,1.848,0,1.105,1.105,0,0,1,.344.836,1.108,1.108,0,0,1-.348.844,1.448,1.448,0,0,1-1.836,0A1.108,1.108,0,0,1,38.141,4.359ZM42.047,10.7a5.013,5.013,0,0,1,.484-2.242A3.546,3.546,0,0,1,43.926,6.93a4.069,4.069,0,0,1,2.113-.539,3.849,3.849,0,0,1,2.793,1.047,4.2,4.2,0,0,1,1.207,2.844l.016.578a4.418,4.418,0,0,1-1.086,3.121,4.209,4.209,0,0,1-5.832,0,4.5,4.5,0,0,1-1.09-3.187Zm2.258.16a3.16,3.16,0,0,0,.453,1.843,1.628,1.628,0,0,0,2.578.008,3.457,3.457,0,0,0,.461-2.015,3.128,3.128,0,0,0-.461-1.831,1.5,1.5,0,0,0-1.3-.649,1.474,1.474,0,0,0-1.281.646A3.516,3.516,0,0,0,44.3,10.856Zm9.219-4.309.07.977a2.951,2.951,0,0,1,2.43-1.133,2.453,2.453,0,0,1,2,.789A3.682,3.682,0,0,1,58.7,9.539V15H56.438V9.581a1.47,1.47,0,0,0-.312-1.045,1.4,1.4,0,0,0-1.039-.325,1.553,1.553,0,0,0-1.43.814V15H51.4V6.547ZM64.3,15.156a4.15,4.15,0,0,1-3.027-1.141A4.054,4.054,0,0,1,60.1,10.977v-.219a5.106,5.106,0,0,1,.492-2.277,3.612,3.612,0,0,1,1.395-1.547,3.914,3.914,0,0,1,2.059-.543,3.508,3.508,0,0,1,2.73,1.094,4.444,4.444,0,0,1,1,3.1v.922H62.391a2.1,2.1,0,0,0,.66,1.328,2,2,0,0,0,1.395.5,2.437,2.437,0,0,0,2.039-.945l1.109,1.242a3.389,3.389,0,0,1-1.375,1.121A4.511,4.511,0,0,1,64.3,15.156Zm-.258-6.945a1.411,1.411,0,0,0-1.09.455,2.357,2.357,0,0,0-.535,1.3h3.141V9.788a1.681,1.681,0,0,0-.406-1.165A1.456,1.456,0,0,0,64.039,8.211Zm9.594,4.453a.727.727,0,0,0-.41-.652,4.659,4.659,0,0,0-1.316-.426q-3.016-.633-3.016-2.562a2.323,2.323,0,0,1,.934-1.879,3.766,3.766,0,0,1,2.441-.754,4.053,4.053,0,0,1,2.574.758A2.388,2.388,0,0,1,75.8,9.117H73.547a1.092,1.092,0,0,0-.312-.8A1.322,1.322,0,0,0,72.258,8a1.351,1.351,0,0,0-.883.258.814.814,0,0,0-.312.656.7.7,0,0,0,.355.605,3.657,3.657,0,0,0,1.2.4,9.8,9.8,0,0,1,1.422.379,2.336,2.336,0,0,1,1.789,2.273,2.2,2.2,0,0,1-.992,1.871,4.28,4.28,0,0,1-2.562.715,4.47,4.47,0,0,1-1.887-.379,3.166,3.166,0,0,1-1.293-1.039,2.414,2.414,0,0,1-.469-1.426h2.141a1.179,1.179,0,0,0,.445.922,1.766,1.766,0,0,0,1.109.32,1.635,1.635,0,0,0,.98-.246A.766.766,0,0,0,73.633,12.664Zm7.281-1.953A5.094,5.094,0,0,1,81.8,7.563a2.877,2.877,0,0,1,2.426-1.172,2.589,2.589,0,0,1,2.039.922V3h2.266V15H86.492l-.109-.9a2.657,2.657,0,0,1-2.172,1.055,2.869,2.869,0,0,1-2.395-1.176A5.258,5.258,0,0,1,80.914,10.711Zm2.258.161a3.355,3.355,0,0,0,.414,1.829,1.348,1.348,0,0,0,1.2.636,1.51,1.51,0,0,0,1.477-.887V9.1A1.489,1.489,0,0,0,84.8,8.211Q83.172,8.211,83.172,10.872Zm11,4.285a4.15,4.15,0,0,1-3.027-1.141,4.054,4.054,0,0,1-1.168-3.039v-.219a5.106,5.106,0,0,1,.492-2.277,3.612,3.612,0,0,1,1.395-1.547,3.914,3.914,0,0,1,2.059-.543,3.508,3.508,0,0,1,2.73,1.094,4.444,4.444,0,0,1,1,3.1v.922H92.266a2.1,2.1,0,0,0,.66,1.328,2,2,0,0,0,1.395.5,2.437,2.437,0,0,0,2.039-.945l1.109,1.242a3.389,3.389,0,0,1-1.375,1.121A4.511,4.511,0,0,1,94.172,15.156Zm-.258-6.945a1.411,1.411,0,0,0-1.09.455,2.357,2.357,0,0,0-.535,1.3H95.43V9.788a1.681,1.681,0,0,0-.406-1.165A1.456,1.456,0,0,0,93.914,8.211ZM105.3,15h-2.266V3H105.3Zm1.508-4.3a5.013,5.013,0,0,1,.484-2.242,3.546,3.546,0,0,1,1.395-1.523,4.069,4.069,0,0,1,2.113-.539,3.849,3.849,0,0,1,2.793,1.047,4.2,4.2,0,0,1,1.207,2.844l.016.578a4.418,4.418,0,0,1-1.086,3.121,4.209,4.209,0,0,1-5.832,0A4.5,4.5,0,0,1,106.8,10.8Zm2.258.16a3.16,3.16,0,0,0,.453,1.843,1.628,1.628,0,0,0,2.578.008,3.457,3.457,0,0,0,.461-2.015,3.128,3.128,0,0,0-.461-1.831,1.5,1.5,0,0,0-1.3-.649,1.474,1.474,0,0,0-1.281.646A3.516,3.516,0,0,0,109.063,10.856Zm11.719,1.808a.727.727,0,0,0-.41-.652,4.659,4.659,0,0,0-1.316-.426q-3.016-.633-3.016-2.562a2.323,2.323,0,0,1,.934-1.879,3.766,3.766,0,0,1,2.441-.754,4.053,4.053,0,0,1,2.574.758,2.388,2.388,0,0,1,.965,1.969H120.7a1.092,1.092,0,0,0-.312-.8A1.322,1.322,0,0,0,119.406,8a1.351,1.351,0,0,0-.883.258.814.814,0,0,0-.312.656.7.7,0,0,0,.355.605,3.657,3.657,0,0,0,1.2.4,9.8,9.8,0,0,1,1.422.379,2.336,2.336,0,0,1,1.789,2.273,2.2,2.2,0,0,1-.992,1.871,4.28,4.28,0,0,1-2.562.715,4.47,4.47,0,0,1-1.887-.379,3.166,3.166,0,0,1-1.293-1.039,2.414,2.414,0,0,1-.469-1.426h2.141a1.179,1.179,0,0,0,.445.922,1.766,1.766,0,0,0,1.109.32,1.635,1.635,0,0,0,.98-.246A.766.766,0,0,0,120.781,12.664ZM14.188,28.852A5.07,5.07,0,0,1,13.3,31.98a2.843,2.843,0,0,1-2.395,1.176,2.633,2.633,0,0,1-2.07-.891V36.25H6.578v-11.7H8.672l.078.828a2.654,2.654,0,0,1,2.141-.984,2.862,2.862,0,0,1,2.43,1.156,5.207,5.207,0,0,1,.867,3.188Zm-2.258-.172a3.345,3.345,0,0,0-.418-1.826,1.36,1.36,0,0,0-1.215-.643,1.478,1.478,0,0,0-1.461.815V30.5a1.5,1.5,0,0,0,1.477.839Q11.93,31.336,11.93,28.679Zm8.719,3.461a2.831,2.831,0,0,1-2.312,1.016,2.67,2.67,0,0,1-2.074-.781,3.335,3.335,0,0,1-.73-2.289V24.547h2.258v5.467q0,1.322,1.2,1.322a1.63,1.63,0,0,0,1.578-.8V24.547h2.266V33H20.711Zm5.969-7.594.07.977a2.951,2.951,0,0,1,2.43-1.133,2.453,2.453,0,0,1,2,.789,3.682,3.682,0,0,1,.672,2.359V33H29.531V27.581a1.47,1.47,0,0,0-.312-1.045,1.4,1.4,0,0,0-1.039-.325,1.553,1.553,0,0,0-1.43.814V33H24.492V24.547ZM36.2,22.469v2.078h1.445V26.2H36.2v4.219a1.007,1.007,0,0,0,.18.672.9.9,0,0,0,.688.2,3.6,3.6,0,0,0,.664-.055v1.711a4.648,4.648,0,0,1-1.367.2,2.156,2.156,0,0,1-2.422-2.4V26.2H32.711V24.547h1.234V22.469ZM38.32,28.7a5.013,5.013,0,0,1,.484-2.242A3.546,3.546,0,0,1,40.2,24.93a4.069,4.069,0,0,1,2.113-.539,3.849,3.849,0,0,1,2.793,1.047,4.2,4.2,0,0,1,1.207,2.844l.016.578a4.418,4.418,0,0,1-1.086,3.121,4.209,4.209,0,0,1-5.832,0A4.5,4.5,0,0,1,38.32,28.8Zm2.258.16a3.16,3.16,0,0,0,.453,1.843,1.628,1.628,0,0,0,2.578.008,3.457,3.457,0,0,0,.461-2.015,3.128,3.128,0,0,0-.461-1.831,1.5,1.5,0,0,0-1.3-.649,1.474,1.474,0,0,0-1.281.646A3.516,3.516,0,0,0,40.578,28.856ZM52.3,30.664a.727.727,0,0,0-.41-.652,4.659,4.659,0,0,0-1.316-.426q-3.016-.633-3.016-2.562a2.323,2.323,0,0,1,.934-1.879,3.766,3.766,0,0,1,2.441-.754,4.053,4.053,0,0,1,2.574.758,2.388,2.388,0,0,1,.965,1.969H52.211a1.092,1.092,0,0,0-.312-.8A1.322,1.322,0,0,0,50.922,26a1.351,1.351,0,0,0-.883.258.814.814,0,0,0-.312.656.7.7,0,0,0,.355.605,3.657,3.657,0,0,0,1.2.4A9.8,9.8,0,0,1,52.7,28.3a2.336,2.336,0,0,1,1.789,2.273,2.2,2.2,0,0,1-.992,1.871,4.28,4.28,0,0,1-2.562.715,4.47,4.47,0,0,1-1.887-.379,3.166,3.166,0,0,1-1.293-1.039,2.414,2.414,0,0,1-.469-1.426H49.43a1.179,1.179,0,0,0,.445.922,1.766,1.766,0,0,0,1.109.32,1.635,1.635,0,0,0,.98-.246A.766.766,0,0,0,52.3,30.664Zm7.281-1.953a5.094,5.094,0,0,1,.887-3.148,2.877,2.877,0,0,1,2.426-1.172,2.589,2.589,0,0,1,2.039.922V21H67.2V33H65.156l-.109-.9a2.657,2.657,0,0,1-2.172,1.055A2.869,2.869,0,0,1,60.48,31.98,5.258,5.258,0,0,1,59.578,28.711Zm2.258.161A3.355,3.355,0,0,0,62.25,30.7a1.348,1.348,0,0,0,1.2.636,1.51,1.51,0,0,0,1.477-.887V27.1a1.489,1.489,0,0,0-1.461-.887Q61.836,26.211,61.836,28.872Zm11,4.285a4.15,4.15,0,0,1-3.027-1.141,4.054,4.054,0,0,1-1.168-3.039v-.219a5.106,5.106,0,0,1,.492-2.277,3.612,3.612,0,0,1,1.395-1.547,3.914,3.914,0,0,1,2.059-.543,3.508,3.508,0,0,1,2.73,1.094,4.444,4.444,0,0,1,1,3.1v.922H70.93a2.1,2.1,0,0,0,.66,1.328,2,2,0,0,0,1.395.5,2.437,2.437,0,0,0,2.039-.945l1.109,1.242a3.389,3.389,0,0,1-1.375,1.121A4.511,4.511,0,0,1,72.836,33.156Zm-.258-6.945a1.411,1.411,0,0,0-1.09.455,2.357,2.357,0,0,0-.535,1.3h3.141v-.181a1.681,1.681,0,0,0-.406-1.165A1.456,1.456,0,0,0,72.578,26.211Zm12.164,4.031,1.57-5.7h2.359L85.82,33H83.664l-2.852-8.453h2.359Zm8.711,2.914a4.15,4.15,0,0,1-3.027-1.141,4.054,4.054,0,0,1-1.168-3.039v-.219a5.106,5.106,0,0,1,.492-2.277,3.612,3.612,0,0,1,1.395-1.547,3.914,3.914,0,0,1,2.059-.543,3.508,3.508,0,0,1,2.73,1.094,4.444,4.444,0,0,1,1,3.1v.922H91.547a2.1,2.1,0,0,0,.66,1.328,2,2,0,0,0,1.395.5,2.437,2.437,0,0,0,2.039-.945l1.109,1.242a3.389,3.389,0,0,1-1.375,1.121A4.511,4.511,0,0,1,93.453,33.156ZM93.2,26.211a1.411,1.411,0,0,0-1.09.455,2.357,2.357,0,0,0-.535,1.3h3.141v-.181a1.681,1.681,0,0,0-.406-1.165A1.456,1.456,0,0,0,93.2,26.211Zm7.094-1.664.07.977a2.951,2.951,0,0,1,2.43-1.133,2.453,2.453,0,0,1,2,.789,3.682,3.682,0,0,1,.672,2.359V33H103.2V27.581a1.47,1.47,0,0,0-.312-1.045,1.4,1.4,0,0,0-1.039-.325,1.553,1.553,0,0,0-1.43.814V33H98.164V24.547Zm9.586-2.078v2.078h1.445V26.2h-1.445v4.219a1.007,1.007,0,0,0,.18.672.9.9,0,0,0,.688.2,3.6,3.6,0,0,0,.664-.055v1.711a4.648,4.648,0,0,1-1.367.2,2.156,2.156,0,0,1-2.422-2.4V26.2h-1.234V24.547h1.234V22.469ZM117.477,33a2.507,2.507,0,0,1-.227-.758,2.732,2.732,0,0,1-2.133.914,3,3,0,0,1-2.059-.719,2.312,2.312,0,0,1-.816-1.812,2.389,2.389,0,0,1,1-2.062,4.915,4.915,0,0,1,2.879-.727h1.039v-.484a1.393,1.393,0,0,0-.3-.937,1.183,1.183,0,0,0-.949-.352,1.345,1.345,0,0,0-.895.273.929.929,0,0,0-.324.75H112.43a2.268,2.268,0,0,1,.453-1.359,3,3,0,0,1,1.281-.98,4.669,4.669,0,0,1,1.859-.355,3.689,3.689,0,0,1,2.48.785,2.747,2.747,0,0,1,.918,2.207v3.664a4.041,4.041,0,0,0,.336,1.82V33Zm-1.867-1.57a1.945,1.945,0,0,0,.922-.223,1.462,1.462,0,0,0,.625-.6V29.156h-.844q-1.7,0-1.8,1.172l-.008.133a.9.9,0,0,0,.3.7A1.153,1.153,0,0,0,115.609,31.43Z" transform="translate(-138.777 -10373.591)" fill="#fff"/>
    <path id="Trazado_230836" data-name="Trazado 230836" d="M36.7,9.93a7.053,7.053,0,0,1-2.809-1.363,2.6,2.6,0,0,1-.879-2A2.751,2.751,0,0,1,34.09,4.348a4.269,4.269,0,0,1,2.793-.879,4.66,4.66,0,0,1,2.09.453,3.436,3.436,0,0,1,1.422,1.25,3.2,3.2,0,0,1,.5,1.742H39.391a2.08,2.08,0,0,0-.656-1.627A2.669,2.669,0,0,0,36.883,4.7a2.732,2.732,0,0,0-1.73.489,1.632,1.632,0,0,0-.621,1.358,1.468,1.468,0,0,0,.59,1.178,5.785,5.785,0,0,0,2.008.88,9.316,9.316,0,0,1,2.219.88A3.367,3.367,0,0,1,40.535,10.6a2.861,2.861,0,0,1,.387,1.508,2.658,2.658,0,0,1-1.078,2.215,4.6,4.6,0,0,1-2.883.832,5.347,5.347,0,0,1-2.187-.449,3.681,3.681,0,0,1-1.566-1.23,3,3,0,0,1-.551-1.773h1.508a1.959,1.959,0,0,0,.762,1.629,3.207,3.207,0,0,0,2.035.6,2.948,2.948,0,0,0,1.82-.484,1.573,1.573,0,0,0,.633-1.32,1.545,1.545,0,0,0-.586-1.293A6.755,6.755,0,0,0,36.7,9.93Zm5.531.766a4.993,4.993,0,0,1,.488-2.234A3.643,3.643,0,0,1,44.082,6.93a3.7,3.7,0,0,1,1.988-.539,3.565,3.565,0,0,1,2.793,1.2,4.6,4.6,0,0,1,1.066,3.18v.1a5.036,5.036,0,0,1-.473,2.215,3.589,3.589,0,0,1-1.352,1.527,3.743,3.743,0,0,1-2.02.547,3.556,3.556,0,0,1-2.785-1.2A4.575,4.575,0,0,1,42.234,10.8Zm1.453.172a3.616,3.616,0,0,0,.652,2.258,2.211,2.211,0,0,0,3.5-.012,3.955,3.955,0,0,0,.648-2.418,3.61,3.61,0,0,0-.66-2.254,2.1,2.1,0,0,0-1.754-.863,2.075,2.075,0,0,0-1.727.852A3.925,3.925,0,0,0,43.688,10.867Zm9.422-4.32.047,1.063a3.08,3.08,0,0,1,2.531-1.219q2.68,0,2.7,3.023V15H56.945V9.406a1.946,1.946,0,0,0-.418-1.352,1.675,1.675,0,0,0-1.277-.437,2.086,2.086,0,0,0-1.234.375,2.546,2.546,0,0,0-.828.984V15H51.742V6.547Zm18.563,4.32a5.062,5.062,0,0,1-.883,3.109,2.829,2.829,0,0,1-2.391,1.18,3.1,3.1,0,0,1-2.422-.977v4.07H64.531V6.547h1.32l.07.938a2.977,2.977,0,0,1,2.453-1.094,2.882,2.882,0,0,1,2.41,1.148,5.117,5.117,0,0,1,.887,3.2ZM70.227,10.7a3.735,3.735,0,0,0-.609-2.258,1.963,1.963,0,0,0-1.672-.828,2.125,2.125,0,0,0-1.969,1.164V12.82a2.129,2.129,0,0,0,1.984,1.156,1.954,1.954,0,0,0,1.652-.824A4.077,4.077,0,0,0,70.227,10.7Zm8.5,3.461a3.07,3.07,0,0,1-2.477.992,2.628,2.628,0,0,1-2.059-.785,3.4,3.4,0,0,1-.715-2.324v-5.5h1.445v5.461q0,1.922,1.563,1.922a2.163,2.163,0,0,0,2.2-1.234V6.547h1.445V15H78.758ZM83.7,6.547l.047,1.063a3.08,3.08,0,0,1,2.531-1.219q2.68,0,2.7,3.023V15H87.531V9.406a1.946,1.946,0,0,0-.418-1.352,1.675,1.675,0,0,0-1.277-.437,2.086,2.086,0,0,0-1.234.375,2.546,2.546,0,0,0-.828.984V15H82.328V6.547ZM93.117,4.5V6.547H94.7V7.664H93.117v5.249a1.173,1.173,0,0,0,.211.763.888.888,0,0,0,.719.254,3.5,3.5,0,0,0,.688-.094V15a4.215,4.215,0,0,1-1.109.155,1.8,1.8,0,0,1-1.461-.586,2.517,2.517,0,0,1-.492-1.664V7.664H90.133V6.547h1.539V4.5Zm2.727,6.2a4.993,4.993,0,0,1,.488-2.234A3.643,3.643,0,0,1,97.691,6.93a3.7,3.7,0,0,1,1.988-.539,3.565,3.565,0,0,1,2.793,1.2,4.6,4.6,0,0,1,1.066,3.18v.1a5.036,5.036,0,0,1-.473,2.215,3.589,3.589,0,0,1-1.352,1.527,3.743,3.743,0,0,1-2.02.547,3.556,3.556,0,0,1-2.785-1.2A4.575,4.575,0,0,1,95.844,10.8Zm1.453.172a3.616,3.616,0,0,0,.652,2.258,2.211,2.211,0,0,0,3.5-.012,3.955,3.955,0,0,0,.648-2.418,3.61,3.61,0,0,0-.66-2.254,2.1,2.1,0,0,0-1.754-.863,2.075,2.075,0,0,0-1.727.852A3.925,3.925,0,0,0,97.3,10.867Zm12.977,1.891a1.064,1.064,0,0,0-.441-.91,4.249,4.249,0,0,0-1.539-.559,7.277,7.277,0,0,1-1.742-.562,2.479,2.479,0,0,1-.953-.781,1.869,1.869,0,0,1-.309-1.078,2.193,2.193,0,0,1,.879-1.758,3.432,3.432,0,0,1,2.246-.719,3.532,3.532,0,0,1,2.332.742,2.357,2.357,0,0,1,.895,1.9h-1.453a1.3,1.3,0,0,0-.5-1.023,1.888,1.888,0,0,0-1.27-.43,1.976,1.976,0,0,0-1.234.344,1.082,1.082,0,0,0-.445.9.877.877,0,0,0,.414.789,5.1,5.1,0,0,0,1.5.508,7.8,7.8,0,0,1,1.754.578,2.558,2.558,0,0,1,1,.809,1.988,1.988,0,0,1,.324,1.152,2.163,2.163,0,0,1-.906,1.816,3.8,3.8,0,0,1-2.352.684,4.257,4.257,0,0,1-1.8-.359,2.922,2.922,0,0,1-1.223-1A2.42,2.42,0,0,1,105,12.4h1.445a1.5,1.5,0,0,0,.582,1.152,2.258,2.258,0,0,0,1.434.426,2.331,2.331,0,0,0,1.316-.332A1.02,1.02,0,0,0,110.273,12.758Zm6.938-2.055a4.952,4.952,0,0,1,.922-3.129,3.137,3.137,0,0,1,4.766-.168V3h1.445V15h-1.328l-.07-.906a2.943,2.943,0,0,1-2.414,1.063,2.887,2.887,0,0,1-2.395-1.2,5.008,5.008,0,0,1-.926-3.141Zm1.445.164a3.749,3.749,0,0,0,.594,2.25,1.92,1.92,0,0,0,1.641.813A2.108,2.108,0,0,0,122.9,12.7V8.813a2.125,2.125,0,0,0-1.992-1.2,1.929,1.929,0,0,0-1.656.82A4.128,4.128,0,0,0,118.656,10.867Zm11.438,4.289a3.693,3.693,0,0,1-2.8-1.129,4.19,4.19,0,0,1-1.078-3.02v-.266A5.073,5.073,0,0,1,126.7,8.5a3.748,3.748,0,0,1,1.344-1.547,3.378,3.378,0,0,1,1.871-.559,3.166,3.166,0,0,1,2.563,1.086,4.7,4.7,0,0,1,.914,3.109v.6h-5.727a3,3,0,0,0,.73,2.02,2.3,2.3,0,0,0,1.777.77,2.517,2.517,0,0,0,1.3-.312,3.258,3.258,0,0,0,.93-.828l.883.688A3.55,3.55,0,0,1,130.094,15.156Zm-.18-7.578a1.928,1.928,0,0,0-1.469.637A3.1,3.1,0,0,0,127.711,10h4.234V9.891a2.753,2.753,0,0,0-.594-1.707A1.815,1.815,0,0,0,129.914,7.578Zm-80.062,26.4a2.082,2.082,0,0,0,1.352-.469,1.649,1.649,0,0,0,.641-1.172h1.367a2.621,2.621,0,0,1-.5,1.383,3.293,3.293,0,0,1-1.23,1.047,3.55,3.55,0,0,1-1.629.391A3.482,3.482,0,0,1,47.105,34a4.59,4.59,0,0,1-1.02-3.152v-.242a5.089,5.089,0,0,1,.453-2.2,3.451,3.451,0,0,1,1.3-1.492,3.7,3.7,0,0,1,2-.531,3.39,3.39,0,0,1,2.363.852,3.043,3.043,0,0,1,1,2.211H51.844a1.992,1.992,0,0,0-.621-1.348,1.932,1.932,0,0,0-1.379-.527,2.023,2.023,0,0,0-1.707.793,3.724,3.724,0,0,0-.605,2.293v.273a3.65,3.65,0,0,0,.6,2.25A2.033,2.033,0,0,0,49.852,33.977Zm4.6-3.281a4.993,4.993,0,0,1,.488-2.234A3.643,3.643,0,0,1,56.3,26.93a3.7,3.7,0,0,1,1.988-.539,3.565,3.565,0,0,1,2.793,1.2,4.6,4.6,0,0,1,1.066,3.18v.1a5.036,5.036,0,0,1-.473,2.215,3.589,3.589,0,0,1-1.352,1.527,3.743,3.743,0,0,1-2.02.547,3.556,3.556,0,0,1-2.785-1.2A4.575,4.575,0,0,1,54.453,30.8Zm1.453.172a3.616,3.616,0,0,0,.652,2.258,2.211,2.211,0,0,0,3.5-.012A3.955,3.955,0,0,0,60.7,30.7a3.61,3.61,0,0,0-.66-2.254,2.1,2.1,0,0,0-1.754-.863,2.075,2.075,0,0,0-1.727.852A3.925,3.925,0,0,0,55.906,30.867Zm9.422-4.32.047,1.063a3.08,3.08,0,0,1,2.531-1.219q2.68,0,2.7,3.023V35H69.164V29.406a1.946,1.946,0,0,0-.418-1.352,1.675,1.675,0,0,0-1.277-.437,2.086,2.086,0,0,0-1.234.375,2.546,2.546,0,0,0-.828.984V35H63.961V26.547ZM74.75,24.5v2.047h1.578v1.117H74.75v5.249a1.173,1.173,0,0,0,.211.763.888.888,0,0,0,.719.254,3.5,3.5,0,0,0,.688-.094V35a4.215,4.215,0,0,1-1.109.155A1.8,1.8,0,0,1,73.8,34.57a2.517,2.517,0,0,1-.492-1.664V27.664H71.766V26.547H73.3V24.5ZM83.234,35a3.036,3.036,0,0,1-.2-.891,3.225,3.225,0,0,1-2.406,1.047,2.984,2.984,0,0,1-2.051-.707,2.288,2.288,0,0,1-.8-1.793,2.39,2.39,0,0,1,1-2.051,4.733,4.733,0,0,1,2.824-.73h1.406v-.664A1.623,1.623,0,0,0,82.555,28a1.821,1.821,0,0,0-1.336-.449,2.108,2.108,0,0,0-1.3.391,1.151,1.151,0,0,0-.523.945H77.945a2,2,0,0,1,.449-1.223,3.066,3.066,0,0,1,1.219-.934,4.1,4.1,0,0,1,1.691-.344,3.342,3.342,0,0,1,2.289.73,2.635,2.635,0,0,1,.859,2.012v3.891a4.757,4.757,0,0,0,.3,1.852V35Zm-2.4-1.1a2.54,2.54,0,0,0,1.289-.352,2.127,2.127,0,0,0,.883-.914V30.9H81.875q-2.656,0-2.656,1.555a1.316,1.316,0,0,0,.453,1.063A1.742,1.742,0,0,0,80.836,33.9Zm9.273.078a2.082,2.082,0,0,0,1.352-.469,1.649,1.649,0,0,0,.641-1.172h1.367a2.621,2.621,0,0,1-.5,1.383,3.293,3.293,0,0,1-1.23,1.047,3.55,3.55,0,0,1-1.629.391A3.482,3.482,0,0,1,87.363,34a4.59,4.59,0,0,1-1.02-3.152v-.242a5.089,5.089,0,0,1,.453-2.2,3.451,3.451,0,0,1,1.3-1.492,3.7,3.7,0,0,1,2-.531,3.39,3.39,0,0,1,2.363.852,3.043,3.043,0,0,1,1,2.211H92.1a1.992,1.992,0,0,0-.621-1.348,1.932,1.932,0,0,0-1.379-.527,2.023,2.023,0,0,0-1.707.793,3.724,3.724,0,0,0-.605,2.293v.273a3.65,3.65,0,0,0,.6,2.25A2.033,2.033,0,0,0,90.109,33.977ZM97.055,24.5v2.047h1.578v1.117H97.055v5.249a1.173,1.173,0,0,0,.211.763.888.888,0,0,0,.719.254,3.5,3.5,0,0,0,.688-.094V35a4.215,4.215,0,0,1-1.109.155A1.8,1.8,0,0,1,96.1,34.57a2.517,2.517,0,0,1-.492-1.664V27.664H94.07V26.547h1.539V24.5Zm2.727,6.2a4.993,4.993,0,0,1,.488-2.234,3.643,3.643,0,0,1,1.359-1.531,3.7,3.7,0,0,1,1.988-.539,3.565,3.565,0,0,1,2.793,1.2,4.6,4.6,0,0,1,1.066,3.18v.1A5.036,5.036,0,0,1,107,33.082a3.589,3.589,0,0,1-1.352,1.527,3.743,3.743,0,0,1-2.02.547,3.556,3.556,0,0,1-2.785-1.2A4.575,4.575,0,0,1,99.781,30.8Zm1.453.172a3.616,3.616,0,0,0,.652,2.258,2.211,2.211,0,0,0,3.5-.012,3.955,3.955,0,0,0,.648-2.418,3.61,3.61,0,0,0-.66-2.254,2.1,2.1,0,0,0-1.754-.863,2.075,2.075,0,0,0-1.727.852A3.925,3.925,0,0,0,101.234,30.867Zm15.523,4.289a3.693,3.693,0,0,1-2.8-1.129,4.19,4.19,0,0,1-1.078-3.02v-.266a5.073,5.073,0,0,1,.48-2.246,3.748,3.748,0,0,1,1.344-1.547,3.378,3.378,0,0,1,1.871-.559,3.166,3.166,0,0,1,2.563,1.086,4.7,4.7,0,0,1,.914,3.109v.6h-5.727a3,3,0,0,0,.73,2.02,2.3,2.3,0,0,0,1.777.77,2.517,2.517,0,0,0,1.3-.312,3.259,3.259,0,0,0,.93-.828l.883.688A3.55,3.55,0,0,1,116.758,35.156Zm-.18-7.578a1.928,1.928,0,0,0-1.469.637A3.1,3.1,0,0,0,114.375,30h4.234v-.109a2.753,2.753,0,0,0-.594-1.707A1.815,1.815,0,0,0,116.578,27.578ZM24.938,55H23.492V46.547h1.445ZM23.375,44.3a.863.863,0,0,1,.215-.594.807.807,0,0,1,.637-.242.819.819,0,0,1,.641.242.854.854,0,0,1,.219.594.826.826,0,0,1-.219.586.834.834,0,0,1-.641.234.821.821,0,0,1-.637-.234A.834.834,0,0,1,23.375,44.3Zm5.242,2.242.047,1.063A3.08,3.08,0,0,1,31.2,46.391q2.68,0,2.7,3.023V55H32.453V49.406a1.946,1.946,0,0,0-.418-1.352,1.675,1.675,0,0,0-1.277-.437,2.086,2.086,0,0,0-1.234.375,2.546,2.546,0,0,0-.828.984V55H27.25V46.547ZM38.039,44.5v2.047h1.578v1.117H38.039v5.249a1.173,1.173,0,0,0,.211.763.888.888,0,0,0,.719.254,3.5,3.5,0,0,0,.688-.094V55a4.215,4.215,0,0,1-1.109.155,1.8,1.8,0,0,1-1.461-.586,2.517,2.517,0,0,1-.492-1.664V47.664H35.055V46.547h1.539V44.5Zm6.773,10.656a3.693,3.693,0,0,1-2.8-1.129,4.19,4.19,0,0,1-1.078-3.02v-.266a5.073,5.073,0,0,1,.48-2.246,3.748,3.748,0,0,1,1.344-1.547,3.378,3.378,0,0,1,1.871-.559A3.166,3.166,0,0,1,47.2,47.477a4.7,4.7,0,0,1,.914,3.109v.6H42.383a3,3,0,0,0,.73,2.02,2.3,2.3,0,0,0,1.777.77,2.517,2.517,0,0,0,1.3-.312,3.258,3.258,0,0,0,.93-.828l.883.688A3.55,3.55,0,0,1,44.813,55.156Zm-.18-7.578a1.928,1.928,0,0,0-1.469.637A3.1,3.1,0,0,0,42.43,50h4.234v-.109a2.753,2.753,0,0,0-.594-1.707A1.815,1.815,0,0,0,44.633,47.578Zm9.234.266a4.331,4.331,0,0,0-.711-.055A1.9,1.9,0,0,0,51.227,49v6H49.781V46.547h1.406l.023.977a2.251,2.251,0,0,1,2.016-1.133,1.477,1.477,0,0,1,.641.109ZM60.1,55a3.036,3.036,0,0,1-.2-.891,3.225,3.225,0,0,1-2.406,1.047,2.984,2.984,0,0,1-2.051-.707,2.287,2.287,0,0,1-.8-1.793,2.39,2.39,0,0,1,1-2.051,4.733,4.733,0,0,1,2.824-.73h1.406v-.664A1.623,1.623,0,0,0,59.422,48a1.821,1.821,0,0,0-1.336-.449,2.107,2.107,0,0,0-1.3.391,1.151,1.151,0,0,0-.523.945H54.813a2,2,0,0,1,.449-1.223,3.066,3.066,0,0,1,1.219-.934,4.1,4.1,0,0,1,1.691-.344,3.342,3.342,0,0,1,2.289.73,2.635,2.635,0,0,1,.859,2.012v3.891a4.757,4.757,0,0,0,.3,1.852V55Zm-2.4-1.1a2.54,2.54,0,0,0,1.289-.352,2.127,2.127,0,0,0,.883-.914V50.9H58.742q-2.656,0-2.656,1.555a1.316,1.316,0,0,0,.453,1.063A1.742,1.742,0,0,0,57.7,53.9Zm9.273.078a2.082,2.082,0,0,0,1.352-.469,1.649,1.649,0,0,0,.641-1.172h1.367a2.621,2.621,0,0,1-.5,1.383,3.293,3.293,0,0,1-1.23,1.047,3.55,3.55,0,0,1-1.629.391A3.482,3.482,0,0,1,64.23,54a4.59,4.59,0,0,1-1.02-3.152v-.242a5.089,5.089,0,0,1,.453-2.2,3.451,3.451,0,0,1,1.3-1.492,3.7,3.7,0,0,1,2-.531,3.39,3.39,0,0,1,2.363.852,3.043,3.043,0,0,1,1,2.211H68.969a1.992,1.992,0,0,0-.621-1.348,1.932,1.932,0,0,0-1.379-.527,2.023,2.023,0,0,0-1.707.793,3.724,3.724,0,0,0-.605,2.293v.273a3.65,3.65,0,0,0,.6,2.25A2.033,2.033,0,0,0,66.977,53.977Zm8.375,0a2.082,2.082,0,0,0,1.352-.469,1.649,1.649,0,0,0,.641-1.172h1.367a2.621,2.621,0,0,1-.5,1.383,3.293,3.293,0,0,1-1.23,1.047,3.55,3.55,0,0,1-1.629.391A3.482,3.482,0,0,1,72.605,54a4.59,4.59,0,0,1-1.02-3.152v-.242a5.089,5.089,0,0,1,.453-2.2,3.451,3.451,0,0,1,1.3-1.492,3.7,3.7,0,0,1,2-.531,3.39,3.39,0,0,1,2.363.852,3.043,3.043,0,0,1,1,2.211H77.344a1.992,1.992,0,0,0-.621-1.348,1.932,1.932,0,0,0-1.379-.527,2.023,2.023,0,0,0-1.707.793,3.724,3.724,0,0,0-.605,2.293v.273a3.65,3.65,0,0,0,.6,2.25A2.033,2.033,0,0,0,75.352,53.977ZM81.906,55H80.461V46.547h1.445ZM80.344,44.3a.863.863,0,0,1,.215-.594.807.807,0,0,1,.637-.242.819.819,0,0,1,.641.242.854.854,0,0,1,.219.594.826.826,0,0,1-.219.586.834.834,0,0,1-.641.234.821.821,0,0,1-.637-.234A.834.834,0,0,1,80.344,44.3ZM83.836,50.7a4.993,4.993,0,0,1,.488-2.234,3.643,3.643,0,0,1,1.359-1.531,3.7,3.7,0,0,1,1.988-.539,3.565,3.565,0,0,1,2.793,1.2,4.6,4.6,0,0,1,1.066,3.18v.1a5.036,5.036,0,0,1-.473,2.215,3.589,3.589,0,0,1-1.352,1.527,3.743,3.743,0,0,1-2.02.547,3.556,3.556,0,0,1-2.785-1.2A4.575,4.575,0,0,1,83.836,50.8Zm1.453.172a3.616,3.616,0,0,0,.652,2.258,2.211,2.211,0,0,0,3.5-.012,3.955,3.955,0,0,0,.648-2.418,3.61,3.61,0,0,0-.66-2.254,2.1,2.1,0,0,0-1.754-.863,2.075,2.075,0,0,0-1.727.852A3.925,3.925,0,0,0,85.289,50.867Zm3.039-7.852h1.75l-2.094,2.3-1.164,0Zm6.383,3.531.047,1.063a3.08,3.08,0,0,1,2.531-1.219q2.68,0,2.7,3.023V55H98.547V49.406a1.946,1.946,0,0,0-.418-1.352,1.675,1.675,0,0,0-1.277-.437,2.086,2.086,0,0,0-1.234.375,2.546,2.546,0,0,0-.828.984V55H93.344V46.547Zm14.813,7.43a2.082,2.082,0,0,0,1.352-.469,1.649,1.649,0,0,0,.641-1.172h1.367a2.621,2.621,0,0,1-.5,1.383,3.293,3.293,0,0,1-1.23,1.047,3.55,3.55,0,0,1-1.629.391A3.482,3.482,0,0,1,106.777,54a4.59,4.59,0,0,1-1.02-3.152v-.242a5.089,5.089,0,0,1,.453-2.2,3.451,3.451,0,0,1,1.3-1.492,3.7,3.7,0,0,1,2-.531,3.39,3.39,0,0,1,2.363.852,3.043,3.043,0,0,1,1,2.211h-1.367a1.992,1.992,0,0,0-.621-1.348,1.932,1.932,0,0,0-1.379-.527,2.023,2.023,0,0,0-1.707.793,3.724,3.724,0,0,0-.605,2.293v.273a3.65,3.65,0,0,0,.6,2.25A2.033,2.033,0,0,0,109.523,53.977Zm4.6-3.281a4.993,4.993,0,0,1,.488-2.234,3.643,3.643,0,0,1,1.359-1.531,3.7,3.7,0,0,1,1.988-.539,3.565,3.565,0,0,1,2.793,1.2,4.6,4.6,0,0,1,1.066,3.18v.1a5.036,5.036,0,0,1-.473,2.215A3.589,3.589,0,0,1,120,54.609a3.743,3.743,0,0,1-2.02.547,3.556,3.556,0,0,1-2.785-1.2,4.575,4.575,0,0,1-1.066-3.164Zm1.453.172a3.616,3.616,0,0,0,.652,2.258,2.211,2.211,0,0,0,3.5-.012,3.955,3.955,0,0,0,.648-2.418,3.61,3.61,0,0,0-.66-2.254,2.1,2.1,0,0,0-1.754-.863,2.075,2.075,0,0,0-1.727.852A3.925,3.925,0,0,0,115.578,50.867ZM125,46.547l.047,1.063a3.08,3.08,0,0,1,2.531-1.219q2.68,0,2.7,3.023V55h-1.445V49.406a1.946,1.946,0,0,0-.418-1.352,1.675,1.675,0,0,0-1.277-.437,2.086,2.086,0,0,0-1.234.375,2.546,2.546,0,0,0-.828.984V55h-1.445V46.547Zm14.93,8.609a3.693,3.693,0,0,1-2.8-1.129,4.19,4.19,0,0,1-1.078-3.02v-.266a5.073,5.073,0,0,1,.48-2.246,3.748,3.748,0,0,1,1.344-1.547,3.378,3.378,0,0,1,1.871-.559,3.166,3.166,0,0,1,2.563,1.086,4.7,4.7,0,0,1,.914,3.109v.6H137.5a3,3,0,0,0,.73,2.02,2.3,2.3,0,0,0,1.777.77,2.517,2.517,0,0,0,1.3-.312,3.258,3.258,0,0,0,.93-.828l.883.688A3.55,3.55,0,0,1,139.93,55.156Zm-.18-7.578a1.928,1.928,0,0,0-1.469.637A3.1,3.1,0,0,0,137.547,50h4.234v-.109a2.753,2.753,0,0,0-.594-1.707A1.815,1.815,0,0,0,139.75,47.578ZM146.469,55h-1.445V43h1.445ZM63.91,73.977a2.082,2.082,0,0,0,1.352-.469,1.649,1.649,0,0,0,.641-1.172H67.27a2.621,2.621,0,0,1-.5,1.383,3.293,3.293,0,0,1-1.23,1.047,3.55,3.55,0,0,1-1.629.391A3.482,3.482,0,0,1,61.164,74a4.59,4.59,0,0,1-1.02-3.152v-.242a5.089,5.089,0,0,1,.453-2.2,3.451,3.451,0,0,1,1.3-1.492,3.7,3.7,0,0,1,2-.531,3.39,3.39,0,0,1,2.363.852,3.043,3.043,0,0,1,1,2.211H65.9a1.992,1.992,0,0,0-.621-1.348,1.932,1.932,0,0,0-1.379-.527,2.023,2.023,0,0,0-1.707.793,3.724,3.724,0,0,0-.605,2.293v.273a3.65,3.65,0,0,0,.6,2.25A2.033,2.033,0,0,0,63.91,73.977ZM70.465,75H69.02V63h1.445Zm3.883,0H72.9V66.547h1.445ZM72.785,64.3A.863.863,0,0,1,73,63.711a.807.807,0,0,1,.637-.242.819.819,0,0,1,.641.242.854.854,0,0,1,.219.594.826.826,0,0,1-.219.586.834.834,0,0,1-.641.234A.821.821,0,0,1,73,64.891.834.834,0,0,1,72.785,64.3Zm7.383,10.852a3.693,3.693,0,0,1-2.8-1.129,4.19,4.19,0,0,1-1.078-3.02v-.266a5.073,5.073,0,0,1,.48-2.246,3.748,3.748,0,0,1,1.344-1.547,3.378,3.378,0,0,1,1.871-.559,3.166,3.166,0,0,1,2.563,1.086,4.7,4.7,0,0,1,.914,3.109v.6H77.738a3,3,0,0,0,.73,2.02,2.3,2.3,0,0,0,1.777.77,2.517,2.517,0,0,0,1.3-.312,3.259,3.259,0,0,0,.93-.828l.883.688A3.55,3.55,0,0,1,80.168,75.156Zm-.18-7.578a1.928,1.928,0,0,0-1.469.637A3.1,3.1,0,0,0,77.785,70H82.02v-.109a2.753,2.753,0,0,0-.594-1.707A1.815,1.815,0,0,0,79.988,67.578ZM86.5,66.547l.047,1.063a3.08,3.08,0,0,1,2.531-1.219q2.68,0,2.7,3.023V75H90.34V69.406a1.946,1.946,0,0,0-.418-1.352,1.675,1.675,0,0,0-1.277-.437,2.086,2.086,0,0,0-1.234.375,2.546,2.546,0,0,0-.828.984V75H85.137V66.547ZM95.926,64.5v2.047H97.5v1.117H95.926v5.249a1.173,1.173,0,0,0,.211.763.888.888,0,0,0,.719.254,3.5,3.5,0,0,0,.688-.094V75a4.215,4.215,0,0,1-1.109.155,1.8,1.8,0,0,1-1.461-.586,2.517,2.517,0,0,1-.492-1.664V67.664H92.941V66.547H94.48V64.5ZM102.7,75.156a3.693,3.693,0,0,1-2.8-1.129,4.19,4.19,0,0,1-1.078-3.02v-.266A5.073,5.073,0,0,1,99.3,68.5a3.748,3.748,0,0,1,1.344-1.547,3.378,3.378,0,0,1,1.871-.559,3.166,3.166,0,0,1,2.563,1.086A4.7,4.7,0,0,1,106,70.586v.6H100.27a3,3,0,0,0,.73,2.02,2.3,2.3,0,0,0,1.777.77,2.517,2.517,0,0,0,1.3-.312,3.259,3.259,0,0,0,.93-.828l.883.688A3.55,3.55,0,0,1,102.7,75.156Zm-.18-7.578a1.928,1.928,0,0,0-1.469.637A3.1,3.1,0,0,0,100.316,70h4.234v-.109a2.753,2.753,0,0,0-.594-1.707A1.815,1.815,0,0,0,102.52,67.578Z" transform="translate(-265.333 -10197.6)" fill="#12263f"/>
    <g id="Grupo_80119" data-name="Grupo 80119" transform="translate(-3139.364 -9079.986)">
      <circle id="Elipse_4711" data-name="Elipse 4711" cx="1.386" cy="1.386" r="1.386" transform="translate(3365.884 -1363.873)" fill="#26c7db"/>
      <circle id="Elipse_4712" data-name="Elipse 4712" cx="1.386" cy="1.386" r="1.386" transform="translate(3365.884 -1345.268)" fill="#26c7db"/>
      <circle id="Elipse_4713" data-name="Elipse 4713" cx="1.386" cy="1.386" r="1.386" transform="translate(3365.884 -1326.663)" fill="#26c7db"/>
      <circle id="Elipse_4714" data-name="Elipse 4714" cx="1.386" cy="1.386" r="1.386" transform="translate(3365.884 -1308.058)" fill="#26c7db"/>
      <circle id="Elipse_4715" data-name="Elipse 4715" cx="1.386" cy="1.386" r="1.386" transform="translate(3389.781 -1401.039)" fill="#26c7db"/>
      <circle id="Elipse_4716" data-name="Elipse 4716" cx="1.386" cy="1.386" r="1.386" transform="translate(3389.781 -1382.434)" fill="#26c7db"/>
      <circle id="Elipse_4717" data-name="Elipse 4717" cx="1.386" cy="1.386" r="1.386" transform="translate(3389.781 -1363.829)" fill="#26c7db"/>
      <circle id="Elipse_4718" data-name="Elipse 4718" cx="1.386" cy="1.386" r="1.386" transform="translate(3389.781 -1345.224)" fill="#26c7db"/>
      <circle id="Elipse_4719" data-name="Elipse 4719" cx="1.386" cy="1.386" r="1.386" transform="translate(3389.781 -1326.619)" fill="#26c7db"/>
      <circle id="Elipse_4720" data-name="Elipse 4720" cx="1.386" cy="1.386" r="1.386" transform="translate(3389.781 -1308.014)" fill="#26c7db"/>
      <circle id="Elipse_4721" data-name="Elipse 4721" cx="1.386" cy="1.386" r="1.386" transform="translate(3389.781 -1289.41)" fill="#26c7db"/>
      <circle id="Elipse_4722" data-name="Elipse 4722" cx="1.386" cy="1.386" r="1.386" transform="translate(3413.678 -1401.039)" fill="#26c7db"/>
      <circle id="Elipse_4723" data-name="Elipse 4723" cx="1.386" cy="1.386" r="1.386" transform="translate(3413.678 -1382.434)" fill="#26c7db"/>
      <circle id="Elipse_4724" data-name="Elipse 4724" cx="1.386" cy="1.386" r="1.386" transform="translate(3413.678 -1363.829)" fill="#26c7db"/>
      <circle id="Elipse_4725" data-name="Elipse 4725" cx="1.386" cy="1.386" r="1.386" transform="translate(3413.678 -1345.224)" fill="#26c7db"/>
      <circle id="Elipse_4726" data-name="Elipse 4726" cx="1.386" cy="1.386" r="1.386" transform="translate(3413.678 -1326.619)" fill="#26c7db"/>
      <circle id="Elipse_4727" data-name="Elipse 4727" cx="1.386" cy="1.386" r="1.386" transform="translate(3413.678 -1308.014)" fill="#26c7db"/>
      <circle id="Elipse_4728" data-name="Elipse 4728" cx="1.386" cy="1.386" r="1.386" transform="translate(3413.678 -1289.41)" fill="#26c7db"/>
      <circle id="Elipse_4729" data-name="Elipse 4729" cx="1.386" cy="1.386" r="1.386" transform="translate(3413.678 -1270.805)" fill="#26c7db"/>
      <circle id="Elipse_4731" data-name="Elipse 4731" cx="1.386" cy="1.386" r="1.386" transform="translate(3437.576 -1382.434)" fill="#26c7db"/>
      <circle id="Elipse_4732" data-name="Elipse 4732" cx="1.386" cy="1.386" r="1.386" transform="translate(3413.678 -1419.644)" fill="#26c7db"/>
      <circle id="Elipse_4734" data-name="Elipse 4734" cx="1.386" cy="1.386" r="1.386" transform="translate(3437.576 -1363.829)" fill="#26c7db"/>
      <circle id="Elipse_4735" data-name="Elipse 4735" cx="1.386" cy="1.386" r="1.386" transform="translate(3437.576 -1345.224)" fill="#26c7db"/>
      <circle id="Elipse_4736" data-name="Elipse 4736" cx="1.386" cy="1.386" r="1.386" transform="translate(3437.576 -1326.619)" fill="#26c7db"/>
      <circle id="Elipse_4737" data-name="Elipse 4737" cx="1.386" cy="1.386" r="1.386" transform="translate(3437.576 -1308.014)" fill="#26c7db"/>
      <circle id="Elipse_4738" data-name="Elipse 4738" cx="1.386" cy="1.386" r="1.386" transform="translate(3437.576 -1289.41)" fill="#26c7db"/>
      <circle id="Elipse_4739" data-name="Elipse 4739" cx="1.386" cy="1.386" r="1.386" transform="translate(3437.576 -1270.805)" fill="#26c7db"/>
      <circle id="Elipse_4743" data-name="Elipse 4743" cx="1.386" cy="1.386" r="1.386" transform="translate(3461.473 -1345.224)" fill="#26c7db"/>
      <circle id="Elipse_4744" data-name="Elipse 4744" cx="1.386" cy="1.386" r="1.386" transform="translate(3461.473 -1326.619)" fill="#26c7db"/>
      <circle id="Elipse_4745" data-name="Elipse 4745" cx="1.386" cy="1.386" r="1.386" transform="translate(3461.473 -1308.014)" fill="#26c7db"/>
      <circle id="Elipse_4746" data-name="Elipse 4746" cx="1.386" cy="1.386" r="1.386" transform="translate(3461.473 -1289.41)" fill="#26c7db"/>
      <circle id="Elipse_4748" data-name="Elipse 4748" cx="1.386" cy="1.386" r="1.386" transform="translate(3365.884 -1382.434)" fill="#26c7db"/>
      <circle id="Elipse_4752" data-name="Elipse 4752" cx="1.386" cy="1.386" r="1.386" transform="translate(3485.371 -1308.058)" fill="#26c7db"/>
    </g>
    <g id="Grupo_156320" data-name="Grupo 156320" transform="matrix(-0.259, 0.966, -0.966, -0.259, 2361.125, -11120.87)">
      <g id="Grupo_130269" data-name="Grupo 130269" transform="translate(1327.752 2006.163) rotate(180)">
        <g id="Grupo_130268" data-name="Grupo 130268" transform="translate(0 0)">
          <circle id="Elipse_5852" data-name="Elipse 5852" cx="10.719" cy="10.719" r="10.719" transform="translate(105.054 192.028)" fill="#f57c22"/>
          <circle id="Elipse_5853" data-name="Elipse 5853" cx="10.719" cy="10.719" r="10.719" transform="translate(115.773 87.884)" fill="#f57c22"/>
          <path id="Trazado_196335" data-name="Trazado 196335" d="M11.553,5.778A5.777,5.777,0,1,1,5.775,0,5.776,5.776,0,0,1,11.553,5.778Z" transform="translate(146.666 115.714)" fill="#f57c22"/>
          <circle id="Elipse_5854" data-name="Elipse 5854" cx="5.719" cy="5.719" r="5.719" transform="translate(42.138 202.03)" fill="#f57c22"/>
          <circle id="Elipse_5855" data-name="Elipse 5855" cx="10.719" cy="10.719" r="10.719" transform="translate(0 199.114)" fill="#f57c22"/>
        </g>
      </g>
    </g>
    <g id="Grupo_156319" data-name="Grupo 156319" transform="matrix(0.951, -0.309, 0.309, 0.951, -1181.702, -11562.229)">
      <g id="Grupo_130269-2" data-name="Grupo 130269" transform="translate(478.776 1730.314) rotate(180)">
        <g id="Grupo_130268-2" data-name="Grupo 130268" transform="translate(0 0)">
          <circle id="Elipse_5852-2" data-name="Elipse 5852" cx="10.719" cy="10.719" r="10.719" transform="translate(105.054 192.028)" fill="#26c7db"/>
          <circle id="Elipse_5853-2" data-name="Elipse 5853" cx="10.719" cy="10.719" r="10.719" transform="translate(115.773 87.884)" fill="#26c7db"/>
          <path id="Trazado_196335-2" data-name="Trazado 196335" d="M11.553,5.778A5.777,5.777,0,1,1,5.775,0,5.776,5.776,0,0,1,11.553,5.778Z" transform="translate(146.666 115.714)" fill="#26c7db"/>
          <circle id="Elipse_5854-2" data-name="Elipse 5854" cx="5.719" cy="5.719" r="5.719" transform="translate(42.138 202.03)" fill="#26c7db"/>
          <circle id="Elipse_5855-2" data-name="Elipse 5855" cx="10.719" cy="10.719" r="10.719" transform="translate(0 199.114)" fill="#26c7db"/>
        </g>
      </g>
    </g>
    <g id="Grupo_80120" data-name="Grupo 80120" transform="translate(-3312.667 -9036.542)">
      <circle id="Elipse_4756" data-name="Elipse 4756" cx="1.196" cy="1.196" r="1.196" transform="translate(2938.143 -1126.202)" fill="#f57c22"/>
      <circle id="Elipse_4760" data-name="Elipse 4760" cx="1.196" cy="1.196" r="1.196" transform="translate(2958.771 -1158.284)" fill="#f57c22"/>
      <circle id="Elipse_4761" data-name="Elipse 4761" cx="1.196" cy="1.196" r="1.196" transform="translate(2958.771 -1142.224)" fill="#f57c22"/>
      <circle id="Elipse_4762" data-name="Elipse 4762" cx="1.196" cy="1.196" r="1.196" transform="translate(2958.771 -1126.164)" fill="#f57c22"/>
      <circle id="Elipse_4763" data-name="Elipse 4763" cx="1.196" cy="1.196" r="1.196" transform="translate(2958.771 -1110.104)" fill="#f57c22"/>
      <circle id="Elipse_4765" data-name="Elipse 4765" cx="1.196" cy="1.196" r="1.196" transform="translate(2979.4 -1190.404)" fill="#f57c22"/>
      <circle id="Elipse_4766" data-name="Elipse 4766" cx="1.196" cy="1.196" r="1.196" transform="translate(2979.4 -1174.344)" fill="#f57c22"/>
      <circle id="Elipse_4767" data-name="Elipse 4767" cx="1.196" cy="1.196" r="1.196" transform="translate(2979.4 -1158.284)" fill="#f57c22"/>
      <circle id="Elipse_4768" data-name="Elipse 4768" cx="1.196" cy="1.196" r="1.196" transform="translate(2979.4 -1142.224)" fill="#f57c22"/>
      <circle id="Elipse_4769" data-name="Elipse 4769" cx="1.196" cy="1.196" r="1.196" transform="translate(2979.4 -1126.164)" fill="#f57c22"/>
      <circle id="Elipse_4770" data-name="Elipse 4770" cx="1.196" cy="1.196" r="1.196" transform="translate(2979.4 -1110.104)" fill="#f57c22"/>
      <circle id="Elipse_4771" data-name="Elipse 4771" cx="1.196" cy="1.196" r="1.196" transform="translate(2979.4 -1094.044)" fill="#f57c22"/>
      <circle id="Elipse_4773" data-name="Elipse 4773" cx="1.196" cy="1.196" r="1.196" transform="translate(3000.029 -1190.404)" fill="#f57c22"/>
      <circle id="Elipse_4776" data-name="Elipse 4776" cx="1.196" cy="1.196" r="1.196" transform="translate(3000.029 -1174.344)" fill="#f57c22"/>
      <circle id="Elipse_4777" data-name="Elipse 4777" cx="1.196" cy="1.196" r="1.196" transform="translate(3000.029 -1158.284)" fill="#f57c22"/>
      <circle id="Elipse_4778" data-name="Elipse 4778" cx="1.196" cy="1.196" r="1.196" transform="translate(3000.029 -1142.224)" fill="#f57c22"/>
      <circle id="Elipse_4779" data-name="Elipse 4779" cx="1.196" cy="1.196" r="1.196" transform="translate(3000.029 -1126.164)" fill="#f57c22"/>
      <circle id="Elipse_4780" data-name="Elipse 4780" cx="1.196" cy="1.196" r="1.196" transform="translate(3000.029 -1110.104)" fill="#f57c22"/>
      <circle id="Elipse_4781" data-name="Elipse 4781" cx="1.196" cy="1.196" r="1.196" transform="translate(3000.029 -1094.044)" fill="#f57c22"/>
      <circle id="Elipse_4783" data-name="Elipse 4783" cx="1.196" cy="1.196" r="1.196" transform="translate(3020.657 -1190.404)" fill="#f57c22"/>
      <circle id="Elipse_4784" data-name="Elipse 4784" cx="1.196" cy="1.196" r="1.196" transform="translate(3020.657 -1174.344)" fill="#f57c22"/>
      <circle id="Elipse_4785" data-name="Elipse 4785" cx="1.196" cy="1.196" r="1.196" transform="translate(3020.657 -1158.284)" fill="#f57c22"/>
      <circle id="Elipse_4786" data-name="Elipse 4786" cx="1.196" cy="1.196" r="1.196" transform="translate(3020.657 -1142.224)" fill="#f57c22"/>
      <circle id="Elipse_4787" data-name="Elipse 4787" cx="1.196" cy="1.196" r="1.196" transform="translate(3020.657 -1126.164)" fill="#f57c22"/>
      <circle id="Elipse_4788" data-name="Elipse 4788" cx="1.196" cy="1.196" r="1.196" transform="translate(3020.657 -1110.104)" fill="#f57c22"/>
      <circle id="Elipse_4789" data-name="Elipse 4789" cx="1.196" cy="1.196" r="1.196" transform="translate(3041.286 -1174.382)" fill="#f57c22"/>
      <circle id="Elipse_4791" data-name="Elipse 4791" cx="1.196" cy="1.196" r="1.196" transform="translate(3041.286 -1190.404)" fill="#f57c22"/>
      <circle id="Elipse_4792" data-name="Elipse 4792" cx="1.196" cy="1.196" r="1.196" transform="translate(3041.286 -1158.322)" fill="#f57c22"/>
      <circle id="Elipse_4793" data-name="Elipse 4793" cx="1.196" cy="1.196" r="1.196" transform="translate(3041.286 -1142.262)" fill="#f57c22"/>
      <circle id="Elipse_4794" data-name="Elipse 4794" cx="1.196" cy="1.196" r="1.196" transform="translate(3041.286 -1126.202)" fill="#f57c22"/>
    </g>
    <path id="Trazado_228127" data-name="Trazado 228127" d="M229.459,297.146h-7.08l1.084-.938a1.2,1.2,0,0,0-1.574-1.819l-3.113,2.694a1.676,1.676,0,0,0,.008,2.54l3.1,2.687a1.2,1.2,0,0,0,1.574-1.819l-1.084-.938h7.08a1.2,1.2,0,0,0,0-2.405Z" transform="translate(-406.537 -10521.099)" fill="#12263f"/>
    <path id="Trazado_228128" data-name="Trazado 228128" d="M230.058,196.1l-3.1-2.687a1.2,1.2,0,1,0-1.577,1.817l1.082.939h-7.081a1.2,1.2,0,0,0,0,2.406h7.083l-1.083.939a1.2,1.2,0,0,0,1.576,1.818l3.1-2.685a1.665,1.665,0,0,0,0-2.546Z" transform="translate(-406.526 -10436.318)" fill="#12263f"/>
    <path id="Trazado_228129" data-name="Trazado 228129" d="M339.375,156.132a17.493,17.493,0,0,0-5.837-2.332l-.694-.187c-.411-.113-.7-.637-.9-1.136,3.572-2.377,6.246-6.517,6.246-10.12v-3.282a13.577,13.577,0,0,0-3.707-9.858,11.793,11.793,0,0,0-8.214-3.446h-.039a11.786,11.786,0,0,0-8.211,3.446,13.579,13.579,0,0,0-3.706,9.858v3.282c0,3.6,2.673,7.745,6.245,10.121-.206.5-.491,1.022-.9,1.135l-.7.188a17.475,17.475,0,0,0-5.832,2.332,7.452,7.452,0,0,0-3.067,6.506v2.832a2.071,2.071,0,0,0,2.067,2.071h11.533a1.2,1.2,0,0,0,0-2.406H312.463v-2.5c0-3.754,2.046-5.015,5.507-6.061l6.194,3.631a3.344,3.344,0,0,0,4.174,0l6.19-3.631c3.463,1.046,5.51,2.308,5.51,6.062v2.5H328.994a1.2,1.2,0,0,0,0,2.406h11.379a2.073,2.073,0,0,0,2.071-2.071v-2.832A7.451,7.451,0,0,0,339.375,156.132Zm-13.128-27.955c4.282.078,8.861,3.071,9.467,9.44a4.381,4.381,0,0,1-1.768-1.256,3.805,3.805,0,0,0-2.84-1.453,4.468,4.468,0,0,0-1.117.152c-.552.142-1.022.267-1.429.375a5.772,5.772,0,0,1-4.618,0c-.408-.109-.879-.234-1.432-.376a3.656,3.656,0,0,0-3.961,1.3,4.378,4.378,0,0,1-1.765,1.255C317.392,131.247,321.968,128.254,326.248,128.176Zm-9.53,14.181V140.12a6.468,6.468,0,0,0,3.551-2.075c.681-.7.843-.86,1.643-.655.546.14,1.01.264,1.412.371a7.9,7.9,0,0,0,5.857,0c.4-.107.864-.23,1.409-.37.8-.206.958-.04,1.64.655a6.475,6.475,0,0,0,3.554,2.075v2.238c0,3.464-3.394,7.762-7.263,9.2a5.751,5.751,0,0,1-4.541,0c-3.869-1.434-7.262-5.731-7.262-9.2ZM327.1,158.146l-.044.027c-.736.476-.872.476-1.608,0l-.045-.028-4.338-2.543a4.217,4.217,0,0,0,1.618-1.976q.229.1.461.183a8.158,8.158,0,0,0,6.215,0q.232-.086.461-.183a4.219,4.219,0,0,0,1.616,1.976Z" transform="translate(-483.664 -10379.769)" fill="#12263f"/>
    <path id="Trazado_228130" data-name="Trazado 228130" d="M29.316,156.132a17.475,17.475,0,0,0-5.832-2.332l-.7-.187c-.411-.113-.7-.639-.9-1.137,3.571-2.376,6.243-6.515,6.243-10.119v-3.282a13.581,13.581,0,0,0-3.7-9.858,11.786,11.786,0,0,0-8.213-3.446h-.039a11.785,11.785,0,0,0-8.212,3.446,13.58,13.58,0,0,0-3.7,9.858v3.282c0,3.6,2.672,7.743,6.242,10.119-.207.5-.491,1.024-.9,1.136l-.7.188a17.475,17.475,0,0,0-5.832,2.332A7.452,7.452,0,0,0,0,162.639v2.832a2.071,2.071,0,0,0,2.067,2.071H13.441a1.2,1.2,0,0,0,0-2.406H2.406v-2.5c0-3.754,2.046-5.015,5.507-6.061l6.194,3.631a3.856,3.856,0,0,0,2.085.73,3.857,3.857,0,0,0,2.085-.73l6.194-3.631c3.461,1.046,5.507,2.308,5.507,6.061v2.5H19.124a1.2,1.2,0,0,0,0,2.406H30.316a2.071,2.071,0,0,0,2.067-2.071v-2.832a7.452,7.452,0,0,0-3.067-6.506ZM16.191,128.176c4.279.077,8.856,3.071,9.463,9.439a4.385,4.385,0,0,1-1.763-1.253,3.658,3.658,0,0,0-3.962-1.3c-.557.143-1.031.269-1.44.378a10.219,10.219,0,0,1-2.3.479,10.3,10.3,0,0,1-2.3-.481c-.408-.109-.879-.234-1.432-.376a3.656,3.656,0,0,0-3.961,1.3,4.377,4.377,0,0,1-1.765,1.255C7.335,131.247,11.912,128.254,16.191,128.176Zm-9.53,14.181V140.12a6.467,6.467,0,0,0,3.552-2.075c.681-.7.843-.86,1.643-.655.546.14,1.01.264,1.412.371a11.479,11.479,0,0,0,2.924.562,11.406,11.406,0,0,0,2.917-.561c.4-.108.87-.232,1.42-.373.8-.206.962-.041,1.645.656a6.472,6.472,0,0,0,3.549,2.074v2.238c0,3.465-3.393,7.763-7.264,9.2a5.733,5.733,0,0,1-4.536,0c-3.868-1.434-7.262-5.732-7.262-9.2Zm10.377,15.788-.045.028c-.734.475-.869.475-1.6,0l-.045-.028L11.006,155.6a4.233,4.233,0,0,0,1.616-1.976c.153.065.308.126.463.184a8.78,8.78,0,0,0,3.107.616,8.773,8.773,0,0,0,3.1-.616q.234-.087.465-.184a4.234,4.234,0,0,0,1.616,1.976Z" transform="translate(-223.333 -10379.769)" fill="#12263f"/>
    <path id="Trazado_228131" data-name="Trazado 228131" d="M52.758,44.592a1.309,1.309,0,0,1,1.229-.972h1.559a1,1,0,0,0,.981-.809A25.2,25.2,0,0,0,57,38a1,1,0,0,0-1-1H46V24a1,1,0,0,0-.726-.961L39,21.246V16a1,1,0,0,0-1-1H26a1,1,0,0,0-1,1v5.246l-6.274,1.793A1,1,0,0,0,18,24V37H8a1,1,0,0,0-1,1,25.2,25.2,0,0,0,.473,4.812,1,1,0,0,0,.981.809h1.559a1.309,1.309,0,0,1,1.229.972,21.694,21.694,0,0,0,1.421,3.419,1.311,1.311,0,0,1-.183,1.56L11.372,50.68a1,1,0,0,0-.122,1.266,25,25,0,0,0,6.8,6.805,1,1,0,0,0,1.266-.123l1.108-1.108a1.324,1.324,0,0,1,1.559-.183,21.674,21.674,0,0,0,3.422,1.421,1.308,1.308,0,0,1,.971,1.229v1.559a1,1,0,0,0,.809.981,24.7,24.7,0,0,0,9.623,0,1,1,0,0,0,.809-.981V59.987a1.308,1.308,0,0,1,.971-1.229,21.626,21.626,0,0,0,3.421-1.421,1.325,1.325,0,0,1,1.56.183l1.108,1.108a1,1,0,0,0,1.266.123,25,25,0,0,0,6.8-6.805,1,1,0,0,0-.122-1.266L51.52,49.571a1.31,1.31,0,0,1-.183-1.56,21.719,21.719,0,0,0,1.421-3.42ZM39,23.326l5,1.429V37H39ZM27,17H37V37H35V33a1,1,0,0,0-1-1H30a1,1,0,0,0-1,1v4H27Zm6,17v3H31V34ZM20,24.754l5-1.429V37H20ZM45.773,39a13.808,13.808,0,0,1-27.545,0Zm5.079,4.985a19.7,19.7,0,0,1-1.29,3.1,3.318,3.318,0,0,0,.544,3.9l.516.516a22.986,22.986,0,0,1-5.12,5.12l-.516-.516a3.313,3.313,0,0,0-3.9-.543,19.575,19.575,0,0,1-3.1,1.29,3.315,3.315,0,0,0-2.365,3.135v.721a22.624,22.624,0,0,1-7.24,0v-.721a3.315,3.315,0,0,0-2.365-3.135,19.623,19.623,0,0,1-3.1-1.29,3.314,3.314,0,0,0-3.9.543l-.516.516a22.986,22.986,0,0,1-5.12-5.12l.516-.516a3.319,3.319,0,0,0,.544-3.9,19.674,19.674,0,0,1-1.29-3.1,3.318,3.318,0,0,0-3.136-2.365H9.292A23.535,23.535,0,0,1,9.022,39h7.2a15.8,15.8,0,0,0,31.545,0h7.2a23.535,23.535,0,0,1-.27,2.62h-.721a3.318,3.318,0,0,0-3.136,2.365Z" transform="translate(-266.789 -10564.38)" fill="#12263f"/>
    <path id="Trazado_228132" data-name="Trazado 228132" d="M33,14V6.816a3,3,0,1,0-2,0V14ZM32,3a1,1,0,1,1-1,1A1,1,0,0,1,32,3Z" transform="translate(-266.789 -10564.38)" fill="#12263f"/>
    <path id="Trazado_228133" data-name="Trazado 228133" d="M42,14v7h2V14.414L45.715,12.7A2.965,2.965,0,0,0,47,13a3,3,0,1,0-3-3,2.965,2.965,0,0,0,.3,1.285l-2.008,2.008A1,1,0,0,0,42,14Zm5-5a1,1,0,1,1-1,1A1,1,0,0,1,47,9Z" transform="translate(-266.789 -10564.38)" fill="#12263f"/>
    <path id="Trazado_228134" data-name="Trazado 228134" d="M17,7a3,3,0,0,0,0,6,2.965,2.965,0,0,0,1.285-.3L20,14.414V21h2V14a1,1,0,0,0-.293-.707L19.7,11.285A2.965,2.965,0,0,0,20,10a3,3,0,0,0-3-3Zm0,4a1,1,0,1,1,1-1,1,1,0,0,1-1,1Z" transform="translate(-266.789 -10564.38)" fill="#12263f"/>
    <path id="Trazado_228135" data-name="Trazado 228135" d="M7,18a3,3,0,1,0,2.08,5.154L12,24.617V32h2V24a1,1,0,0,0-.552-.894L9.964,21.36A2.947,2.947,0,0,0,10,21a3,3,0,0,0-3-3Zm0,4a1,1,0,1,1,1-1A1,1,0,0,1,7,22Z" transform="translate(-266.789 -10564.38)" fill="#12263f"/>
    <path id="Trazado_228136" data-name="Trazado 228136" d="M12,34h2v2H12Z" transform="translate(-266.789 -10564.38)" fill="#12263f"/>
    <path id="Trazado_228137" data-name="Trazado 228137" d="M60,21a3,3,0,0,0-6,0,2.948,2.948,0,0,0,.036.36l-3.485,1.746A1,1,0,0,0,50,24v8h2V24.617l2.92-1.463A2.994,2.994,0,0,0,60,21Zm-4,0a1,1,0,1,1,1,1,1,1,0,0,1-1-1Z" transform="translate(-266.789 -10564.38)" fill="#12263f"/>
    <path id="Trazado_228138" data-name="Trazado 228138" d="M50,34h2v2H50Z" transform="translate(-266.789 -10564.38)" fill="#12263f"/>
    <path id="Trazado_228139" data-name="Trazado 228139" d="M29,20h6v2H29Z" transform="translate(-266.789 -10564.38)" fill="#12263f"/>
    <path id="Trazado_228140" data-name="Trazado 228140" d="M29,24h6v2H29Z" transform="translate(-266.789 -10564.38)" fill="#12263f"/>
    <path id="Trazado_228141" data-name="Trazado 228141" d="M29,28h6v2H29Z" transform="translate(-266.789 -10564.38)" fill="#12263f"/>
    <path id="Trazado_228142" data-name="Trazado 228142" d="M40,26h3v2H40Z" transform="translate(-266.789 -10564.38)" fill="#12263f"/>
    <path id="Trazado_228143" data-name="Trazado 228143" d="M40,30h3v2H40Z" transform="translate(-266.789 -10564.38)" fill="#12263f"/>
    <path id="Trazado_228144" data-name="Trazado 228144" d="M21,26h3v2H21Z" transform="translate(-266.789 -10564.38)" fill="#12263f"/>
    <path id="Trazado_228145" data-name="Trazado 228145" d="M21,30h3v2H21Z" transform="translate(-266.789 -10564.38)" fill="#12263f"/>
    <path id="Trazado_230837" data-name="Trazado 230837" d="M3.145,15h-1.5V3.625h1.5ZM7.02,6.547l.039.938A3.122,3.122,0,0,1,9.566,6.391,2.417,2.417,0,0,1,11.98,7.75a3.2,3.2,0,0,1,1.1-.984,3.242,3.242,0,0,1,1.6-.375q2.781,0,2.828,2.945V15H16.059V9.422a1.941,1.941,0,0,0-.414-1.355,1.823,1.823,0,0,0-1.391-.449,1.916,1.916,0,0,0-1.336.48A1.949,1.949,0,0,0,12.3,9.391V15H10.848V9.461a1.613,1.613,0,0,0-1.8-1.844A1.934,1.934,0,0,0,7.1,8.828V15H5.652V6.547Zm19.8,4.32a5.062,5.062,0,0,1-.883,3.109,2.829,2.829,0,0,1-2.391,1.18,3.1,3.1,0,0,1-2.422-.977v4.07H19.684V6.547H21l.07.938a2.977,2.977,0,0,1,2.453-1.094,2.882,2.882,0,0,1,2.41,1.148,5.117,5.117,0,0,1,.887,3.2ZM25.379,10.7a3.735,3.735,0,0,0-.609-2.258A1.963,1.963,0,0,0,23.1,7.617a2.125,2.125,0,0,0-1.969,1.164V12.82a2.129,2.129,0,0,0,1.984,1.156,1.954,1.954,0,0,0,1.652-.824A4.077,4.077,0,0,0,25.379,10.7Zm8.5,3.461a3.07,3.07,0,0,1-2.477.992,2.628,2.628,0,0,1-2.059-.785,3.4,3.4,0,0,1-.715-2.324v-5.5h1.445v5.461q0,1.922,1.563,1.922a2.163,2.163,0,0,0,2.2-1.234V6.547h1.445V15H33.91ZM39.051,15H37.605V3h1.445Zm7.234-2.242a1.064,1.064,0,0,0-.441-.91,4.249,4.249,0,0,0-1.539-.559,7.277,7.277,0,0,1-1.742-.562,2.479,2.479,0,0,1-.953-.781A1.869,1.869,0,0,1,41.3,8.867a2.193,2.193,0,0,1,.879-1.758,3.432,3.432,0,0,1,2.246-.719,3.532,3.532,0,0,1,2.332.742,2.357,2.357,0,0,1,.895,1.9H46.2a1.3,1.3,0,0,0-.5-1.023,1.888,1.888,0,0,0-1.27-.43,1.976,1.976,0,0,0-1.234.344,1.082,1.082,0,0,0-.445.9.877.877,0,0,0,.414.789,5.1,5.1,0,0,0,1.5.508,7.8,7.8,0,0,1,1.754.578,2.558,2.558,0,0,1,1,.809,1.988,1.988,0,0,1,.324,1.152,2.163,2.163,0,0,1-.906,1.816,3.8,3.8,0,0,1-2.352.684,4.257,4.257,0,0,1-1.8-.359,2.922,2.922,0,0,1-1.223-1,2.42,2.42,0,0,1-.441-1.395h1.445a1.5,1.5,0,0,0,.582,1.152,2.258,2.258,0,0,0,1.434.426,2.331,2.331,0,0,0,1.316-.332A1.02,1.02,0,0,0,46.285,12.758ZM54.832,15a3.036,3.036,0,0,1-.2-.891,3.225,3.225,0,0,1-2.406,1.047,2.984,2.984,0,0,1-2.051-.707,2.287,2.287,0,0,1-.8-1.793,2.39,2.39,0,0,1,1-2.051,4.733,4.733,0,0,1,2.824-.73h1.406V9.211A1.623,1.623,0,0,0,54.152,8a1.821,1.821,0,0,0-1.336-.449,2.107,2.107,0,0,0-1.3.391A1.151,1.151,0,0,0,51,8.891H49.543a2,2,0,0,1,.449-1.223,3.066,3.066,0,0,1,1.219-.934A4.1,4.1,0,0,1,52.9,6.391a3.342,3.342,0,0,1,2.289.73,2.635,2.635,0,0,1,.859,2.012v3.891a4.757,4.757,0,0,0,.3,1.852V15Zm-2.4-1.1a2.54,2.54,0,0,0,1.289-.352,2.127,2.127,0,0,0,.883-.914V10.9H53.473q-2.656,0-2.656,1.555a1.316,1.316,0,0,0,.453,1.063A1.742,1.742,0,0,0,52.434,13.9Zm7.25-7.352.047,1.063a3.08,3.08,0,0,1,2.531-1.219q2.68,0,2.7,3.023V15H63.52V9.406A1.946,1.946,0,0,0,63.1,8.055a1.675,1.675,0,0,0-1.277-.437,2.086,2.086,0,0,0-1.234.375,2.546,2.546,0,0,0-.828.984V15H58.316V6.547ZM72.676,15H71.23V3h1.445Zm1.93-4.3a4.993,4.993,0,0,1,.488-2.234A3.643,3.643,0,0,1,76.453,6.93a3.7,3.7,0,0,1,1.988-.539,3.565,3.565,0,0,1,2.793,1.2,4.6,4.6,0,0,1,1.066,3.18v.1a5.036,5.036,0,0,1-.473,2.215,3.589,3.589,0,0,1-1.352,1.527,3.743,3.743,0,0,1-2.02.547,3.556,3.556,0,0,1-2.785-1.2A4.575,4.575,0,0,1,74.605,10.8Zm1.453.172a3.616,3.616,0,0,0,.652,2.258,2.211,2.211,0,0,0,3.5-.012,3.955,3.955,0,0,0,.648-2.418,3.61,3.61,0,0,0-.66-2.254,2.1,2.1,0,0,0-1.754-.863,2.075,2.075,0,0,0-1.727.852A3.925,3.925,0,0,0,76.059,10.867Zm12.977,1.891a1.064,1.064,0,0,0-.441-.91,4.249,4.249,0,0,0-1.539-.559,7.277,7.277,0,0,1-1.742-.562,2.479,2.479,0,0,1-.953-.781,1.869,1.869,0,0,1-.309-1.078,2.193,2.193,0,0,1,.879-1.758,3.432,3.432,0,0,1,2.246-.719,3.532,3.532,0,0,1,2.332.742,2.357,2.357,0,0,1,.895,1.9H88.949a1.3,1.3,0,0,0-.5-1.023,1.888,1.888,0,0,0-1.27-.43,1.976,1.976,0,0,0-1.234.344,1.082,1.082,0,0,0-.445.9.877.877,0,0,0,.414.789,5.1,5.1,0,0,0,1.5.508,7.8,7.8,0,0,1,1.754.578,2.558,2.558,0,0,1,1,.809,1.988,1.988,0,0,1,.324,1.152,2.163,2.163,0,0,1-.906,1.816,3.8,3.8,0,0,1-2.352.684,4.257,4.257,0,0,1-1.8-.359,2.922,2.922,0,0,1-1.223-1,2.42,2.42,0,0,1-.441-1.395h1.445a1.5,1.5,0,0,0,.582,1.152,2.258,2.258,0,0,0,1.434.426,2.331,2.331,0,0,0,1.316-.332A1.02,1.02,0,0,0,89.035,12.758Zm14.43-1.891a5.062,5.062,0,0,1-.883,3.109,2.829,2.829,0,0,1-2.391,1.18,3.1,3.1,0,0,1-2.422-.977v4.07H96.324V6.547h1.32l.07.938a2.977,2.977,0,0,1,2.453-1.094,2.882,2.882,0,0,1,2.41,1.148,5.117,5.117,0,0,1,.887,3.2ZM102.02,10.7a3.735,3.735,0,0,0-.609-2.258,1.963,1.963,0,0,0-1.672-.828A2.125,2.125,0,0,0,97.77,8.781V12.82a2.129,2.129,0,0,0,1.984,1.156,1.954,1.954,0,0,0,1.652-.824A4.077,4.077,0,0,0,102.02,10.7Zm7.367-2.859a4.331,4.331,0,0,0-.711-.055A1.9,1.9,0,0,0,106.746,9v6H105.3V6.547h1.406l.023.977a2.251,2.251,0,0,1,2.016-1.133,1.477,1.477,0,0,1,.641.109Zm.789,2.852a4.993,4.993,0,0,1,.488-2.234,3.643,3.643,0,0,1,1.359-1.531,3.7,3.7,0,0,1,1.988-.539,3.565,3.565,0,0,1,2.793,1.2,4.6,4.6,0,0,1,1.066,3.18v.1a5.036,5.036,0,0,1-.473,2.215,3.589,3.589,0,0,1-1.352,1.527,3.743,3.743,0,0,1-2.02.547,3.556,3.556,0,0,1-2.785-1.2,4.575,4.575,0,0,1-1.066-3.164Zm1.453.172a3.616,3.616,0,0,0,.652,2.258,2.211,2.211,0,0,0,3.5-.012,3.955,3.955,0,0,0,.648-2.418,3.61,3.61,0,0,0-.66-2.254,2.1,2.1,0,0,0-1.754-.863,2.075,2.075,0,0,0-1.727.852A3.925,3.925,0,0,0,111.629,10.867Zm7.7-.164a4.952,4.952,0,0,1,.922-3.129,3.137,3.137,0,0,1,4.766-.168V3h1.445V15h-1.328l-.07-.906a2.943,2.943,0,0,1-2.414,1.063,2.887,2.887,0,0,1-2.395-1.2,5.008,5.008,0,0,1-.926-3.141Zm1.445.164a3.749,3.749,0,0,0,.594,2.25,1.92,1.92,0,0,0,1.641.813A2.108,2.108,0,0,0,125.02,12.7V8.813a2.125,2.125,0,0,0-1.992-1.2,1.929,1.929,0,0,0-1.656.82A4.128,4.128,0,0,0,120.777,10.867Zm13.148,3.3a3.07,3.07,0,0,1-2.477.992,2.628,2.628,0,0,1-2.059-.785,3.4,3.4,0,0,1-.715-2.324v-5.5h1.445v5.461q0,1.922,1.563,1.922a2.163,2.163,0,0,0,2.2-1.234V6.547h1.445V15h-1.375Zm6.992-.187a2.082,2.082,0,0,0,1.352-.469,1.649,1.649,0,0,0,.641-1.172h1.367a2.621,2.621,0,0,1-.5,1.383,3.293,3.293,0,0,1-1.23,1.047,3.55,3.55,0,0,1-1.629.391A3.482,3.482,0,0,1,138.172,14a4.59,4.59,0,0,1-1.02-3.152v-.242a5.089,5.089,0,0,1,.453-2.2,3.451,3.451,0,0,1,1.3-1.492,3.7,3.7,0,0,1,2-.531,3.39,3.39,0,0,1,2.363.852,3.043,3.043,0,0,1,1,2.211H142.91a1.992,1.992,0,0,0-.621-1.348,1.932,1.932,0,0,0-1.379-.527,2.023,2.023,0,0,0-1.707.793,3.724,3.724,0,0,0-.605,2.293v.273a3.65,3.65,0,0,0,.6,2.25A2.033,2.033,0,0,0,140.918,13.977ZM147.863,4.5V6.547h1.578V7.664h-1.578v5.249a1.173,1.173,0,0,0,.211.763.888.888,0,0,0,.719.254,3.5,3.5,0,0,0,.688-.094V15a4.215,4.215,0,0,1-1.109.155,1.8,1.8,0,0,1-1.461-.586,2.517,2.517,0,0,1-.492-1.664V7.664h-1.539V6.547h1.539V4.5Zm2.727,6.2a4.993,4.993,0,0,1,.488-2.234,3.642,3.642,0,0,1,1.359-1.531,3.7,3.7,0,0,1,1.988-.539,3.565,3.565,0,0,1,2.793,1.2,4.6,4.6,0,0,1,1.066,3.18v.1a5.036,5.036,0,0,1-.473,2.215,3.589,3.589,0,0,1-1.352,1.527,3.743,3.743,0,0,1-2.02.547,3.556,3.556,0,0,1-2.785-1.2A4.575,4.575,0,0,1,150.59,10.8Zm1.453.172a3.616,3.616,0,0,0,.652,2.258,2.211,2.211,0,0,0,3.5-.012,3.954,3.954,0,0,0,.648-2.418,3.61,3.61,0,0,0-.66-2.254,2.1,2.1,0,0,0-1.754-.863,2.075,2.075,0,0,0-1.727.852A3.925,3.925,0,0,0,152.043,10.867Zm12.977,1.891a1.064,1.064,0,0,0-.441-.91,4.249,4.249,0,0,0-1.539-.559,7.277,7.277,0,0,1-1.742-.562,2.479,2.479,0,0,1-.953-.781,1.869,1.869,0,0,1-.309-1.078,2.193,2.193,0,0,1,.879-1.758,3.432,3.432,0,0,1,2.246-.719,3.532,3.532,0,0,1,2.332.742,2.357,2.357,0,0,1,.895,1.9h-1.453a1.3,1.3,0,0,0-.5-1.023,1.888,1.888,0,0,0-1.27-.43,1.976,1.976,0,0,0-1.234.344,1.082,1.082,0,0,0-.445.9.877.877,0,0,0,.414.789,5.1,5.1,0,0,0,1.5.508,7.8,7.8,0,0,1,1.754.578,2.558,2.558,0,0,1,1,.809,1.988,1.988,0,0,1,.324,1.152,2.163,2.163,0,0,1-.906,1.816,3.8,3.8,0,0,1-2.352.684,4.257,4.257,0,0,1-1.8-.359,2.922,2.922,0,0,1-1.223-1,2.42,2.42,0,0,1-.441-1.395h1.445a1.5,1.5,0,0,0,.582,1.152,2.258,2.258,0,0,0,1.434.426,2.331,2.331,0,0,0,1.316-.332A1.02,1.02,0,0,0,165.02,12.758Zm10.055.125,1.969-6.336h1.547l-3.4,9.758q-.789,2.109-2.508,2.109l-.273-.023-.539-.1V17.117l.391.031a1.923,1.923,0,0,0,1.145-.3,2.148,2.148,0,0,0,.676-1.086l.32-.859-3.016-8.359h1.578ZM35.309,32.758a1.064,1.064,0,0,0-.441-.91,4.249,4.249,0,0,0-1.539-.559,7.277,7.277,0,0,1-1.742-.562,2.479,2.479,0,0,1-.953-.781,1.869,1.869,0,0,1-.309-1.078,2.193,2.193,0,0,1,.879-1.758,3.432,3.432,0,0,1,2.246-.719,3.532,3.532,0,0,1,2.332.742,2.357,2.357,0,0,1,.895,1.9H35.223a1.3,1.3,0,0,0-.5-1.023,1.888,1.888,0,0,0-1.27-.43,1.976,1.976,0,0,0-1.234.344,1.082,1.082,0,0,0-.445.9.877.877,0,0,0,.414.789,5.1,5.1,0,0,0,1.5.508,7.8,7.8,0,0,1,1.754.578,2.558,2.558,0,0,1,1,.809,1.988,1.988,0,0,1,.324,1.152,2.163,2.163,0,0,1-.906,1.816,3.8,3.8,0,0,1-2.352.684,4.257,4.257,0,0,1-1.8-.359,2.922,2.922,0,0,1-1.223-1,2.42,2.42,0,0,1-.441-1.395H31.48a1.5,1.5,0,0,0,.582,1.152,2.258,2.258,0,0,0,1.434.426,2.331,2.331,0,0,0,1.316-.332A1.02,1.02,0,0,0,35.309,32.758Zm8.547,1.406a3.07,3.07,0,0,1-2.477.992,2.628,2.628,0,0,1-2.059-.785,3.4,3.4,0,0,1-.715-2.324v-5.5h1.445v5.461q0,1.922,1.563,1.922a2.163,2.163,0,0,0,2.2-1.234V26.547h1.445V35H43.887Zm8.523-1.406a1.064,1.064,0,0,0-.441-.91,4.249,4.249,0,0,0-1.539-.559,7.277,7.277,0,0,1-1.742-.562,2.479,2.479,0,0,1-.953-.781,1.869,1.869,0,0,1-.309-1.078,2.193,2.193,0,0,1,.879-1.758,3.432,3.432,0,0,1,2.246-.719,3.532,3.532,0,0,1,2.332.742,2.357,2.357,0,0,1,.895,1.9H52.293a1.3,1.3,0,0,0-.5-1.023,1.888,1.888,0,0,0-1.27-.43,1.976,1.976,0,0,0-1.234.344,1.082,1.082,0,0,0-.445.9.877.877,0,0,0,.414.789,5.1,5.1,0,0,0,1.5.508A7.8,7.8,0,0,1,52.5,30.7a2.558,2.558,0,0,1,1,.809,1.988,1.988,0,0,1,.324,1.152,2.163,2.163,0,0,1-.906,1.816,3.8,3.8,0,0,1-2.352.684,4.257,4.257,0,0,1-1.8-.359,2.922,2.922,0,0,1-1.223-1,2.42,2.42,0,0,1-.441-1.395h1.445a1.5,1.5,0,0,0,.582,1.152,2.258,2.258,0,0,0,1.434.426,2.331,2.331,0,0,0,1.316-.332A1.02,1.02,0,0,0,52.379,32.758Zm8.648-6.211.039.938a3.122,3.122,0,0,1,2.508-1.094,2.417,2.417,0,0,1,2.414,1.359,3.2,3.2,0,0,1,1.1-.984,3.242,3.242,0,0,1,1.6-.375q2.781,0,2.828,2.945V35H70.066V29.422a1.941,1.941,0,0,0-.414-1.355,1.823,1.823,0,0,0-1.391-.449,1.916,1.916,0,0,0-1.336.48,1.949,1.949,0,0,0-.617,1.293V35H64.855V29.461a1.613,1.613,0,0,0-1.8-1.844,1.934,1.934,0,0,0-1.945,1.211V35H59.66V26.547ZM78.91,35a3.036,3.036,0,0,1-.2-.891A3.225,3.225,0,0,1,76.3,35.156a2.984,2.984,0,0,1-2.051-.707,2.288,2.288,0,0,1-.8-1.793,2.39,2.39,0,0,1,1-2.051,4.733,4.733,0,0,1,2.824-.73h1.406v-.664A1.623,1.623,0,0,0,78.23,28a1.821,1.821,0,0,0-1.336-.449,2.108,2.108,0,0,0-1.3.391,1.151,1.151,0,0,0-.523.945H73.621a2,2,0,0,1,.449-1.223,3.066,3.066,0,0,1,1.219-.934,4.1,4.1,0,0,1,1.691-.344,3.342,3.342,0,0,1,2.289.73,2.635,2.635,0,0,1,.859,2.012v3.891a4.757,4.757,0,0,0,.3,1.852V35Zm-2.4-1.1a2.54,2.54,0,0,0,1.289-.352,2.127,2.127,0,0,0,.883-.914V30.9H77.551q-2.656,0-2.656,1.555a1.316,1.316,0,0,0,.453,1.063A1.742,1.742,0,0,0,76.512,33.9Zm9.969-6.055a4.331,4.331,0,0,0-.711-.055A1.9,1.9,0,0,0,83.84,29v6H82.395V26.547H83.8l.023.977a2.251,2.251,0,0,1,2.016-1.133,1.477,1.477,0,0,1,.641.109Zm4.57,6.133a2.082,2.082,0,0,0,1.352-.469,1.649,1.649,0,0,0,.641-1.172H94.41a2.621,2.621,0,0,1-.5,1.383,3.293,3.293,0,0,1-1.23,1.047,3.55,3.55,0,0,1-1.629.391A3.482,3.482,0,0,1,88.3,34a4.59,4.59,0,0,1-1.02-3.152v-.242a5.089,5.089,0,0,1,.453-2.2,3.451,3.451,0,0,1,1.3-1.492,3.7,3.7,0,0,1,2-.531,3.39,3.39,0,0,1,2.363.852,3.043,3.043,0,0,1,1,2.211H93.043a1.992,1.992,0,0,0-.621-1.348,1.932,1.932,0,0,0-1.379-.527,2.023,2.023,0,0,0-1.707.793,3.724,3.724,0,0,0-.605,2.293v.273a3.65,3.65,0,0,0,.6,2.25A2.033,2.033,0,0,0,91.051,33.977ZM101.254,35a3.036,3.036,0,0,1-.2-.891,3.225,3.225,0,0,1-2.406,1.047,2.984,2.984,0,0,1-2.051-.707,2.288,2.288,0,0,1-.8-1.793,2.39,2.39,0,0,1,1-2.051,4.733,4.733,0,0,1,2.824-.73h1.406v-.664A1.623,1.623,0,0,0,100.574,28a1.821,1.821,0,0,0-1.336-.449,2.108,2.108,0,0,0-1.3.391,1.151,1.151,0,0,0-.523.945H95.965a2,2,0,0,1,.449-1.223,3.066,3.066,0,0,1,1.219-.934,4.1,4.1,0,0,1,1.691-.344,3.342,3.342,0,0,1,2.289.73,2.635,2.635,0,0,1,.859,2.012v3.891a4.757,4.757,0,0,0,.3,1.852V35Zm-2.4-1.1a2.54,2.54,0,0,0,1.289-.352,2.127,2.127,0,0,0,.883-.914V30.9H99.895q-2.656,0-2.656,1.555a1.316,1.316,0,0,0,.453,1.063A1.742,1.742,0,0,0,98.855,33.9Zm10.8-1.141a1.064,1.064,0,0,0-.441-.91,4.249,4.249,0,0,0-1.539-.559,7.277,7.277,0,0,1-1.742-.562,2.478,2.478,0,0,1-.953-.781,1.869,1.869,0,0,1-.309-1.078,2.193,2.193,0,0,1,.879-1.758,3.432,3.432,0,0,1,2.246-.719,3.532,3.532,0,0,1,2.332.742,2.357,2.357,0,0,1,.895,1.9h-1.453a1.3,1.3,0,0,0-.5-1.023,1.888,1.888,0,0,0-1.27-.43,1.976,1.976,0,0,0-1.234.344,1.082,1.082,0,0,0-.445.9.877.877,0,0,0,.414.789,5.1,5.1,0,0,0,1.5.508,7.8,7.8,0,0,1,1.754.578,2.558,2.558,0,0,1,1,.809,1.988,1.988,0,0,1,.324,1.152,2.163,2.163,0,0,1-.906,1.816,3.8,3.8,0,0,1-2.352.684,4.257,4.257,0,0,1-1.8-.359,2.922,2.922,0,0,1-1.223-1,2.42,2.42,0,0,1-.441-1.395h1.445a1.5,1.5,0,0,0,.582,1.152,2.258,2.258,0,0,0,1.434.426,2.331,2.331,0,0,0,1.316-.332A1.02,1.02,0,0,0,109.66,32.758Zm10.8,2.4a3.693,3.693,0,0,1-2.8-1.129,4.19,4.19,0,0,1-1.078-3.02v-.266a5.073,5.073,0,0,1,.48-2.246,3.748,3.748,0,0,1,1.344-1.547,3.378,3.378,0,0,1,1.871-.559,3.166,3.166,0,0,1,2.563,1.086,4.7,4.7,0,0,1,.914,3.109v.6h-5.727a3,3,0,0,0,.73,2.02,2.3,2.3,0,0,0,1.777.77,2.517,2.517,0,0,0,1.3-.312,3.259,3.259,0,0,0,.93-.828l.883.688A3.55,3.55,0,0,1,120.457,35.156Zm-.18-7.578a1.928,1.928,0,0,0-1.469.637A3.1,3.1,0,0,0,118.074,30h4.234v-.109a2.753,2.753,0,0,0-.594-1.707A1.815,1.815,0,0,0,120.277,27.578Zm6.516-1.031.047,1.063a3.08,3.08,0,0,1,2.531-1.219q2.68,0,2.7,3.023V35h-1.445V29.406a1.946,1.946,0,0,0-.418-1.352,1.675,1.675,0,0,0-1.277-.437,2.086,2.086,0,0,0-1.234.375,2.546,2.546,0,0,0-.828.984V35h-1.445V26.547ZM139.785,35H138.34V23h1.445Zm7.531,0a3.036,3.036,0,0,1-.2-.891,3.225,3.225,0,0,1-2.406,1.047,2.984,2.984,0,0,1-2.051-.707,2.287,2.287,0,0,1-.8-1.793,2.39,2.39,0,0,1,1-2.051,4.733,4.733,0,0,1,2.824-.73h1.406v-.664A1.623,1.623,0,0,0,146.637,28a1.821,1.821,0,0,0-1.336-.449,2.107,2.107,0,0,0-1.3.391,1.151,1.151,0,0,0-.523.945h-1.453a2,2,0,0,1,.449-1.223,3.066,3.066,0,0,1,1.219-.934,4.1,4.1,0,0,1,1.691-.344,3.342,3.342,0,0,1,2.289.73,2.635,2.635,0,0,1,.859,2.012v3.891a4.757,4.757,0,0,0,.3,1.852V35Zm-2.4-1.1a2.54,2.54,0,0,0,1.289-.352,2.127,2.127,0,0,0,.883-.914V30.9h-1.133q-2.656,0-2.656,1.555a1.316,1.316,0,0,0,.453,1.063A1.742,1.742,0,0,0,144.918,33.9Zm-81.9,21.258a3.693,3.693,0,0,1-2.8-1.129,4.19,4.19,0,0,1-1.078-3.02v-.266a5.073,5.073,0,0,1,.48-2.246,3.748,3.748,0,0,1,1.344-1.547,3.378,3.378,0,0,1,1.871-.559A3.166,3.166,0,0,1,65.4,47.477a4.7,4.7,0,0,1,.914,3.109v.6H60.586a3,3,0,0,0,.73,2.02,2.3,2.3,0,0,0,1.777.77,2.517,2.517,0,0,0,1.3-.312,3.259,3.259,0,0,0,.93-.828l.883.688A3.55,3.55,0,0,1,63.016,55.156Zm-.18-7.578a1.928,1.928,0,0,0-1.469.637A3.1,3.1,0,0,0,60.633,50h4.234v-.109a2.753,2.753,0,0,0-.594-1.707A1.815,1.815,0,0,0,62.836,47.578Zm6.508-1.031.039.938a3.122,3.122,0,0,1,2.508-1.094A2.417,2.417,0,0,1,74.3,47.75a3.2,3.2,0,0,1,1.1-.984,3.242,3.242,0,0,1,1.6-.375q2.781,0,2.828,2.945V55H78.383V49.422a1.941,1.941,0,0,0-.414-1.355,1.823,1.823,0,0,0-1.391-.449,1.916,1.916,0,0,0-1.336.48,1.949,1.949,0,0,0-.617,1.293V55H73.172V49.461a1.613,1.613,0,0,0-1.8-1.844,1.934,1.934,0,0,0-1.945,1.211V55H67.977V46.547Zm19.8,4.32a5.062,5.062,0,0,1-.883,3.109,2.829,2.829,0,0,1-2.391,1.18,3.1,3.1,0,0,1-2.422-.977v4.07H82.008v-11.7h1.32l.07.938a2.977,2.977,0,0,1,2.453-1.094,2.882,2.882,0,0,1,2.41,1.148,5.117,5.117,0,0,1,.887,3.2ZM87.7,50.7a3.735,3.735,0,0,0-.609-2.258,1.963,1.963,0,0,0-1.672-.828,2.125,2.125,0,0,0-1.969,1.164V52.82a2.129,2.129,0,0,0,1.984,1.156,1.954,1.954,0,0,0,1.652-.824A4.077,4.077,0,0,0,87.7,50.7Zm7.367-2.859a4.331,4.331,0,0,0-.711-.055A1.9,1.9,0,0,0,92.43,49v6H90.984V46.547h1.406l.023.977a2.251,2.251,0,0,1,2.016-1.133,1.477,1.477,0,0,1,.641.109Zm4.688,7.313a3.693,3.693,0,0,1-2.8-1.129,4.19,4.19,0,0,1-1.078-3.02v-.266a5.073,5.073,0,0,1,.48-2.246,3.748,3.748,0,0,1,1.344-1.547,3.378,3.378,0,0,1,1.871-.559,3.166,3.166,0,0,1,2.563,1.086,4.7,4.7,0,0,1,.914,3.109v.6H97.328a3,3,0,0,0,.73,2.02,2.3,2.3,0,0,0,1.777.77,2.517,2.517,0,0,0,1.3-.312,3.259,3.259,0,0,0,.93-.828l.883.688A3.55,3.55,0,0,1,99.758,55.156Zm-.18-7.578a1.928,1.928,0,0,0-1.469.637A3.1,3.1,0,0,0,97.375,50h4.234v-.109a2.753,2.753,0,0,0-.594-1.707A1.815,1.815,0,0,0,99.578,47.578Zm10.07,5.18a1.064,1.064,0,0,0-.441-.91,4.249,4.249,0,0,0-1.539-.559,7.277,7.277,0,0,1-1.742-.562,2.479,2.479,0,0,1-.953-.781,1.869,1.869,0,0,1-.309-1.078,2.193,2.193,0,0,1,.879-1.758,3.432,3.432,0,0,1,2.246-.719,3.532,3.532,0,0,1,2.332.742,2.357,2.357,0,0,1,.895,1.9h-1.453a1.3,1.3,0,0,0-.5-1.023,1.888,1.888,0,0,0-1.27-.43,1.976,1.976,0,0,0-1.234.344,1.082,1.082,0,0,0-.445.9.877.877,0,0,0,.414.789,5.1,5.1,0,0,0,1.5.508,7.8,7.8,0,0,1,1.754.578,2.558,2.558,0,0,1,1,.809,1.988,1.988,0,0,1,.324,1.152,2.163,2.163,0,0,1-.906,1.816,3.8,3.8,0,0,1-2.352.684,4.257,4.257,0,0,1-1.8-.359,2.922,2.922,0,0,1-1.223-1,2.42,2.42,0,0,1-.441-1.395h1.445a1.5,1.5,0,0,0,.582,1.152,2.258,2.258,0,0,0,1.434.426,2.331,2.331,0,0,0,1.316-.332A1.02,1.02,0,0,0,109.648,52.758ZM118.2,55a3.036,3.036,0,0,1-.2-.891,3.225,3.225,0,0,1-2.406,1.047,2.984,2.984,0,0,1-2.051-.707,2.288,2.288,0,0,1-.8-1.793,2.39,2.39,0,0,1,1-2.051,4.733,4.733,0,0,1,2.824-.73h1.406v-.664A1.623,1.623,0,0,0,117.516,48a1.821,1.821,0,0,0-1.336-.449,2.107,2.107,0,0,0-1.3.391,1.151,1.151,0,0,0-.523.945h-1.453a2,2,0,0,1,.449-1.223,3.066,3.066,0,0,1,1.219-.934,4.1,4.1,0,0,1,1.691-.344,3.342,3.342,0,0,1,2.289.73,2.635,2.635,0,0,1,.859,2.012v3.891a4.757,4.757,0,0,0,.3,1.852V55Zm-2.4-1.1a2.54,2.54,0,0,0,1.289-.352,2.127,2.127,0,0,0,.883-.914V50.9h-1.133q-2.656,0-2.656,1.555a1.316,1.316,0,0,0,.453,1.063A1.742,1.742,0,0,0,115.8,53.9Z" transform="translate(58.667 -10357.009)" fill="#12263f"/>
    <path id="Trazado_228146" data-name="Trazado 228146" d="M227.562,219.014a6.416,6.416,0,0,0,7.137,0l-1.114-1.671a4.414,4.414,0,0,1-4.91,0Z" transform="translate(-83.346 -10618.371)" fill="#12263f"/>
    <path id="Trazado_228147" data-name="Trazado 228147" d="M200.429,146.667l1.42-1.42a4.479,4.479,0,0,0-5.637-.558l-.649.433,1.114,1.671.649-.433A2.466,2.466,0,0,1,200.429,146.667Z" transform="translate(-55.362 -10554.182)" fill="#12263f"/>
    <path id="Trazado_230838" data-name="Trazado 230838" d="M0,0H2V3H0Z" transform="translate(142.645 -10407.037)" fill="#12263f"/>
    <path id="Trazado_228148" data-name="Trazado 228148" d="M270.867,146.359l.649.433,1.114-1.671-.649-.433a4.479,4.479,0,0,0-5.637.558l1.42,1.42A2.467,2.467,0,0,1,270.867,146.359Z" transform="translate(-117.26 -10554.181)" fill="#12263f"/>
    <path id="Trazado_230839" data-name="Trazado 230839" d="M0,0H2V3H0Z" transform="translate(150.645 -10407.037)" fill="#12263f"/>
    <path id="Trazado_228149" data-name="Trazado 228149" d="M99.643,40.094a3.015,3.015,0,0,0-3.012-3.012H88.6a3.015,3.015,0,0,0-3.012,3.012v6.024a3,3,0,0,0,.173,1h-.173a3.016,3.016,0,0,0-2.968,2.5,2.674,2.674,0,0,0-3.009-.848l-4.063,1.477V47.837A11.026,11.026,0,0,0,80,40.094h.929a3.02,3.02,0,0,0,2.953-2.421l.306-1.528a3.008,3.008,0,0,0-2.223-3.513l-1.285-.321.839-9.651a10.059,10.059,0,0,0,1.5-3.3l.528-2.11a1,1,0,0,0-1.531-1.079,14.19,14.19,0,0,1-12.091,1.762l-2.472-.761A7.954,7.954,0,0,0,58,28.33l.024.048.342,3.933-1.285.321a3.008,3.008,0,0,0-2.223,3.513l.306,1.528a3.02,3.02,0,0,0,2.953,2.421h.929A11.025,11.025,0,0,0,63.5,47.837v4.557l-14.245,4.19a5,5,0,0,0-3.4,3.4L42.971,69.8a5.02,5.02,0,0,0,4.816,6.436H86.592v0a5.393,5.393,0,0,0,5.227-5.124l.8-15.9a1,1,0,0,0-.637-.984l.391-1.172,5.028-.718a2.63,2.63,0,0,0,2.247-2.591A2.6,2.6,0,0,0,98.979,48a3,3,0,0,0,.665-1.884ZM58.121,38.087a1.007,1.007,0,0,1-.984-.807l-.306-1.528a1,1,0,0,1,.741-1.171l.974-.243.326,3.75ZM81.48,34.58a1,1,0,0,1,.741,1.171l-.306,1.528a1.007,1.007,0,0,1-.985.807H80.18l.326-3.75ZM59.8,27.432a5.941,5.941,0,0,1,7.067-8.343l2.472.761a16.18,16.18,0,0,0,11.7-.824A8.055,8.055,0,0,1,79.586,21.9l-.014,0c0,.008,0,.016,0,.024a8.051,8.051,0,0,1-9.2,2.514,7.934,7.934,0,0,0-7.479.951l-3.028,2.163ZM77.985,25.8a8.168,8.168,0,0,1-6.514,3.25,8.96,8.96,0,0,1-6.33-2.642,5.928,5.928,0,0,1,4.5-.1,10.071,10.071,0,0,0,8.255-.463ZM61.028,39.712,60.166,29.8,63.4,27.49a10.978,10.978,0,0,0,8.072,3.569,10.167,10.167,0,0,0,7.6-3.423l-1.05,12.076a9.024,9.024,0,0,1-4.613,7.116l-2.421,1.345a2.994,2.994,0,0,1-2.925,0l-2.421-1.345a9.024,9.024,0,0,1-4.613-7.116Zm12.513,9.339v1.931l-2.352.855a3.008,3.008,0,0,0-1.893,2.1l-.2.793L65.51,52.577V49.051l1.578.877a4.99,4.99,0,0,0,4.875,0Zm-9.174,5.182,3.987,2.392-1.684.842-.208-.623a1,1,0,0,0-1.325-.615l-3.975,1.59-1.293-2.263ZM47.784,60.55a3,3,0,0,1,2.04-2.04l8.065-2.372,1.391,2.434L46.911,63.519Zm0,13.678A3.012,3.012,0,0,1,44.9,70.366l1.293-4.4,18.7-7.482,2.42,7.261-14.13,8.478Zm16.815,0H57.087l7.994-4.8Zm2.018,0,.608-6.084,1.81-1.086a1,1,0,0,0,.436-1.178l-.011-.034,2.03-1.015.94,9.4Zm5.469-11.941L68.821,63.92l-1.51-4.53,2.663-1.332A1,1,0,0,0,70.5,57.4l.745-2.98a1,1,0,0,1,.631-.7L80.3,50.662a.672.672,0,0,1,.53,1.232l-2.586,1.293h0L76.1,54.255a1,1,0,0,0-.412,1.414L78.05,59.6a1.009,1.009,0,0,1-.025,1.074l-.707,1.06a1,1,0,0,1-.835.447H72.537a1,1,0,0,0-.449.106Zm10.14,11.941H74.45l-1-10.039h3.036a3.006,3.006,0,0,0,2.506-1.341l.707-1.06a3.025,3.025,0,0,0,.077-3.22l-1.8-3,.462-.231,4,1.177L81.057,70.3a5.408,5.408,0,0,0,1.171,3.927Zm.348-19.767-1.508-.443.657-.328a2.648,2.648,0,0,0,.851-.678Zm7.237,16.546a3.39,3.39,0,1,1-6.759-.507l1.434-14.343h6.067Zm7.3-20.666-5.643.806a1,1,0,0,0-.81.676l-.775,2.325h-5.3V50.134a1,1,0,0,1,1-1H97.027a.609.609,0,0,1,.086,1.212Zm.523-4.223a1,1,0,0,1-1,1H88.6a1,1,0,0,1-1-1V40.094a1,1,0,0,1,1-1h1V42.1h2.008V39.091h5.02a1,1,0,0,1,1,1Z" transform="translate(78.259 -10442.295)" fill="#12263f"/>
    <path id="Trazado_228150" data-name="Trazado 228150" d="M22.024,212.047v-1h2.391l.172.343a3,3,0,0,0,2.694,1.665h3.041a3.026,3.026,0,0,0,2.982-2.586l.43-3.012a3.012,3.012,0,0,0-2.982-3.438h-.415l.068-.273A3.012,3.012,0,0,0,27.483,200H26.039a1,1,0,0,0-.984.807l-.843,4.213H22.024a1,1,0,0,0-1-1H17a1,1,0,0,0-1,1v7.027a1,1,0,0,0,1,1H21.02a1,1,0,0,0,1-1Zm0-5.02h3.012a1,1,0,0,0,.984-.807l.843-4.213h.621a1,1,0,0,1,.974,1.247l-.38,1.521a1,1,0,0,0,.974,1.247h1.7a1,1,0,0,1,.994,1.146l-.43,3.012a1.009,1.009,0,0,1-.994.862H27.28a1,1,0,0,1-.9-.555l-.449-.9a1,1,0,0,0-.9-.555H22.024Zm-2.008,4.016H18.008v-5.02h2.008Z" transform="translate(101.667 -10603.204)" fill="#12263f"/>
  </g>
</svg>
