<svg xmlns="http://www.w3.org/2000/svg" width="190.333" height="104" viewBox="0 0 190.333 104">
  <g id="Grupo_161383" data-name="Grupo 161383" transform="translate(-199.667 -3158)">
    <rect id="Rectángulo_33803" data-name="Rectángulo 33803" width="190" height="100" transform="translate(200 3162)" fill="none"/>
    <path id="Trazado_113613" data-name="Trazado 113613" d="M-22,0H107a40,40,0,0,1,0,80H-22Z" transform="translate(221.667 3172)" fill="rgba(121,210,220,0.2)"/>
    <g id="Layer_1" transform="translate(221.417 3148.894)">
      <g id="Grupo_161382" data-name="Grupo 161382" transform="translate(1.25 9.107)">
        <path id="Trazado_228175" data-name="Trazado 228175" d="M108.949,70.477v58.408H18.1V70.477A8.561,8.561,0,0,0,29.289,62.33V60.356H97.761V62.33a8.561,8.561,0,0,0,11.189,8.147Z" transform="translate(-11.135 -39.173)" fill="#72c1e8"/>
        <path id="Trazado_228176" data-name="Trazado 228176" d="M20.87,60.355v1.974a8.56,8.56,0,1,1-17.12,0V60.355Z" transform="translate(-2.717 -39.173)" fill="#efefef"/>
        <path id="Trazado_228177" data-name="Trazado 228177" d="M62.286,60.355v1.974a8.558,8.558,0,0,1-8.556,8.56h0a8.558,8.558,0,0,1-8.556-8.56V60.355Z" transform="translate(-27.017 -39.173)" fill="#fc5d3d"/>
        <path id="Trazado_228178" data-name="Trazado 228178" d="M86.581,60.355v1.974a8.56,8.56,0,0,0,17.12,0V60.355Z" transform="translate(-51.311 -39.173)" fill="#efefef"/>
        <path id="Trazado_228179" data-name="Trazado 228179" d="M128,60.355v1.974a8.56,8.56,0,0,0,17.12,0V60.355Z" transform="translate(-75.611 -39.173)" fill="#fc5d3d"/>
        <path id="Trazado_228180" data-name="Trazado 228180" d="M186.535,60.355v1.974a8.558,8.558,0,0,1-8.556,8.56h0a8.558,8.558,0,0,1-8.556-8.56V60.355Z" transform="translate(-99.91 -39.173)" fill="#efefef"/>
        <path id="Trazado_228181" data-name="Trazado 228181" d="M227.95,60.355v1.974a8.56,8.56,0,1,1-17.12,0V60.355Z" transform="translate(-124.205 -39.173)" fill="#fc5d3d"/>
        <path id="Trazado_228182" data-name="Trazado 228182" d="M108,227.393v5.059a1.24,1.24,0,0,1-1.24,1.24H13.86a1.24,1.24,0,0,1-1.24-1.24v-5.059a1.24,1.24,0,0,1,1.24-1.24h92.9A1.24,1.24,0,0,1,108,227.393Z" transform="translate(-7.92 -136.442)" fill="#afafaf"/>
        <path id="Trazado_228183" data-name="Trazado 228183" d="M28.641,11.607,20.87,31.756H3.75L15.41,11.607Z" transform="translate(-2.717 -10.574)" fill="#efefef"/>
        <path id="Trazado_228184" data-name="Trazado 228184" d="M216.921,31.756H199.8L192.03,11.607h13.231Z" transform="translate(-113.175 -10.574)" fill="#fc5d3d"/>
        <path id="Trazado_228185" data-name="Trazado 228185" d="M217.053,33.057H205.506a1.033,1.033,0,1,1,0-2.067h9.755l-5.979-10.332a1.033,1.033,0,0,1,1.789-1.035l6.877,11.883A1.034,1.034,0,0,1,217.053,33.057Z" transform="translate(-120.475 -14.974)" fill="#ffcbc3"/>
        <path id="Trazado_228186" data-name="Trazado 228186" d="M66.175,11.607,62.286,31.756H45.17l7.771-20.149Z" transform="translate(-27.017 -10.574)" fill="#fc5d3d"/>
        <path id="Trazado_228187" data-name="Trazado 228187" d="M181.015,31.756H163.9L160.01,11.607h13.235Z" transform="translate(-94.39 -10.574)" fill="#efefef"/>
        <path id="Trazado_228188" data-name="Trazado 228188" d="M182.462,49.924H166.226a1.033,1.033,0,1,1,0-2.067h16.236a1.033,1.033,0,1,1,0,2.067Z" transform="translate(-97.431 -31.841)" fill="#fff"/>
        <path id="Trazado_228189" data-name="Trazado 228189" d="M103.7,11.607V31.756H86.581L90.47,11.607Z" transform="translate(-51.311 -10.574)" fill="#efefef"/>
        <path id="Trazado_228190" data-name="Trazado 228190" d="M103.366,49.924H87.044a1.033,1.033,0,1,1,0-2.067h16.322a1.033,1.033,0,0,1,0,2.067Z" transform="translate(-50.977 -31.841)" fill="#fff"/>
        <path id="Trazado_228191" data-name="Trazado 228191" d="M30.606,49.924H25.272a1.033,1.033,0,1,1,0-2.067h5.334a1.033,1.033,0,0,1,0,2.067Zm-9.467,0h-2.48a1.033,1.033,0,1,1,0-2.067h2.48a1.033,1.033,0,0,1,0,2.067Z" transform="translate(-10.857 -31.841)" fill="#fff"/>
        <path id="Trazado_228192" data-name="Trazado 228192" d="M145.12,31.756H128V11.607h13.231Z" transform="translate(-75.611 -10.574)" fill="#fc5d3d"/>
        <path id="Trazado_228193" data-name="Trazado 228193" d="M142.939,49.924H126.533a1.033,1.033,0,0,1,0-2.067h16.406a1.033,1.033,0,0,1,0,2.067Z" transform="translate(-74.144 -31.841)" fill="#ffcbc3"/>
        <path id="Trazado_228194" data-name="Trazado 228194" d="M63.881,49.925H47.563a1.033,1.033,0,1,1,0-2.067H63.881a1.033,1.033,0,1,1,0,2.067Z" transform="translate(-27.815 -31.841)" fill="#ffcbc3"/>
        <path id="Trazado_228195" data-name="Trazado 228195" d="M30.777,104.148H78.092v36.7H30.777Z" transform="translate(-18.573 -64.865)" fill="#efefef"/>
        <path id="Trazado_228196" data-name="Trazado 228196" d="M82.295,130.3a4.03,4.03,0,0,1-4.03-4.03v-1.083a4.03,4.03,0,1,1,8.06,0v1.083A4.03,4.03,0,0,1,82.295,130.3Z" transform="translate(-46.433 -74.843)" fill="#feb69f"/>
        <path id="Trazado_228197" data-name="Trazado 228197" d="M81.435,148.653,77.587,152.5a2.068,2.068,0,0,1-2.922,0l-3.447-3.447v9.057H57.925V149.05l-3.447,3.443a2.061,2.061,0,0,1-2.922,0l-3.5-3.5,2.889-2.885,2.071,2.071,3.7-3.7a4.122,4.122,0,0,1,2.922-1.211h9.87a4.122,4.122,0,0,1,2.922,1.211l3.7,3.7,2.418-2.418Z" transform="translate(-28.709 -87.82)" fill="#fc5d3d"/>
        <path id="Trazado_228198" data-name="Trazado 228198" d="M47.215,179.156H80.942v5.7H47.215Z" transform="translate(-28.216 -108.87)" fill="#f0c020"/>
        <path id="Trazado_228199" data-name="Trazado 228199" d="M48.123,147.31l-2.889,2.885-1.389-1.389a2.041,2.041,0,1,1,2.885-2.889Z" transform="translate(-25.888 -89.019)" fill="#feb69f"/>
        <path id="Trazado_228200" data-name="Trazado 228200" d="M125.756,148.8l-1.042,1.046-2.889-2.889,1.046-1.046a2.041,2.041,0,0,1,2.885,2.889Z" transform="translate(-71.988 -89.017)" fill="#feb69f"/>
        <path id="Trazado_228201" data-name="Trazado 228201" d="M158.361,104.148h28.508v50.428H158.361Z" transform="translate(-93.423 -64.865)" fill="#f0c020"/>
        <circle id="Elipse_6688" data-name="Elipse 6688" cx="5.358" cy="5.358" r="5.358" transform="translate(73.834 47.53)" fill="#72c1e8"/>
        <path id="Trazado_228202" data-name="Trazado 228202" d="M188.824,156.787H176.581a1.033,1.033,0,1,1,0-2.067H187.79V114.264a1.033,1.033,0,1,1,2.067,0v41.489A1.033,1.033,0,0,1,188.824,156.787Zm-16.376,0h-2.676a1.033,1.033,0,1,1,0-2.067h2.676a1.033,1.033,0,1,1,0,2.067Z" transform="translate(-99.511 -70.194)" fill="#f9e5af"/>
        <path id="Trazado_228203" data-name="Trazado 228203" d="M76.625,215.624H29.31a1.033,1.033,0,1,1,0-2.067H76.625a1.033,1.033,0,1,1,0,2.067Z" transform="translate(-17.106 -129.052)" fill="#c5e5fe"/>
        <circle id="Elipse_6689" data-name="Elipse 6689" cx="1.033" cy="1.033" r="1.033" transform="translate(22.936 88.676)"/>
        <path id="Trazado_228204" data-name="Trazado 228204" d="M105.89,29.773,94.23,9.623a1.033,1.033,0,0,0-.894-.516H13.943a1.022,1.022,0,0,0-.893.517l-3.315,5.72a1.029,1.029,0,0,0,.38,1.409,1.056,1.056,0,0,0,1.409-.376,0,0,0,0,0,0,0l3.009-5.2H25.667L18.694,29.254H4.076l3.312-5.72a1.034,1.034,0,0,0-.38-1.409A1.057,1.057,0,0,0,5.6,22.5L1.426,29.713a1.126,1.126,0,0,0-.176.575v1.976a9.587,9.587,0,0,0,5.931,8.869V97.784a2.277,2.277,0,0,0-2.265,2.273v5.059a2.277,2.277,0,0,0,2.273,2.273h92.9a2.277,2.277,0,0,0,2.273-2.273v-5.059a2.277,2.277,0,0,0-2.265-2.273V41.132a9.587,9.587,0,0,0,5.931-8.869V30.289A1.13,1.13,0,0,0,105.89,29.773Zm-13.15-18.6L103.2,29.254H88.583l-6.972-18.08Zm-13.346,0,6.974,18.079H71.612L68.123,11.175Zm7.448,20.15v.938a7.525,7.525,0,1,1-15.049,0v-.938ZM54.673,11.174H66.017l3.49,18.08H54.673Zm0,20.15H69.726v.939a7.527,7.527,0,0,1-15.053,0ZM41.262,11.175H52.606V29.254H37.772l.527-2.731Zm11.344,20.15v.938a7.527,7.527,0,0,1-15.053,0v-.938ZM27.883,11.174H39.155l-3.489,18.08H20.91Zm-7.446,20.15H35.486v.939a7.525,7.525,0,1,1-15.049,0Zm-17.12.939v-.938H18.37v.938a7.527,7.527,0,1,1-15.053,0ZM100.3,100.057v5.059a.207.207,0,0,1-.207.207H7.19a.2.2,0,0,1-.207-.207v-5.059a.207.207,0,0,1,.207-.207h13.9a1.033,1.033,0,1,0,0-2.067H9.248V41.724A9.6,9.6,0,0,0,19.4,36.587a9.585,9.585,0,0,0,17.117,0,9.593,9.593,0,0,0,17.12,0,9.59,9.59,0,0,0,17.118,0,9.59,9.59,0,0,0,17.118,0,9.6,9.6,0,0,0,10.155,5.136V97.783h-2.3V48.391a1.03,1.03,0,0,0-1.033-1.033H66.187a1.034,1.034,0,0,0-1.033,1.033v8.622a1.033,1.033,0,1,0,2.067,0V49.424H93.662V97.738H67.221V65.279a1.033,1.033,0,1,0-2.067,0v32.5h-35.8a1.033,1.033,0,1,0,0,2.067h70.737a.21.21,0,0,1,.207.207Zm3.666-67.794a7.527,7.527,0,1,1-15.053,0v-.939h15.053Z" transform="translate(-1.25 -9.107)"/>
        <path id="Trazado_228205" data-name="Trazado 228205" d="M16.578,32.131a1.032,1.032,0,1,0,1.409-.376A1.059,1.059,0,0,0,16.578,32.131Z" transform="translate(-10.159 -22.317)"/>
        <path id="Trazado_228206" data-name="Trazado 228206" d="M77.658,139.382v-36.7a1.033,1.033,0,0,0-1.033-1.033H29.31a1.033,1.033,0,0,0-1.033,1.033v36.7a1.033,1.033,0,0,0,1.033,1.033H76.625A1.033,1.033,0,0,0,77.658,139.382ZM68.8,138.348H37.136v-3.629H68.8ZM57.9,119.889a3.1,3.1,0,0,1,2.191.905l3.7,3.7a1.051,1.051,0,0,0,1.459,0L66.94,122.8l1.431,1.43-3.116,3.112a1.038,1.038,0,0,1-1.463,0L60.344,123.9a1.036,1.036,0,0,0-1.765.732v8.023H47.353V124.63a1.032,1.032,0,0,0-1.761-.732l-3.447,3.443a1.024,1.024,0,0,1-1.459,0l-2.773-2.765,1.426-1.426,1.343,1.339a1.05,1.05,0,0,0,1.459,0l3.7-3.7a3.118,3.118,0,0,1,2.191-.905Zm-7.932-5.063v-1.083a3,3,0,1,1,5.993,0v1.083a3,3,0,1,1-5.993,0Zm25.622,23.523H70.863v-4.663a1.03,1.03,0,0,0-1.033-1.033H60.646v-5.53l1.686,1.682a3.1,3.1,0,0,0,4.381,0l4.894-4.894a0,0,0,0,1,0,0,3.075,3.075,0,0,0-4.357-4.34c-1.3,1.3-.7.705-2.732,2.728l-2.968-2.964a5.185,5.185,0,0,0-3.654-1.513h-.863a5.031,5.031,0,0,0,.991-3v-1.083a5.061,5.061,0,1,0-10.122,0v1.083a5.03,5.03,0,0,0,.991,3h-.868a5.186,5.186,0,0,0-3.654,1.513L41.413,122.3c-1.651-1.646-1.027-1.023-2.736-2.732a3.073,3.073,0,1,0-4.344,4.348c1.771,1.771.735.736,4.89,4.886a3.089,3.089,0,0,0,4.381,0l1.682-1.678v5.53H36.1a1.036,1.036,0,0,0-1.033,1.033v4.663H30.344V103.715H75.592ZM68.4,121.34l.315-.314a1.008,1.008,0,1,1,1.421,1.43l-.31.314L68.4,121.34Zm-30.524.351-1.426,1.422-.661-.657a1.008,1.008,0,1,1,1.426-1.426Z" transform="translate(-17.106 -63.398)"/>
        <path id="Trazado_228207" data-name="Trazado 228207" d="M56.305,129.077l2.53.517a1.034,1.034,0,1,0,.413-2.025l-2.53-.517a1.049,1.049,0,0,0-1.219.806A1.033,1.033,0,0,0,56.305,129.077Z" transform="translate(-33.064 -78.29)"/>
        <path id="Trazado_228208" data-name="Trazado 228208" d="M66.069,115.543a1.032,1.032,0,1,0,1.459-1.459l-1.86-1.86a1.055,1.055,0,0,0-1.459,0,1.029,1.029,0,0,0,0,1.459Z" transform="translate(-38.008 -69.431)"/>
        <path id="Trazado_228209" data-name="Trazado 228209" d="M104.387,115.545l1.86-1.864a1.035,1.035,0,0,0,0-1.459,1.051,1.051,0,0,0-1.459,0l-1.864,1.86a1.035,1.035,0,0,0,1.463,1.463Z" transform="translate(-60.723 -69.429)"/>
        <path id="Trazado_228210" data-name="Trazado 228210" d="M109.441,128.788a1.038,1.038,0,0,0,1.219.806l2.534-.517a1.031,1.031,0,0,0,.806-1.219,1.05,1.05,0,0,0-1.219-.806l-2.534.517A1.038,1.038,0,0,0,109.441,128.788Z" transform="translate(-64.711 -78.29)"/>
        <path id="Trazado_228211" data-name="Trazado 228211" d="M178.133,173.1h10.953a1.033,1.033,0,1,0,0-2.067H178.133a1.033,1.033,0,0,0,0,2.067Z" transform="translate(-104.416 -104.103)"/>
        <path id="Trazado_228212" data-name="Trazado 228212" d="M183.774,134.384a6.392,6.392,0,1,0-6.394-6.394A6.4,6.4,0,0,0,183.774,134.384Zm0-10.718a4.325,4.325,0,1,1-4.328,4.323A4.338,4.338,0,0,1,183.774,123.667Z" transform="translate(-104.581 -75.104)"/>
        <circle id="Elipse_6690" data-name="Elipse 6690" cx="1.033" cy="1.033" r="1.033" transform="translate(63.904 51.006)"/>
      </g>
    </g>
  </g>
</svg>
