<svg xmlns="http://www.w3.org/2000/svg" width="99.517" height="99.531" viewBox="0 0 99.517 99.531">
  <g id="cajero" transform="translate(-1 -0.992)">
    <circle id="Elipse_6691" data-name="Elipse 6691" cx="4.815" cy="4.815" r="4.815" transform="translate(47.548 2.61)" fill="#694d43"/>
    <path id="Trazado_228213" data-name="Trazado 228213" d="M51,20h6.42v6.42H51Z" transform="translate(30.256 11.502)" fill="#b3bec4"/>
    <path id="Trazado_228214" data-name="Trazado 228214" d="M4,30,7.21,42.841H23.261L26.472,30Z" transform="translate(1.815 17.553)" fill="#4596ec"/>
    <path id="Trazado_228215" data-name="Trazado 228215" d="M4,30,6.809,41.236H16.841a4.815,4.815,0,0,0,4.815-4.815V30Z" transform="translate(1.815 17.553)" fill="#6aabf0"/>
    <path id="Trazado_228216" data-name="Trazado 228216" d="M4,42H93.887V74.1H4Z" transform="translate(1.815 24.815)" fill="#7d909b"/>
    <rect id="Rectángulo_44991" data-name="Rectángulo 44991" width="51.364" height="25.682" rx="3" transform="translate(25.077 70.025)" fill="#94a4ad"/>
    <path id="Trazado_228217" data-name="Trazado 228217" d="M2,41.631v6.42H98.307V32H34.1v9.631Z" transform="translate(0.605 18.764)" fill="#667d8a"/>
    <path id="Trazado_228218" data-name="Trazado 228218" d="M34.1,32v9.631H2v3.21H85.466a4.815,4.815,0,0,0,4.815-4.815V32Z" transform="translate(0.605 18.764)" fill="#7d909b"/>
    <path id="Trazado_228219" data-name="Trazado 228219" d="M48,14H64.051v9.631H48Z" transform="translate(28.441 7.872)" fill="#3477cc"/>
    <path id="Trazado_228220" data-name="Trazado 228220" d="M46,24H68.472V36.841H46Z" transform="translate(27.23 13.923)" fill="#3477cc"/>
    <path id="Trazado_228221" data-name="Trazado 228221" d="M42.051,12.42a6.42,6.42,0,0,0,6.42,6.42V17.236a11.236,11.236,0,1,0-22.472,0v1.605h9.631A6.42,6.42,0,0,0,42.051,12.42Z" transform="translate(15.128 3.031)" fill="#594139"/>
    <g id="Grupo_161384" data-name="Grupo 161384" transform="translate(37.918 15.451)">
      <path id="Trazado_228222" data-name="Trazado 228222" d="M40.841,10a6.42,6.42,0,0,1-6.42,6.42H28v4.815a8.026,8.026,0,0,0,16.051,0V15.53A6.392,6.392,0,0,1,40.841,10Z" transform="translate(-21.58 -10)" fill="#fcd4a5"/>
      <path id="Trazado_228223" data-name="Trazado 228223" d="M30.42,18.815V14H27.21a3.21,3.21,0,1,0,0,6.42h3.371A8.006,8.006,0,0,1,30.42,18.815Z" transform="translate(-24 -7.58)" fill="#fcd4a5"/>
      <path id="Trazado_228224" data-name="Trazado 228224" d="M41.271,14h-3.21v4.815A8.006,8.006,0,0,1,37.9,20.42h3.371a3.21,3.21,0,0,0,0-6.42Z" transform="translate(-15.589 -7.58)" fill="#fcd4a5"/>
    </g>
    <path id="Trazado_228225" data-name="Trazado 228225" d="M43.261,22H33.631A9.631,9.631,0,0,0,24,31.631v6.42H52.892v-6.42A9.631,9.631,0,0,0,43.261,22Z" transform="translate(13.918 12.713)" fill="#f7c244"/>
    <path id="Trazado_228226" data-name="Trazado 228226" d="M32.694,28.42l3.21-3.21,3.21,3.21,4.494-5.981A9.6,9.6,0,0,0,40.72,22H31.089a9.6,9.6,0,0,0-2.889.44Z" transform="translate(16.459 12.713)" fill="#f3a33a"/>
    <path id="Trazado_228227" data-name="Trazado 228227" d="M46,24v9.631H63.656a1.605,1.605,0,0,0,1.605-1.605V24Z" transform="translate(27.23 13.923)" fill="#4596ec"/>
    <path id="Trazado_228228" data-name="Trazado 228228" d="M48,14v6.42h9.631a3.21,3.21,0,0,0,3.21-3.21V14Z" transform="translate(28.441 7.872)" fill="#4596ec"/>
    <path id="Trazado_228229" data-name="Trazado 228229" d="M42.446,14.2A6.315,6.315,0,0,1,40.841,10a6.42,6.42,0,0,1-6.42,6.42H28v4.815a7.992,7.992,0,0,0,.677,3.21h8.953a4.815,4.815,0,0,0,4.815-4.815Z" transform="translate(16.338 5.451)" fill="#fdddb7"/>
    <path id="Trazado_228230" data-name="Trazado 228230" d="M98.912,49.159H97.307V37.923A1.605,1.605,0,0,0,95.7,36.318h-6.42v-3.21h3.21A1.605,1.605,0,0,0,94.1,31.5V21.872a1.605,1.605,0,0,0-1.605-1.605H76.441a1.605,1.605,0,0,0-1.605,1.605V31.5a1.605,1.605,0,0,0,1.605,1.605h3.21v3.21H73.23a1.605,1.605,0,0,0-1.605,1.605V49.159h-3.21V44.343A11.252,11.252,0,0,0,59.33,33.319a9.631,9.631,0,0,0,2.1-3.422H63.6A4.8,4.8,0,0,0,65.2,20.562v-.3A12.84,12.84,0,0,0,58.578,9.032a6.42,6.42,0,1,0-12.426,0,12.841,12.841,0,0,0-6.629,11.236v.3A4.8,4.8,0,0,0,41.128,29.9h2.167a9.631,9.631,0,0,0,2.1,3.422,11.252,11.252,0,0,0-9.085,11.024v4.815H34.708A1.605,1.605,0,0,0,33.1,50.764v8.026H27.131l2.713-10.847a1.605,1.605,0,0,0-1.557-1.994H24.464l2.058-4.1-2.873-1.435-2.774,5.533H13.228L10.47,40.416,7.6,41.851l2.042,4.1H5.815a1.605,1.605,0,0,0-1.557,1.994L6.971,58.789H2.605A1.605,1.605,0,0,0,1,60.394v6.42A1.605,1.605,0,0,0,2.605,68.42H4.21v30.5a1.605,1.605,0,0,0,1.605,1.605H95.7a1.605,1.605,0,0,0,1.605-1.605V68.42h1.605a1.605,1.605,0,0,0,1.605-1.605V50.764A1.605,1.605,0,0,0,98.912,49.159ZM78.046,23.477H90.887V29.9H78.046Zm4.815,9.631h3.21v3.21h-3.21Zm-8.026,6.42H94.1v9.631H74.835Zm-27.287-3.21h9.631L55.4,38.69l-1.9-1.9a1.605,1.605,0,0,0-2.27,0l-1.9,1.9Zm-1.605-9.631v-3.21h4.815a8.026,8.026,0,0,0,6.42-3.21,8.1,8.1,0,0,0,1.605,1.589v4.831a6.42,6.42,0,1,1-12.841,0Zm17.656,0H61.995v-3.21H63.6a1.605,1.605,0,0,1,0,3.21ZM49.154,7.426a3.21,3.21,0,1,1,6.42,0,3.21,3.21,0,0,1-.053.409,12.382,12.382,0,0,0-6.315,0,3.171,3.171,0,0,1-.053-.409Zm3.21,3.21a9.644,9.644,0,0,1,9.631,9.355,4.825,4.825,0,0,1-3.21-4.539,1.605,1.605,0,1,0-3.21,0,4.815,4.815,0,0,1-4.815,4.815H42.733A9.64,9.64,0,0,1,52.364,10.636ZM41.128,26.687a1.605,1.605,0,0,1,0-3.21h1.605v3.21ZM39.523,44.343a8.014,8.014,0,0,1,4.608-7.233L47.869,42.1a1.605,1.605,0,0,0,1.17.642,1.563,1.563,0,0,0,1.249-.465l2.075-2.08,2.075,2.075a1.605,1.605,0,0,0,1.135.47h.114a1.605,1.605,0,0,0,1.17-.642L60.6,37.111A8.014,8.014,0,0,1,65.2,44.343v4.815h-3.21v-6.42h-3.21v6.42H45.943v-6.42h-3.21v6.42h-3.21ZM21.867,58.789v-3.21h2.759l-.8,3.21Zm-3.21-3.21v3.21h-3.21v-3.21Zm-3.21-3.21v-3.21h3.21v3.21Zm9.982,0H21.867v-3.21h4.364Zm-13.192-3.21v3.21H8.674l-.8-3.21Zm-2.759,6.42h2.759v3.21H10.278ZM94.1,97.312H7.42V68.42H94.1Zm3.21-32.1H4.21V62h30.5a1.605,1.605,0,0,0,1.605-1.605V52.369H97.307Z" transform="translate(0 0)"/>
    <path id="Trazado_228231" data-name="Trazado 228231" d="M33.815,60.446a1.605,1.605,0,0,1-1.605-1.605H29a4.815,4.815,0,0,0,3.21,4.52v1.9h3.21v-1.9a4.8,4.8,0,0,0-1.605-9.335A1.605,1.605,0,1,1,35.42,52.42h3.21a4.815,4.815,0,0,0-3.21-4.52V46H32.21v1.9a4.8,4.8,0,0,0,1.605,9.335,1.605,1.605,0,1,1,0,3.21Z" transform="translate(16.943 27.235)"/>
    <path id="Trazado_228232" data-name="Trazado 228232" d="M37,49h6.42v3.21H37Z" transform="translate(21.784 29.051)"/>
    <path id="Trazado_228233" data-name="Trazado 228233" d="M37,53h6.42v3.21H37Z" transform="translate(21.784 31.471)"/>
    <path id="Trazado_228234" data-name="Trazado 228234" d="M23,49h6.42v3.21H23Z" transform="translate(13.313 29.051)"/>
    <path id="Trazado_228235" data-name="Trazado 228235" d="M23,53h6.42v3.21H23Z" transform="translate(13.313 31.471)"/>
  </g>
</svg>
