<svg xmlns="http://www.w3.org/2000/svg" width="169" height="105.497" viewBox="0 0 169 105.497">
  <g id="Grupo_161652" data-name="Grupo 161652" transform="translate(-180 -416.5)">
    <path id="Trazado_113613" data-name="Trazado 113613" d="M-22,0H107a40,40,0,0,1,0,80H-22Z" transform="translate(202 435)" fill="rgba(121,210,220,0.2)"/>
    <g id="descuento" transform="translate(206.003 414.498)">
      <g id="Color" transform="translate(3.758 6.172)">
        <path id="Trazado_229385" data-name="Trazado 229385" d="M48.717,9l8.677,9.817L66.3,10.758l6.123,20.253-3.455.848L81.1,46.04l13.334,8.677L81.1,63.395,88.31,77.576l-15.887.848L71.576,94.31,57.395,87.1l-8.677,13.334L40.04,87.1,25.859,94.31l-.848-15.887L9.124,77.576l7.209-14.181L3,54.717,16.334,46.04,9.124,31.859l15.887-.848.848-15.887L40.04,22.334Z" transform="translate(-3 -0.865)" fill="#fed935"/>
        <path id="Trazado_229386" data-name="Trazado 229386" d="M38.483,80.035,26.3,86.228l-.728-13.645-13.645-.728,6.191-12.184L6.667,52.219l11.452-7.452L11.928,32.584l13.645-.728L26.3,18.211,38.483,24.4l7.879-12.11,7.972,9.02L61.762,14.6,65.2,25.981l-5.4,1.326L75.978,46.214l9.228,6L73.752,59.671l6.193,12.184L66.3,72.583l-.728,13.645L53.388,80.035,45.936,91.489Z" transform="translate(-0.219 1.633)" fill="#f57c22"/>
        <path id="Trazado_229387" data-name="Trazado 229387" d="M43.409,16,55.024,27.5l5.089-7.025.619,11.609,6.334.619L63.558,44.827l11.5,4.582-7.985,6.341,5.266,10.364-11.609.619-.619,11.609L49.749,73.075l-6.341,9.743-6.341-9.743L26.7,78.341l-.619-11.609-11.609-.619,5.266-10.364L10,49.409l9.743-6.341L14.477,32.7l11.609-.619L26.7,20.477l10.364,5.266Z" transform="translate(2.308 4.444)" fill="#26c7db"/>
        <path id="Trazado_229388" data-name="Trazado 229388" d="M53.605,32.973l4.934.482-3.1,10.7,8.493,3.383-5.275,4.19,3.965,7.8L53.612,60l-.482,9.013-8.044-4.088-4.923,7.563-4.923-7.563-8.044,4.088L26.713,60l-9.012-.48,4.088-8.046-7.564-4.923,7.564-4.922L17.7,33.586l9.012-.482.482-9.012,8.044,4.088,5.493-8.44Z" transform="translate(5.513 7.281)" fill="#fed935"/>
        <path id="Trazado_229389" data-name="Trazado 229389" d="M53.972,38.064a4.1,4.1,0,0,1-5.178-.9l-10.5-12.382,6.093-3.517L54.809,31.6a4.1,4.1,0,0,1-.837,6.465Z" transform="translate(23.763 8.437)" fill="#b8bebf"/>
        <path id="Trazado_229390" data-name="Trazado 229390" d="M53.975,38.071a4.118,4.118,0,0,1-5.187-.9l-10.5-12.4,6.1-3.517,4.167,4.132-.475.158a3.517,3.517,0,0,0-1.442,5.574l1.987,2.339a4.3,4.3,0,0,0,5.31,1.108,4.023,4.023,0,0,0,1.688-1.829A4.108,4.108,0,0,1,53.975,38.071Z" transform="translate(23.762 8.433)" fill="#93999a"/>
        <path id="Trazado_229391" data-name="Trazado 229391" d="M7.033,0H10.55V14.067H7.033A7.033,7.033,0,1,1,7.033,0Z" transform="matrix(0.866, -0.5, 0.5, 0.866, 50.686, 27.6)" fill="#ff7373"/>
        <path id="Trazado_229392" data-name="Trazado 229392" d="M37.024,23.871l7.033,12.182A30.068,30.068,0,0,1,63.623,32.36l.7.107L50.259,8.1,50,8.763A30.068,30.068,0,0,1,37.024,23.871Z" transform="translate(22.802 -1.546)" fill="#d0d8da"/>
        <rect id="Rect치ngulo_45052" data-name="Rect치ngulo 45052" width="7.033" height="35.167" rx="2" transform="matrix(0.866, -0.5, 0.5, 0.866, 71.3, 3.517)" fill="#ff7373"/>
        <path id="Trazado_229393" data-name="Trazado 229393" d="M60.579,31.032,46.512,6.666a3.483,3.483,0,0,1-.44-1.3l-.032.014a3.517,3.517,0,0,0-1.287,4.8L58.82,34.548a3.517,3.517,0,0,0,6.531-2.216A3.517,3.517,0,0,1,60.579,31.032Z" transform="translate(28.306 -3.621)" fill="#ef5350"/>
        <path id="Trazado_229394" data-name="Trazado 229394" d="M46.882,26.647,43.84,28.405a7.033,7.033,0,0,1-9.6-2.585,6.914,6.914,0,0,1-.95-3.517,7.714,7.714,0,0,1,.229-1.794,5.837,5.837,0,0,0,.4,1.178,7.033,7.033,0,0,0,9.917,3.2l1.512-.879Z" transform="translate(19.971 7.864)" fill="#ef5350"/>
        <path id="Trazado_229395" data-name="Trazado 229395" d="M61.954,32.473l-.7-.106A30.272,30.272,0,0,0,41.68,36.058L40.15,33.42l1.53-.879a29.8,29.8,0,0,1,5.468-2.462A7.065,7.065,0,0,0,51.14,19.846l-4.765-8.282c.457-.9.879-1.846,1.248-2.8l.264-.668Z" transform="translate(25.173 -1.547)" fill="#b8bebf"/>
        <g id="Grupo_161651" data-name="Grupo 161651" transform="translate(32.044 40.165)">
          <rect id="Rect치ngulo_45053" data-name="Rect치ngulo 45053" width="7.033" height="31.65" rx="2" transform="translate(22.377 0) rotate(45)" fill="#ff7373"/>
          <circle id="Elipse_6740" data-name="Elipse 6740" cx="3.517" cy="3.517" r="3.517" transform="translate(20.103 20.117)" fill="#ff7373"/>
          <circle id="Elipse_6741" data-name="Elipse 6741" cx="3.517" cy="3.517" r="3.517" transform="translate(0.209 0.223)" fill="#ff7373"/>
        </g>
        <path id="Trazado_229396" data-name="Trazado 229396" d="M45.016,28.636a3.517,3.517,0,0,1,0,4.973L27.609,51.016a3.517,3.517,0,0,1-4.973,0Z" transform="translate(11.891 14.026)" fill="#ef5350"/>
        <path id="Trazado_229397" data-name="Trazado 229397" d="M38.66,44.216a3.516,3.516,0,1,1-4.973-4.973Z" transform="translate(19.491 22.07)" fill="#ef5350"/>
        <path id="Trazado_229398" data-name="Trazado 229398" d="M27.346,32.9a3.516,3.516,0,1,1-4.973-4.973Z" transform="translate(10.911 13.49)" fill="#ef5350"/>
      </g>
      <g id="Outline_copy" data-name="Outline copy" transform="translate(2.001 2.002)">
        <path id="Trazado_229399" data-name="Trazado 229399" d="M77.445,67.563l-4.359.229a1.758,1.758,0,0,0-1.665,1.665l-.7,13.188L58.937,76.666a1.758,1.758,0,0,0-2.27.61L49.475,88.338l-7.2-11.062a1.758,1.758,0,0,0-2.27-.61L28.229,82.645l-.7-13.188a1.758,1.758,0,0,0-1.663-1.665l-13.2-.7,5.978-11.781a1.758,1.758,0,0,0-.61-2.27L6.983,45.846l11.062-7.2a1.758,1.758,0,0,0,.61-2.27L12.676,24.6l7.306-.387a1.758,1.758,0,0,0,1.662-1.848A1.779,1.779,0,0,0,19.8,20.7l-10.012.529a1.758,1.758,0,0,0-1.475,2.553L14.8,36.564l-12,7.807a1.758,1.758,0,0,0,0,2.947l12,7.807L8.308,67.908a1.758,1.758,0,0,0,1.475,2.555l14.317.761.758,14.311a1.758,1.758,0,0,0,2.553,1.475l12.781-6.492,7.807,12a1.758,1.758,0,0,0,2.947,0l7.807-12,12.781,6.492a1.758,1.758,0,0,0,2.557-1.475l.761-14.313,2.78-.146a1.761,1.761,0,0,0-.186-3.517Z" transform="translate(-2.001 12.177)" fill="#323232"/>
        <path id="Trazado_229400" data-name="Trazado 229400" d="M89.2,24.2a1.758,1.758,0,1,0-3.046,1.758l3.988,6.907A1.758,1.758,0,1,1,87.1,34.628L73.03,10.263A1.758,1.758,0,1,1,76.076,8.5L82.638,19.87a1.758,1.758,0,1,0,3.046-1.758L79.123,6.746a5.275,5.275,0,0,0-9.671,1.275,5.221,5.221,0,0,0,.144,3.165A28.31,28.31,0,0,1,64.947,19l-1.521-5.036a1.758,1.758,0,0,0-2.861-.8l-7.6,6.858-7.484-8.477a1.758,1.758,0,0,0-2.792.206l-7.807,12L22.1,17.268a1.758,1.758,0,0,0-2.555,1.475l-.844,15.894a1.758,1.758,0,0,0,1.663,1.85h.095a1.758,1.758,0,0,0,1.758-1.667l.7-13.188,11.781,5.978a1.758,1.758,0,0,0,2.27-.61L44.385,15.61,51.524,23.7a1.758,1.758,0,0,0,1.217.591,1.725,1.725,0,0,0,1.278-.45l6.852-6.2,1.284,4.253a28.1,28.1,0,0,1-4.762,3.483l-3.044,1.758a8.783,8.783,0,0,0,8.037,15.6l2.47,2.912L62.629,53.36a1.758,1.758,0,0,0,1.039,2.122l8.681,3.46L66.742,63.4a1.758,1.758,0,0,0-.475,2.175l4.044,7.953L61.4,74a1.758,1.758,0,0,0-1.662,1.662l-.477,8.91-7.953-4.044a1.758,1.758,0,0,0-2.27.608l-4.874,7.482L39.3,81.139a1.758,1.758,0,0,0-2.27-.608l-7.953,4.044-.477-8.91A1.758,1.758,0,0,0,26.936,74l-8.911-.477,4.044-7.953a1.758,1.758,0,0,0-.608-2.27l-7.48-4.871,7.48-4.869a1.758,1.758,0,0,0,.608-2.27l-4.044-7.953,8.911-.477A1.758,1.758,0,0,0,28.6,41.2l.477-8.91,7.953,4.044a1.758,1.758,0,0,0,2.27-.608l5.164-7.935L46.22,29.54a1.759,1.759,0,1,0,2.476-2.5l-3.3-3.267a1.734,1.734,0,0,0-1.424-.5,1.758,1.758,0,0,0-1.287.788l-5.481,8.419-8.954-4.551A1.758,1.758,0,0,0,25.7,29.406l-.528,10.023-10.023.528a1.758,1.758,0,0,0-1.474,2.553l4.552,8.955L9.8,56.959a1.758,1.758,0,0,0,0,2.947l8.419,5.479-4.552,8.955a1.758,1.758,0,0,0,1.474,2.553l10.023.528.528,10.031a1.758,1.758,0,0,0,2.553,1.474L37.2,84.376l5.481,8.419a1.758,1.758,0,0,0,2.947,0l5.481-8.419,8.954,4.551a1.758,1.758,0,0,0,2.553-1.474l.528-10.031,10.031-.528a1.758,1.758,0,0,0,1.473-2.553l-4.616-9.082,6.858-5.451a1.758,1.758,0,0,0-.443-3.01L66.42,52.806l1.139-3.935,2.1,2.449a5.862,5.862,0,0,0,7.4,1.287c.111-.065.2-.156.3-.227l9.293,6.052L75.6,65.63a1.758,1.758,0,0,0-.61,2.27l5.989,11.781-1.809.1a1.759,1.759,0,0,0,.095,3.517.924.924,0,0,0,.1,0l4.5-.248A1.758,1.758,0,0,0,85.332,80.5L78.84,67.717l12-7.807a1.758,1.758,0,0,0,0-2.947L79.6,49.641a5.917,5.917,0,0,0,.352-1.352,5.818,5.818,0,0,0-1.685-4.913l-5.544-5.495a28.422,28.422,0,0,1,11.886-.74h.026A5.252,5.252,0,0,0,93.19,31.11ZM54.175,37.392a5.275,5.275,0,0,1,1.934-7.209L57.63,29.3l5.275,9.143-1.521.879a5.275,5.275,0,0,1-7.209-1.932Zm21.607,8.475a2.343,2.343,0,1,1-3.436,3.179L65.518,41l.666-.385a28.142,28.142,0,0,1,2.866-1.407Zm-9.794-9.115-5.351-9.267a31.946,31.946,0,0,0,11.09-12.442l10.58,18.324a31.928,31.928,0,0,0-16.319,3.385Z" transform="translate(3.308 -0.41)" fill="#323232"/>
        <path id="Trazado_229401" data-name="Trazado 229401" d="M52.573,10.263a1.711,1.711,0,0,0,.457.06,1.758,1.758,0,0,0,1.7-1.3l1.289-4.8a1.759,1.759,0,0,0-3.4-.911l-1.291,4.8a1.758,1.758,0,0,0,1.247,2.156Z" transform="translate(35.36 -2.002)" fill="#323232"/>
        <path id="Trazado_229402" data-name="Trazado 229402" d="M55.895,13.012a1.748,1.748,0,0,0,1.315-.593L60.9,8.259a1.76,1.76,0,0,0-2.638-2.332l-3.693,4.16a1.758,1.758,0,0,0,1.322,2.924Z" transform="translate(37.532 0.525)" fill="#323232"/>
        <path id="Trazado_229403" data-name="Trazado 229403" d="M56.169,13.754a1.758,1.758,0,0,0,1.721,1.407,1.867,1.867,0,0,0,.352-.035l5.451-1.115a1.758,1.758,0,1,0-.7-3.445l-5.451,1.115A1.758,1.758,0,0,0,56.169,13.754Z" transform="translate(39.052 4.46)" fill="#323232"/>
        <path id="Trazado_229404" data-name="Trazado 229404" d="M64.286,16.473l-4.806-1.289a1.758,1.758,0,1,0-.909,3.4l4.8,1.287a1.711,1.711,0,0,0,.457.06,1.758,1.758,0,0,0,.454-3.455Z" transform="translate(39.911 7.95)" fill="#323232"/>
        <path id="Trazado_229405" data-name="Trazado 229405" d="M40,28.6,29.39,39.209A1.758,1.758,0,1,0,31.876,41.7L42.488,31.082a1.759,1.759,0,1,1,2.488,2.488L27.568,50.978a1.759,1.759,0,0,1-2.486-2.488l1.82-1.82a1.758,1.758,0,1,0-2.487-2.487L22.6,46a5.275,5.275,0,1,0,7.459,7.461L47.462,36.056A5.276,5.276,0,0,0,40,28.6Z" transform="translate(12.446 16.994)" fill="#323232"/>
        <path id="Trazado_229406" data-name="Trazado 229406" d="M33.2,39.2a5.275,5.275,0,1,0,7.461,0A5.275,5.275,0,0,0,33.2,39.2Zm4.974,2.486a1.758,1.758,0,1,1-1.243-.513A1.758,1.758,0,0,1,38.176,41.686Z" transform="translate(20.489 25.039)" fill="#323232"/>
        <path id="Trazado_229407" data-name="Trazado 229407" d="M29.347,35.351a5.275,5.275,0,1,0-3.729,1.542,5.275,5.275,0,0,0,3.729-1.542Zm-4.973-4.976a1.759,1.759,0,1,1,0,2.487A1.759,1.759,0,0,1,24.374,30.375Z" transform="translate(11.91 16.458)" fill="#323232"/>
      </g>
    </g>
  </g>
</svg>
